<svg width="346" height="319" viewBox="0 0 346 319" fill="none" xmlns="http://www.w3.org/2000/svg">
<g filter="url(#filter0_d_407_2)">
<path d="M83.125 172.5C83.125 176.375 82.625 179.792 81.625 182.75C80.6667 185.708 79.2917 188.271 77.5 190.438C75.75 192.604 73.6667 194.417 71.25 195.875C68.8333 197.333 66.1875 198.5 63.3125 199.375C60.4792 200.25 57.4583 200.875 54.25 201.25C51.0833 201.625 47.8542 201.812 44.5625 201.812C40.2292 201.812 36.2292 201.479 32.5625 200.812C28.8958 200.188 25.4375 199.188 22.1875 197.812C18.9792 196.396 15.875 194.583 12.875 192.375C9.91667 190.167 6.95833 187.479 4 184.312L16.75 171.375C17.9167 174.25 19.5208 176.917 21.5625 179.375C23.6042 181.792 25.8333 183.875 28.25 185.625C30.7083 187.375 33.25 188.75 35.875 189.75C38.5 190.75 40.9792 191.25 43.3125 191.25C46.0625 191.25 48.6458 191.062 51.0625 190.688C53.4792 190.271 55.5833 189.604 57.375 188.688C59.1667 187.771 60.5625 186.562 61.5625 185.062C62.6042 183.521 63.125 181.604 63.125 179.312C63.125 177.562 62.7292 176.062 61.9375 174.812C61.1458 173.562 60.1042 172.5 58.8125 171.625C57.5625 170.708 56.125 169.938 54.5 169.312C52.875 168.688 51.2083 168.167 49.5 167.75C47.8333 167.292 46.1875 166.896 44.5625 166.562C42.9375 166.188 41.5 165.812 40.25 165.438C37.7917 164.729 35.2292 163.979 32.5625 163.188C29.8958 162.354 27.2708 161.417 24.6875 160.375C22.1042 159.333 19.6458 158.146 17.3125 156.812C15.0208 155.438 13 153.833 11.25 152C9.5 150.125 8.10417 147.979 7.0625 145.562C6.02083 143.104 5.5 140.292 5.5 137.125C5.5 133.333 5.95833 129.979 6.875 127.062C7.83333 124.104 9.16667 121.542 10.875 119.375C12.5833 117.208 14.6042 115.396 16.9375 113.938C19.2708 112.438 21.8333 111.25 24.625 110.375C27.4167 109.458 30.375 108.812 33.5 108.438C36.6667 108.021 39.8958 107.812 43.1875 107.812C47.6875 107.812 51.7708 108.229 55.4375 109.062C59.1458 109.896 62.5625 111.083 65.6875 112.625C68.8125 114.167 71.6667 116.021 74.25 118.188C76.875 120.312 79.3333 122.688 81.625 125.312L68.875 138.25C67.875 135.25 66.4792 132.542 64.6875 130.125C62.9375 127.708 60.9792 125.646 58.8125 123.938C56.6458 122.188 54.375 120.854 52 119.938C49.625 118.979 47.3333 118.5 45.125 118.5C42.25 118.5 39.6042 118.708 37.1875 119.125C34.7708 119.5 32.6875 120.146 30.9375 121.062C29.2292 121.938 27.8958 123.146 26.9375 124.688C25.9792 126.188 25.5 128.062 25.5 130.312C25.5 132.104 25.8542 133.625 26.5625 134.875C27.2708 136.125 28.2083 137.188 29.375 138.062C30.5833 138.938 31.9375 139.667 33.4375 140.25C34.9375 140.792 36.4792 141.271 38.0625 141.688C39.6875 142.104 41.2708 142.479 42.8125 142.812C44.3958 143.104 45.8333 143.438 47.125 143.812C49.625 144.521 52.25 145.271 55 146.062C57.75 146.854 60.4583 147.792 63.125 148.875C65.7917 149.917 68.3333 151.125 70.75 152.5C73.1667 153.875 75.2917 155.521 77.125 157.438C78.9583 159.312 80.4167 161.5 81.5 164C82.5833 166.458 83.125 169.292 83.125 172.5Z" fill="white"/>
<path d="M170.312 158.625C170.312 163.5 169.708 168.583 168.5 173.875C167.333 179.167 165.688 184.354 163.562 189.438C161.438 194.521 158.896 199.292 155.938 203.75C152.979 208.25 149.729 212.125 146.188 215.375L138.25 211.062C139.375 208.979 140.438 206.646 141.438 204.062C142.438 201.479 143.333 198.75 144.125 195.875C144.958 192.958 145.688 189.958 146.312 186.875C146.979 183.792 147.521 180.75 147.938 177.75C148.396 174.708 148.729 171.771 148.938 168.938C149.188 166.062 149.312 163.396 149.312 160.938C149.312 159.312 149.25 157.583 149.125 155.75C149 153.875 148.729 152.021 148.312 150.188C147.938 148.312 147.417 146.521 146.75 144.812C146.083 143.104 145.188 141.604 144.062 140.312C142.979 139.021 141.646 137.979 140.062 137.188C138.521 136.396 136.688 136 134.562 136C132.479 136 130.625 136.479 129 137.438C127.375 138.354 125.938 139.583 124.688 141.125C123.438 142.625 122.354 144.354 121.438 146.312C120.562 148.271 119.833 150.292 119.25 152.375C118.708 154.417 118.312 156.438 118.062 158.438C117.812 160.438 117.688 162.229 117.688 163.812V200H96.5V101.25H117.625V138.438C120.333 134.479 123.646 131.438 127.562 129.312C131.521 127.146 135.896 126.062 140.688 126.062C145.688 126.062 150.042 126.875 153.75 128.5C157.458 130.125 160.542 132.396 163 135.312C165.458 138.188 167.292 141.625 168.5 145.625C169.708 149.583 170.312 153.917 170.312 158.625Z" fill="white"/>
<path d="M201.625 165.75C204.208 166.333 206.792 166.792 209.375 167.125C211.958 167.458 214.562 167.625 217.188 167.625C219.938 167.625 222.479 167.375 224.812 166.875C227.188 166.333 229.229 165.458 230.938 164.25C232.688 163 234.062 161.354 235.062 159.312C236.062 157.271 236.562 154.729 236.562 151.688C236.562 149.229 236.229 146.979 235.562 144.938C234.896 142.896 233.896 141.146 232.562 139.688C231.271 138.229 229.667 137.104 227.75 136.312C225.833 135.479 223.604 135.062 221.062 135.062C218.688 135.062 216.542 135.5 214.625 136.375C212.75 137.25 211.083 138.438 209.625 139.938C208.208 141.396 206.979 143.104 205.938 145.062C204.938 147.021 204.104 149.062 203.438 151.188C202.771 153.312 202.292 155.458 202 157.625C201.708 159.792 201.562 161.833 201.562 163.75C201.562 164.083 201.562 164.417 201.562 164.75C201.562 165.083 201.583 165.417 201.625 165.75ZM253.688 151.5C253.688 154.458 253.208 157.104 252.25 159.438C251.292 161.729 249.979 163.75 248.312 165.5C246.688 167.25 244.792 168.729 242.625 169.938C240.458 171.146 238.146 172.146 235.688 172.938C233.229 173.688 230.688 174.229 228.062 174.562C225.479 174.896 222.958 175.062 220.5 175.062C217.375 175.062 214.292 174.854 211.25 174.438C208.208 173.979 205.208 173.271 202.25 172.312C202.708 175.062 203.438 177.688 204.438 180.188C205.438 182.646 206.771 184.812 208.438 186.688C210.104 188.521 212.146 189.979 214.562 191.062C217.021 192.146 219.917 192.688 223.25 192.688C225.458 192.688 227.562 192.354 229.562 191.688C231.562 191.021 233.396 190.083 235.062 188.875C236.729 187.667 238.188 186.229 239.438 184.562C240.729 182.896 241.771 181.042 242.562 179L251.688 182.375C250.312 185.667 248.417 188.521 246 190.938C243.625 193.312 240.917 195.292 237.875 196.875C234.875 198.417 231.667 199.562 228.25 200.312C224.875 201.062 221.521 201.438 218.188 201.438C212.688 201.438 207.604 200.521 202.938 198.688C198.271 196.812 194.25 194.208 190.875 190.875C187.5 187.542 184.854 183.562 182.938 178.938C181.021 174.312 180.062 169.25 180.062 163.75C180.062 158.25 181.021 153.188 182.938 148.562C184.854 143.938 187.5 139.958 190.875 136.625C194.25 133.292 198.271 130.708 202.938 128.875C207.604 127 212.688 126.062 218.188 126.062C220.854 126.062 223.583 126.25 226.375 126.625C229.167 127 231.875 127.604 234.5 128.438C237.125 129.229 239.604 130.271 241.938 131.562C244.271 132.854 246.292 134.458 248 136.375C249.75 138.25 251.125 140.438 252.125 142.938C253.167 145.438 253.688 148.292 253.688 151.5Z" fill="white"/>
<path d="M284.043 111.013C284.043 111.013 285.36 78.9118 278.293 70.7841C271.225 62.6564 269.706 64.7671 267.628 64.1371C265.13 64.1305 262.654 64.7186 260.333 65.8697C260.333 65.8697 271.023 68.8625 273.455 77.9037L284.043 111.013Z" fill="#FF2E77"/>
<path d="M284.043 111.013C284.043 111.013 285.36 78.9118 278.293 70.7841C271.225 62.6564 269.706 64.7671 267.628 64.1371C265.13 64.1305 262.654 64.7186 260.333 65.8697C260.333 65.8697 271.023 68.8625 273.455 77.9037L284.043 111.013Z" fill="#8C0000"/>
<path d="M295.315 120.781C297.474 125.138 298.284 130.322 297.595 135.367C291.845 204.673 277.659 241.531 254.405 286.58C254.405 286.58 249.82 301.134 255.545 297.858C255.545 297.858 292.224 249.659 301.774 138.675C301.774 138.675 302.205 126.074 308.817 120.718C308.817 120.75 296.404 117.064 295.315 120.781Z" fill="#455A64"/>
<path d="M293.416 51.601C294.982 51.4981 296.521 52.1361 297.724 53.3868C298.927 54.6374 299.704 56.4079 299.901 58.3425C301.269 65.7771 312.085 106.101 307.5 117.694C302.915 129.287 301.015 124.309 296.912 124.939C292.428 125.758 282.726 117.662 281.079 111.078C279.433 104.494 276.596 90.9793 277.457 83.2612C278.318 75.543 276.57 51.853 293.416 51.601Z" fill="#FF2E77"/>
<path d="M293.416 51.601C294.982 51.4981 296.521 52.1361 297.724 53.3868C298.927 54.6374 299.704 56.4079 299.901 58.3425C301.269 65.7771 312.085 106.101 307.5 117.694C302.915 129.287 301.015 124.309 296.912 124.939C292.428 125.758 282.726 117.662 281.079 111.078C279.433 104.494 276.596 90.9793 277.457 83.2612C278.318 75.543 276.57 51.853 293.416 51.601Z" fill="#8C0000"/>
<path d="M321.711 47.6629C321.711 47.6629 327.056 53.2704 327.258 59.6339C327.461 65.9975 330.172 94.2869 324.295 108.18C318.418 122.072 313.504 125.916 305.271 125.853C297.038 125.79 311.528 54.6565 311.528 54.6565C311.528 54.6565 318.747 43.6936 321.711 47.6629Z" fill="#FF2E77"/>
<path d="M321.711 47.6629C321.711 47.6629 327.056 53.2704 327.258 59.6339C327.461 65.9975 330.172 94.2869 324.295 108.18C318.418 122.072 313.504 125.916 305.271 125.853C297.038 125.79 311.528 54.6565 311.528 54.6565C311.528 54.6565 318.747 43.6936 321.711 47.6629Z" fill="#8C0000"/>
<path d="M313.093 47.6318C313.093 47.6318 321.174 48.1043 324.137 55.5705C327.878 65.5568 329.358 76.6227 328.418 87.5772C327.05 98.3826 325.201 124.845 306.557 121.695C292.473 119.3 289.383 95.6734 290.067 76.1417C290.548 61.808 297.666 59.6029 301.668 54.468C304.669 50.5162 308.737 48.0818 313.093 47.6318Z" fill="#FF2E77"/>
<path d="M303.397 125.506C303.397 125.506 287.868 128.278 281.054 116.528C274.24 104.777 276.52 96.4292 275.38 88.1755C274.703 83.1865 273.467 78.3404 271.707 73.7789C271.707 73.7789 275.963 76.3305 279.306 92.2078C282.65 108.085 293.416 124.057 303.397 125.506Z" fill="#FF2E77"/>
<path d="M255.723 295.716C255.723 295.716 262.461 260.15 291.187 226.599C318.57 194.467 335.795 193.49 340.709 190.308L341.292 189.867C345.269 186.307 323.104 224.52 303.878 246.194C284.651 267.868 268.946 288.156 255.723 295.716Z" fill="#455A64"/>
<path d="M320.115 211.099C295.949 230.378 278.648 254.73 263.753 281.948C263.069 283.208 262.36 285.792 263.044 284.563C278.671 256.999 297.741 232.719 319.533 212.642C320.495 211.729 321.129 210.311 320.115 211.099Z" fill="#37474F"/>
<path d="M88.1875 309H63.375V219H107.625C111.792 219 115.812 219.5 119.688 220.5C123.562 221.458 126.979 223 129.938 225.125C132.938 227.208 135.312 229.917 137.062 233.25C138.854 236.583 139.75 240.625 139.75 245.375C139.75 249.083 138.958 252.583 137.375 255.875C135.833 259.125 133.75 262.042 131.125 264.625C128.542 267.167 125.562 269.292 122.188 271C118.812 272.667 115.312 273.771 111.688 274.312C113.312 277.062 115 279.667 116.75 282.125C118.542 284.583 120.333 286.896 122.125 289.062C123.958 291.188 125.771 293.167 127.562 295C129.354 296.792 131.062 298.438 132.688 299.938C136.521 303.438 140.312 306.458 144.062 309H113.125C110.625 306.625 108.25 303.771 106 300.438C104.083 297.604 102.146 294.104 100.188 289.938C98.2708 285.729 96.7917 280.875 95.75 275.375H88.1875V309ZM114.562 245.375C114.562 239.333 113.083 234.896 110.125 232.062C107.208 229.229 102.812 227.812 96.9375 227.812H88.1875V266.875H96.9375C100.062 266.875 102.729 266.292 104.938 265.125C107.188 263.917 109.021 262.333 110.438 260.375C111.854 258.375 112.896 256.083 113.562 253.5C114.229 250.917 114.562 248.208 114.562 245.375Z" fill="white"/>
<path d="M175.938 219.375C175.938 220.958 175.625 222.458 175 223.875C174.417 225.292 173.604 226.521 172.562 227.562C171.521 228.604 170.292 229.438 168.875 230.062C167.458 230.646 165.958 230.938 164.375 230.938C162.792 230.938 161.292 230.646 159.875 230.062C158.5 229.438 157.292 228.604 156.25 227.562C155.208 226.521 154.375 225.292 153.75 223.875C153.167 222.458 152.875 220.958 152.875 219.375C152.875 217.792 153.167 216.312 153.75 214.938C154.375 213.521 155.208 212.292 156.25 211.25C157.292 210.208 158.5 209.396 159.875 208.812C161.292 208.188 162.792 207.875 164.375 207.875C165.958 207.875 167.458 208.188 168.875 208.812C170.292 209.396 171.521 210.208 172.562 211.25C173.604 212.292 174.417 213.521 175 214.938C175.625 216.312 175.938 217.792 175.938 219.375ZM175 309H153.812V236.875H175V309Z" fill="white"/>
<path d="M254.875 285.938C254.875 289.104 254.417 291.917 253.5 294.375C252.583 296.833 251.333 298.979 249.75 300.812C248.167 302.604 246.292 304.125 244.125 305.375C241.958 306.583 239.625 307.562 237.125 308.312C234.667 309.062 232.083 309.604 229.375 309.938C226.667 310.271 223.979 310.438 221.312 310.438C217.729 310.438 214.562 310.208 211.812 309.75C209.062 309.292 206.438 308.562 203.938 307.562C201.438 306.521 198.938 305.188 196.438 303.562C193.979 301.938 191.229 299.958 188.188 297.625L200.5 287.562C201.625 289.688 203.104 291.625 204.938 293.375C206.812 295.083 208.75 296.562 210.75 297.812C212.75 299.062 214.688 300.021 216.562 300.688C218.438 301.354 219.958 301.688 221.125 301.688C222.083 301.688 223.167 301.667 224.375 301.625C225.583 301.542 226.812 301.417 228.062 301.25C229.312 301.042 230.542 300.75 231.75 300.375C232.958 300 234.021 299.5 234.938 298.875C235.896 298.208 236.646 297.396 237.188 296.438C237.771 295.438 238.062 294.25 238.062 292.875C238.062 291.458 237.688 290.229 236.938 289.188C236.229 288.104 235.292 287.167 234.125 286.375C232.958 285.583 231.625 284.917 230.125 284.375C228.625 283.833 227.104 283.354 225.562 282.938C224.062 282.521 222.604 282.167 221.188 281.875C219.771 281.542 218.542 281.229 217.5 280.938C215.583 280.396 213.562 279.854 211.438 279.312C209.312 278.729 207.208 278.083 205.125 277.375C203.042 276.625 201.042 275.75 199.125 274.75C197.25 273.75 195.583 272.562 194.125 271.188C192.708 269.771 191.562 268.125 190.688 266.25C189.854 264.333 189.438 262.104 189.438 259.562C189.438 254.896 190.354 251 192.188 247.875C194.062 244.708 196.521 242.188 199.562 240.312C202.604 238.396 206.062 237.042 209.938 236.25C213.812 235.458 217.75 235.062 221.75 235.062C224.5 235.062 227.396 235.354 230.438 235.938C233.479 236.479 236.438 237.312 239.312 238.438C242.188 239.521 244.875 240.854 247.375 242.438C249.875 244.021 251.958 245.833 253.625 247.875L241.312 258C240.396 255.5 239.188 253.354 237.688 251.562C236.229 249.771 234.625 248.312 232.875 247.188C231.167 246.021 229.396 245.167 227.562 244.625C225.771 244.083 224.104 243.812 222.562 243.812C221.062 243.812 219.375 243.875 217.5 244C215.625 244.125 213.854 244.479 212.188 245.062C210.562 245.646 209.167 246.542 208 247.75C206.875 248.917 206.312 250.542 206.312 252.625C206.312 254.125 206.646 255.417 207.312 256.5C208.021 257.542 208.938 258.458 210.062 259.25C211.188 260 212.458 260.646 213.875 261.188C215.333 261.688 216.812 262.146 218.312 262.562C219.812 262.938 221.271 263.271 222.688 263.562C224.104 263.854 225.375 264.167 226.5 264.5C228.417 265.042 230.438 265.604 232.562 266.188C234.729 266.729 236.854 267.375 238.938 268.125C241.021 268.833 243.021 269.688 244.938 270.688C246.896 271.646 248.604 272.833 250.062 274.25C251.521 275.667 252.688 277.333 253.562 279.25C254.438 281.125 254.875 283.354 254.875 285.938Z" fill="white"/>
<path d="M285.625 274.75C288.208 275.333 290.792 275.792 293.375 276.125C295.958 276.458 298.562 276.625 301.188 276.625C303.938 276.625 306.479 276.375 308.812 275.875C311.188 275.333 313.229 274.458 314.938 273.25C316.688 272 318.062 270.354 319.062 268.312C320.062 266.271 320.562 263.729 320.562 260.688C320.562 258.229 320.229 255.979 319.562 253.938C318.896 251.896 317.896 250.146 316.562 248.688C315.271 247.229 313.667 246.104 311.75 245.312C309.833 244.479 307.604 244.062 305.062 244.062C302.688 244.062 300.542 244.5 298.625 245.375C296.75 246.25 295.083 247.438 293.625 248.938C292.208 250.396 290.979 252.104 289.938 254.062C288.938 256.021 288.104 258.062 287.438 260.188C286.771 262.312 286.292 264.458 286 266.625C285.708 268.792 285.562 270.833 285.562 272.75C285.562 273.083 285.562 273.417 285.562 273.75C285.562 274.083 285.583 274.417 285.625 274.75ZM337.688 260.5C337.688 263.458 337.208 266.104 336.25 268.438C335.292 270.729 333.979 272.75 332.312 274.5C330.688 276.25 328.792 277.729 326.625 278.938C324.458 280.146 322.146 281.146 319.688 281.938C317.229 282.688 314.688 283.229 312.062 283.562C309.479 283.896 306.958 284.062 304.5 284.062C301.375 284.062 298.292 283.854 295.25 283.438C292.208 282.979 289.208 282.271 286.25 281.312C286.708 284.062 287.438 286.688 288.438 289.188C289.438 291.646 290.771 293.812 292.438 295.688C294.104 297.521 296.146 298.979 298.562 300.062C301.021 301.146 303.917 301.688 307.25 301.688C309.458 301.688 311.562 301.354 313.562 300.688C315.562 300.021 317.396 299.083 319.062 297.875C320.729 296.667 322.188 295.229 323.438 293.562C324.729 291.896 325.771 290.042 326.562 288L335.688 291.375C334.312 294.667 332.417 297.521 330 299.938C327.625 302.312 324.917 304.292 321.875 305.875C318.875 307.417 315.667 308.562 312.25 309.312C308.875 310.062 305.521 310.438 302.188 310.438C296.688 310.438 291.604 309.521 286.938 307.688C282.271 305.812 278.25 303.208 274.875 299.875C271.5 296.542 268.854 292.562 266.938 287.938C265.021 283.312 264.062 278.25 264.062 272.75C264.062 267.25 265.021 262.188 266.938 257.562C268.854 252.938 271.5 248.958 274.875 245.625C278.25 242.292 282.271 239.708 286.938 237.875C291.604 236 296.688 235.062 302.188 235.062C304.854 235.062 307.583 235.25 310.375 235.625C313.167 236 315.875 236.604 318.5 237.438C321.125 238.229 323.604 239.271 325.938 240.562C328.271 241.854 330.292 243.458 332 245.375C333.75 247.25 335.125 249.438 336.125 251.938C337.167 254.438 337.688 257.292 337.688 260.5Z" fill="white"/>
</g>
<defs>
<filter id="filter0_d_407_2" x="0" y="0" width="345.76" height="318.438" filterUnits="userSpaceOnUse" color-interpolation-filters="sRGB">
<feFlood flood-opacity="0" result="BackgroundImageFix"/>
<feColorMatrix in="SourceAlpha" type="matrix" values="0 0 0 0 0 0 0 0 0 0 0 0 0 0 0 0 0 0 127 0" result="hardAlpha"/>
<feOffset dy="4"/>
<feGaussianBlur stdDeviation="2"/>
<feComposite in2="hardAlpha" operator="out"/>
<feColorMatrix type="matrix" values="0 0 0 0 0 0 0 0 0 0 0 0 0 0 0 0 0 0 0.25 0"/>
<feBlend mode="normal" in2="BackgroundImageFix" result="effect1_dropShadow_407_2"/>
<feBlend mode="normal" in="SourceGraphic" in2="effect1_dropShadow_407_2" result="shape"/>
</filter>
</defs>
</svg>
