<svg width="347" height="319" viewBox="0 0 347 319" fill="none" xmlns="http://www.w3.org/2000/svg">
<g filter="url(#filter0_d_401_305)">
<path d="M83.9375 172.5C83.9375 176.375 83.4375 179.792 82.4375 182.75C81.4792 185.708 80.1042 188.271 78.3125 190.438C76.5625 192.604 74.4792 194.417 72.0625 195.875C69.6458 197.333 67 198.5 64.125 199.375C61.2917 200.25 58.2708 200.875 55.0625 201.25C51.8958 201.625 48.6667 201.812 45.375 201.812C41.0417 201.812 37.0417 201.479 33.375 200.812C29.7083 200.188 26.25 199.188 23 197.812C19.7917 196.396 16.6875 194.583 13.6875 192.375C10.7292 190.167 7.77083 187.479 4.8125 184.312L17.5625 171.375C18.7292 174.25 20.3333 176.917 22.375 179.375C24.4167 181.792 26.6458 183.875 29.0625 185.625C31.5208 187.375 34.0625 188.75 36.6875 189.75C39.3125 190.75 41.7917 191.25 44.125 191.25C46.875 191.25 49.4583 191.062 51.875 190.688C54.2917 190.271 56.3958 189.604 58.1875 188.688C59.9792 187.771 61.375 186.562 62.375 185.062C63.4167 183.521 63.9375 181.604 63.9375 179.312C63.9375 177.562 63.5417 176.062 62.75 174.812C61.9583 173.562 60.9167 172.5 59.625 171.625C58.375 170.708 56.9375 169.938 55.3125 169.312C53.6875 168.688 52.0208 168.167 50.3125 167.75C48.6458 167.292 47 166.896 45.375 166.562C43.75 166.188 42.3125 165.812 41.0625 165.438C38.6042 164.729 36.0417 163.979 33.375 163.188C30.7083 162.354 28.0833 161.417 25.5 160.375C22.9167 159.333 20.4583 158.146 18.125 156.812C15.8333 155.438 13.8125 153.833 12.0625 152C10.3125 150.125 8.91667 147.979 7.875 145.562C6.83333 143.104 6.3125 140.292 6.3125 137.125C6.3125 133.333 6.77083 129.979 7.6875 127.062C8.64583 124.104 9.97917 121.542 11.6875 119.375C13.3958 117.208 15.4167 115.396 17.75 113.938C20.0833 112.438 22.6458 111.25 25.4375 110.375C28.2292 109.458 31.1875 108.812 34.3125 108.438C37.4792 108.021 40.7083 107.812 44 107.812C48.5 107.812 52.5833 108.229 56.25 109.062C59.9583 109.896 63.375 111.083 66.5 112.625C69.625 114.167 72.4792 116.021 75.0625 118.188C77.6875 120.312 80.1458 122.688 82.4375 125.312L69.6875 138.25C68.6875 135.25 67.2917 132.542 65.5 130.125C63.75 127.708 61.7917 125.646 59.625 123.938C57.4583 122.188 55.1875 120.854 52.8125 119.938C50.4375 118.979 48.1458 118.5 45.9375 118.5C43.0625 118.5 40.4167 118.708 38 119.125C35.5833 119.5 33.5 120.146 31.75 121.062C30.0417 121.938 28.7083 123.146 27.75 124.688C26.7917 126.188 26.3125 128.062 26.3125 130.312C26.3125 132.104 26.6667 133.625 27.375 134.875C28.0833 136.125 29.0208 137.188 30.1875 138.062C31.3958 138.938 32.75 139.667 34.25 140.25C35.75 140.792 37.2917 141.271 38.875 141.688C40.5 142.104 42.0833 142.479 43.625 142.812C45.2083 143.104 46.6458 143.438 47.9375 143.812C50.4375 144.521 53.0625 145.271 55.8125 146.062C58.5625 146.854 61.2708 147.792 63.9375 148.875C66.6042 149.917 69.1458 151.125 71.5625 152.5C73.9792 153.875 76.1042 155.521 77.9375 157.438C79.7708 159.312 81.2292 161.5 82.3125 164C83.3958 166.458 83.9375 169.292 83.9375 172.5Z" fill="#111111"/>
<path d="M171.125 158.625C171.125 163.5 170.521 168.583 169.312 173.875C168.146 179.167 166.5 184.354 164.375 189.438C162.25 194.521 159.708 199.292 156.75 203.75C153.792 208.25 150.542 212.125 147 215.375L139.062 211.062C140.188 208.979 141.25 206.646 142.25 204.062C143.25 201.479 144.146 198.75 144.938 195.875C145.771 192.958 146.5 189.958 147.125 186.875C147.792 183.792 148.333 180.75 148.75 177.75C149.208 174.708 149.542 171.771 149.75 168.938C150 166.062 150.125 163.396 150.125 160.938C150.125 159.312 150.062 157.583 149.938 155.75C149.812 153.875 149.542 152.021 149.125 150.188C148.75 148.312 148.229 146.521 147.562 144.812C146.896 143.104 146 141.604 144.875 140.312C143.792 139.021 142.458 137.979 140.875 137.188C139.333 136.396 137.5 136 135.375 136C133.292 136 131.438 136.479 129.812 137.438C128.188 138.354 126.75 139.583 125.5 141.125C124.25 142.625 123.167 144.354 122.25 146.312C121.375 148.271 120.646 150.292 120.062 152.375C119.521 154.417 119.125 156.438 118.875 158.438C118.625 160.438 118.5 162.229 118.5 163.812V200H97.3125V101.25H118.438V138.438C121.146 134.479 124.458 131.438 128.375 129.312C132.333 127.146 136.708 126.062 141.5 126.062C146.5 126.062 150.854 126.875 154.562 128.5C158.271 130.125 161.354 132.396 163.812 135.312C166.271 138.188 168.104 141.625 169.312 145.625C170.521 149.583 171.125 153.917 171.125 158.625Z" fill="#111111"/>
<path d="M202.438 165.75C205.021 166.333 207.604 166.792 210.188 167.125C212.771 167.458 215.375 167.625 218 167.625C220.75 167.625 223.292 167.375 225.625 166.875C228 166.333 230.042 165.458 231.75 164.25C233.5 163 234.875 161.354 235.875 159.312C236.875 157.271 237.375 154.729 237.375 151.688C237.375 149.229 237.042 146.979 236.375 144.938C235.708 142.896 234.708 141.146 233.375 139.688C232.083 138.229 230.479 137.104 228.562 136.312C226.646 135.479 224.417 135.062 221.875 135.062C219.5 135.062 217.354 135.5 215.438 136.375C213.562 137.25 211.896 138.438 210.438 139.938C209.021 141.396 207.792 143.104 206.75 145.062C205.75 147.021 204.917 149.062 204.25 151.188C203.583 153.312 203.104 155.458 202.812 157.625C202.521 159.792 202.375 161.833 202.375 163.75C202.375 164.083 202.375 164.417 202.375 164.75C202.375 165.083 202.396 165.417 202.438 165.75ZM254.5 151.5C254.5 154.458 254.021 157.104 253.062 159.438C252.104 161.729 250.792 163.75 249.125 165.5C247.5 167.25 245.604 168.729 243.438 169.938C241.271 171.146 238.958 172.146 236.5 172.938C234.042 173.688 231.5 174.229 228.875 174.562C226.292 174.896 223.771 175.062 221.312 175.062C218.188 175.062 215.104 174.854 212.062 174.438C209.021 173.979 206.021 173.271 203.062 172.312C203.521 175.062 204.25 177.688 205.25 180.188C206.25 182.646 207.583 184.812 209.25 186.688C210.917 188.521 212.958 189.979 215.375 191.062C217.833 192.146 220.729 192.688 224.062 192.688C226.271 192.688 228.375 192.354 230.375 191.688C232.375 191.021 234.208 190.083 235.875 188.875C237.542 187.667 239 186.229 240.25 184.562C241.542 182.896 242.583 181.042 243.375 179L252.5 182.375C251.125 185.667 249.229 188.521 246.812 190.938C244.438 193.312 241.729 195.292 238.688 196.875C235.688 198.417 232.479 199.562 229.062 200.312C225.688 201.062 222.333 201.438 219 201.438C213.5 201.438 208.417 200.521 203.75 198.688C199.083 196.812 195.062 194.208 191.688 190.875C188.312 187.542 185.667 183.562 183.75 178.938C181.833 174.312 180.875 169.25 180.875 163.75C180.875 158.25 181.833 153.188 183.75 148.562C185.667 143.938 188.312 139.958 191.688 136.625C195.062 133.292 199.083 130.708 203.75 128.875C208.417 127 213.5 126.062 219 126.062C221.667 126.062 224.396 126.25 227.188 126.625C229.979 127 232.688 127.604 235.312 128.438C237.938 129.229 240.417 130.271 242.75 131.562C245.083 132.854 247.104 134.458 248.812 136.375C250.562 138.25 251.938 140.438 252.938 142.938C253.979 145.438 254.5 148.292 254.5 151.5Z" fill="#111111"/>
<path d="M284.856 111.013C284.856 111.013 286.173 78.9118 279.105 70.7841C272.038 62.6564 270.518 64.7671 268.441 64.1371C265.942 64.1305 263.466 64.7186 261.146 65.8697C261.146 65.8697 271.835 68.8625 274.267 77.9037L284.856 111.013Z" fill="#FF2E77"/>
<path d="M284.856 111.013C284.856 111.013 286.173 78.9118 279.105 70.7841C272.038 62.6564 270.518 64.7671 268.441 64.1371C265.942 64.1305 263.466 64.7186 261.146 65.8697C261.146 65.8697 271.835 68.8625 274.267 77.9037L284.856 111.013Z" fill="black"/>
<path d="M296.127 120.781C298.286 125.138 299.096 130.322 298.407 135.367C292.657 204.673 278.471 241.531 255.217 286.58C255.217 286.58 250.632 301.134 256.357 297.858C256.357 297.858 293.037 249.659 302.587 138.675C302.587 138.675 303.018 126.074 309.629 120.718C309.629 120.75 297.217 117.064 296.127 120.781Z" fill="#455A64"/>
<path d="M294.228 51.601C295.794 51.4981 297.333 52.1361 298.536 53.3868C299.739 54.6374 300.517 56.4079 300.713 58.3425C302.081 65.7771 312.898 106.101 308.313 117.694C303.728 129.287 301.828 124.309 297.724 124.939C293.24 125.758 283.538 117.662 281.892 111.078C280.245 104.494 277.408 90.9793 278.27 83.2612C279.131 75.543 277.383 51.853 294.228 51.601Z" fill="#FF2E77"/>
<path d="M294.228 51.601C295.794 51.4981 297.333 52.1361 298.536 53.3868C299.739 54.6374 300.517 56.4079 300.713 58.3425C302.081 65.7771 312.898 106.101 308.313 117.694C303.728 129.287 301.828 124.309 297.724 124.939C293.24 125.758 283.538 117.662 281.892 111.078C280.245 104.494 277.408 90.9793 278.27 83.2612C279.131 75.543 277.383 51.853 294.228 51.601Z" fill="black"/>
<path d="M322.523 47.6629C322.523 47.6629 327.868 53.2704 328.071 59.6339C328.274 65.9975 330.984 94.2869 325.107 108.18C319.23 122.072 314.316 125.916 306.083 125.853C297.851 125.79 312.34 54.6565 312.34 54.6565C312.34 54.6565 319.56 43.6936 322.523 47.6629Z" fill="#FF2E77"/>
<path d="M322.523 47.6629C322.523 47.6629 327.868 53.2704 328.071 59.6339C328.274 65.9975 330.984 94.2869 325.107 108.18C319.23 122.072 314.316 125.916 306.083 125.853C297.851 125.79 312.34 54.6565 312.34 54.6565C312.34 54.6565 319.56 43.6936 322.523 47.6629Z" fill="black"/>
<path d="M313.905 47.6318C313.905 47.6318 321.986 48.1043 324.95 55.5705C328.69 65.5568 330.171 76.6227 329.231 87.5772C327.863 98.3826 326.014 124.845 307.37 121.695C293.286 119.3 290.195 95.6734 290.879 76.1417C291.36 61.808 298.479 59.6029 302.481 54.468C305.482 50.5162 309.55 48.0818 313.905 47.6318Z" fill="#FF2E77"/>
<path d="M304.209 125.506C304.209 125.506 288.681 128.278 281.867 116.528C275.053 104.777 277.332 96.4292 276.193 88.1755C275.516 83.1865 274.28 78.3404 272.52 73.7789C272.52 73.7789 276.775 76.3305 280.119 92.2078C283.463 108.085 294.228 124.057 304.209 125.506Z" fill="#FF2E77"/>
<path d="M256.535 295.716C256.535 295.716 263.273 260.15 291.999 226.599C319.382 194.467 336.608 193.49 341.522 190.308L342.104 189.867C346.081 186.307 323.917 224.52 304.69 246.194C285.464 267.868 269.758 288.156 256.535 295.716Z" fill="#455A64"/>
<path d="M320.928 211.099C296.762 230.378 279.46 254.73 264.566 281.948C263.882 283.208 263.172 285.792 263.856 284.563C279.483 256.999 298.554 232.719 320.345 212.642C321.308 211.729 321.941 210.311 320.928 211.099Z" fill="#37474F"/>
<path d="M89 309H64.1875V219H108.438C112.604 219 116.625 219.5 120.5 220.5C124.375 221.458 127.792 223 130.75 225.125C133.75 227.208 136.125 229.917 137.875 233.25C139.667 236.583 140.562 240.625 140.562 245.375C140.562 249.083 139.771 252.583 138.188 255.875C136.646 259.125 134.562 262.042 131.938 264.625C129.354 267.167 126.375 269.292 123 271C119.625 272.667 116.125 273.771 112.5 274.312C114.125 277.062 115.812 279.667 117.562 282.125C119.354 284.583 121.146 286.896 122.938 289.062C124.771 291.188 126.583 293.167 128.375 295C130.167 296.792 131.875 298.438 133.5 299.938C137.333 303.438 141.125 306.458 144.875 309H113.938C111.438 306.625 109.062 303.771 106.812 300.438C104.896 297.604 102.958 294.104 101 289.938C99.0833 285.729 97.6042 280.875 96.5625 275.375H89V309ZM115.375 245.375C115.375 239.333 113.896 234.896 110.938 232.062C108.021 229.229 103.625 227.812 97.75 227.812H89V266.875H97.75C100.875 266.875 103.542 266.292 105.75 265.125C108 263.917 109.833 262.333 111.25 260.375C112.667 258.375 113.708 256.083 114.375 253.5C115.042 250.917 115.375 248.208 115.375 245.375Z" fill="#111111"/>
<path d="M176.75 219.375C176.75 220.958 176.438 222.458 175.812 223.875C175.229 225.292 174.417 226.521 173.375 227.562C172.333 228.604 171.104 229.438 169.688 230.062C168.271 230.646 166.771 230.938 165.188 230.938C163.604 230.938 162.104 230.646 160.688 230.062C159.312 229.438 158.104 228.604 157.062 227.562C156.021 226.521 155.188 225.292 154.562 223.875C153.979 222.458 153.688 220.958 153.688 219.375C153.688 217.792 153.979 216.312 154.562 214.938C155.188 213.521 156.021 212.292 157.062 211.25C158.104 210.208 159.312 209.396 160.688 208.812C162.104 208.188 163.604 207.875 165.188 207.875C166.771 207.875 168.271 208.188 169.688 208.812C171.104 209.396 172.333 210.208 173.375 211.25C174.417 212.292 175.229 213.521 175.812 214.938C176.438 216.312 176.75 217.792 176.75 219.375ZM175.812 309H154.625V236.875H175.812V309Z" fill="#111111"/>
<path d="M255.688 285.938C255.688 289.104 255.229 291.917 254.312 294.375C253.396 296.833 252.146 298.979 250.562 300.812C248.979 302.604 247.104 304.125 244.938 305.375C242.771 306.583 240.438 307.562 237.938 308.312C235.479 309.062 232.896 309.604 230.188 309.938C227.479 310.271 224.792 310.438 222.125 310.438C218.542 310.438 215.375 310.208 212.625 309.75C209.875 309.292 207.25 308.562 204.75 307.562C202.25 306.521 199.75 305.188 197.25 303.562C194.792 301.938 192.042 299.958 189 297.625L201.312 287.562C202.438 289.688 203.917 291.625 205.75 293.375C207.625 295.083 209.562 296.562 211.562 297.812C213.562 299.062 215.5 300.021 217.375 300.688C219.25 301.354 220.771 301.688 221.938 301.688C222.896 301.688 223.979 301.667 225.188 301.625C226.396 301.542 227.625 301.417 228.875 301.25C230.125 301.042 231.354 300.75 232.562 300.375C233.771 300 234.833 299.5 235.75 298.875C236.708 298.208 237.458 297.396 238 296.438C238.583 295.438 238.875 294.25 238.875 292.875C238.875 291.458 238.5 290.229 237.75 289.188C237.042 288.104 236.104 287.167 234.938 286.375C233.771 285.583 232.438 284.917 230.938 284.375C229.438 283.833 227.917 283.354 226.375 282.938C224.875 282.521 223.417 282.167 222 281.875C220.583 281.542 219.354 281.229 218.312 280.938C216.396 280.396 214.375 279.854 212.25 279.312C210.125 278.729 208.021 278.083 205.938 277.375C203.854 276.625 201.854 275.75 199.938 274.75C198.062 273.75 196.396 272.562 194.938 271.188C193.521 269.771 192.375 268.125 191.5 266.25C190.667 264.333 190.25 262.104 190.25 259.562C190.25 254.896 191.167 251 193 247.875C194.875 244.708 197.333 242.188 200.375 240.312C203.417 238.396 206.875 237.042 210.75 236.25C214.625 235.458 218.562 235.062 222.562 235.062C225.312 235.062 228.208 235.354 231.25 235.938C234.292 236.479 237.25 237.312 240.125 238.438C243 239.521 245.688 240.854 248.188 242.438C250.688 244.021 252.771 245.833 254.438 247.875L242.125 258C241.208 255.5 240 253.354 238.5 251.562C237.042 249.771 235.438 248.312 233.688 247.188C231.979 246.021 230.208 245.167 228.375 244.625C226.583 244.083 224.917 243.812 223.375 243.812C221.875 243.812 220.188 243.875 218.312 244C216.438 244.125 214.667 244.479 213 245.062C211.375 245.646 209.979 246.542 208.812 247.75C207.688 248.917 207.125 250.542 207.125 252.625C207.125 254.125 207.458 255.417 208.125 256.5C208.833 257.542 209.75 258.458 210.875 259.25C212 260 213.271 260.646 214.688 261.188C216.146 261.688 217.625 262.146 219.125 262.562C220.625 262.938 222.083 263.271 223.5 263.562C224.917 263.854 226.188 264.167 227.312 264.5C229.229 265.042 231.25 265.604 233.375 266.188C235.542 266.729 237.667 267.375 239.75 268.125C241.833 268.833 243.833 269.688 245.75 270.688C247.708 271.646 249.417 272.833 250.875 274.25C252.333 275.667 253.5 277.333 254.375 279.25C255.25 281.125 255.688 283.354 255.688 285.938Z" fill="#111111"/>
<path d="M286.438 274.75C289.021 275.333 291.604 275.792 294.188 276.125C296.771 276.458 299.375 276.625 302 276.625C304.75 276.625 307.292 276.375 309.625 275.875C312 275.333 314.042 274.458 315.75 273.25C317.5 272 318.875 270.354 319.875 268.312C320.875 266.271 321.375 263.729 321.375 260.688C321.375 258.229 321.042 255.979 320.375 253.938C319.708 251.896 318.708 250.146 317.375 248.688C316.083 247.229 314.479 246.104 312.562 245.312C310.646 244.479 308.417 244.062 305.875 244.062C303.5 244.062 301.354 244.5 299.438 245.375C297.562 246.25 295.896 247.438 294.438 248.938C293.021 250.396 291.792 252.104 290.75 254.062C289.75 256.021 288.917 258.062 288.25 260.188C287.583 262.312 287.104 264.458 286.812 266.625C286.521 268.792 286.375 270.833 286.375 272.75C286.375 273.083 286.375 273.417 286.375 273.75C286.375 274.083 286.396 274.417 286.438 274.75ZM338.5 260.5C338.5 263.458 338.021 266.104 337.062 268.438C336.104 270.729 334.792 272.75 333.125 274.5C331.5 276.25 329.604 277.729 327.438 278.938C325.271 280.146 322.958 281.146 320.5 281.938C318.042 282.688 315.5 283.229 312.875 283.562C310.292 283.896 307.771 284.062 305.312 284.062C302.188 284.062 299.104 283.854 296.062 283.438C293.021 282.979 290.021 282.271 287.062 281.312C287.521 284.062 288.25 286.688 289.25 289.188C290.25 291.646 291.583 293.812 293.25 295.688C294.917 297.521 296.958 298.979 299.375 300.062C301.833 301.146 304.729 301.688 308.062 301.688C310.271 301.688 312.375 301.354 314.375 300.688C316.375 300.021 318.208 299.083 319.875 297.875C321.542 296.667 323 295.229 324.25 293.562C325.542 291.896 326.583 290.042 327.375 288L336.5 291.375C335.125 294.667 333.229 297.521 330.812 299.938C328.438 302.312 325.729 304.292 322.688 305.875C319.688 307.417 316.479 308.562 313.062 309.312C309.688 310.062 306.333 310.438 303 310.438C297.5 310.438 292.417 309.521 287.75 307.688C283.083 305.812 279.062 303.208 275.688 299.875C272.312 296.542 269.667 292.562 267.75 287.938C265.833 283.312 264.875 278.25 264.875 272.75C264.875 267.25 265.833 262.188 267.75 257.562C269.667 252.938 272.312 248.958 275.688 245.625C279.062 242.292 283.083 239.708 287.75 237.875C292.417 236 297.5 235.062 303 235.062C305.667 235.062 308.396 235.25 311.188 235.625C313.979 236 316.688 236.604 319.312 237.438C321.938 238.229 324.417 239.271 326.75 240.562C329.083 241.854 331.104 243.458 332.812 245.375C334.562 247.25 335.938 249.438 336.938 251.938C337.979 254.438 338.5 257.292 338.5 260.5Z" fill="#111111"/>
</g>
<defs>
<filter id="filter0_d_401_305" x="0.8125" y="0" width="345.76" height="318.438" filterUnits="userSpaceOnUse" color-interpolation-filters="sRGB">
<feFlood flood-opacity="0" result="BackgroundImageFix"/>
<feColorMatrix in="SourceAlpha" type="matrix" values="0 0 0 0 0 0 0 0 0 0 0 0 0 0 0 0 0 0 127 0" result="hardAlpha"/>
<feOffset dy="4"/>
<feGaussianBlur stdDeviation="2"/>
<feComposite in2="hardAlpha" operator="out"/>
<feColorMatrix type="matrix" values="0 0 0 0 0 0 0 0 0 0 0 0 0 0 0 0 0 0 0.25 0"/>
<feBlend mode="normal" in2="BackgroundImageFix" result="effect1_dropShadow_401_305"/>
<feBlend mode="normal" in="SourceGraphic" in2="effect1_dropShadow_401_305" result="shape"/>
</filter>
</defs>
</svg>
