<svg width="7188" height="10663" viewBox="0 0 7188 10663" fill="none" xmlns="http://www.w3.org/2000/svg">
<path d="M630.888 10662.8C630.888 10622.8 909.939 9338.51 1225.32 8961.7C1540.69 8584.9 5109.24 9268.17 5109.24 9268.17L5478.45 10662.8" fill="#263238"/>
<path d="M4637.66 4453.96C4666.72 4463.87 5532.94 4998.19 5688.81 5971.07C5844.68 6943.95 6073.87 7949.53 6073.87 7949.53L5294.17 8460.07L4637.66 6419.87V4453.96Z" fill="#FFBF9D"/>
<path d="M1510.31 2740.69C1573.06 2265.48 1568.76 2281 1623.58 1826.26C1730.58 943.537 1999.39 -58.7348 3258.59 2.68944C3258.59 2.68944 4207.03 45.2902 4502.26 722.608C4660.78 1085.87 4712.3 2350.02 4775.04 3487.03C4776.21 3505.6 4779.88 3523.92 4785.94 3541.52L4846.7 3712.91C4925.96 3937.48 4973.53 4172.01 4988.04 4409.71L5083.81 5988.91C5085.42 6014.63 5081.94 6040.43 5073.56 6064.8C5065.17 6089.18 5052.06 6111.66 5034.97 6130.96C5017.88 6150.26 4997.15 6166 4973.97 6177.26C4950.78 6188.53 4925.6 6195.11 4899.87 6196.63C4475.51 6221.07 3506.6 6175.82 3319.35 6110.11C2935.88 5973.15 2586.32 5755.41 2294.32 5471.62C2002.32 5187.82 1774.71 4844.6 1626.88 4465.19C1606.74 4414 1331.98 4390.56 1280.46 4371.07C1194.27 4339.04 1498.42 2831.18 1510.31 2740.69Z" fill="#263238"/>
<path d="M3504.29 407.231L3424.04 333.918L2581.93 697.179C2522.67 701.807 2467.3 728.494 2426.76 771.968C2386.22 815.441 2363.47 872.539 2362.98 931.978L2433.66 3701.02C2436.96 3888.93 2385.11 4106.88 2502.01 4254.17L2639.72 4444.72C2920.1 4797.74 3557.78 4663.33 3764.18 4262.76C3776.54 4239.88 3786.07 4215.6 3792.58 4190.43C3797.45 4169.85 3801.2 4149.01 3803.81 4128.02C3823.96 3904.78 3820.98 3711.59 3820.98 3711.59C3830.56 3466.55 3833.2 3366.16 3833.2 3368.47C3833.2 3370.78 4352.67 3296.81 4478.16 2625.11C4540.24 2291.24 4516.79 1834.52 4486.74 1385.06C4445.46 763.227 4004.6 395.342 3504.29 407.231Z" fill="#FFBF9D"/>
<path d="M3384.08 1845.08C3383.65 1867.63 3374.43 1889.12 3358.4 1904.97C3342.36 1920.82 3320.77 1929.79 3298.22 1929.96C3287.27 1930.44 3276.33 1928.74 3266.04 1924.96C3255.75 1921.17 3246.32 1915.37 3238.3 1907.9C3230.27 1900.43 3223.82 1891.44 3219.31 1881.45C3214.8 1871.46 3212.32 1860.67 3212.03 1849.71C3212.37 1827.16 3221.5 1805.64 3237.48 1789.72C3253.45 1773.81 3275.01 1764.76 3297.56 1764.51C3308.56 1763.97 3319.56 1765.65 3329.91 1769.44C3340.26 1773.22 3349.74 1779.04 3357.81 1786.55C3365.87 1794.06 3372.35 1803.11 3376.86 1813.16C3381.37 1823.21 3383.83 1834.07 3384.08 1845.08Z" fill="#263238"/>
<path d="M4252.93 1845.08C4252.42 1867.6 4243.18 1889.04 4227.16 1904.88C4211.14 1920.71 4189.6 1929.7 4167.07 1929.96C4156.05 1930.53 4145.02 1928.9 4134.64 1925.16C4124.26 1921.42 4114.73 1915.64 4106.6 1908.17C4098.48 1900.69 4091.94 1891.67 4087.35 1881.63C4082.76 1871.59 4080.23 1860.74 4079.89 1849.71C4080.32 1827.13 4089.52 1805.61 4105.55 1789.7C4121.58 1773.8 4143.17 1764.76 4165.75 1764.51C4176.79 1763.98 4187.82 1765.65 4198.21 1769.43C4208.59 1773.2 4218.12 1779.01 4226.24 1786.51C4234.35 1794.02 4240.89 1803.06 4245.48 1813.11C4250.06 1823.17 4252.6 1834.04 4252.93 1845.08Z" fill="#263238"/>
<path d="M4400.88 1563.72C4389.98 1574.62 4325.92 1524.42 4232.79 1522.11C4139.66 1519.8 4070.31 1564.38 4060.41 1552.82C4055.45 1547.54 4067.01 1527.4 4097.39 1506.59C4138.4 1479.73 4186.78 1466.34 4235.76 1468.28C4283.64 1469.6 4329.87 1486.01 4367.86 1515.18C4398.24 1537.96 4407.49 1558.77 4400.88 1563.72Z" fill="#263238"/>
<path d="M3459.04 1594.77C3446.82 1604.67 3388.04 1547.87 3293.92 1535.98C3199.81 1524.09 3128.81 1561.74 3119.56 1548.86C3115.27 1543.25 3128.48 1524.43 3161.17 1506.92C3204.64 1484.41 3254.04 1475.98 3302.51 1482.82C3350.58 1488.97 3395.46 1510.25 3430.64 1543.58C3457.72 1569.01 3464.66 1590.47 3459.04 1594.77Z" fill="#263238"/>
<path d="M3799.19 2264.16C3799.19 2258.87 3856.98 2250.29 3951.1 2241.04C3974.88 2239.06 3997.33 2235.1 4001.95 2218.91C4004.5 2194.39 3999.67 2169.67 3988.08 2147.91L3922.04 1965.29C3831.22 1704.73 3766.5 1491.07 3777.06 1487.44C3787.63 1483.8 3869.53 1692.18 3960.01 1952.41C3981.81 2016.48 4002.61 2077.57 4022.43 2136.35C4036.53 2165.4 4040.04 2198.46 4032.34 2229.81C4028.55 2238 4022.96 2245.22 4015.98 2250.94C4009 2256.66 4000.82 2260.73 3992.05 2262.84C3978.85 2265.97 3965.32 2267.52 3951.76 2267.46C3857.97 2270.43 3799.19 2269.44 3799.19 2264.16Z" fill="#263238"/>
<path d="M3833.2 3367.15C3515.77 3363.62 3205.53 3272.17 2936.94 3102.96C2936.94 3102.96 3151.26 3575.86 3828.58 3532.27L3833.2 3367.15Z" fill="#FF9A6C"/>
<path d="M3753.61 2487.4C3736.54 2464.62 3713.92 2446.6 3687.91 2435.03C3661.9 2423.47 3633.36 2418.76 3605.01 2421.35C3584.4 2422.54 3564.24 2427.93 3545.79 2437.19C3527.33 2446.44 3510.96 2459.37 3497.68 2475.18C3484.82 2490.34 3476.93 2509.09 3475.1 2528.88C3473.27 2548.67 3477.58 2568.55 3487.44 2585.81C3502 2602.74 3521.29 2614.93 3542.82 2620.81C3564.36 2626.7 3587.17 2626.01 3608.31 2618.83C3652.8 2604.53 3694 2581.51 3729.51 2551.13C3740.18 2544.05 3749.37 2534.97 3756.59 2524.39C3759.49 2519.37 3761.01 2513.67 3761.01 2507.87C3761.01 2502.08 3759.49 2496.38 3756.59 2491.36" fill="#FF9A6C"/>
<path d="M3523.44 2320.96C3538.63 2320.96 3535.99 2420.03 3620.53 2495.65C3705.07 2571.28 3813.06 2561.7 3813.39 2575.57C3813.39 2581.85 3788.62 2594.4 3743.38 2594.4C3684.13 2593.72 3627.03 2572.08 3582.22 2533.3C3539.26 2496.2 3512.38 2443.87 3507.26 2387.34C3504.62 2344.74 3516.5 2320.3 3523.44 2320.96Z" fill="#263238"/>
<path d="M3539.62 1142.01C3527.4 1166.12 3436.59 1142.01 3326.62 1142.01C3216.65 1142.01 3125.17 1159.18 3113.61 1134.74C3108.66 1123.18 3127.15 1101.72 3165.46 1081.9C3216.42 1058.03 3272.36 1046.7 3328.6 1048.88C3384.88 1049.46 3440.22 1063.39 3490.09 1089.5C3527.73 1108.32 3545.24 1130.78 3539.62 1142.01Z" fill="#263238"/>
<path d="M4379.42 1164.46C4362.57 1185.27 4299.17 1161.49 4221.89 1158.52C4144.62 1155.55 4079.23 1168.76 4064.7 1146.3C4058.43 1135.4 4069.32 1113.28 4097.72 1095.11C4136.52 1071.67 4181.63 1060.82 4226.85 1064.07C4272.13 1065.93 4315.69 1081.99 4351.35 1109.97C4378.76 1132.43 4387.01 1154.56 4379.42 1164.46Z" fill="#263238"/>
<path d="M2406.91 2112.25C2406.91 2112.25 2886.41 2249.63 3129.14 1068.37C3212.02 664.156 3577.27 330.616 3577.27 330.616L3425.03 288.676C3425.03 288.676 2492.11 574.662 2476.59 585.89C2461.06 597.118 2251.03 1076.95 2251.03 1076.95L2406.91 2112.25Z" fill="#263238"/>
<path d="M2523.48 2065.68C2523.48 2015.49 2469.98 1895.61 2420.45 1886.36C2288.35 1862.26 2049.59 1866.22 2038.03 2202.73C2022.51 2662.42 2487.48 2583.17 2488.47 2569.96C2489.47 2556.75 2518.53 2239.06 2523.48 2065.68Z" fill="#FFBF9D"/>
<path d="M2353.41 2390.97C2351.43 2390.97 2345.15 2396.25 2331.61 2402.19C2312.33 2409.98 2290.79 2409.98 2271.51 2402.19C2223.62 2382.71 2185.32 2303.12 2185.98 2221.55C2185.98 2182.1 2194.9 2143.15 2212.07 2107.62C2216.83 2093.38 2225.02 2080.51 2235.89 2070.15C2246.77 2059.79 2260.02 2052.25 2274.48 2048.18C2283.76 2046 2293.51 2047.16 2302.02 2051.45C2310.53 2055.73 2317.27 2062.88 2321.04 2071.63C2326.66 2084.84 2323.36 2093.75 2326 2094.74C2328.64 2095.73 2335.9 2087.15 2332.93 2068.32C2330.75 2056.76 2324.69 2046.27 2315.76 2038.6C2303.37 2028.72 2287.6 2024.09 2271.84 2025.72C2252.86 2028.79 2234.99 2036.69 2219.96 2048.66C2204.92 2060.63 2193.22 2076.28 2185.98 2094.08C2164.61 2133.08 2153.26 2176.76 2152.95 2221.22C2152.95 2314.02 2197.21 2402.19 2262.92 2423.66C2275.14 2427.65 2288.09 2428.87 2300.83 2427.21C2313.57 2425.55 2325.78 2421.07 2336.57 2414.08C2353.41 2402.2 2355.72 2391.96 2353.41 2390.97Z" fill="#FF9A6C"/>
<path d="M2724.92 1880.09C2724.92 1880.09 2750.02 1877.78 2793.28 1864.57C2854.04 1844.46 2909.31 1810.55 2954.77 1765.5C2986.12 1734.68 3013.93 1700.46 3037.66 1663.45C3064.11 1620.51 3086.23 1575.04 3103.71 1527.73C3140.92 1417.94 3171.47 1306.01 3195.18 1192.53C3224.57 1072.33 3257.27 958.395 3294.25 857.012C3325.65 766.944 3363.62 679.305 3407.86 594.804C3437.75 537.464 3471.63 482.289 3509.24 429.685C3522.45 411.191 3534.01 396.661 3542.26 388.405C3545.74 383.388 3549.73 378.741 3554.15 374.535C3551.42 379.951 3548.1 385.047 3544.24 389.726C3537.64 399.633 3526.74 413.503 3514.19 432.327C3478 485.4 3444.92 540.533 3415.12 597.446C3372.01 681.973 3335.04 769.492 3304.49 859.324C3269.16 960.377 3238.44 1073.98 3207.73 1194.19C3184.04 1308.41 3153.16 1421.03 3115.27 1531.36C3097.03 1579.28 3074.13 1625.29 3046.91 1668.74C3022.48 1706.17 2993.77 1740.64 2961.38 1771.44C2914.8 1816.35 2858.2 1849.52 2796.26 1868.2C2773.15 1875.47 2749.14 1879.47 2724.92 1880.09Z" fill="#263238"/>
<path d="M1732.23 1739.08C1733.89 1732.28 1736.44 1725.73 1739.83 1719.6L1765.25 1665.11C1787.38 1617.55 1822.72 1550.51 1868.95 1469.61C1915.18 1388.7 1974.29 1293.59 2044.3 1191.55C2114.32 1089.5 2197.87 981.845 2290.33 873.197C2382.8 764.549 2478.57 667.459 2568.06 581.927C2657.56 496.396 2742.43 424.404 2816.07 366.612C2889.71 308.821 2950.15 263.248 2993.41 234.517L3043.6 201.494C3049.13 197.136 3055.25 193.578 3061.77 190.926C3057.12 196.234 3051.79 200.898 3045.92 204.796L2998.36 241.452C2956.42 272.494 2896.98 319.389 2825.32 378.501C2753.66 437.614 2670.44 510.596 2581.27 596.458C2492.11 682.319 2399.31 780.07 2306.18 887.728C2213.06 995.385 2131.82 1103.37 2060.16 1203.43C1988.49 1303.5 1928.06 1397.28 1881.83 1477.53C1835.59 1557.78 1796.96 1623.17 1772.52 1669.4C1760.96 1690.54 1751.38 1708.04 1743.46 1721.91C1740.6 1728.16 1736.82 1733.95 1732.23 1739.08Z" fill="#455A64"/>
<path d="M5994.28 6586.97C6000.88 6551.63 5856.57 5646.78 5590.73 5023.62C5493.64 4795.43 5422.97 4636.26 5323.57 4537.84C5226.77 4444.33 5115.19 4367.45 4993.33 4310.31L3886.7 3947.05C3886.7 3947.05 3625.15 4255.49 3146.64 4188.12C2568.39 4106.88 2458.09 3819.58 2458.09 3819.58C2458.09 3819.58 1075.72 4065.6 784.118 4336.73C465.769 4633.94 126.284 5895.12 126.284 5895.12L1406.29 6267.96L1482.24 8165.51L942.632 9410.17C963.106 9416.45 2362.65 9788.29 3060.45 9791.93C4410.13 9798.86 5213.6 9405.55 5213.6 9405.55L4670.02 8259.62L4989.69 6695.62L5994.28 6586.97Z" fill="#FF73A4"/>
<g opacity="0.2">
<path d="M1104.45 9036.67C1104.45 9036.67 2508.62 9203.77 2821.68 9282.7C3134.75 9361.62 3449.14 9520.8 3921.05 9381.77C4392.96 9242.74 4888.64 8721.29 4888.64 8721.29L4702.39 8328.97L2997.04 8784.7L1322.07 8534.71L1104.45 9036.67Z" fill="black"/>
</g>
<path d="M1369.96 5316.21C1374.58 5316.21 1391.42 5638.52 1407.61 6036.13C1423.79 6433.74 1432.7 6756.71 1427.75 6756.71C1422.8 6756.71 1406.29 6434.73 1390.43 6036.79C1374.58 5638.85 1365.34 5316.54 1369.96 5316.21Z" fill="#263238"/>
<path d="M4846.04 5126C4849.83 5131.14 4853.04 5136.68 4855.62 5142.51C4860.9 5153.74 4869.82 5169.92 4879.07 5191.39C4906.09 5252.37 4929.79 5314.76 4950.07 5378.3C5018.08 5587.98 5056.11 5806.23 5063.01 6026.56C5064.09 6246.63 5045.41 6466.35 5007.2 6683.07C4995.73 6748.64 4980.85 6813.56 4962.62 6877.58C4956.01 6900.37 4950.07 6917.87 4945.77 6929.43C4944.09 6935.54 4941.65 6941.42 4938.51 6946.93C4938.51 6946.93 4945.11 6921.83 4956.01 6875.93C4966.91 6830.03 4981.77 6763.98 4995.31 6681.09C5029.71 6464.74 5046.61 6245.96 5045.84 6026.89C5038.63 5808.11 5002.54 5591.25 4938.51 5381.93C4914.07 5301.69 4890.62 5237.62 4872.46 5194.03C4854.3 5150.44 4844.72 5126.66 4846.04 5126Z" fill="#263238"/>
<path d="M2456.77 7418.84C2456.77 7418.84 2481.54 7415.2 2525.79 7409.59C2588.12 7401.73 2649.89 7389.93 2710.72 7374.25C2912.33 7323.46 3100.08 7228.37 3260.32 7095.9C3420.56 6963.42 3549.25 6796.9 3637.04 6608.43C3663.76 6551.54 3687.03 6493.09 3706.72 6433.41C3712.84 6411.03 3720.11 6388.98 3728.52 6367.36C3728.22 6373.4 3727.23 6379.38 3725.54 6385.19C3722.57 6396.75 3719.6 6413.92 3713 6435.39C3695.6 6496.44 3673.52 6556.06 3646.95 6613.72C3561.29 6805.79 3432.4 6975.48 3270.34 7109.52C3108.28 7243.57 2917.44 7338.35 2712.71 7386.47C2651.13 7401.18 2588.54 7411.22 2525.46 7416.52C2503 7418.84 2485.5 7418.84 2473.94 7419.5C2468.21 7419.99 2462.45 7419.76 2456.77 7418.84Z" fill="#263238"/>
<g opacity="0.3">
<path d="M2553.53 7423.46C2838.53 7445.92 3139.37 7399.35 3372.52 7233.57C3605.67 7067.79 3754.28 6766.95 3685.92 6489.22C3498.34 6970.04 3157.54 7299.62 2553.53 7423.46Z" fill="black"/>
</g>
<path d="M908.618 4123.73C934.961 4086.27 968.673 4054.58 1007.69 4030.6C1175.73 3905.9 1313.02 3744.42 1409.07 3558.51C1505.11 3372.61 1557.36 3167.19 1561.83 2957.99L2420.45 3227.46C2420.45 3414.38 2456.11 3960.92 2392.38 4114.48C2328.64 4268.04 2222.3 4538.51 1996.09 4570.21C1388.12 4655.08 1418.83 4124.06 1107.09 4186.47C1058.22 4196.05 842.9 4285.54 842.9 4285.54C861.654 4230.38 883.597 4176.35 908.618 4123.73Z" fill="#263238"/>
<path d="M5455 7583.62C5445.79 7593.76 5435.49 7602.84 5424.29 7610.7C5400.51 7628.87 5371.12 7651.98 5336.44 7679.06C5261.81 7736.53 5158.12 7814.79 5042.86 7900.65C4927.61 7986.52 4822.6 8063.13 4745.65 8117.95L4654.83 8182.02C4644.58 8190.36 4633.52 8197.67 4621.81 8203.81C4630.91 8193.57 4641.22 8184.48 4652.52 8176.73L4740.37 8108.04C4815 8050.58 4918.69 7972.31 5033.95 7886.78C5149.2 7801.25 5253.89 7724.31 5331.16 7669.49L5422.31 7605.42C5432.33 7596.92 5443.3 7589.61 5455 7583.62Z" fill="white"/>
<path d="M3793.24 8597.13L6928.85 6203.23L7187.76 6513L3993.37 8921.75L3793.24 8597.13Z" fill="#FF73A4"/>
<path d="M3603.36 8396.67L5986.02 6508.7L6203.65 6744.49L3782.35 8622.55L3603.36 8396.67Z" fill="#455A64"/>
<g opacity="0.3">
<path d="M3793.24 8597.13L6928.85 6203.23L7187.76 6513L3993.37 8921.75L3793.24 8597.13Z" fill="black"/>
</g>
<path d="M5431.55 8014.26L5572.56 7820.08L5643.56 7673.12L5577.52 7517.58C5556.78 7397.61 5546.5 7276.07 5546.81 7154.32C5551.1 7066.81 5537.89 7031.47 5599.31 7000.76C5660.74 6970.05 5695.74 7048.97 5695.74 7048.97C5695.74 7048.97 5652.15 6829.7 5733.06 6793.04C5749.46 6784.78 5767.46 6780.18 5785.81 6779.58C5804.16 6778.97 5822.43 6782.37 5839.33 6789.53C5856.24 6796.7 5871.38 6807.46 5883.71 6821.07C5896.04 6834.67 5905.26 6850.8 5910.73 6868.33C5926.25 6914.57 5830.15 6650.05 5951.68 6619.66C6073.2 6589.28 6169.3 6716.09 6169.3 6716.09C6174.92 6689.08 6188.07 6664.2 6207.23 6644.33C6226.39 6624.47 6250.77 6610.43 6277.57 6603.83C6304.36 6597.24 6332.48 6598.36 6358.67 6607.06C6384.86 6615.76 6408.05 6631.7 6425.57 6653.02C6436.57 6667.27 6446.19 6682.52 6454.3 6698.59L6541.81 6873.95C6541.81 6873.95 6590.03 6716.42 6691.08 6628.58C6792.13 6540.74 6889.22 6536.44 6910.03 6632.87C6930.83 6729.3 6809.3 6803.94 6791.8 6940C6774.3 7076.05 6681.17 7232.26 6603.24 7356.42C6509.05 7500.27 6423.69 7649.7 6347.63 7803.9C6347.63 7803.9 6279.27 8167.16 6178.22 8365.3C6040.51 8634.11 5900.16 8728.56 5673.95 8724.6C5591 8726.05 5509.7 8701.29 5441.64 8653.86C5373.57 8606.43 5322.2 8538.73 5294.83 8460.41" fill="#FFBF9D"/>
<path d="M5294.17 8460.07C5295.63 8462.44 5296.74 8464.99 5297.48 8467.67C5299.46 8472.62 5302.43 8479.89 5307.05 8489.47C5320.59 8517.63 5337.2 8544.21 5356.59 8568.72C5387.56 8608.13 5425.92 8641.11 5469.53 8665.81C5528.82 8698.37 5595.09 8716.16 5662.72 8717.66C5746.29 8723.35 5829.91 8707.31 5905.44 8671.1C5991.34 8622.83 6062.56 8552.19 6111.51 8466.68C6140.58 8420.82 6166.51 8373.05 6189.12 8323.69C6212.56 8270.51 6232.96 8216.04 6250.21 8160.55C6287.11 8042.22 6317.43 7921.94 6341.03 7800.26C6388.58 7701.19 6443.4 7600.14 6506.15 7499.08C6568.89 7398.03 6635.93 7296.98 6694.38 7187.01C6724.36 7131.91 6749.02 7074.07 6768.02 7014.29C6776.94 6983.68 6783.57 6952.44 6787.84 6920.84C6794.91 6888.21 6806.82 6856.82 6823.17 6827.71C6838.7 6798.32 6857.85 6771.24 6874.36 6743.17C6892.53 6717.14 6903.26 6686.66 6905.4 6655C6905.8 6639.8 6902.31 6624.75 6895.26 6611.29C6888.21 6597.82 6877.83 6586.38 6865.11 6578.05C6850.66 6572.29 6835.1 6569.81 6819.57 6570.78C6804.04 6571.75 6788.92 6576.15 6775.29 6583.66C6718.01 6611.52 6669.3 6654.3 6634.28 6707.5C6599.02 6759.68 6571.13 6816.46 6551.39 6876.25L6544.78 6896.07L6535.54 6877.58C6513.41 6832.99 6491.29 6788.41 6469.49 6745.48C6458.26 6723.68 6448.35 6700.9 6436.47 6679.43C6424.56 6659.6 6408.85 6642.31 6390.23 6628.58C6371.13 6616.44 6349.34 6609.16 6326.78 6607.37C6304.21 6605.59 6281.55 6609.35 6260.78 6618.34C6240.27 6627.15 6222.17 6640.75 6207.98 6657.98C6193.79 6675.21 6183.93 6695.59 6179.21 6717.41L6175.58 6733.92L6164.68 6720.71C6136.18 6684.66 6099.5 6655.91 6057.68 6636.83C6036.81 6627.82 6014.37 6623 5991.64 6622.63H5975.45L5959.27 6625.27C5949.09 6626.7 5939.44 6630.68 5931.2 6636.83C5915.08 6650.14 5904.48 6668.98 5901.48 6689.67C5897.45 6711.44 5896.34 6733.65 5898.18 6755.72C5899.64 6777.37 5902.62 6798.88 5907.09 6820.11C5909.08 6830.68 5911.72 6841.25 5914.36 6851.49L5918.65 6867.01V6870.64C5918.65 6870.64 5918.65 6872.62 5918.65 6868.66C5891.24 6876.92 5911.06 6872.95 5905.11 6874.6V6872.95C5904.43 6870.46 5903.55 6868.03 5902.47 6865.69C5895.69 6846.78 5884.23 6829.89 5869.16 6816.61C5854.09 6803.33 5835.89 6794.08 5816.28 6789.73C5796.89 6785.87 5776.86 6786.67 5757.83 6792.04C5748.71 6793.68 5740.03 6797.16 5732.3 6802.27C5724.58 6807.38 5717.98 6814.02 5712.91 6821.77C5696.41 6856.78 5689.13 6895.43 5691.78 6934.05C5692.46 6972.04 5696.21 7009.93 5703.01 7047.32L5711.59 7095.2L5690.46 7051.61C5677.58 7025.19 5653.8 6998.44 5624.41 7000.42C5610.26 7001.99 5596.79 7007.35 5585.44 7015.95C5573.28 7023.55 5564.25 7035.27 5560.02 7048.97C5554.17 7077.08 5551.84 7105.81 5553.08 7134.5C5553.08 7163.56 5550.77 7190.97 5553.08 7218.71C5557.56 7319.13 5567.49 7419.23 5582.8 7518.57C5607.9 7577.35 5629.36 7627.88 5648.85 7674.44V7676.09V7677.74L5576.86 7824.37C5530.62 7886.45 5495.29 7934.67 5470.52 7967.69C5458.96 7983.54 5449.72 7995.76 5443.11 8004.35C5436.51 8012.93 5433.2 8016.57 5433.2 8016.57C5433.2 8016.57 5435.85 8011.94 5441.79 8003.36L5467.88 7965.71C5491.99 7932.69 5526.66 7883.48 5571.57 7820.4C5591.39 7778.79 5614.17 7730.91 5641.91 7673.45V7676.75C5621.77 7630.19 5599.97 7579.66 5575.87 7521.54C5559.49 7421.92 5548.47 7321.49 5542.84 7220.69C5542.84 7193.28 5542.84 7164.22 5542.84 7135.82C5541.42 7105.8 5543.86 7075.72 5550.11 7046.33C5555.51 7030.62 5566.11 7017.22 5580.16 7008.35C5593.38 6998.2 5609.15 6991.91 5625.73 6990.19C5634.47 6989.92 5643.17 6991.39 5651.33 6994.5C5659.49 6997.62 5666.96 7002.33 5673.29 7008.35C5685.86 7019.8 5696.07 7033.6 5703.34 7048.97L5690.46 7052.93C5683.3 7014.8 5679.32 6976.14 5678.57 6937.35C5675.61 6895.98 5683.46 6854.56 5701.36 6817.14C5707.44 6807.86 5715.3 6799.87 5724.48 6793.64C5733.66 6787.41 5743.98 6783.05 5754.86 6780.82C5776.34 6774.66 5798.99 6773.76 5820.9 6778.17C5843.39 6782.57 5864.34 6792.73 5881.71 6807.67C5899.08 6822.6 5912.27 6841.8 5919.97 6863.38L5922.95 6871.3V6873.28C5917 6875.26 5936.82 6871.3 5909.41 6879.56V6877.25V6873.28L5904.78 6857.43C5902.14 6846.53 5899.5 6835.97 5897.19 6824.41C5892.63 6802.62 5889.54 6780.56 5887.94 6758.36C5886.09 6735.42 5887.2 6712.33 5891.24 6689.67C5895.06 6665.1 5907.75 6642.78 5926.91 6626.93C5948.5 6615.46 5972.49 6609.25 5996.93 6608.79C6021.38 6608.33 6045.58 6613.64 6067.59 6624.28C6112.21 6644.21 6151.31 6674.7 6181.52 6713.12L6166.99 6716.09C6172.21 6691.79 6183.18 6669.09 6198.99 6649.9C6214.79 6630.7 6234.96 6615.58 6257.81 6605.79C6281.1 6595.56 6306.56 6591.26 6331.91 6593.27C6357.27 6595.29 6381.73 6603.56 6403.11 6617.35C6423.87 6632.19 6441.31 6651.19 6454.3 6673.16C6467.51 6694.95 6477.42 6717.08 6487.32 6739.21C6509.45 6783.13 6531.57 6827.71 6553.37 6871.3H6537.85C6557.97 6809.75 6586.53 6751.29 6622.72 6697.6C6659.57 6641.87 6710.8 6597.14 6771 6568.14C6787 6559.48 6804.73 6554.51 6822.91 6553.59C6841.08 6552.68 6859.22 6555.84 6876.01 6562.86C6892.33 6571.99 6905.29 6586.11 6913 6603.15C6920.69 6619.37 6924.85 6637.04 6925.22 6655C6923.19 6689.75 6911.78 6723.3 6892.19 6752.09C6875.35 6780.49 6856.53 6807.57 6841.34 6835.64C6825.97 6863.32 6814.83 6893.15 6808.31 6924.14C6803.55 6956.25 6796.71 6988.02 6787.84 7019.25C6768.6 7080.15 6743.38 7139 6712.54 7194.93C6653.43 7305.89 6584.41 7406.29 6523.65 7507.34C6462.88 7608.39 6407.4 7708.12 6358.53 7806.86V7804.88C6334.43 7927.55 6303.68 8048.82 6266.39 8168.14C6249.09 8223.51 6228.69 8277.87 6205.3 8330.95C6182.15 8380.78 6155.67 8429 6126.04 8475.27C6075.68 8562.46 6002.49 8634.28 5914.36 8682.99C5836.94 8719.49 5751.38 8735.3 5666.02 8728.89C5597.13 8726.7 5529.8 8707.77 5469.86 8673.74C5425.99 8648.43 5387.51 8614.77 5356.59 8574.67C5337.59 8549.68 5321.63 8522.52 5309.03 8493.76C5304.74 8484.18 5302.1 8476.26 5300.12 8471.3C5297.68 8467.82 5295.68 8464.05 5294.17 8460.07Z" fill="#FF9A6C"/>
<path d="M6300.41 7392.42C6301.29 7398.44 6300.61 7404.58 6298.43 7410.25C6294.1 7426.85 6286.58 7442.44 6276.3 7456.16C6260.23 7477.6 6238.16 7493.8 6212.89 7502.72C6180.66 7513.81 6145.51 7512.99 6113.82 7500.41L6124.39 7495.13C6117.86 7520.49 6105.94 7544.16 6089.44 7564.5C6072.94 7584.84 6052.24 7601.39 6028.77 7613.02C6005.3 7624.65 5979.59 7631.08 5953.41 7631.88C5927.23 7632.67 5901.18 7627.82 5877.04 7617.64L5887.28 7613.02C5876.07 7644.41 5853.75 7670.61 5824.54 7686.66C5802.12 7699.15 5776.44 7704.56 5750.89 7702.18C5734.55 7700.89 5718.62 7696.4 5704 7688.98C5694.09 7683.36 5689.47 7679.4 5690.13 7678.74C5709.74 7686.27 5730.3 7691.05 5751.22 7692.94C5777.86 7693.67 5804.02 7685.81 5825.84 7670.53C5847.67 7655.24 5864 7633.34 5872.42 7608.07L5875.06 7600.14L5882.99 7603.11C5905.87 7612.11 5930.42 7616.09 5954.98 7614.78C5979.53 7613.47 6003.52 7606.9 6025.32 7595.52C6045.5 7584.52 6063.3 7569.64 6077.7 7551.73C6092.09 7533.82 6102.8 7513.23 6109.2 7491.16L6111.51 7482.25L6120.1 7485.88C6145.61 7496.79 6173.95 7499.21 6200.95 7492.79C6227.94 7486.37 6252.16 7471.44 6270.03 7450.21C6282.91 7432.53 6293.15 7413.06 6300.41 7392.42Z" fill="#FF9A6C"/>
<path d="M6569.88 7279.48C6569.88 7279.48 6564.93 7294.67 6549.41 7314.81C6529.67 7341.19 6505.14 7363.59 6477.09 7380.86C6462.57 7390.28 6446.07 7396.2 6428.87 7398.15C6411.68 7400.1 6394.27 7398.02 6378.01 7392.09C6353.25 7381.85 6344.99 7365.67 6346.97 7364.68C6358.27 7370.84 6369.96 7376.25 6381.98 7380.86C6396.66 7384.25 6411.88 7384.68 6426.73 7382.13C6441.59 7379.57 6455.78 7374.09 6468.5 7366C6494.87 7349.13 6519.06 7329.05 6540.49 7306.23C6557.66 7289.38 6567.9 7277.83 6569.88 7279.48Z" fill="#FF9A6C"/>
<path d="M6227.76 7099.17C6199.43 7039.59 6181.56 6975.58 6174.92 6909.94C6162.57 6845.14 6161.23 6778.71 6170.96 6713.45C6176.24 6713.45 6176.24 6800.97 6192.09 6907.3C6207.94 7013.64 6232.38 7097.52 6227.76 7099.17Z" fill="#FF9A6C"/>
<path d="M6653.76 7145.73C6646.13 7133.45 6634.45 7124.23 6620.74 7119.64C6603.67 7115.61 6587.68 7107.95 6573.84 7097.18C6566.21 7088.86 6561.06 7078.56 6558.98 7067.46C6556.67 7056.56 6555.02 7046.66 6553.04 7034.44C6541.29 6983.54 6535.41 6931.46 6535.54 6879.23C6552.55 6928.69 6564.18 6979.84 6570.21 7031.8C6570.85 7050.39 6576.06 7068.54 6585.4 7084.63C6597.42 7094.49 6611.05 7102.2 6625.69 7107.42C6636.94 7112.26 6646.32 7120.6 6652.44 7131.2C6656.07 7140.77 6654.75 7145.73 6653.76 7145.73Z" fill="#FF9A6C"/>
<path d="M5975.12 7279.81C5968.95 7260.28 5964.96 7240.12 5963.24 7219.71C5957.29 7182.39 5947.71 7131.53 5936.82 7074.73C5919.91 7006.98 5910.93 6937.49 5910.07 6867.67C5914.36 6867.67 5930.87 6958.49 5953.99 7071.76C5977.11 7185.03 5980.41 7279.81 5975.12 7279.81Z" fill="#FF9A6C"/>
<path d="M5767.73 7401C5762.78 7401 5756.18 7325.38 5739.33 7233.57C5722.49 7141.77 5702.02 7068.45 5706.31 7068.45C5751.65 7173.24 5772.65 7286.94 5767.73 7401Z" fill="#FF9A6C"/>
<path d="M6278.61 7774.5C6262.27 7787.51 6243.85 7797.67 6224.12 7804.55C6178.04 7824.25 6129.84 7838.54 6080.47 7847.15C6031.01 7855.93 5980.71 7859.03 5930.54 7856.4C5909.76 7856.99 5889.05 7853.74 5869.45 7846.82C5939.04 7845.03 6008.49 7839.51 6077.5 7830.31C6145.49 7815.31 6212.62 7796.68 6278.61 7774.5Z" fill="#FF9A6C"/>
<path d="M7019.01 6637.16C6966.89 6595.42 6918.5 6549.23 6874.36 6499.12C6825.98 6453.04 6781.77 6402.76 6742.27 6348.87C6794.17 6390.86 6842.45 6437.14 6886.58 6487.24C6934.84 6533.41 6979.14 6583.57 7019.01 6637.16Z" fill="white"/>
<path d="M7101.57 6575.41C7049.66 6533.42 7001.39 6487.13 6957.25 6437.04C6908.88 6391.06 6864.67 6340.89 6825.16 6287.11C6877.11 6328.92 6925.39 6375.1 6969.47 6425.15C7017.67 6471.41 7061.86 6521.67 7101.57 6575.41Z" fill="white"/>
<path d="M1233.9 7830.31L1399.02 6248.8L256.728 5926.49C256.728 5926.49 10.3708 7351.47 0.463651 7911.55C-9.77372 8482.2 150.061 8611.98 426.14 8728.89C732.601 8858.67 3046.58 9154.24 3046.58 9154.24L3117.25 8361.66L1233.9 7830.31Z" fill="#FFBF9D"/>
<path d="M2895 8329.64C2895 8329.64 3340.16 8131.49 3468.29 8095.83C3596.42 8060.16 3765.5 8201.17 3765.5 8201.17C3765.5 8201.17 3874.15 8206.79 4104.33 8241.79C4322.61 8274.82 4578.88 8258.97 4592.09 8360.68C4596.66 8388.75 4594.23 8417.51 4585.01 8444.41C4575.79 8471.32 4560.07 8495.53 4539.25 8514.9C4539.25 8514.9 4626.43 8577.65 4593.74 8652.28C4561.05 8726.91 4530.33 8739.79 4481.79 8753C4433.24 8766.21 4340.78 8784.04 4340.78 8784.04C4361.88 8795.62 4377.75 8814.83 4385.12 8837.74C4392.49 8860.65 4390.8 8885.52 4380.41 8907.22C4345.07 8991.1 4309.74 8991.1 4270.11 9004.31C4230.48 9017.52 4084.84 9040.31 4084.84 9040.31C4043.16 9083.71 3999.06 9124.72 3952.75 9163.16C3882.08 9220.62 3793.9 9268.83 3718.94 9268.83C3643.98 9268.83 3529.38 9299.87 3304.16 9268.83C3164.67 9248.33 3031.03 9198.83 2911.84 9123.53L2895 8329.64Z" fill="#FFBF9D"/>
<path d="M4539.91 8514.9C4446.32 8520.63 4352.47 8520.63 4258.88 8514.9C4165.25 8514.3 4071.73 8508.13 3978.84 8496.4C4072.31 8490.47 4166.07 8490.47 4259.54 8496.4C4353.29 8496.83 4446.92 8503.01 4539.91 8514.9Z" fill="#FF9A6C"/>
<path d="M4345.4 8784.7C4293.37 8793.36 4240.54 8796.24 4187.88 8793.28C4135.32 8796.25 4082.6 8793.37 4030.68 8784.7C4082.62 8776.22 4135.32 8773.34 4187.88 8776.11C4240.54 8773.36 4293.35 8776.23 4345.4 8784.7Z" fill="#FF9A6C"/>
<path d="M4103.67 9036.67C4065.41 9051.12 4025.25 9059.91 3984.45 9062.76C3944.44 9071.32 3903.43 9074.32 3862.59 9071.68C3901.08 9057.62 3941.3 9048.84 3982.14 9045.59C4022.04 9037.03 4062.94 9034.03 4103.67 9036.67Z" fill="#FF9A6C"/>
<path d="M3798.2 8201.83C3768.67 8207.56 3738.75 8211.09 3708.7 8212.4C3653.55 8218.01 3576.61 8227.92 3495.04 8245.42C3413.47 8262.93 3338.18 8282.74 3285.34 8298.92C3257.13 8309.25 3228.22 8317.53 3198.82 8323.69C3224.73 8308.23 3252.46 8296.03 3281.37 8287.36C3418.33 8237.57 3561.87 8208.2 3707.38 8200.18C3737.61 8197.09 3768.1 8197.64 3798.2 8201.83Z" fill="#FF9A6C"/>
<path d="M614.045 8079.98C617.591 8071.23 622.495 8063.09 628.575 8055.87C643.531 8035.22 660.094 8015.79 678.111 7997.75C704.801 7970.59 734.115 7946.14 765.624 7924.76C804.21 7898.61 845.374 7876.48 888.472 7858.72C931.852 7841.7 976.903 7829.31 1022.88 7821.73C1060.41 7815.51 1098.47 7813.08 1136.48 7814.46C1161.99 7815.07 1187.4 7817.83 1212.44 7822.72C1221.78 7823.77 1230.91 7826.22 1239.52 7829.99C1239.52 7833.29 1199.89 7826.02 1136.48 7826.68C1099.27 7827.19 1062.16 7830.72 1025.52 7837.25C935.968 7853.13 850.512 7886.82 774.21 7936.32C743.21 7956.67 713.94 7979.53 686.697 8004.68C640.134 8049.59 616.687 8081.96 614.045 8079.98Z" fill="#FF9A6C"/>
</svg>
