<svg width="6610" height="6279" viewBox="0 0 6610 6279" fill="none" xmlns="http://www.w3.org/2000/svg">
<path d="M5870.9 4335.69L6087.8 4331.35L6194.55 4329.65C6230.03 4328.87 6265.35 4329.65 6300.83 4328.72L6293.86 4335.69L6293.08 4154.11L6300.83 4161.86L6085.63 4160.15C6014.06 4160.15 5942.48 4158.45 5870.9 4157.67L5875.08 4153.49C5875.08 4183.24 5873.69 4213.14 5873.07 4243.35L5870.9 4335.69ZM5870.9 4335.69L5868.58 4245.83C5868.58 4214.84 5866.87 4184.94 5866.56 4154.11V4149.93H5870.9C5942.48 4149 6014.06 4147.45 6085.63 4147.29L6300.52 4146.36H6308.27V4154.11L6307.34 4335.69V4342.66H6300.52C6264.27 4342.66 6228.01 4342.66 6192.07 4342.66L6083.62 4340.96L5870.9 4335.69Z" fill="#EBEBEB"/>
<path d="M6110.58 4564.52L6327.48 4560.33L6434.23 4558.48C6469.7 4558.48 6505.03 4558.48 6540.51 4558.48L6533.53 4565.29V4383.87L6541.28 4391.46L6326.39 4390.53C6254.82 4390.53 6183.24 4388.83 6111.66 4388.05L6115.84 4383.87C6115.84 4413.46 6114.45 4443.36 6113.83 4473.73L6110.58 4564.52ZM6110.58 4564.52L6108.25 4474.66C6108.25 4444.45 6106.55 4413.77 6106.24 4383.1V4378.91H6110.58C6182.15 4378.14 6253.73 4376.43 6325.31 4376.43L6540.2 4375.5H6547.94V4383.41L6547.17 4564.83V4571.8H6540.35C6504.1 4571.8 6467.84 4571.8 6431.9 4570.87L6323.45 4569.17L6110.58 4564.52Z" fill="#EBEBEB"/>
<path d="M1224.41 2167.14L1441.31 2162.8L1548.06 2161.1C1583.54 2161.1 1618.86 2161.1 1654.34 2160.32L1647.37 2167.14L1646.59 1985.56L1654.34 1993.31L1439.45 1992.38C1367.87 1992.38 1296.3 1990.67 1224.72 1989.9L1228.9 1985.56C1228.9 2015.31 1227.51 2045.21 1226.89 2075.42L1224.41 2167.14ZM1224.41 2167.14L1222.24 2077.28C1221.47 2047.07 1220.38 2016.39 1220.07 1985.56V1981.38H1224.41C1295.99 1980.6 1367.57 1978.9 1439.14 1978.9L1654.03 1977.81H1661.78V1985.56V2167.14V2174.11H1654.96C1618.71 2174.11 1582.45 2174.11 1546.51 2173.18L1438.06 2171.48L1224.41 2167.14Z" fill="#EBEBEB"/>
<path d="M1467.96 2396.12L1684.86 2391.79L1791.61 2390.08C1827.09 2389.31 1862.41 2390.08 1897.89 2389.15L1890.92 2396.12L1890.14 2214.55L1897.89 2222.29L1683 2221.36C1611.42 2221.36 1539.85 2219.66 1468.11 2218.73L1472.45 2214.55C1472.45 2244.29 1471.06 2274.2 1470.44 2304.41L1467.96 2396.12ZM1467.96 2396.12L1465.79 2306.27C1465.79 2275.28 1464.09 2245.38 1463.78 2214.55V2210.36H1467.96C1539.69 2209.59 1611.27 2207.89 1682.85 2207.73L1897.73 2206.8H1905.48V2214.55L1904.55 2396.12V2403.1H1897.73C1861.48 2403.1 1825.23 2403.1 1789.28 2402.17L1680.83 2400.46L1467.96 2396.12Z" fill="#EBEBEB"/>
<path d="M70.6499 4564.52L287.551 4560.33L394.298 4558.48C429.931 4558.48 465.255 4558.48 500.579 4558.48L493.762 4565.29L492.833 4383.87L500.579 4391.46L285.847 4390.53C214.115 4390.53 142.537 4388.83 70.9598 4388.05L75.1429 4383.87C75.1429 4413.46 73.9034 4443.36 73.1288 4473.73L70.6499 4564.52ZM70.6499 4564.52L68.4809 4474.66C68.4809 4444.45 66.7767 4413.77 66.4668 4383.1V4378.91H70.6499C142.227 4378.14 213.805 4376.43 285.537 4376.43L500.27 4375.5H508.171V4383.41V4564.83V4571.8H501.199C465.1 4571.8 428.847 4571.8 392.748 4570.87L284.298 4569.17L70.6499 4564.52Z" fill="#EBEBEB"/>
<path d="M310.326 269.097L527.227 264.759L633.973 263.055C669.607 263.055 704.931 263.055 740.255 263.055L733.438 269.872L732.509 88.2945L740.255 96.041L525.523 95.1114C453.945 95.1114 382.213 93.4072 310.636 92.4777L314.819 88.2945C314.819 118.041 313.579 147.942 312.805 178.154L310.326 269.097ZM310.326 269.097L308.157 179.238C308.157 148.252 306.452 118.351 306.143 87.5199V83.3368H310.326C381.903 83.3368 453.636 80.8579 525.213 80.8579L739.945 79.7734H747.847V87.5199V269.097V276.069H740.875C704.776 276.069 668.523 276.069 632.424 275.14L523.974 273.435L310.326 269.097Z" fill="#EBEBEB"/>
<path d="M70.6499 498.084L287.551 493.746L394.298 492.041C429.931 492.041 465.255 492.041 500.579 491.112L493.762 498.084L492.833 316.506L500.579 324.253L285.847 323.323C214.115 323.323 142.537 321.464 70.9598 320.689L75.1429 316.506C75.1429 346.253 73.9034 376.154 73.1288 406.365L70.6499 498.084ZM70.6499 498.084L68.4809 408.224C68.4809 377.239 66.7767 347.337 66.4668 316.506V312.323H70.6499C142.227 311.394 213.805 309.844 285.537 309.689L500.27 308.76H508.171V316.506V498.084V505.055H501.199C465.1 505.055 428.847 505.055 392.748 505.055L284.298 503.351L70.6499 498.084Z" fill="#EBEBEB"/>
<path d="M6110.58 269.097L6327.48 264.759L6434.23 263.055C6469.7 263.055 6505.03 263.055 6540.51 263.055L6533.53 269.872V88.2945L6541.28 96.041L6326.39 95.1114C6254.82 95.1114 6183.24 93.4072 6111.66 92.4777L6115.84 88.2945C6115.84 118.041 6114.45 147.942 6113.83 178.154L6110.58 269.097ZM6110.58 269.097L6108.25 179.238C6108.25 148.252 6106.55 118.351 6106.24 87.5199V83.3368H6110.58C6182.15 83.3368 6253.73 80.8579 6325.31 80.8579L6540.2 79.7734H6547.94V87.5199L6547.17 269.097V276.069H6540.35C6504.1 276.069 6467.84 276.069 6431.9 275.14L6323.45 273.435L6110.58 269.097Z" fill="#EBEBEB"/>
<path d="M1711.66 2167.14L1928.56 2162.8L2035 2161.56C2070.48 2161.56 2105.8 2161.56 2141.28 2160.79L2134.31 2167.6V1986.03L2142.06 1993.77L1926.55 1992.38C1854.97 1992.38 1783.24 1990.67 1711.66 1989.9L1716 1985.56C1716 2015.31 1714.61 2045.21 1713.83 2075.42L1711.66 2167.14ZM1711.66 2167.14L1709.49 2077.28C1709.49 2047.07 1707.79 2016.39 1707.48 1985.56V1981.38H1711.66C1783.24 1980.6 1854.97 1978.9 1926.55 1978.9L2141.44 1977.81H2149.18V1985.56L2148.41 2167.14V2174.11H2141.59C2105.34 2174.11 2069.09 2174.11 2033.14 2173.18L1924.69 2171.48L1711.66 2167.14Z" fill="#EBEBEB"/>
<path d="M6343.44 347.957H5296.27V1618.22H6343.44V347.957Z" fill="#EBEBEB"/>
<path d="M6223.83 463.844H5415.87V1502.18H6223.83V463.844Z" fill="white"/>
<path d="M5447.32 463.844H5415.87V1502.18H5447.32V463.844Z" fill="#C7C7C7"/>
<path d="M6374.89 347.957H6343.44V1618.22H6374.89V347.957Z" fill="#C7C7C7"/>
<path d="M5837.75 1271.49H6028.31V703.985H5837.75V1271.49Z" fill="#EBEBEB"/>
<path d="M6119.25 892.843H5595.75V598.477H6119.25V892.843ZM5611.24 877.35H6103.76V613.97H5611.24V877.35Z" fill="#EBEBEB"/>
<path d="M6343.44 3478.31H5296.27V4748.57H6343.44V3478.31Z" fill="#EBEBEB"/>
<path d="M6223.83 3594.35H5415.87V4632.69H6223.83V3594.35Z" fill="white"/>
<path d="M5447.32 3594.35H5415.87V4632.69H5447.32V3594.35Z" fill="#C7C7C7"/>
<path d="M6374.89 3478.31H6343.44V4748.57H6374.89V3478.31Z" fill="#C7C7C7"/>
<path d="M5877.25 3834.49H5686.69V4402H5877.25V3834.49Z" fill="#EBEBEB"/>
<path d="M6119.25 4023.35H5595.75V3729.76H6119.25V4023.35ZM5611.24 4007.86H6103.76V3745.25H5611.24V4007.86Z" fill="#EBEBEB"/>
<path d="M6343.44 1918.94H5296.27V3189.21H6343.44V1918.94Z" fill="#EBEBEB"/>
<path d="M6223.83 2034.83H5415.87V3073.17H6223.83V2034.83Z" fill="white"/>
<path d="M5447.32 2034.83H5415.87V3073.17H5447.32V2034.83Z" fill="#C7C7C7"/>
<path d="M6374.89 1918.94H6343.44V3189.21H6374.89V1918.94Z" fill="#C7C7C7"/>
<path d="M5904.68 2303.17H5741.54V2715.75H5904.68V2303.17Z" fill="#EBEBEB"/>
<path d="M6084.39 2846.2H5630.45V2546.25H6084.39V2846.2ZM5645.94 2830.7H6068.9V2561.74H5645.94V2830.7Z" fill="#DBDBDB"/>
<path d="M1865.51 3048.69C1865.94 3074.34 1861.31 3099.82 1851.87 3123.67C1840.13 3148.64 1820.4 3168.98 1795.79 3181.46C1787.27 3186.57 1776.73 3192.46 1764.8 3198.97C1751.94 3205.73 1739.65 3213.56 1728.09 3222.36C1716.33 3231.27 1706.12 3242.05 1697.88 3254.28C1689.6 3266.75 1685.33 3281.45 1685.64 3296.42C1685.42 3307.14 1687.76 3317.76 1692.45 3327.41C1696.73 3336.25 1702.8 3344.11 1710.27 3350.49C1717.88 3356.81 1726.68 3361.55 1736.14 3364.43C1745.92 3367.49 1756.11 3369.05 1766.35 3369.08C1778.03 3369.29 1789.62 3367.13 1800.44 3362.73C1810.36 3358.88 1819.69 3353.67 1828.17 3347.24C1836.38 3340.73 1843.82 3333.29 1850.33 3325.08C1856.33 3317.64 1861.87 3309.82 1866.9 3301.69L1940.96 3352.81C1933.78 3369.83 1923.83 3385.53 1911.52 3399.29C1899.47 3412.82 1885.41 3424.42 1869.85 3433.69C1853.7 3443.28 1836.28 3450.53 1818.1 3455.22C1799.79 3460.02 1780.94 3462.41 1762.02 3462.35C1740.4 3462.36 1718.9 3459.23 1698.18 3453.05C1677.53 3446.92 1658.27 3436.81 1641.48 3423.31C1624.24 3409.03 1610.33 3391.16 1600.73 3370.94C1589.76 3347.07 1584.46 3320.98 1585.24 3294.72C1585 3278.48 1587.14 3262.3 1591.59 3246.69C1595.69 3233.17 1601.86 3220.36 1609.88 3208.73C1617.87 3197.21 1627.35 3186.79 1638.07 3177.74C1649.63 3168.12 1661.85 3159.32 1674.64 3151.41C1686 3144.59 1697.31 3138.08 1708.57 3131.88C1719.53 3125.9 1729.9 3118.9 1739.55 3110.97C1748.68 3103.6 1756.44 3094.69 1762.48 3084.63C1768.78 3073.61 1771.89 3061.06 1771.47 3048.38L1865.51 3048.69ZM1863.8 2850.38V2967.19H1769.3V2849.76L1863.8 2850.38Z" fill="#EBEBEB"/>
<path d="M4828.38 2603.27C4828.03 2577.67 4832.66 2552.26 4842.01 2528.44C4853.82 2503.42 4873.6 2483.04 4898.25 2470.49C4906.77 2465.38 4917.16 2459.65 4929.24 2452.98C4942.09 2446.28 4954.33 2438.45 4965.8 2429.59C4977.59 2420.72 4987.81 2409.93 4996.01 2397.67C5004.36 2385.23 5008.68 2370.52 5008.41 2355.53C5008.52 2344.82 5006.18 2334.23 5001.59 2324.55C4997.26 2315.78 4991.2 2307.98 4983.77 2301.62C4976.11 2295.25 4967.27 2290.45 4957.75 2287.52C4947.97 2284.44 4937.78 2282.87 4927.54 2282.87C4915.87 2282.74 4904.29 2284.89 4893.45 2289.22C4883.62 2293.17 4874.35 2298.38 4865.87 2304.72C4857.66 2311.17 4850.23 2318.55 4843.72 2326.72C4837.74 2334.24 4832.21 2342.1 4827.14 2350.27L4753.08 2299.14C4760.23 2282.15 4770.13 2266.44 4782.37 2252.66C4794.51 2239.13 4808.61 2227.48 4824.2 2218.11C4839.95 2208.69 4856.95 2201.55 4874.7 2196.89C4914.16 2186.48 4955.72 2187.24 4994.78 2199.06C5015.43 2205.06 5034.67 2215.18 5051.32 2228.8C5068.58 2243.09 5082.54 2260.96 5092.23 2281.17C5103.17 2304.99 5108.48 2331.03 5107.72 2357.24C5107.96 2373.52 5105.82 2389.75 5101.37 2405.42C5097.28 2418.93 5091.06 2431.69 5082.93 2443.22C5075.07 2454.81 5065.63 2465.24 5054.89 2474.21C5043.34 2483.84 5031.12 2492.65 5018.32 2500.55C5007.01 2507.36 4995.55 2514.03 4984.24 2520.22C4973.3 2526.18 4962.93 2533.13 4953.25 2540.98C4944.11 2548.44 4936.3 2557.4 4930.17 2567.48C4924.01 2578.49 4920.96 2590.97 4921.34 2603.58L4828.38 2603.27ZM4830.08 2801.58V2684.14H4924.59V2801.58H4830.08Z" fill="#EBEBEB"/>
<path d="M3305.42 6278.51C4275.9 6278.51 5062.63 6166.9 5062.63 6029.22C5062.63 5891.55 4275.9 5779.94 3305.42 5779.94C2334.94 5779.94 1548.21 5891.55 1548.21 6029.22C1548.21 6166.9 2334.94 6278.51 3305.42 6278.51Z" fill="#EBEBEB"/>
<path d="M1896.49 1700.65C1896.46 1733.72 1906.24 1766.05 1924.59 1793.56C1942.94 1821.07 1969.04 1842.52 1999.58 1855.2C2030.13 1867.88 2063.74 1871.21 2096.18 1864.78C2128.62 1858.34 2158.42 1842.44 2181.82 1819.06C2205.21 1795.69 2221.15 1765.9 2227.61 1733.47C2234.07 1701.04 2230.77 1667.42 2218.12 1636.86C2205.47 1606.31 2184.05 1580.19 2156.55 1561.82C2129.06 1543.44 2096.73 1533.63 2063.66 1533.63C2019.35 1533.63 1976.86 1551.22 1945.51 1582.54C1914.17 1613.86 1896.54 1656.34 1896.49 1700.65Z" fill="white"/>
<path d="M1896.49 1700.65C1896.94 1744.82 1914.81 1787.03 1946.23 1818.08C1961.78 1833.18 1980.15 1845.06 2000.31 1853.04C2020.46 1861.02 2041.99 1864.93 2063.66 1864.56C2106.54 1863.58 2147.3 1845.71 2177.07 1814.83C2206.57 1784.42 2223.07 1743.71 2223.07 1701.34C2223.07 1658.97 2206.57 1618.27 2177.07 1587.86C2146.97 1556.74 2105.74 1538.85 2062.45 1538.13C2019.16 1537.4 1977.36 1553.9 1946.23 1583.98C1914.96 1614.82 1897.09 1656.73 1896.49 1700.65ZM1896.49 1700.65C1896.27 1656.19 1913.58 1613.43 1944.68 1581.66C1976.28 1549.15 2019.47 1530.49 2064.8 1529.77C2110.13 1529.04 2153.9 1546.31 2186.52 1577.79C2202.95 1593.76 2216 1612.86 2224.92 1633.96C2233.84 1655.06 2238.43 1677.74 2238.43 1700.65C2238.43 1723.55 2233.84 1746.23 2224.92 1767.33C2216 1788.44 2202.95 1807.54 2186.52 1823.51C2170.43 1839.2 2151.39 1851.56 2130.5 1859.87C2109.6 1868.18 2087.27 1872.27 2064.79 1871.91C2042.31 1871.55 2020.13 1866.75 1999.51 1857.77C1978.9 1848.8 1960.26 1835.84 1944.68 1819.63C1913.55 1787.88 1896.23 1745.11 1896.49 1700.65Z" fill="#263238"/>
<path d="M632.27 800.816C632.27 958.133 678.919 1111.92 766.32 1242.72C853.721 1373.53 977.946 1475.48 1123.29 1535.68C1268.63 1595.88 1428.56 1611.63 1582.85 1580.94C1737.15 1550.25 1878.88 1474.49 1990.12 1363.25C2101.36 1252.01 2177.11 1110.29 2207.8 955.993C2238.49 801.699 2222.74 641.769 2162.54 496.427C2102.34 351.085 2000.39 226.859 1869.58 139.459C1738.78 52.0581 1584.99 5.4082 1427.68 5.4082C1216.72 5.4082 1014.41 89.2098 865.239 238.378C716.071 387.546 632.27 589.861 632.27 800.816Z" fill="white"/>
<path d="M632.27 800.816C632.443 905.196 653.178 1008.52 693.293 1104.88C733.407 1201.25 792.113 1288.77 866.058 1362.44C1014.89 1508.98 1215.61 1590.75 1424.47 1589.94C1633.33 1589.13 1833.41 1505.8 1981.1 1358.11C2128.79 1210.42 2212.12 1010.35 2212.93 801.482C2213.74 592.618 2131.96 391.9 1985.42 243.07C1874.89 131.981 1733.87 56.1898 1580.23 25.292C1426.6 -5.60576 1267.25 9.7795 1122.36 69.4999C977.47 129.22 853.56 230.59 766.318 360.774C679.075 490.958 632.424 644.102 632.27 800.816ZM632.27 800.816C632.496 602.911 706.335 412.167 839.421 265.693C972.507 119.219 1155.32 27.4904 1352.3 8.35268C1549.28 -10.785 1746.33 44.037 1905.12 162.153C2063.92 280.269 2173.09 453.232 2211.41 647.392C2249.73 841.552 2214.45 1043.02 2112.44 1212.61C2010.42 1382.2 1848.97 1507.77 1659.49 1564.9C1470.01 1622.04 1266.06 1606.64 1087.3 1521.71C908.548 1436.78 767.779 1288.39 692.382 1105.41C652.64 1008.78 632.218 905.298 632.27 800.816Z" fill="#263238"/>
<path d="M2282.89 1975.65C2282.89 1994.03 2288.34 2012 2298.55 2027.29C2308.77 2042.58 2323.29 2054.49 2340.27 2061.53C2357.26 2068.56 2375.95 2070.4 2393.98 2066.82C2412.01 2063.23 2428.58 2054.38 2441.58 2041.38C2454.58 2028.38 2463.43 2011.81 2467.02 1993.78C2470.6 1975.75 2468.76 1957.06 2461.73 1940.07C2454.69 1923.09 2442.78 1908.57 2427.49 1898.35C2412.2 1888.14 2394.23 1882.69 2375.85 1882.69C2351.19 1882.69 2327.55 1892.48 2310.12 1909.91C2292.68 1927.35 2282.89 1950.99 2282.89 1975.65Z" fill="white"/>
<path d="M2282.89 1975.65C2282.88 1987.68 2285.3 1999.6 2290.02 2010.68C2294.73 2021.75 2301.64 2031.76 2310.33 2040.1C2319.01 2048.44 2329.29 2054.93 2340.55 2059.19C2351.81 2063.45 2363.82 2065.39 2375.85 2064.89C2398.85 2063.93 2420.59 2054.11 2436.53 2037.5C2452.47 2020.88 2461.37 1998.75 2461.37 1975.72C2461.37 1952.7 2452.47 1930.57 2436.53 1913.95C2420.59 1897.33 2398.85 1887.52 2375.85 1886.56C2363.83 1886.06 2351.84 1887.99 2340.59 1892.24C2329.34 1896.49 2319.07 1902.97 2310.38 1911.29C2301.7 1919.61 2294.79 1929.6 2290.06 1940.66C2285.34 1951.72 2282.9 1963.62 2282.89 1975.65ZM2282.89 1975.65C2282.93 1950.92 2292.4 1927.15 2309.38 1909.18C2317.89 1899.87 2328.16 1892.34 2339.59 1887.02C2351.02 1881.7 2363.4 1878.7 2376 1878.2C2401.68 1878.2 2426.31 1888.4 2444.47 1906.56C2462.63 1924.72 2472.83 1949.35 2472.83 1975.03C2472.83 2000.71 2462.63 2025.34 2444.47 2043.5C2426.31 2061.66 2401.68 2071.86 2376 2071.86C2350.68 2070.95 2326.74 2060.09 2309.38 2041.65C2292.54 2023.78 2283.07 2000.2 2282.89 1975.65Z" fill="#263238"/>
<path d="M1065.3 631.477L1148.5 793.998L1233.09 631.477H1303.89L1181.34 851.012V968.604H1116.11V849.773L994.03 631.322L1065.3 631.477Z" fill="#FF73A4"/>
<path d="M1575.17 911.279V968.603H1340.92V631.477H1570.21V689.73H1406.45V770.913H1548.52V824.209H1406.45V912.054L1575.17 911.279Z" fill="#FF73A4"/>
<path d="M1820.27 719.787C1816.55 716.393 1812.5 713.382 1808.18 710.801C1801.4 706.457 1794.25 702.724 1786.8 699.646C1777.99 695.783 1768.87 692.673 1759.54 690.35C1749.77 687.835 1739.72 686.534 1729.64 686.477C1715.43 685.445 1701.26 688.973 1689.2 696.547C1684.86 699.779 1681.37 704.024 1679.05 708.912C1676.73 713.8 1675.64 719.183 1675.88 724.589C1675.67 730.75 1677.4 736.819 1680.83 741.942C1684.81 746.926 1689.76 751.039 1695.4 754.026C1703.04 758.022 1711.09 761.19 1719.41 763.477C1729.02 766.42 1740.17 769.364 1752.87 772.618C1768.09 776.588 1783.08 781.345 1797.8 786.871C1810.17 791.265 1821.74 797.65 1832.04 805.772C1841.18 813.192 1848.54 822.562 1853.58 833.195C1859.04 845.52 1861.63 858.921 1861.17 872.392C1861.64 888.49 1858.12 904.455 1850.95 918.871C1844.36 931.256 1834.91 941.882 1823.37 949.857C1811.28 958.018 1797.78 963.85 1783.55 967.054C1768.08 970.821 1752.22 972.694 1736.3 972.632C1710.82 972.599 1685.49 968.734 1661.16 961.167C1637.41 954.072 1614.97 943.19 1594.69 928.941L1623.66 872.392C1628.44 876.626 1633.63 880.363 1639.16 883.547C1647.71 888.652 1656.56 893.256 1665.65 897.336C1676.53 902.092 1687.77 905.978 1699.27 908.956C1711.73 912.063 1724.54 913.624 1737.38 913.603C1773.48 913.603 1791.45 902.139 1791.45 879.054C1791.66 872.317 1789.47 865.726 1785.26 860.463C1780.45 854.814 1774.47 850.27 1767.75 847.139C1758.88 842.874 1749.65 839.4 1740.17 836.758L1704.07 826.223C1689.75 822.443 1675.71 817.628 1662.09 811.815C1651.25 807.234 1641.21 800.959 1632.34 793.223C1624.6 786.417 1618.51 777.941 1614.52 768.434C1610.3 757.797 1608.3 746.409 1608.64 734.97C1608.33 719.27 1611.56 703.701 1618.09 689.42C1624.12 676.4 1633.15 664.988 1644.42 656.111C1656.16 647.072 1669.44 640.247 1683.62 635.97C1699.18 631.215 1715.38 628.864 1731.65 628.998C1753.99 628.749 1776.19 632.527 1797.18 640.153C1815.48 646.893 1832.9 655.786 1849.09 666.646L1820.27 719.787Z" fill="#FF73A4"/>
<path d="M4585.3 1700.65C4585.33 1733.72 4575.54 1766.06 4557.19 1793.58C4538.83 1821.09 4512.72 1842.54 4482.17 1855.22C4451.62 1867.89 4417.99 1871.21 4385.55 1864.77C4353.11 1858.32 4323.31 1842.4 4299.92 1819.01C4276.53 1795.62 4260.61 1765.82 4254.16 1733.38C4247.72 1700.93 4251.04 1667.31 4263.71 1636.76C4276.39 1606.2 4297.84 1580.1 4325.35 1561.74C4352.86 1543.38 4385.21 1533.6 4418.28 1533.63C4462.56 1533.67 4505.02 1551.28 4536.33 1582.6C4567.65 1613.91 4585.26 1656.36 4585.3 1700.65Z" fill="white"/>
<path d="M4585.3 1700.65C4585.49 1722.67 4581.34 1744.52 4573.07 1764.94C4564.8 1785.36 4552.58 1803.95 4537.11 1819.63C4521.53 1835.81 4502.91 1848.76 4482.3 1857.72C4461.7 1866.67 4439.54 1871.47 4417.07 1871.83C4394.61 1872.19 4372.3 1868.11 4351.42 1859.81C4330.55 1851.52 4311.51 1839.18 4295.42 1823.5C4278.88 1807.6 4265.72 1788.52 4256.73 1767.41C4247.74 1746.3 4243.11 1723.59 4243.11 1700.65C4243.11 1677.7 4247.74 1654.99 4256.73 1633.88C4265.72 1612.77 4278.88 1593.69 4295.42 1577.79C4311.51 1562.11 4330.55 1549.77 4351.42 1541.48C4372.3 1533.18 4394.61 1529.1 4417.07 1529.46C4439.54 1529.82 4461.7 1534.62 4482.3 1543.58C4502.91 1552.53 4521.53 1565.48 4537.11 1581.66C4552.57 1597.35 4564.79 1615.94 4573.06 1636.35C4581.33 1656.77 4585.48 1678.62 4585.3 1700.65ZM4585.3 1700.65C4585.12 1678.79 4580.63 1657.18 4572.1 1637.06C4563.56 1616.93 4551.15 1598.69 4535.56 1583.36C4504.43 1553.28 4462.63 1536.78 4419.34 1537.51C4376.05 1538.23 4334.82 1556.12 4304.72 1587.24C4275.29 1617.69 4258.84 1658.38 4258.84 1700.72C4258.84 1743.07 4275.29 1783.76 4304.72 1814.21C4334.82 1845.32 4376.05 1863.21 4419.34 1863.94C4462.63 1864.66 4504.43 1848.17 4535.56 1818.08C4567.04 1787.07 4584.92 1744.83 4585.3 1700.65Z" fill="#263238"/>
<path d="M5849.68 800.816C5849.68 958.133 5803.03 1111.92 5715.63 1242.72C5628.23 1373.53 5504 1475.48 5358.66 1535.68C5213.32 1595.88 5053.39 1611.63 4899.09 1580.94C4744.8 1550.25 4603.07 1474.49 4491.83 1363.25C4380.59 1252.01 4304.83 1110.29 4274.14 955.993C4243.45 801.699 4259.2 641.769 4319.41 496.427C4379.61 351.085 4481.56 226.859 4612.36 139.459C4743.17 52.0581 4896.95 5.4082 5054.27 5.4082C5265.21 5.44928 5467.5 89.2641 5616.66 238.423C5765.82 387.582 5849.63 589.874 5849.68 800.816Z" fill="white"/>
<path d="M5849.68 800.815C5850.07 985.825 5786.24 1165.24 5669.08 1308.43C5551.93 1451.62 5388.71 1549.72 5207.29 1585.98C5025.87 1622.24 4837.49 1594.41 4674.29 1507.25C4511.1 1420.08 4383.22 1278.99 4312.47 1108.04C4251.58 961.477 4235.64 800.121 4266.67 644.477C4297.71 488.833 4374.32 345.93 4486.76 233.928C4598.68 122.329 4741.18 46.4239 4896.24 15.8129C5051.31 -14.7981 5211.96 1.25944 5357.9 61.955C5503.83 122.65 5628.49 225.258 5716.11 356.802C5803.73 488.345 5850.37 642.917 5850.14 800.97L5849.68 800.815ZM5849.68 800.815C5849.59 683.884 5823.6 568.425 5773.57 462.737C5723.54 357.049 5650.72 263.758 5560.33 189.57C5469.95 115.383 5364.25 62.1422 5250.84 33.6753C5137.43 5.20838 5019.12 2.22254 4904.41 24.9325C4789.71 47.6424 4681.46 95.484 4587.45 165.018C4493.44 234.552 4416 324.051 4360.71 427.081C4305.41 530.111 4273.63 644.112 4267.64 760.89C4261.66 877.668 4281.62 994.321 4326.1 1102.46C4385.62 1247.32 4486.81 1371.25 4616.82 1458.55C4746.84 1545.85 4899.85 1592.59 5056.46 1592.86C5213.07 1593.12 5366.23 1546.9 5496.55 1460.04C5626.86 1373.18 5728.46 1249.6 5788.48 1104.94C5828.52 1008.53 5849.31 905.212 5849.68 800.815Z" fill="#263238"/>
<path d="M4198.28 1975.65C4198.28 1994.03 4192.83 2012 4182.62 2027.29C4172.4 2042.58 4157.88 2054.49 4140.9 2061.53C4123.91 2068.56 4105.22 2070.4 4087.19 2066.82C4069.16 2063.23 4052.59 2054.38 4039.59 2041.38C4026.59 2028.38 4017.74 2011.81 4014.15 1993.78C4010.57 1975.75 4012.41 1957.06 4019.44 1940.07C4026.48 1923.09 4038.39 1908.57 4053.68 1898.35C4068.97 1888.14 4086.94 1882.69 4105.32 1882.69C4129.98 1882.69 4153.62 1892.48 4171.06 1909.91C4188.49 1927.35 4198.28 1950.99 4198.28 1975.65Z" fill="white"/>
<path d="M4198.28 1975.65C4198.3 2000.67 4188.63 2024.73 4171.3 2042.78C4153.97 2060.83 4130.33 2071.48 4105.32 2072.48C4092.15 2073.22 4078.96 2071.27 4066.56 2066.74C4054.16 2062.21 4042.82 2055.2 4033.23 2046.14C4023.64 2037.07 4016 2026.14 4010.78 2014.02C4005.55 2001.9 4002.86 1988.84 4002.86 1975.65C4002.86 1962.45 4005.55 1949.39 4010.78 1937.27C4016 1925.15 4023.64 1914.22 4033.23 1905.16C4042.82 1896.09 4054.16 1889.08 4066.56 1884.55C4078.96 1880.02 4092.15 1878.07 4105.32 1878.82C4130.3 1879.89 4153.9 1890.56 4171.22 1908.59C4188.53 1926.63 4198.23 1950.64 4198.28 1975.65ZM4198.28 1975.65C4198.32 1963.61 4195.9 1951.69 4191.2 1940.61C4186.49 1929.53 4179.58 1919.52 4170.88 1911.19C4162.19 1902.86 4151.9 1896.39 4140.63 1892.15C4129.36 1887.92 4117.35 1886.02 4105.32 1886.56C4082.32 1887.52 4060.58 1897.33 4044.64 1913.95C4028.7 1930.57 4019.8 1952.7 4019.8 1975.72C4019.8 1998.75 4028.7 2020.88 4044.64 2037.5C4060.58 2054.11 4082.32 2063.93 4105.32 2064.89C4117.36 2065.43 4129.39 2063.52 4140.67 2059.28C4151.95 2055.04 4162.25 2048.55 4170.94 2040.2C4179.63 2031.85 4186.54 2021.83 4191.24 2010.73C4195.94 1999.63 4198.34 1987.7 4198.28 1975.65Z" fill="#263238"/>
<path d="M4784.07 753.253V970.154H4718.54V632.098H4769.35L4945.2 853.492V632.562H5010.73V969.534H4957.59L4784.07 753.253Z" fill="#263238"/>
<path d="M5225 971.857C5201.79 972.152 5178.81 967.228 5157.76 957.449C5138.19 948.036 5120.62 934.938 5106.01 918.871C5077.02 886.357 5060.88 844.381 5060.62 800.815C5060.57 778.669 5064.83 756.725 5073.17 736.209C5081.38 716.056 5093.14 697.534 5107.87 681.519C5122.74 665.489 5140.58 652.494 5160.39 643.252C5181.17 633.848 5203.75 629.09 5226.55 629.308C5249.72 629.151 5272.59 634.459 5293.32 644.801C5312.89 654.349 5330.37 667.67 5344.76 683.998C5359.09 700.172 5370.38 718.805 5378.07 738.998C5385.79 758.756 5389.83 779.758 5390 800.97C5390.05 823.051 5385.84 844.934 5377.61 865.421C5369.64 885.411 5358.03 903.746 5343.37 919.491C5328.62 935.368 5310.88 948.164 5291.16 957.139C5270.44 966.809 5247.86 971.833 5225 971.857ZM5127.24 801.435C5127.18 815.799 5129.43 830.079 5133.9 843.731C5138.01 856.853 5144.52 869.095 5153.11 879.829C5161.51 890.37 5172.08 898.982 5184.1 905.083C5197.14 911.403 5211.44 914.686 5225.93 914.686C5240.42 914.686 5254.72 911.403 5267.76 905.083C5279.81 898.754 5290.37 889.935 5298.75 879.209C5307.17 868.277 5313.62 855.955 5317.8 842.801C5321.99 829.516 5324.13 815.673 5324.15 801.745C5324.16 787.372 5321.86 773.092 5317.34 759.449C5313 746.363 5306.39 734.144 5297.82 723.35C5289.37 712.938 5278.81 704.437 5266.83 698.407C5254.03 692.066 5239.9 688.878 5225.62 689.111C5210.98 688.833 5196.5 692.187 5183.48 698.871C5171.4 705.077 5160.82 713.856 5152.49 724.59C5144.17 735.423 5137.82 747.644 5133.75 760.688C5129.53 773.651 5127.34 787.185 5127.24 800.815V801.435Z" fill="#263238"/>
<path d="M1231.38 3896.77C1013.55 4191.14 786.27 4534.15 730.96 4903.82C730.96 4909.39 739.326 4911.25 740.566 4905.68C765.709 4804.8 797.91 4705.81 836.932 4609.45C980.242 4570.1 1120.76 4537.72 1195.9 4395.49C1273.37 4249.39 1262.99 4058.83 1248.42 3899.72C1247.34 3890.89 1235.72 3890.42 1231.38 3896.77Z" fill="#FF73A4"/>
<path d="M839.101 4606.35C937.016 4386.81 1062.66 4166.19 1222.24 3985.7C1223.33 3984.46 1225.03 3985.7 1224.1 3987.41C1119.52 4116 1040.04 4256.05 962.425 4398.59C1034.62 4325.46 1113.64 4259.15 1181.96 4181.69C1183.35 4180.14 1185.37 4181.69 1184.13 4183.86C1116.27 4265.35 1042.21 4354.28 953.904 4414.08C930.045 4457.77 906.082 4501.57 882.017 4545.46C887.904 4542.21 894.101 4539.26 900.143 4536.17C901.228 4536.17 902.157 4537.25 901.073 4537.87C894.411 4541.28 887.749 4544.84 880.777 4547.79C869.312 4568.55 857.848 4589.31 846.073 4609.76C843.439 4615.03 837.087 4611 839.101 4606.35Z" fill="#263238"/>
<path d="M911.918 4529.82C970.468 4497 1026.36 4459.65 1079.09 4418.11C1080.64 4417.03 1082.65 4419.04 1081.26 4420.13C1030.13 4464.32 974.094 4502.48 914.242 4533.84C913.708 4534.15 913.073 4534.24 912.477 4534.08C911.882 4533.92 911.374 4533.53 911.066 4532.99C910.757 4532.46 910.674 4531.82 910.834 4531.23C910.994 4530.63 911.384 4530.12 911.918 4529.82Z" fill="#263238"/>
<path d="M705.862 4848.5C705.862 4853 713.918 4853 713.763 4848.5C714.847 4726.58 713.763 4604.18 715.777 4481.79C746.763 4418.89 814.002 4384.03 860.481 4333.52C894.058 4296.7 923.227 4256.09 947.397 4212.52C1003.5 4108.47 1037.82 3994.07 1048.26 3876.32C1061.11 3746.03 1011.69 3315.94 956.692 3330.97C928.185 3338.72 836.002 3551.74 811.523 3622.08C771.963 3738.28 742.926 3857.8 724.763 3979.2C680.298 4265.51 684.016 4560.03 705.862 4848.5Z" fill="#FF73A4"/>
<path d="M704.932 4322.98C711.594 4168.05 746.298 4013.12 778.833 3863.46C813.847 3702.49 854.749 3550.81 937.636 3407.04C939.185 3404.41 943.213 3407.04 941.819 3409.52C886.492 3521.23 843.678 3638.7 814.157 3759.81C819.734 3751.14 826.397 3742.93 832.284 3734.72C834.453 3731.46 839.875 3734.72 837.551 3737.81C830.199 3750.85 821.529 3763.11 811.678 3774.38C811.326 3774.5 810.946 3774.5 810.594 3774.38C782.087 3889.65 761.636 4006.77 743.974 4124.83C745.368 4123.28 746.608 4121.73 748.002 4120.34C749.397 4118.94 750.326 4120.34 749.706 4121.73C747.537 4125.65 745.213 4129.53 742.734 4133.35C733.904 4193 725.692 4252.49 717.481 4311.52C823.608 4220.73 914.396 4113.67 965.368 3981.98C965.368 3981.98 966.608 3981.98 966.298 3981.98C916.256 4118.63 837.242 4240.1 715.622 4322.83C713.453 4338.32 711.284 4353.81 708.96 4370.39C708.96 4373.65 703.228 4372.87 703.228 4369.62C703.228 4355.52 703.227 4341.57 704.622 4327.48C703.847 4326.7 702.608 4324.38 704.932 4322.98Z" fill="#263238"/>
<path d="M754.974 4099.58C836.157 3978.42 911.918 3860.83 971.875 3727.75C971.875 3726.35 975.129 3727.75 974.509 3728.83C924.467 3861.91 854.439 3996.7 759.622 4103.45C757.143 4104.84 753.27 4102.06 754.974 4099.58Z" fill="#263238"/>
<path d="M862.805 3697.07C896.425 3637.57 931.904 3579.79 963.509 3519.05C963.509 3517.35 966.763 3519.05 965.988 3520.6C940.062 3583.91 907.169 3644.14 867.918 3700.17C865.749 3703.11 860.791 3700.48 862.805 3697.07Z" fill="#263238"/>
<path d="M849.636 3722.94V3724.03C849.636 3724.03 849.016 3722.94 849.636 3722.94Z" fill="#263238"/>
<path d="M623.283 4496.2C621.698 4576.93 612.202 4657.31 594.931 4736.18C596.171 4744.86 597.41 4753.53 598.65 4762.52C623.482 4675.34 637.888 4585.53 641.565 4494.96C642.299 4493.69 642.686 4492.24 642.686 4490.77C642.686 4489.31 642.299 4487.86 641.565 4486.59C645.11 4365.15 636.128 4243.66 614.762 4124.06C576.96 3900.03 494.537 3685.14 338.368 3517.35C337.076 3516.26 335.552 3515.47 333.912 3515.06C332.272 3514.64 330.559 3514.6 328.902 3514.95C327.245 3515.29 325.688 3516.01 324.349 3517.04C323.009 3518.07 321.922 3519.4 321.171 3520.92C258.115 3681.11 280.115 3872.3 333.72 4032.18C362.933 4118.74 404.693 4200.53 457.664 4274.96C511.579 4350.25 579.748 4413.93 623.283 4496.2Z" fill="#FF73A4"/>
<path d="M357.115 3592.18C505.228 3832.32 608.101 4117.24 620.495 4400.91C620.495 4405.87 612.284 4407.27 611.509 4402.15C607.946 4376.59 604.073 4351.34 600.045 4326.24C538.847 4267.67 476.101 4205.7 432.101 4132.42C432.007 4132.14 432.005 4131.83 432.098 4131.55C432.19 4131.27 432.371 4131.02 432.613 4130.85C432.856 4130.67 433.148 4130.58 433.446 4130.59C433.744 4130.59 434.033 4130.69 434.27 4130.87C487.566 4191.76 537.298 4254.04 597.411 4308.42C586.721 4245.67 574.171 4184.48 559.298 4122.51L547.678 4108.72C545.045 4105.62 549.383 4101.28 552.016 4104.22L555.58 4108.25C534.666 4024.88 508.799 3942.83 478.115 3862.53C440.312 3817.6 398.171 3778.72 370.749 3724.65C370.684 3724.39 370.703 3724.12 370.802 3723.88C370.902 3723.63 371.076 3723.43 371.301 3723.29C371.526 3723.15 371.789 3723.09 372.052 3723.11C372.315 3723.13 372.564 3723.23 372.763 3723.41C394.763 3754.39 416.143 3785.38 441.242 3814.35C451.157 3825.82 462.157 3836.51 472.228 3847.66C438.073 3760.63 397.58 3676.23 351.073 3595.13C350.683 3594.32 350.626 3593.4 350.917 3592.56C351.208 3591.72 351.821 3591.02 352.622 3590.63C353.423 3590.24 354.347 3590.19 355.189 3590.48C356.032 3590.77 356.725 3591.38 357.115 3592.18Z" fill="#263238"/>
<path d="M387.172 3888.41C434.89 3952.86 489.425 4014.37 533.89 4080.83C535.129 4082.69 532.496 4084.7 530.791 4083.15C473.622 4029.55 425.284 3956.42 383.918 3890.42C382.524 3888.25 385.777 3886.55 387.172 3888.41Z" fill="#263238"/>
<path d="M540.552 4095.7L542.721 4097.71C542.905 4098.04 542.978 4098.42 542.928 4098.78C542.878 4099.15 542.708 4099.5 542.444 4099.76C542.18 4100.03 541.837 4100.2 541.467 4100.25C541.097 4100.3 540.721 4100.22 540.397 4100.04L538.383 4098.18C538.054 4097.89 537.853 4097.49 537.824 4097.05C537.795 4096.61 537.94 4096.18 538.228 4095.86C538.515 4095.53 538.922 4095.33 539.358 4095.3C539.793 4095.27 540.223 4095.41 540.552 4095.7Z" fill="#263238"/>
<path d="M125.341 4053.87C137.115 4177.81 202.805 4325.15 281.509 4420.43C316.472 4461.74 359.626 4495.35 408.242 4519.12C463.087 4546.39 520.566 4577.53 577.27 4599.84C604.188 4668.56 624.271 4739.75 637.228 4812.41C638.932 4806.21 640.791 4799.86 642.65 4793.66C606.087 4480.7 403.594 4213.29 144.862 4041.63C142.844 4040.24 140.464 4039.47 138.014 4039.42C135.565 4039.37 133.154 4040.03 131.078 4041.33C129.003 4042.64 127.353 4044.52 126.334 4046.74C125.314 4048.97 124.969 4051.45 125.341 4053.87Z" fill="#FF73A4"/>
<path d="M214.735 4146.36C212.876 4144.82 214.735 4141.56 217.369 4142.96C359.795 4248.72 473.373 4388.56 547.679 4549.65C549.538 4553.98 543.651 4557.7 541.327 4553.36C529.242 4532.29 517.003 4511.84 504.453 4491.39C445.425 4480.24 389.341 4438.56 345.496 4399.21C344.256 4398.13 345.496 4396.27 347.2 4397.35C369.796 4417.98 394.945 4435.64 422.031 4449.87C446.2 4462.11 472.073 4469.86 497.172 4479.62C475.172 4444.91 452.397 4411.6 428.538 4379.22C364.73 4354.9 304.892 4321.22 250.989 4279.29C249.284 4278.05 250.989 4275.42 252.538 4276.51C306.005 4308.81 361.132 4338.29 417.693 4364.82C381.63 4317.17 342.724 4271.74 301.186 4228.79C281.045 4218.25 260.594 4207.56 241.228 4196.25C239.679 4195.32 241.228 4192.53 242.468 4193.15C258.788 4198.86 274.386 4206.45 288.946 4215.77C264.622 4192.53 240.608 4169.14 214.735 4146.36Z" fill="#263238"/>
<path d="M220.312 4254.35C223.8 4256.46 227.115 4258.84 230.228 4261.48C231.157 4262.41 230.228 4263.65 228.988 4263.18C225.395 4261.46 221.926 4259.5 218.608 4257.29C218.248 4257.05 217.993 4256.68 217.895 4256.26C217.797 4255.84 217.863 4255.4 218.08 4255.02C218.297 4254.65 218.648 4254.37 219.063 4254.24C219.478 4254.12 219.924 4254.16 220.312 4254.35Z" fill="#263238"/>
<path d="M1046.71 5490.07H336.975L394.298 4843.7L406.848 4701.17H976.833L989.383 4843.7L1046.71 5490.07Z" fill="#455A64"/>
<path d="M989.382 4843.7H394.298L406.847 4701.17H976.833L989.382 4843.7Z" fill="#263238"/>
<path d="M1010.76 4601.55H372.918V4742.53H1010.76V4601.55Z" fill="#455A64"/>
<path d="M0.931641 5490.22L827.016 5486.5L1653.1 5485.11L3305.42 5482.48L4957.59 5485.11L5783.83 5486.5L6609.92 5490.22L5783.83 5494.1L4957.59 5495.49L3305.42 5497.97L1653.1 5495.34L827.016 5494.1L0.931641 5490.22Z" fill="#263238"/>
<path d="M4096.8 4142.18L3959.07 4127.77C3957.44 4090.81 3950.45 4054.27 3938.31 4019.32C3890.13 3883.76 3784.93 3771.43 3704.37 3660.04C3704.37 3660.04 3703.44 3660.04 3704.37 3660.81C3784.69 3775.42 3845.62 3902.45 3884.7 4036.83C3891.88 4064.05 3895.84 4092.03 3896.48 4120.18L3810.65 4111.35C3811.1 4028.96 3791.93 3947.66 3754.72 3874.15C3753.63 3871.98 3750.07 3874.15 3751 3876.94C3781.99 3951.31 3785.86 4029.39 3779.66 4109.34L3034.92 4030.79C3026.56 3962.44 3023.82 3893.52 3026.71 3824.73C3026.84 3823.93 3026.8 3823.11 3026.58 3822.33C3026.37 3821.55 3025.99 3820.82 3025.46 3820.2C3024.94 3819.58 3024.29 3819.09 3023.55 3818.74C3022.82 3818.4 3022.02 3818.23 3021.21 3818.23C3020.39 3818.23 3019.59 3818.4 3018.86 3818.74C3018.12 3819.09 3017.47 3819.58 3016.95 3820.2C3016.42 3820.82 3016.04 3821.55 3015.83 3822.33C3015.61 3823.11 3015.57 3823.93 3015.71 3824.73C3011.75 3892.64 3011.75 3960.71 3015.71 4028.62L2953.73 4021.8C2950.36 3903.92 2962.13 3786.09 2988.75 3671.19C2988.94 3670.81 2989.04 3670.38 2989.05 3669.95C2989.05 3669.52 2988.96 3669.09 2988.79 3668.7C2988.61 3668.3 2988.35 3667.95 2988.02 3667.67C2987.69 3667.39 2987.31 3667.18 2986.89 3667.07C2986.47 3666.95 2986.04 3666.93 2985.61 3667C2985.19 3667.07 2984.78 3667.24 2984.43 3667.48C2984.07 3667.73 2983.77 3668.05 2983.56 3668.42C2983.34 3668.8 2983.21 3669.22 2983.17 3669.65C2950.07 3783.34 2929.29 3900.26 2921.2 4018.39L2405.59 3964.32C2440.89 3891.81 2470.17 3816.52 2493.13 3739.21C2495.3 3732.86 2485.85 3730.22 2483.68 3736.73C2456.11 3815.36 2419.72 3890.62 2375.23 3961.07L2298.69 3953.17C2366.24 3826.74 2419.07 3693.5 2438.13 3552.21C2438.13 3546.48 2429.92 3545.39 2428.83 3551.12C2399.86 3702.96 2316.51 3824.73 2233.62 3946.19L2039.49 3925.9C2114.79 3812.34 2239.04 3712.56 2264.61 3574.36C2292.8 3419.43 2154.3 3335.46 2119.59 3201.14C2061.34 2976.18 2183.42 2820.01 2333.09 2678.1C2470.66 2547.03 2467.41 2386.67 2510.17 2211.14C2541.16 2081.93 2587.63 1939.55 2664.17 1830.17C2898.73 1492.42 3275.06 1566.79 3275.06 1571.12C3362.96 1578.22 3447.2 1609.48 3518.45 1661.45C3518.81 1661.36 3519.18 1661.36 3519.54 1661.45C3524.49 1664.89 3529.2 1668.67 3533.63 1672.76C3614.46 1739.39 3677.4 1825.12 3716.76 1922.2V1923.43C3730.37 1954.68 3742.27 1986.64 3752.4 2019.18C3770.68 2078.21 3770.21 2158.62 3783.38 2251.58C3783.06 2253.37 3783.06 2255.2 3783.38 2257C3803.46 2424.9 3886.31 2578.99 4015.31 2688.32C4212.07 2862.15 4140.03 3117.17 3957.06 3365.67C3879.59 3471.03 3873.08 3541.83 3897.41 3604.42C3897.41 3604.42 3897.41 3604.42 3897.41 3605.35C3901.13 3613.87 3904.54 3620.84 3908.72 3629.36C3945.13 3698.77 4014.85 3761.83 4059.62 3856.34C4101.61 3943.25 4106.56 4043.18 4096.8 4142.18Z" fill="#263238"/>
<path d="M2944.59 1599.79C2783.53 1673.35 2658.22 1807.8 2596.16 1973.63C2545.18 2106.1 2532.02 2252.5 2467.41 2379.86C2406.37 2499.93 2306.44 2587.46 2224.33 2689.72C2115.87 2824.66 2041.82 2993.53 2115.87 3159.46C2162.35 3262.34 2270.8 3368.31 2256.86 3495.04C2241.37 3643 2104.41 3778.72 2028.18 3897.86C2024.47 3903.59 2032.68 3910.56 2036.86 3904.98C2138.8 3771.9 2313.87 3599.15 2269.25 3414.01C2248.49 3329.26 2196.75 3262.49 2156.93 3188.9C2079.47 3046.05 2105.8 2899.49 2197.83 2763C2322.55 2578.17 2479.8 2463.83 2543.48 2236.24C2579.73 2106.1 2599.87 1971.46 2673.16 1856.04C2740.07 1749.59 2835.58 1664.12 2948.78 1609.39C2952.49 1606.45 2949.09 1597.62 2944.59 1599.79Z" fill="#263238"/>
<path d="M4001.21 3816.52C3948.85 3735.02 3882.23 3673.36 3918.94 3556.86C3944.51 3476.14 4005.24 3409.21 4048.16 3338.71C4155.52 3162.87 4223.23 2937.6 4136.93 2744.87C4088.28 2636.42 3997.49 2605.43 3923.28 2523.17C3833.58 2423.86 3806.16 2277.91 3782.45 2143.43C3746.97 1942.03 3700.8 1711.64 3496.61 1653.7C3494.9 1653.7 3494.13 1656.18 3496.61 1656.8C3755.65 1747.74 3737.06 2083.63 3800.73 2320.83C3822.42 2401.39 3855.11 2479.63 3909.18 2539.28C3994.7 2633.79 4102.69 2670.19 4141.58 2811.18C4178.61 2943.33 4152.42 3085.87 4097.27 3212.76C4049.55 3322.76 3966.82 3412.15 3921.11 3522.62C3893.69 3588.31 3884.4 3657.4 3914.61 3720.46C3938.31 3769.88 3981.23 3804.59 4007.56 3852.62C4040.87 3918.53 4054.43 3992.67 4046.61 4066.11C4046.61 4073.7 4056.68 4073.24 4057.45 4066.11C4067.93 3978.92 4048.07 3890.78 4001.21 3816.52Z" fill="#263238"/>
<path d="M3353.14 3634.79C3728.85 4299.28 4701.03 5235.52 4989.35 5086.17C5342.9 4902.88 5409.99 3990.04 5383.49 3783.67C5368 3659.73 4398.92 3682.97 4422.93 3814.66C4437.34 3892.12 4466.93 3973.93 4448.65 3963.86C4391.48 3932.87 4245.07 3793.43 3707 3392.48C3407.83 3168.6 3104.02 3194.94 3353.14 3634.79Z" fill="#F7A9A0"/>
<path d="M4513.87 4526.1C4479.48 4437.01 4402.63 4187.27 4455 3954.72C4455 3952.08 4458.56 3952.39 4458.41 3954.72C4437.65 4148.69 4489.39 4434.22 4516.82 4524.24C4517.13 4526.87 4513.87 4528.42 4513.87 4526.1Z" fill="#263238"/>
<path d="M5261.87 3153.11C5354.83 3329.42 5403.94 3764.15 5375.44 3873.53C5346.93 3982.91 4610.55 4090.43 4526.89 4010.64C4443.23 3930.86 4176.28 3312.53 4214.71 3112.83C4253.13 2913.12 5165.51 2969.83 5261.87 3153.11Z" fill="#F7A9A0"/>
<path d="M4293.41 2659.66C4244.76 2581.11 4042.89 2369.01 3974.87 2411.77C3906.86 2454.53 4011.13 2633.79 4055.75 2705.21C4147.93 2852.08 4193.48 3087.42 4213.47 3201.76C4233.45 3316.1 4476.85 3150.32 4476.85 3150.32C4476.85 3150.32 4419.68 2863.39 4293.41 2659.66Z" fill="#F7A9A0"/>
<path d="M4320.21 3347.7C4320.21 3347.7 4350.27 3550.19 4465.23 3570.33C4576 3589.39 4585.14 3422.38 4585.92 3410.45C4587.62 3421.14 4620 3606.59 4737.59 3614.8C4859.83 3623.32 4840.16 3454.14 4838.76 3443.14C4843.56 3452.74 4908.63 3578.7 4999.42 3564.76C5155.44 3540.43 4997.87 3213.84 5044.97 3095.01C5044.97 3095.01 5255.37 3152.03 5261.87 3152.34C5261.87 3152.34 5118.25 2838.45 4954.65 2783.76C4930.89 2775.48 4905.01 2775.58 4881.31 2784.03C4857.61 2792.49 4837.51 2808.79 4824.35 2830.24C4824.35 2830.24 4789.34 2723.96 4696.85 2714.5C4649.44 2709.86 4599.71 2781.43 4599.71 2781.43C4599.71 2781.43 4568.72 2697.46 4485.37 2694.21C4419.37 2691.42 4370.87 2764.39 4361.42 2794.29C4283.18 3024.52 4320.21 3347.7 4320.21 3347.7Z" fill="#F7A9A0"/>
<path d="M4371.8 2773.84C4371.8 2771.98 4369.63 2771.05 4369.01 2772.91C4296.97 2950.62 4272.49 3168.6 4318.82 3354.52C4320.21 3360.56 4330.9 3360.71 4330.59 3353.74C4319.75 3152.18 4326.25 2972 4371.8 2773.84Z" fill="#263238"/>
<path d="M4598.93 2778.03C4598.93 2775.86 4595.99 2775.08 4595.06 2778.03C4521.93 2961.62 4501.01 3207.03 4579.56 3416.49C4582.35 3423.77 4591.96 3427.49 4589.48 3418.97C4547.8 3274.88 4557.1 2956.19 4598.93 2778.03Z" fill="#263238"/>
<path d="M4849.3 3455.84C4781.59 3252.11 4786.08 3047.14 4820.79 2837.21C4820.79 2834.42 4817.38 2834.11 4816.45 2836.28C4771.37 2934.35 4763.16 3070.38 4765.63 3177.12C4766.2 3276.02 4792.58 3373.06 4842.17 3458.63C4844.18 3461.73 4850.85 3460.34 4849.3 3455.84Z" fill="#263238"/>
<path d="M4320.21 3347.7C4329.51 3385.98 4342.32 3423.32 4358.48 3459.25C4372.79 3494.79 4396.26 3525.9 4426.49 3549.42C4440.89 3559.46 4458.51 3563.77 4475.92 3561.5C4493.49 3559.05 4510.14 3552.12 4524.25 3541.36C4537.42 3529.52 4547.95 3515.04 4555.16 3498.87C4562.36 3482.69 4566.09 3465.18 4566.08 3447.48L4569.65 3360.87L4596.3 3443.45C4607.93 3480.14 4625.4 3514.72 4648.04 3545.86C4670.51 3575.91 4701.03 3599.77 4734.96 3602.1C4751.36 3604.53 4768.09 3601.24 4782.35 3592.77C4796.6 3584.31 4807.5 3571.18 4813.2 3555.62C4825.27 3520.48 4828.31 3482.86 4822.03 3446.24L4807.78 3344.76L4854.25 3435.55C4867.13 3460.9 4883.22 3484.49 4902.13 3505.73C4919.17 3526.59 4942.04 3541.91 4967.82 3549.73C4979.55 3552.79 4991.9 3552.51 5003.48 3548.92C5015.06 3545.33 5025.4 3538.59 5033.35 3529.43C5048.19 3506.33 5056.04 3479.43 5055.97 3451.97C5056.86 3392.63 5053.08 3333.32 5044.66 3274.57C5041.56 3244.67 5038.31 3214.77 5036.45 3184.56C5032.97 3154.44 5035.87 3123.93 5044.97 3095.01C5039.24 3124.33 5039.24 3154.47 5044.97 3183.79C5049.16 3213.38 5054.58 3242.81 5060.47 3272.41C5073.15 3331.83 5080.21 3392.31 5081.54 3453.05C5082.78 3485.98 5074.38 3518.56 5057.37 3546.79C5046.41 3561.06 5031.55 3571.86 5014.58 3577.85C4997.61 3583.85 4979.27 3584.79 4961.78 3580.56C4929.46 3571.76 4900.53 3553.46 4878.73 3528.04C4857.28 3504.69 4838.95 3478.65 4824.2 3450.58L4856.42 3439.88C4864.72 3483.06 4861.62 3527.64 4847.44 3569.25C4838.73 3592.15 4822.29 3611.28 4800.96 3623.32C4779.89 3634.58 4755.92 3639.22 4732.17 3636.65C4683.99 3632 4646.65 3599.15 4622.01 3565.22C4597.54 3530.66 4578.95 3492.29 4567.01 3451.66L4597.23 3447.79C4596.46 3469.74 4590.88 3491.26 4580.9 3510.83C4570.91 3530.39 4556.76 3547.53 4539.44 3561.04C4521.33 3573.53 4500.3 3581.11 4478.39 3583.04C4456.22 3584.69 4434.21 3578.25 4416.42 3564.91C4381.72 3538.57 4364.21 3500 4349.65 3463.12C4335.51 3425.88 4325.64 3387.16 4320.21 3347.7Z" fill="#263238"/>
<path d="M4462.9 3912.26C4462.9 3912.26 3806.16 3380.24 4139.87 3225.46C4239.03 3178.98 4701.34 3108.8 4717.3 3201.45C4737.9 3320.9 4550.44 3386.43 4426.18 3408.74C4426.18 3408.74 4675.16 3558.41 4622.63 3762.76C4589.79 3891.19 4462.9 3912.26 4462.9 3912.26Z" fill="#F7A9A0"/>
<path d="M4112.92 3240.34C4149.67 3217.69 4189.55 3200.57 4231.28 3189.52C4272.69 3177.28 4314.87 3167.86 4357.55 3161.32C4442.93 3146.93 4529.39 3139.98 4615.97 3140.56C4639.02 3140.84 4661.91 3144.34 4683.99 3150.94C4696.64 3154.87 4708.28 3161.54 4718.07 3170.46C4723.53 3175.3 4728.1 3181.07 4731.55 3187.5C4734.9 3193.86 4737.2 3200.71 4738.37 3207.8C4742.22 3233.49 4736.72 3259.72 4722.87 3281.7C4710 3301.61 4693.8 3319.16 4675 3333.6C4638.86 3360.08 4598.46 3380.2 4555.55 3393.1C4514.02 3406.52 4471.56 3416.88 4428.51 3424.08L4433.31 3396.5C4461.04 3414.66 4486.98 3435.41 4510.77 3458.48C4534.6 3481.16 4556.09 3506.18 4574.92 3533.15C4593.49 3560.3 4607.9 3590.06 4617.68 3621.46C4627.65 3652.49 4631.5 3685.17 4628.99 3717.67C4627.24 3685.72 4620.12 3654.3 4607.92 3624.72C4595.55 3595.74 4579.29 3568.58 4559.58 3544C4540.18 3519.28 4518.33 3496.6 4494.35 3476.29C4470.65 3456.02 4445.14 3437.97 4418.13 3422.38L4384.66 3403.48L4422.93 3394.65C4464.06 3386.26 4504.59 3375.13 4544.24 3361.34C4583.12 3348.68 4619.73 3329.9 4652.69 3305.72C4683.68 3281.86 4708.47 3247 4702.42 3214.62C4699.63 3185.49 4653.47 3177.12 4613.34 3174.8C4571.28 3172.63 4529.13 3172.63 4487.07 3174.8C4444.47 3176.5 4402.01 3178.83 4359.87 3183.32C4276.68 3194.01 4190.85 3204.24 4112.92 3240.34Z" fill="#263238"/>
<path d="M3826.92 4503.48L4255.92 3749.9C4255.92 3749.9 3756.73 3347.08 3454.31 3196.18C3284.82 3111.12 3216.49 3241.57 3264.52 3406.11C3432.31 3981.67 3826.92 4503.48 3826.92 4503.48Z" fill="#FF73A4"/>
<path d="M3826.92 4503.48L4255.92 3749.9C4255.92 3749.9 3756.73 3347.08 3454.31 3196.18C3284.82 3111.12 3216.49 3241.57 3264.52 3406.11C3432.31 3981.67 3826.92 4503.48 3826.92 4503.48Z" fill="#FF73A4"/>
<path d="M3250.73 3284.49C3250.18 3289.27 3249.87 3294.08 3249.8 3298.9C3251.78 3303.82 3252.78 3309.08 3252.75 3314.39C3252.81 3319 3251.97 3323.58 3250.27 3327.87C3250.27 3332.67 3250.27 3337.79 3251.51 3343.36C3257.69 3335.21 3261.02 3325.24 3260.96 3315.01C3261.18 3303.96 3257.56 3293.18 3250.73 3284.49ZM3578.1 3465.6C3568.67 3465.57 3559.45 3468.34 3551.6 3473.56C3543.75 3478.79 3537.63 3486.22 3534.02 3494.93C3530.4 3503.64 3529.46 3513.22 3531.3 3522.46C3533.14 3531.71 3537.69 3540.2 3544.37 3546.85C3551.04 3553.51 3559.55 3558.03 3568.8 3559.84C3578.05 3561.65 3587.63 3560.68 3596.33 3557.03C3605.02 3553.39 3612.44 3547.25 3617.63 3539.38C3622.83 3531.52 3625.57 3522.28 3625.51 3512.86C3625.39 3500.33 3620.35 3488.36 3611.48 3479.52C3602.61 3470.68 3590.62 3465.68 3578.1 3465.6ZM3578.1 3552.52C3570.27 3552.61 3562.6 3550.38 3556.04 3546.1C3549.49 3541.82 3544.35 3535.69 3541.29 3528.49C3538.22 3521.29 3537.36 3513.34 3538.82 3505.65C3540.28 3497.96 3543.99 3490.88 3549.48 3485.3C3554.97 3479.72 3561.99 3475.9 3569.66 3474.32C3577.33 3472.74 3585.29 3473.47 3592.54 3476.42C3599.79 3479.38 3605.99 3484.42 3610.37 3490.9C3614.76 3497.39 3617.11 3505.03 3617.14 3512.86C3617.18 3523.28 3613.1 3533.3 3605.79 3540.73C3598.48 3548.16 3588.52 3552.4 3578.1 3552.52ZM3829.24 4153.18C3819.86 4153.18 3810.7 4155.96 3802.9 4161.17C3795.11 4166.38 3789.03 4173.78 3785.44 4182.45C3781.85 4191.11 3780.91 4200.64 3782.74 4209.84C3784.57 4219.03 3789.09 4227.48 3795.72 4234.11C3802.35 4240.74 3810.79 4245.26 3819.99 4247.09C3829.19 4248.92 3838.72 4247.98 3847.38 4244.39C3856.05 4240.8 3863.45 4234.72 3868.66 4226.93C3873.87 4219.13 3876.65 4209.96 3876.65 4200.59C3876.65 4188.01 3871.65 4175.96 3862.76 4167.07C3853.87 4158.17 3841.81 4153.18 3829.24 4153.18ZM3829.24 4239.63C3824.1 4239.65 3819.01 4238.66 3814.25 4236.7C3809.5 4234.75 3805.17 4231.88 3801.53 4228.25C3797.89 4224.62 3795 4220.31 3793.03 4215.57C3791.06 4210.82 3790.04 4205.73 3790.04 4200.59C3790.04 4190.19 3794.17 4180.22 3801.52 4172.87C3808.87 4165.52 3818.84 4161.39 3829.24 4161.39C3839.64 4161.39 3849.61 4165.52 3856.96 4172.87C3864.31 4180.22 3868.44 4190.19 3868.44 4200.59C3868.44 4205.73 3867.42 4210.82 3865.45 4215.57C3863.48 4220.31 3860.59 4224.62 3856.95 4228.25C3853.31 4231.88 3848.98 4234.75 3844.23 4236.7C3839.47 4238.66 3834.38 4239.65 3829.24 4239.63ZM3543.55 3844.87C3534.17 3844.87 3525.01 3847.65 3517.21 3852.86C3509.42 3858.07 3503.34 3865.47 3499.75 3874.14C3496.16 3882.8 3495.22 3892.33 3497.05 3901.53C3498.88 3910.72 3503.4 3919.17 3510.03 3925.8C3516.66 3932.43 3525.1 3936.95 3534.3 3938.78C3543.5 3940.61 3553.03 3939.67 3561.69 3936.08C3570.36 3932.49 3577.76 3926.41 3582.97 3918.62C3588.18 3910.82 3590.96 3901.65 3590.96 3892.28C3590.96 3879.7 3585.96 3867.65 3577.07 3858.76C3568.18 3849.87 3556.12 3844.87 3543.55 3844.87ZM3543.55 3931.32C3533.15 3931.32 3523.18 3927.19 3515.83 3919.84C3508.48 3912.49 3504.35 3902.52 3504.35 3892.12C3504.35 3881.73 3508.48 3871.76 3515.83 3864.41C3523.18 3857.06 3533.15 3852.93 3543.55 3852.93C3553.95 3852.93 3563.92 3857.06 3571.27 3864.41C3578.62 3871.76 3582.75 3881.73 3582.75 3892.12C3582.75 3902.52 3578.62 3912.49 3571.27 3919.84C3563.92 3927.19 3553.95 3931.32 3543.55 3931.32ZM3980.92 3698.93C3968.3 3698.93 3956.2 3703.94 3947.28 3712.86C3938.36 3721.78 3933.35 3733.88 3933.35 3746.49C3933.35 3759.1 3938.36 3771.2 3947.28 3780.12C3956.2 3789.04 3968.3 3794.05 3980.92 3794.05C3993.53 3794.05 4005.63 3789.04 4014.55 3780.12C4023.47 3771.2 4028.48 3759.1 4028.48 3746.49C4028.48 3733.88 4023.47 3721.78 4014.55 3712.86C4005.63 3703.94 3993.53 3698.93 3980.92 3698.93ZM3980.92 3785.84C3973.11 3785.9 3965.46 3783.64 3958.94 3779.34C3952.42 3775.04 3947.33 3768.9 3944.31 3761.69C3941.29 3754.49 3940.49 3746.55 3942 3738.89C3943.51 3731.23 3947.26 3724.19 3952.78 3718.66C3958.3 3713.14 3965.34 3709.39 3973.01 3707.88C3980.67 3706.37 3988.61 3707.18 3995.81 3710.19C4003.01 3713.21 4009.16 3718.3 4013.46 3724.82C4017.76 3731.34 4020.02 3738.99 4019.96 3746.8C4019.88 3757.12 4015.73 3766.98 4008.42 3774.26C4001.12 3781.54 3991.23 3785.65 3980.92 3785.69V3785.84Z" fill="white"/>
<path opacity="0.1" d="M4158.62 3920.79L3826.92 4503.48C3826.92 4503.48 3432.31 3981.67 3264.52 3406.11C3246.55 3344.14 3244.85 3287.9 3258.63 3245.45L4158.62 3920.79Z" fill="black"/>
<path d="M4122.37 3708.69C4046.76 3819.15 3850.31 4124.67 3748.68 4340.02C3748.68 4341.26 3752.71 4344.21 3753.48 4342.97C3865.03 4176.73 4063.34 3829.69 4129.34 3713.02C4130.58 3710.86 4123.76 3706.67 4122.37 3708.69Z" fill="#263238"/>
<path d="M1643.8 5481.7L3977.2 5477.05L3847.68 4673.9C3847.68 4673.9 4032.2 4450.03 3997.34 4207.1C3959.07 3940.93 3479.1 3266.36 3438.82 3228.25C3276.3 3075.8 3104.32 3048.53 2939.17 3103.53C2176.3 3583.04 1643.8 5481.7 1643.8 5481.7Z" fill="#FF73A4"/>
<path d="M3927.93 5170.29C3924.28 5174.74 3919.69 5178.32 3914.5 5180.78C3909.3 5183.24 3903.62 5184.53 3897.87 5184.55C3892.49 5184.88 3887.09 5184.11 3882.01 5182.29C3876.94 5180.46 3872.29 5177.61 3868.35 5173.91C3864.42 5170.22 3861.29 5165.76 3859.14 5160.8C3857 5155.85 3855.89 5150.51 3855.89 5145.12C3855.89 5139.72 3857 5134.38 3859.14 5129.43C3861.29 5124.47 3864.42 5120.01 3868.35 5116.32C3872.29 5112.63 3876.94 5109.78 3882.01 5107.95C3887.09 5106.12 3892.49 5105.35 3897.87 5105.69C3905.23 5105.66 3912.44 5107.76 3918.63 5111.73L3916.93 5101.66C3910.95 5098.94 3904.44 5097.57 3897.87 5097.63C3890.15 5097.62 3882.54 5099.48 3875.7 5103.07C3868.86 5106.65 3863 5111.85 3858.62 5118.2C3854.24 5124.56 3851.47 5131.89 3850.55 5139.56C3849.64 5147.23 3850.61 5155 3853.37 5162.21C3856.13 5169.42 3860.61 5175.85 3866.41 5180.95C3872.22 5186.04 3879.17 5189.64 3886.68 5191.44C3894.19 5193.25 3902.03 5193.19 3909.51 5191.29C3916.99 5189.39 3923.9 5185.69 3929.63 5180.52L3927.93 5170.29ZM3456.94 4925.19C3447.53 4925.16 3438.32 4927.93 3430.48 4933.13C3422.64 4938.34 3416.52 4945.76 3412.89 4954.45C3409.27 4963.14 3408.3 4972.7 3410.12 4981.94C3411.94 4991.18 3416.46 4999.67 3423.1 5006.33C3429.75 5013 3438.22 5017.55 3447.45 5019.39C3456.68 5021.24 3466.26 5020.31 3474.96 5016.71C3483.66 5013.12 3491.09 5007.02 3496.33 4999.2C3501.56 4991.37 3504.35 4982.17 3504.35 4972.76C3504.35 4960.17 3499.36 4948.09 3490.48 4939.18C3481.59 4930.26 3469.53 4925.23 3456.94 4925.19ZM3456.94 5012.11C3449.16 5012.11 3441.55 5009.8 3435.08 5005.48C3428.61 5001.15 3423.57 4995.01 3420.59 4987.82C3417.61 4980.63 3416.83 4972.71 3418.35 4965.08C3419.87 4957.45 3423.62 4950.43 3429.12 4944.93C3434.62 4939.43 3441.63 4935.68 3449.27 4934.16C3456.9 4932.64 3464.81 4933.42 3472 4936.4C3479.19 4939.38 3485.34 4944.42 3489.66 4950.89C3493.99 4957.37 3496.3 4964.97 3496.3 4972.76C3496.32 4977.94 3495.31 4983.07 3493.35 4987.86C3491.38 4992.66 3488.48 4997.01 3484.83 5000.68C3481.17 5004.35 3476.82 5007.27 3472.04 5009.25C3467.26 5011.24 3462.13 5012.26 3456.94 5012.26V5012.11ZM3828.78 4153.18C3819.36 4153.18 3810.16 4155.97 3802.33 4161.21C3794.51 4166.44 3788.41 4173.88 3784.82 4182.58C3781.22 4191.28 3780.29 4200.85 3782.14 4210.08C3783.99 4219.31 3788.53 4227.78 3795.2 4234.43C3801.87 4241.08 3810.36 4245.59 3819.59 4247.41C3828.83 4249.23 3838.4 4248.27 3847.08 4244.64C3855.77 4241.02 3863.19 4234.9 3868.4 4227.06C3873.61 4219.21 3876.37 4210 3876.34 4200.59C3876.3 4188.05 3871.31 4176.04 3862.46 4167.16C3853.61 4158.29 3841.62 4153.26 3829.09 4153.18H3828.78ZM3828.78 4240.1C3820.96 4240.13 3813.3 4237.83 3806.78 4233.51C3800.27 4229.19 3795.18 4223.03 3792.17 4215.81C3789.15 4208.6 3788.35 4200.65 3789.85 4192.98C3791.36 4185.3 3795.11 4178.25 3800.63 4172.71C3806.15 4167.17 3813.19 4163.39 3820.86 4161.85C3828.52 4160.31 3836.48 4161.09 3843.7 4164.07C3850.93 4167.06 3857.11 4172.12 3861.46 4178.62C3865.81 4185.12 3868.13 4192.77 3868.13 4200.59C3868.17 4211 3864.08 4221 3856.77 4228.41C3849.45 4235.81 3839.5 4240.01 3829.09 4240.1H3828.78ZM2118.66 5354.35C2106.05 5354.35 2093.95 5359.36 2085.03 5368.28C2076.11 5377.2 2071.1 5389.3 2071.1 5401.91C2071.1 5414.53 2076.11 5426.62 2085.03 5435.54C2093.95 5444.46 2106.05 5449.48 2118.66 5449.48C2131.28 5449.48 2143.38 5444.46 2152.3 5435.54C2161.22 5426.62 2166.23 5414.53 2166.23 5401.91C2166.23 5389.3 2161.22 5377.2 2152.3 5368.28C2143.38 5359.36 2131.28 5354.35 2118.66 5354.35ZM2118.66 5441.26C2110.85 5441.33 2103.2 5439.06 2096.68 5434.76C2090.17 5430.46 2085.07 5424.32 2082.06 5417.11C2079.04 5409.91 2078.24 5401.97 2079.74 5394.31C2081.25 5386.65 2085.01 5379.61 2090.53 5374.09C2096.05 5368.56 2103.09 5364.81 2110.75 5363.3C2118.42 5361.79 2126.35 5362.6 2133.56 5365.62C2140.76 5368.63 2146.9 5373.72 2151.2 5380.24C2155.5 5386.76 2157.77 5394.41 2157.71 5402.22C2157.66 5412.56 2153.54 5422.47 2146.23 5429.78C2138.91 5437.1 2129.01 5441.22 2118.66 5441.26ZM2602.2 5198.18C2592.75 5197.96 2583.45 5200.57 2575.48 5205.66C2567.52 5210.76 2561.26 5218.11 2557.49 5226.78C2553.72 5235.45 2552.63 5245.04 2554.34 5254.34C2556.05 5263.64 2560.49 5272.21 2567.1 5278.97C2573.7 5285.73 2582.17 5290.37 2591.43 5292.3C2600.68 5294.22 2610.3 5293.35 2619.06 5289.78C2627.81 5286.21 2635.3 5280.12 2640.58 5272.28C2645.86 5264.43 2648.67 5255.2 2648.68 5245.74C2648.68 5233.31 2643.82 5221.38 2635.13 5212.49C2626.45 5203.6 2614.62 5198.46 2602.2 5198.18ZM2602.2 5284.79C2594.39 5284.85 2586.74 5282.58 2580.22 5278.28C2573.7 5273.98 2568.61 5267.84 2565.59 5260.64C2562.58 5253.43 2561.77 5245.5 2563.28 5237.83C2564.79 5230.17 2568.54 5223.13 2574.06 5217.61C2579.59 5212.09 2586.63 5208.33 2594.29 5206.82C2601.95 5205.31 2609.89 5206.12 2617.09 5209.14C2624.29 5212.15 2630.44 5217.25 2634.74 5223.76C2639.04 5230.28 2641.3 5237.93 2641.24 5245.74C2641.2 5256.1 2637.08 5266.02 2629.77 5273.36C2622.46 5280.7 2612.55 5284.86 2602.2 5284.94V5284.79ZM2236.41 3997.01C2234.2 3996.78 2231.96 3996.78 2229.75 3997.01C2228.04 4000.11 2226.34 4003.21 2224.79 4006.31C2228.59 4005.4 2232.5 4005.03 2236.41 4005.22C2243.66 4005.17 2250.78 4007.12 2256.99 4010.87C2263.19 4014.62 2268.24 4020.01 2271.56 4026.46C2274.88 4032.9 2276.35 4040.14 2275.8 4047.37C2275.26 4054.6 2272.72 4061.54 2268.46 4067.41C2264.21 4073.28 2258.41 4077.86 2251.72 4080.63C2245.02 4083.41 2237.68 4084.27 2230.52 4083.12C2223.36 4081.98 2216.66 4078.87 2211.17 4074.14C2205.67 4069.41 2201.59 4063.25 2199.38 4056.35C2197.52 4059.76 2195.97 4062.86 2194.42 4066.11C2198.28 4073.6 2204.06 4079.93 2211.18 4084.45C2218.29 4088.96 2226.48 4091.5 2234.9 4091.8C2243.32 4092.1 2251.67 4090.14 2259.09 4086.14C2266.5 4082.14 2272.72 4076.24 2277.09 4069.04C2281.47 4061.84 2283.85 4053.6 2283.98 4045.17C2284.12 4036.75 2282 4028.44 2277.86 4021.1C2273.71 4013.77 2267.69 4007.67 2260.4 4003.43C2253.12 3999.2 2244.84 3996.98 2236.41 3997.01ZM2370.11 4360.63C2360.72 4360.6 2351.54 4363.36 2343.72 4368.56C2335.9 4373.75 2329.8 4381.16 2326.19 4389.82C2322.58 4398.49 2321.63 4408.04 2323.45 4417.25C2325.28 4426.46 2329.8 4434.92 2336.44 4441.56C2343.08 4448.2 2351.54 4452.72 2360.75 4454.54C2369.96 4456.37 2379.5 4455.42 2388.17 4451.81C2396.84 4448.2 2404.25 4442.1 2409.44 4434.28C2414.64 4426.46 2417.4 4417.27 2417.37 4407.88C2417.33 4395.39 2412.36 4383.42 2403.54 4374.57C2394.72 4365.72 2382.76 4360.71 2370.27 4360.63H2370.11ZM2370.11 4447.08C2362.36 4447.11 2354.76 4444.84 2348.3 4440.55C2341.83 4436.26 2336.78 4430.15 2333.79 4422.99C2330.8 4415.83 2330 4407.95 2331.5 4400.33C2332.99 4392.72 2336.71 4385.72 2342.19 4380.22C2347.66 4374.73 2354.65 4370.98 2362.25 4369.45C2369.86 4367.93 2377.75 4368.69 2384.92 4371.66C2392.09 4374.62 2398.23 4379.64 2402.54 4386.09C2406.85 4392.54 2409.16 4400.12 2409.16 4407.88C2409.08 4418.2 2404.96 4428.08 2397.7 4435.4C2390.43 4442.73 2380.59 4446.92 2370.27 4447.08H2370.11ZM2760.69 3372.8C2748.08 3372.8 2735.98 3377.81 2727.06 3386.73C2718.14 3395.65 2713.13 3407.75 2713.13 3420.36C2713.13 3432.98 2718.14 3445.08 2727.06 3454C2735.98 3462.92 2748.08 3467.93 2760.69 3467.93C2773.31 3467.93 2785.4 3462.92 2794.32 3454C2803.24 3445.08 2808.25 3432.98 2808.25 3420.36C2808.25 3407.75 2803.24 3395.65 2794.32 3386.73C2785.4 3377.81 2773.31 3372.8 2760.69 3372.8ZM2760.69 3459.72C2752.93 3459.65 2745.36 3457.3 2738.93 3452.94C2732.5 3448.59 2727.51 3442.43 2724.57 3435.24C2721.64 3428.06 2720.89 3420.16 2722.43 3412.55C2723.97 3404.95 2727.73 3397.96 2733.23 3392.48C2738.73 3387.01 2745.73 3383.28 2753.34 3381.76C2760.96 3380.25 2768.85 3381.03 2776.02 3383.99C2783.2 3386.96 2789.34 3391.98 2793.67 3398.42C2798 3404.86 2800.32 3412.44 2800.35 3420.21C2800.37 3425.4 2799.37 3430.55 2797.39 3435.35C2795.41 3440.15 2792.5 3444.52 2788.83 3448.19C2785.15 3451.86 2780.79 3454.77 2775.99 3456.75C2771.19 3458.73 2766.04 3459.74 2760.85 3459.72H2760.69ZM2808.41 4196.56C2799 4196.56 2789.79 4199.35 2781.97 4204.59C2774.14 4209.82 2768.05 4217.26 2764.45 4225.96C2760.86 4234.66 2759.92 4244.23 2761.77 4253.46C2763.62 4262.69 2768.17 4271.17 2774.83 4277.81C2781.5 4284.46 2789.99 4288.97 2799.23 4290.79C2808.46 4292.61 2818.03 4291.65 2826.72 4288.02C2835.41 4284.4 2842.82 4278.28 2848.03 4270.44C2853.24 4262.59 2856 4253.38 2855.97 4243.97C2855.97 4231.4 2850.98 4219.34 2842.09 4210.45C2833.2 4201.55 2821.14 4196.56 2808.56 4196.56H2808.41ZM2808.41 4283.48C2800.63 4283.48 2793.03 4281.17 2786.56 4276.85C2780.1 4272.54 2775.05 4266.4 2772.07 4259.22C2769.09 4252.04 2768.3 4244.13 2769.8 4236.5C2771.31 4228.87 2775.04 4221.86 2780.53 4216.35C2786.02 4210.84 2793.01 4207.08 2800.64 4205.55C2808.26 4204.01 2816.17 4204.77 2823.36 4207.72C2830.56 4210.68 2836.71 4215.7 2841.05 4222.15C2845.4 4228.6 2847.73 4236.19 2847.76 4243.97C2847.86 4249.19 2846.93 4254.38 2845.01 4259.23C2843.08 4264.08 2840.22 4268.51 2836.57 4272.24C2832.92 4275.98 2828.56 4278.95 2823.76 4280.98C2818.95 4283.02 2813.79 4284.08 2808.56 4284.1L2808.41 4283.48ZM3213.55 3266.36C3204.11 3266.15 3194.81 3268.75 3186.85 3273.84C3178.89 3278.92 3172.63 3286.26 3168.86 3294.93C3165.09 3303.59 3163.98 3313.17 3165.68 3322.47C3167.38 3331.76 3171.8 3340.33 3178.39 3347.1C3184.99 3353.87 3193.44 3358.52 3202.69 3360.46C3211.93 3362.4 3221.54 3361.55 3230.3 3358.01C3239.06 3354.47 3246.56 3348.4 3251.86 3340.57C3257.15 3332.75 3260 3323.53 3260.03 3314.08C3260.03 3301.66 3255.2 3289.73 3246.55 3280.82C3237.9 3271.91 3226.12 3266.73 3213.71 3266.36H3213.55ZM3213.55 3353.12C3205.74 3353.19 3198.09 3350.92 3191.57 3346.62C3185.05 3342.32 3179.96 3336.18 3176.94 3328.97C3173.93 3321.77 3173.12 3313.83 3174.63 3306.17C3176.14 3298.51 3179.89 3291.47 3185.42 3285.95C3190.94 3280.42 3197.98 3276.67 3205.64 3275.16C3213.3 3273.65 3221.24 3274.46 3228.44 3277.48C3235.65 3280.49 3241.79 3285.58 3246.09 3292.1C3250.39 3298.62 3252.65 3306.27 3252.59 3314.08C3252.55 3324.4 3248.45 3334.28 3241.17 3341.59C3233.89 3348.9 3224.02 3353.04 3213.71 3353.12H3213.55ZM3577.94 3465.6C3568.52 3465.57 3559.29 3468.34 3551.45 3473.56C3543.6 3478.79 3537.48 3486.22 3533.86 3494.93C3530.25 3503.64 3529.3 3513.22 3531.15 3522.46C3532.99 3531.71 3537.54 3540.2 3544.21 3546.85C3550.89 3553.51 3559.39 3558.03 3568.64 3559.84C3577.9 3561.65 3587.48 3560.68 3596.17 3557.03C3604.87 3553.39 3612.28 3547.25 3617.48 3539.38C3622.67 3531.52 3625.41 3522.28 3625.35 3512.86C3625.23 3500.36 3620.21 3488.41 3611.38 3479.58C3602.54 3470.74 3590.59 3465.72 3578.1 3465.6H3577.94ZM3577.94 3552.52C3570.12 3552.61 3562.44 3550.38 3555.89 3546.1C3549.33 3541.82 3544.2 3535.69 3541.13 3528.49C3538.06 3521.29 3537.21 3513.34 3538.67 3505.65C3540.12 3497.96 3543.83 3490.88 3549.33 3485.3C3554.82 3479.72 3561.84 3475.9 3569.51 3474.32C3577.17 3472.74 3585.13 3473.47 3592.38 3476.42C3599.63 3479.38 3605.84 3484.42 3610.22 3490.9C3614.6 3497.39 3616.96 3505.03 3616.99 3512.86C3617.03 3523.25 3612.97 3533.25 3605.69 3540.67C3598.41 3548.1 3588.5 3552.36 3578.1 3552.52H3577.94ZM3417.9 5306.63C3408.48 5306.6 3399.26 5309.37 3391.42 5314.58C3383.57 5319.8 3377.45 5327.22 3373.83 5335.92C3370.22 5344.62 3369.26 5354.19 3371.09 5363.43C3372.92 5372.68 3377.45 5381.16 3384.12 5387.83C3390.78 5394.49 3399.27 5399.02 3408.51 5400.85C3417.75 5402.68 3427.32 5401.73 3436.02 5398.11C3444.72 5394.49 3452.15 5388.37 3457.36 5380.52C3462.57 5372.68 3465.34 5363.46 3465.31 5354.04C3465.31 5341.47 3460.32 5329.41 3451.43 5320.52C3442.53 5311.62 3430.48 5306.63 3417.9 5306.63ZM3417.9 5393.55C3410.11 5393.61 3402.48 5391.35 3395.97 5387.08C3389.46 5382.8 3384.37 5376.68 3381.34 5369.5C3378.31 5362.33 3377.48 5354.41 3378.95 5346.76C3380.42 5339.12 3384.13 5332.07 3389.6 5326.53C3395.08 5320.99 3402.07 5317.2 3409.71 5315.64C3417.34 5314.08 3425.26 5314.82 3432.47 5317.76C3439.68 5320.71 3445.86 5325.73 3450.22 5332.19C3454.57 5338.64 3456.91 5346.25 3456.94 5354.04C3457.01 5359.22 3456.04 5364.36 3454.11 5369.17C3452.18 5373.98 3449.32 5378.36 3445.69 5382.06C3442.07 5385.76 3437.74 5388.7 3432.97 5390.73C3428.21 5392.75 3423.08 5393.82 3417.9 5393.86V5393.55ZM2984.1 4997.08C2974.68 4997.05 2965.46 4999.83 2957.62 5005.06C2949.79 5010.3 2943.69 5017.75 2940.11 5026.46C2936.52 5035.17 2935.62 5044.76 2937.51 5053.99C2939.4 5063.22 2943.99 5071.68 2950.71 5078.29C2957.43 5084.9 2965.96 5089.35 2975.22 5091.09C2984.48 5092.82 2994.05 5091.76 3002.7 5088.03C3011.36 5084.31 3018.71 5078.08 3023.81 5070.16C3028.91 5062.24 3031.54 5052.98 3031.35 5043.56C3031.19 5031.09 3026.12 5019.19 3017.25 5010.44C3008.38 5001.68 2996.41 4996.77 2983.94 4996.77L2984.1 4997.08ZM2984.1 5083.69C2973.7 5083.69 2963.73 5079.56 2956.38 5072.21C2949.03 5064.86 2944.9 5054.88 2944.9 5044.49C2944.9 5034.09 2949.03 5024.12 2956.38 5016.77C2963.73 5009.42 2973.7 5005.29 2984.1 5005.29C2994.5 5005.29 3004.47 5009.42 3011.82 5016.77C3019.17 5024.12 3023.3 5034.09 3023.3 5044.49C3023.3 5054.88 3019.17 5064.86 3011.82 5072.21C3004.47 5079.56 2994.5 5083.69 2984.1 5083.69ZM3496.45 4426.01C3487.02 4425.95 3477.78 4428.69 3469.91 4433.9C3462.04 4439.1 3455.9 4446.53 3452.26 4455.23C3448.62 4463.93 3447.65 4473.52 3449.48 4482.78C3451.3 4492.03 3455.84 4500.54 3462.51 4507.21C3469.18 4513.88 3477.68 4518.41 3486.94 4520.24C3496.19 4522.06 3505.78 4521.09 3514.49 4517.46C3523.19 4513.82 3530.62 4507.67 3535.82 4499.81C3541.02 4491.94 3543.77 4482.7 3543.71 4473.26C3543.58 4460.77 3538.53 4448.83 3529.66 4440.04C3520.78 4431.25 3508.79 4426.32 3496.3 4426.32L3496.45 4426.01ZM3496.45 4512.62C3488.66 4512.68 3481.02 4510.42 3474.51 4506.14C3467.99 4501.85 3462.9 4495.72 3459.88 4488.54C3456.85 4481.35 3456.03 4473.43 3457.51 4465.78C3458.99 4458.12 3462.72 4451.08 3468.21 4445.55C3473.7 4440.02 3480.71 4436.24 3488.35 4434.69C3495.99 4433.15 3503.92 4433.91 3511.13 4436.88C3518.34 4439.85 3524.5 4444.89 3528.84 4451.37C3533.18 4457.85 3535.49 4465.47 3535.49 4473.26C3535.53 4478.44 3534.55 4483.58 3532.6 4488.38C3530.65 4493.18 3527.77 4497.55 3524.13 4501.24C3520.49 4504.92 3516.16 4507.85 3511.38 4509.86C3506.6 4511.86 3501.48 4512.91 3496.3 4512.93L3496.45 4512.62ZM3543.71 3844.56C3534.33 3844.56 3525.16 3847.34 3517.37 3852.55C3509.57 3857.76 3503.49 3865.16 3499.91 3873.83C3496.32 3882.49 3495.38 3892.02 3497.21 3901.22C3499.04 3910.41 3503.55 3918.86 3510.18 3925.49C3516.81 3932.12 3525.26 3936.64 3534.46 3938.47C3543.65 3940.3 3553.19 3939.36 3561.85 3935.77C3570.51 3932.18 3577.91 3926.1 3583.12 3918.31C3588.33 3910.51 3591.11 3901.35 3591.11 3891.97C3591.03 3879.42 3585.98 3867.42 3577.06 3858.59C3568.15 3849.76 3556.1 3844.83 3543.55 3844.87L3543.71 3844.56ZM3543.71 3931.01C3533.31 3931.01 3523.34 3926.88 3515.99 3919.53C3508.64 3912.18 3504.51 3902.21 3504.51 3891.81C3504.51 3881.42 3508.64 3871.45 3515.99 3864.1C3523.34 3856.75 3533.31 3852.62 3543.71 3852.62C3554.1 3852.62 3564.07 3856.75 3571.42 3864.1C3578.77 3871.45 3582.9 3881.42 3582.9 3891.81C3582.9 3902.21 3578.77 3912.18 3571.42 3919.53C3564.07 3926.88 3554.1 3931.01 3543.71 3931.01ZM3872.62 4617.35C3861.76 4617.4 3851.25 4621.18 3842.84 4628.05C3834.44 4634.92 3828.64 4644.46 3826.43 4655.09C3824.22 4665.72 3825.72 4676.79 3830.69 4686.45C3835.65 4696.1 3843.78 4703.76 3853.72 4708.14L3852.17 4697.91C3844.83 4693.5 3839.14 4686.8 3835.98 4678.83C3832.83 4670.87 3832.38 4662.09 3834.7 4653.85C3837.03 4645.6 3842 4638.35 3848.85 4633.21C3855.7 4628.07 3864.06 4625.33 3872.62 4625.41C3875.82 4625.33 3879 4625.75 3882.07 4626.64C3883.47 4624.32 3885.17 4622 3886.72 4619.36C3882.08 4618.06 3877.28 4617.49 3872.47 4617.66L3872.62 4617.35ZM3252.9 4109.49C3243.49 4109.46 3234.28 4112.22 3226.44 4117.43C3218.59 4122.64 3212.47 4130.06 3208.85 4138.74C3205.23 4147.43 3204.26 4157 3206.08 4166.24C3207.9 4175.47 3212.41 4183.96 3219.06 4190.63C3225.71 4197.3 3234.18 4201.84 3243.41 4203.69C3252.64 4205.54 3262.21 4204.61 3270.91 4201.01C3279.61 4197.42 3287.05 4191.32 3292.28 4183.49C3297.52 4175.67 3300.31 4166.47 3300.31 4157.05C3300.19 4144.56 3295.17 4132.61 3286.34 4123.77C3277.5 4114.94 3265.55 4109.92 3253.06 4109.8L3252.9 4109.49ZM3252.9 4196.25C3245.11 4196.28 3237.48 4194 3230.98 4189.68C3224.49 4185.37 3219.42 4179.23 3216.42 4172.03C3213.42 4164.83 3212.63 4156.91 3214.14 4149.26C3215.66 4141.61 3219.41 4134.58 3224.92 4129.07C3230.43 4123.56 3237.46 4119.81 3245.11 4118.3C3252.76 4116.78 3260.68 4117.57 3267.88 4120.57C3275.08 4123.57 3281.22 4128.64 3285.53 4135.13C3289.84 4141.63 3292.13 4149.26 3292.1 4157.05C3292.14 4162.21 3291.16 4167.33 3289.22 4172.11C3287.28 4176.89 3284.41 4181.24 3280.78 4184.92C3277.16 4188.59 3272.84 4191.5 3268.08 4193.5C3263.32 4195.5 3258.22 4196.54 3253.06 4196.56L3252.9 4196.25ZM2035 4617.66C2025.62 4617.66 2016.45 4620.44 2008.65 4625.66C2000.85 4630.88 1994.77 4638.29 1991.19 4646.96C1987.6 4655.63 1986.67 4665.17 1988.52 4674.37C1990.36 4683.57 1994.89 4692.02 2001.53 4698.64C2008.18 4705.27 2016.64 4709.77 2025.85 4711.58C2035.05 4713.39 2044.59 4712.43 2053.25 4708.82C2061.91 4705.21 2069.3 4699.11 2074.5 4691.29C2079.69 4683.48 2082.44 4674.29 2082.41 4664.91C2082.33 4652.38 2077.3 4640.38 2068.42 4631.53C2059.55 4622.69 2047.54 4617.7 2035 4617.66ZM2035 4704.11C2027.24 4704.14 2019.65 4701.87 2013.18 4697.58C2006.72 4693.29 2001.67 4687.18 1998.68 4680.02C1995.69 4672.86 1994.89 4664.97 1996.38 4657.36C1997.88 4649.75 2001.6 4642.75 2007.08 4637.25C2012.55 4631.75 2019.53 4628 2027.14 4626.48C2034.75 4624.95 2042.64 4625.72 2049.81 4628.68C2056.98 4631.65 2063.11 4636.67 2067.43 4643.12C2071.74 4649.57 2074.04 4657.15 2074.04 4664.91C2074.04 4675.28 2069.94 4685.23 2062.62 4692.57C2055.3 4699.92 2045.37 4704.07 2035 4704.11ZM2984.72 5433.36C2972.51 5433.35 2960.77 5438.05 2951.94 5446.47C2943.11 5454.9 2937.87 5466.41 2937.31 5478.6H2945.52C2946.11 5468.59 2950.49 5459.17 2957.77 5452.26C2965.05 5445.36 2974.69 5441.48 2984.72 5441.42C2994.71 5441.45 3004.31 5445.3 3011.54 5452.19C3018.77 5459.07 3023.09 5468.47 3023.61 5478.45H3031.97C3031.37 5466.17 3026.03 5454.61 3017.07 5446.2C3008.11 5437.79 2996.23 5433.19 2983.94 5433.36H2984.72ZM2618.16 4691.41C2608.74 4691.41 2599.54 4694.21 2591.72 4699.46C2583.91 4704.72 2577.83 4712.18 2574.27 4720.89C2570.72 4729.61 2569.83 4739.19 2571.74 4748.41C2573.64 4757.63 2578.25 4766.07 2584.98 4772.67C2591.7 4779.26 2600.23 4783.7 2609.49 4785.42C2618.75 4787.14 2628.31 4786.07 2636.95 4782.34C2645.6 4778.61 2652.93 4772.39 2658.03 4764.47C2663.13 4756.55 2665.75 4747.3 2665.56 4737.88C2665.32 4725.34 2660.11 4713.4 2651.08 4704.69C2642.05 4695.97 2629.93 4691.2 2617.38 4691.41H2618.16ZM2618.16 4778.01C2610.37 4778.04 2602.74 4775.76 2596.25 4771.45C2589.76 4767.15 2584.69 4761.01 2581.69 4753.83C2578.69 4746.64 2577.89 4738.72 2579.39 4731.08C2580.89 4723.43 2584.62 4716.41 2590.12 4710.89C2595.62 4705.37 2602.63 4701.61 2610.27 4700.07C2617.9 4698.54 2625.82 4699.31 2633.02 4702.29C2640.22 4705.26 2646.38 4710.31 2650.71 4716.78C2655.04 4723.25 2657.35 4730.87 2657.35 4738.66C2657.35 4743.88 2656.32 4749.05 2654.3 4753.86C2652.28 4758.68 2649.33 4763.04 2645.61 4766.71C2641.89 4770.37 2637.48 4773.25 2632.63 4775.19C2627.79 4777.14 2622.6 4778.09 2617.38 4778.01H2618.16ZM2641.71 3820.7C2632.35 3820.76 2623.22 3823.59 2615.47 3828.83C2607.72 3834.07 2601.69 3841.49 2598.14 3850.15C2594.6 3858.8 2593.69 3868.32 2595.54 3877.49C2597.4 3886.66 2601.92 3895.08 2608.55 3901.69C2615.17 3908.29 2623.61 3912.79 2632.79 3914.61C2641.96 3916.43 2651.47 3915.5 2660.12 3911.92C2668.77 3908.35 2676.17 3902.3 2681.38 3894.53C2686.59 3886.76 2689.39 3877.62 2689.42 3868.26C2689.43 3861.94 2688.16 3855.68 2685.72 3849.85C2683.27 3844.01 2679.68 3838.73 2675.17 3834.3C2670.65 3829.87 2665.3 3826.39 2659.42 3824.05C2653.54 3821.72 2647.25 3820.58 2640.93 3820.7H2641.71ZM2641.71 3907.31C2631.31 3907.31 2621.34 3903.18 2613.99 3895.83C2606.64 3888.48 2602.51 3878.51 2602.51 3868.11C2602.51 3857.71 2606.64 3847.74 2613.99 3840.39C2621.34 3833.04 2631.31 3828.91 2641.71 3828.91C2652.1 3828.91 2662.07 3833.04 2669.42 3840.39C2676.77 3847.74 2680.9 3857.71 2680.9 3868.11C2680.9 3878.51 2676.77 3888.48 2669.42 3895.83C2662.07 3903.18 2652.1 3907.31 2641.71 3907.31ZM1798.89 5027.76C1795.88 5027.77 1792.87 5028.03 1789.9 5028.53C1788.82 5031.79 1787.73 5034.73 1786.8 5037.83C1792.1 5036.52 1797.62 5036.32 1802.99 5037.26C1808.37 5038.19 1813.5 5040.24 1818.04 5043.26C1822.59 5046.28 1826.45 5050.22 1829.4 5054.81C1832.34 5059.41 1834.29 5064.57 1835.13 5069.96C1835.98 5075.36 1835.69 5080.87 1834.28 5086.14C1832.88 5091.42 1830.4 5096.34 1826.99 5100.6C1823.58 5104.87 1819.32 5108.37 1814.48 5110.9C1809.65 5113.43 1804.33 5114.93 1798.89 5115.29C1792.37 5115.29 1785.95 5113.64 1780.24 5110.5C1774.52 5107.36 1769.69 5102.83 1766.2 5097.32L1762.95 5106.62C1767.33 5111.88 1772.83 5116.11 1779.04 5119.01C1785.26 5121.9 1792.03 5123.38 1798.89 5123.35C1805.35 5123.72 1811.82 5122.76 1817.91 5120.54C1823.99 5118.32 1829.55 5114.89 1834.26 5110.44C1838.97 5106 1842.72 5100.64 1845.28 5094.69C1847.84 5088.74 1849.17 5082.34 1849.17 5075.86C1849.17 5069.39 1847.84 5062.98 1845.28 5057.04C1842.72 5051.09 1838.97 5045.73 1834.26 5041.28C1829.55 5036.84 1823.99 5033.4 1817.91 5031.18C1811.82 5028.96 1805.35 5028.01 1798.89 5028.38V5027.76ZM2315.27 4950.29C2305.85 4950.29 2296.64 4953.09 2288.81 4958.33C2280.98 4963.57 2274.89 4971.02 2271.3 4979.73C2267.71 4988.44 2266.78 4998.01 2268.64 5007.25C2270.5 5016.48 2275.06 5024.96 2281.75 5031.6C2288.43 5038.24 2296.93 5042.74 2306.18 5044.54C2315.43 5046.34 2325 5045.36 2333.69 5041.71C2342.37 5038.06 2349.78 5031.92 2354.97 5024.05C2360.16 5016.19 2362.89 5006.97 2362.83 4997.55C2362.81 4991.32 2361.57 4985.16 2359.16 4979.42C2356.76 4973.67 2353.25 4968.46 2348.84 4964.07C2344.42 4959.68 2339.18 4956.21 2333.42 4953.84C2327.66 4951.48 2321.49 4950.27 2315.27 4950.29ZM2315.27 5036.9C2307.49 5036.9 2299.88 5034.59 2293.41 5030.27C2286.93 5025.94 2281.89 5019.8 2278.91 5012.6C2275.93 5005.41 2275.15 4997.5 2276.67 4989.87C2278.19 4982.24 2281.94 4975.22 2287.44 4969.72C2292.95 4964.22 2299.96 4960.47 2307.59 4958.95C2315.23 4957.43 2323.14 4958.21 2330.33 4961.19C2337.52 4964.17 2343.67 4969.21 2347.99 4975.68C2352.31 4982.15 2354.62 4989.76 2354.62 4997.55C2354.42 5007.85 2350.18 5017.66 2342.82 5024.87C2335.47 5032.09 2325.57 5036.13 2315.27 5036.12V5036.9ZM3070.55 4578.46C3061.14 4578.28 3051.88 4580.9 3043.96 4586C3036.05 4591.09 3029.82 4598.43 3026.09 4607.07C3022.36 4615.72 3021.29 4625.28 3023.01 4634.54C3024.74 4643.79 3029.18 4652.33 3035.77 4659.05C3042.36 4665.77 3050.8 4670.38 3060.02 4672.29C3069.25 4674.19 3078.83 4673.31 3087.54 4669.75C3096.26 4666.19 3103.72 4660.12 3108.97 4652.3C3114.22 4644.49 3117.03 4635.29 3117.03 4625.87C3116.95 4613.48 3112.06 4601.6 3103.39 4592.76C3094.71 4583.91 3082.94 4578.78 3070.55 4578.46ZM3070.55 4665.07C3062.8 4665.07 3055.22 4662.77 3048.77 4658.46C3042.33 4654.15 3037.3 4648.03 3034.34 4640.87C3031.37 4633.71 3030.59 4625.83 3032.11 4618.22C3033.62 4610.62 3037.35 4603.64 3042.83 4598.15C3048.32 4592.67 3055.3 4588.94 3062.9 4587.43C3070.51 4585.91 3078.39 4586.69 3085.55 4589.66C3092.71 4592.62 3098.83 4597.65 3103.14 4604.09C3107.45 4610.54 3109.75 4618.12 3109.75 4625.87C3109.67 4636.23 3105.51 4646.13 3098.17 4653.44C3090.83 4660.75 3080.91 4664.87 3070.55 4664.91V4665.07ZM2947.54 3100.9C2944.23 3105.39 2939.97 3109.11 2935.08 3111.78C2930.18 3114.46 2924.75 3116.03 2919.18 3116.39L2908.34 3123.98C2911 3124.47 2913.69 3124.73 2916.4 3124.76C2925.49 3124.74 2934.4 3122.12 2942.06 3117.2C2949.72 3112.29 2955.81 3105.29 2959.62 3097.03L2947.54 3100.9ZM3094.1 3628.43C3084.69 3628.49 3075.52 3631.34 3067.73 3636.62C3059.94 3641.9 3053.89 3649.37 3050.35 3658.08C3046.81 3666.8 3045.93 3676.36 3047.82 3685.58C3049.72 3694.79 3054.3 3703.24 3061 3709.85C3067.69 3716.45 3076.2 3720.93 3085.44 3722.7C3094.67 3724.48 3104.23 3723.48 3112.9 3719.82C3121.57 3716.16 3128.95 3710.02 3134.13 3702.16C3139.3 3694.31 3142.03 3685.09 3141.97 3675.69C3141.95 3669.44 3140.7 3663.25 3138.28 3657.48C3135.85 3651.72 3132.32 3646.49 3127.87 3642.1C3123.42 3637.71 3118.14 3634.24 3112.35 3631.89C3106.55 3629.55 3100.35 3628.37 3094.1 3628.43ZM3094.1 3715.35C3086.3 3715.32 3078.68 3712.98 3072.21 3708.63C3065.74 3704.27 3060.7 3698.1 3057.73 3690.89C3054.75 3683.68 3053.99 3675.75 3055.51 3668.1C3057.04 3660.45 3060.8 3653.42 3066.32 3647.91C3071.84 3642.39 3078.86 3638.63 3086.51 3637.1C3094.16 3635.57 3102.09 3636.34 3109.3 3639.31C3116.51 3642.28 3122.69 3647.32 3127.04 3653.8C3131.39 3660.27 3133.73 3667.89 3133.76 3675.69C3133.78 3680.9 3132.77 3686.07 3130.78 3690.89C3128.8 3695.71 3125.88 3700.09 3122.19 3703.78C3118.5 3707.47 3114.12 3710.39 3109.3 3712.37C3104.48 3714.36 3099.31 3715.37 3094.1 3715.35Z" fill="white"/>
<path d="M3478.94 4612.55C3383.46 4620.97 3288.75 4636.51 3195.58 4659.03C3149.1 4670.8 3104.17 4684.74 3058.93 4699.62C3036.31 4707.05 3013.69 4713.72 2990.92 4720.22C2967.23 4727.73 2942.73 4732.36 2917.94 4734.01C2917.49 4734.01 2917.06 4734.19 2916.74 4734.51C2916.42 4734.83 2916.24 4735.26 2916.24 4735.72C2916.24 4736.17 2916.42 4736.6 2916.74 4736.92C2917.06 4737.24 2917.49 4737.42 2917.94 4737.42C2941.39 4738.56 2964.89 4738.14 2988.28 4736.18C3010.85 4733.41 3033.2 4729.17 3055.21 4723.48C3101.69 4711.86 3148.17 4698.22 3194.65 4686.14C3289.16 4661.97 3383.51 4637.65 3479.41 4620.29C3484.52 4619.67 3483.44 4612.08 3478.94 4612.55Z" fill="#263238"/>
<path d="M3714.75 4697.14C3636.12 4688.83 3557.08 4685 3478.02 4685.67C3438.51 4685.67 3399.31 4688.93 3359.8 4692.8C3341.06 4694.66 3322.31 4696.83 3303.56 4699.15C3284.82 4701.48 3262.66 4707.21 3241.59 4709.53C3239.42 4709.53 3239.42 4713.1 3241.59 4712.94C3261.11 4711.24 3281.1 4712.94 3300.62 4712.94L3359.65 4711.39C3399.16 4710.46 3438.51 4709.84 3478.02 4708.6C3556.87 4705.81 3635.42 4703.95 3714.44 4704.11C3719.09 4703.64 3718.78 4697.45 3714.75 4697.14Z" fill="#263238"/>
<path d="M2659.52 3313.62C2065.21 3936.59 1326.2 5238.31 1472.45 5498.12C1635.13 5786.45 2485.38 4904.9 2458.58 4862.91C2435.65 4826.35 2738.54 4036.21 2953.58 3462.97C3168.62 2889.73 2806.4 3159.62 2659.52 3313.62Z" fill="#F7A9A0"/>
<path d="M1931.35 4060.53L2784.71 4214.07C2784.71 4214.07 2997.73 3609.84 3039.87 3273.8C3063.58 3085.72 2953.11 3077.97 2813.99 3177.9C2327.04 3527.88 1931.35 4060.53 1931.35 4060.53Z" fill="#FF73A4"/>
<path d="M2236.41 3997.01C2227 3997.04 2217.81 3999.87 2210.02 4005.14C2202.23 4010.41 2196.18 4017.88 2192.64 4026.6C2189.1 4035.32 2188.24 4044.9 2190.17 4054.11C2192.09 4063.32 2196.71 4071.75 2203.44 4078.33C2210.17 4084.9 2218.7 4089.33 2227.96 4091.04C2237.21 4092.75 2246.76 4091.67 2255.4 4087.93C2264.03 4084.19 2271.36 4077.97 2276.45 4070.06C2281.54 4062.15 2284.16 4052.9 2283.97 4043.49C2283.73 4031.05 2278.61 4019.21 2269.71 4010.51C2260.81 4001.82 2248.85 3996.97 2236.41 3997.01ZM2236.41 4083.62C2228.66 4083.62 2221.09 4081.32 2214.65 4077.02C2208.21 4072.72 2203.18 4066.61 2200.21 4059.45C2197.24 4052.3 2196.46 4044.43 2197.96 4036.83C2199.46 4029.23 2203.17 4022.24 2208.64 4016.76C2214.11 4011.27 2221.08 4007.52 2228.67 4005.99C2236.26 4004.46 2244.14 4005.22 2251.3 4008.16C2258.47 4011.1 2264.6 4016.1 2268.93 4022.53C2273.25 4028.95 2275.58 4036.52 2275.61 4044.26C2275.63 4049.42 2274.63 4054.54 2272.67 4059.31C2270.71 4064.08 2267.82 4068.42 2264.18 4072.08C2260.54 4075.74 2256.21 4078.64 2251.45 4080.62C2246.68 4082.6 2241.57 4083.62 2236.41 4083.62ZM2760.69 3372.8C2748.08 3372.8 2735.98 3377.81 2727.06 3386.73C2718.14 3395.65 2713.13 3407.75 2713.13 3420.36C2713.13 3432.98 2718.14 3445.07 2727.06 3453.99C2735.98 3462.91 2748.08 3467.93 2760.69 3467.93C2773.31 3467.93 2785.4 3462.91 2794.32 3453.99C2803.24 3445.07 2808.25 3432.98 2808.25 3420.36C2808.25 3407.75 2803.24 3395.65 2794.32 3386.73C2785.4 3377.81 2773.31 3372.8 2760.69 3372.8ZM2760.69 3459.71C2752.93 3459.65 2745.36 3457.3 2738.93 3452.94C2732.5 3448.59 2727.51 3442.43 2724.57 3435.24C2721.64 3428.06 2720.89 3420.16 2722.43 3412.55C2723.97 3404.94 2727.73 3397.96 2733.23 3392.48C2738.73 3387 2745.73 3383.27 2753.34 3381.76C2760.96 3380.25 2768.85 3381.03 2776.02 3383.99C2783.2 3386.96 2789.34 3391.97 2793.67 3398.42C2798 3404.86 2800.32 3412.44 2800.35 3420.21C2800.37 3425.4 2799.37 3430.55 2797.39 3435.35C2795.41 3440.15 2792.5 3444.52 2788.83 3448.19C2785.16 3451.86 2780.79 3454.77 2775.99 3456.75C2771.19 3458.73 2766.04 3459.73 2760.85 3459.71H2760.69ZM2387.78 3559.18C2380.63 3559.17 2373.58 3560.82 2367.17 3563.98L2344.86 3586.91C2341.73 3593.21 2340.13 3600.17 2340.21 3607.21C2340.18 3616.63 2342.95 3625.84 2348.16 3633.69C2353.38 3641.54 2360.81 3647.66 2369.5 3651.28C2378.2 3654.89 2387.78 3655.85 2397.02 3654.02C2406.26 3652.19 2414.75 3647.66 2421.41 3640.99C2428.07 3634.33 2432.6 3625.84 2434.43 3616.6C2436.26 3607.36 2435.31 3597.79 2431.69 3589.09C2428.07 3580.39 2421.95 3572.96 2414.1 3567.75C2406.26 3562.54 2397.04 3559.77 2387.62 3559.8L2387.78 3559.18ZM2387.78 3646.09C2380.01 3646.06 2372.42 3643.73 2365.97 3639.4C2359.52 3635.06 2354.5 3628.91 2351.55 3621.73C2348.59 3614.55 2347.82 3606.65 2349.34 3599.03C2350.87 3591.41 2354.61 3584.41 2360.11 3578.92C2365.6 3573.42 2372.6 3569.68 2380.22 3568.15C2387.84 3566.63 2395.73 3567.4 2402.92 3570.36C2410.1 3573.32 2416.25 3578.34 2420.59 3584.78C2424.92 3591.23 2427.25 3598.82 2427.28 3606.59C2427.3 3611.77 2426.3 3616.9 2424.33 3621.69C2422.36 3626.49 2419.47 3630.84 2415.81 3634.51C2412.16 3638.18 2407.81 3641.1 2403.03 3643.08C2398.24 3645.07 2393.11 3646.09 2387.93 3646.09H2387.78ZM2773.24 4212.21L2783.16 4214.07C2783.66 4213.47 2784.3 4212.99 2785.02 4212.67C2785.64 4210.71 2787.03 4206.68 2789.2 4200.59C2783.13 4203.23 2777.73 4207.2 2773.4 4212.21H2773.24ZM2640.78 3820.7C2631.42 3820.76 2622.29 3823.59 2614.54 3828.83C2606.79 3834.07 2600.76 3841.49 2597.21 3850.14C2593.67 3858.8 2592.76 3868.32 2594.62 3877.49C2596.47 3886.66 2600.99 3895.08 2607.62 3901.68C2614.24 3908.29 2622.68 3912.79 2631.86 3914.61C2641.03 3916.43 2650.54 3915.5 2659.19 3911.92C2667.84 3908.35 2675.24 3902.3 2680.45 3894.53C2685.66 3886.76 2688.46 3877.62 2688.49 3868.26C2688.49 3862.02 2687.26 3855.83 2684.87 3850.06C2682.48 3844.29 2678.98 3839.05 2674.56 3834.63C2670.15 3830.21 2664.9 3826.71 2659.13 3824.32C2653.36 3821.93 2647.18 3820.7 2640.93 3820.7H2640.78ZM2640.78 3907.31C2630.38 3907.31 2620.41 3903.18 2613.06 3895.83C2605.71 3888.47 2601.58 3878.5 2601.58 3868.11C2601.58 3857.71 2605.71 3847.74 2613.06 3840.39C2620.41 3833.04 2630.38 3828.91 2640.78 3828.91C2651.17 3828.91 2661.14 3833.04 2668.49 3840.39C2675.84 3847.74 2679.97 3857.71 2679.97 3868.11C2679.97 3878.5 2675.84 3888.47 2668.49 3895.83C2661.14 3903.18 2651.17 3907.31 2640.78 3907.31ZM2910.51 3124.45C2912.21 3124.45 2914.07 3124.45 2915.93 3124.45C2925.79 3124.44 2935.4 3121.29 2943.35 3115.46C2932.2 3117.42 2921.25 3120.43 2910.66 3124.45H2910.51Z" fill="white"/>
<path d="M2778.66 4074.48C2649.45 4039.93 2295.9 3956.42 2059.17 3932.25C2057.62 3932.25 2056.54 3937.52 2057.93 3937.83C2251.9 3987.71 2645.11 4059.14 2776.96 4082.38C2779.75 4082.69 2781.45 4075.09 2778.66 4074.48Z" fill="#263238"/>
<path d="M2680.59 4195.48C2715.76 4198.88 2750.93 4202.91 2785.79 4207.72L2778.51 4212.05C2803.92 4119.1 2832.11 4027.07 2862.33 3935.66C2892.54 3844.25 2924.3 3753.62 2961.79 3664.22C2939.48 3758.11 2912.52 3850.14 2884.33 3943.1C2856.13 4036.05 2824.83 4126.38 2791.37 4216.7L2789.2 4222.12L2783.93 4221.04C2749.43 4212.98 2714.99 4204.46 2680.59 4195.48Z" fill="#263238"/>
<path d="M2905.24 3848.12C2912.83 3829.13 2922.6 3811.09 2934.37 3794.36C2945.93 3777.4 2958.83 3761.39 2972.94 3746.49C2970.95 3756.66 2967.56 3766.52 2962.87 3775.77C2958.37 3785.02 2953.19 3793.93 2947.38 3802.42C2935.81 3819.76 2921.59 3835.19 2905.24 3848.12Z" fill="#263238"/>
<path d="M1491.66 5523.53C1652.79 5697.98 2024.93 5684.5 2964.89 5738.73C3095.03 5746.17 3394.82 4842.46 3256.31 4827.28C3081.86 4808.22 2400.79 4771.97 2350.59 4775.69C1927.64 4806.67 1382.28 5405.48 1491.66 5523.53Z" fill="#F7A9A0"/>
<path d="M3067.45 4810.86C3067.45 4810.86 3463.3 4816.43 3670.44 4883.83C3947.76 4974 4149.94 5165.95 4229.89 5251.48C4396.75 5430.11 4676.55 5977.32 4533.09 6085.46C4403.1 6183.22 4145.76 5609.52 4145.76 5609.52C4145.76 5609.52 4505.2 6151.77 4327.03 6240.24C4148.86 6328.7 3887.49 5646.08 3887.49 5646.08C3887.49 5646.08 4243.83 6210.95 4046.14 6273.7C3896.32 6321.11 3624.73 5715.95 3624.73 5715.95C3624.73 5715.95 3928.09 6203.52 3776.1 6258.21C3608.16 6320.18 3322.47 5776.38 3322.47 5776.38C2912.52 5852.14 2686.33 5720.6 2536.51 5607.97C2499.79 5581.17 3067.45 4810.86 3067.45 4810.86Z" fill="#F7A9A0"/>
<path d="M4033.59 5414.15C4078.21 5476.12 4123.61 5538.87 4162.49 5604.72C4201.38 5670.56 4237.94 5737.8 4270.94 5806.9C4350.73 5976.55 4374.13 6095.22 4371.96 6088.1C4318.82 5918.45 4183.41 5680.48 4144.52 5614.63C4105.63 5548.79 4070.31 5481.24 4031.58 5415.55C4029.41 5413.84 4031.89 5412.6 4033.59 5414.15Z" fill="#263238"/>
<path d="M3792.68 5550.02C3846.13 5631.83 3902.06 5710.99 3951.94 5795.12C4001.83 5879.25 4041.18 5962.76 4084.87 6049.67C4088.28 6056.33 4083.63 6055.87 4079.92 6049.67C4033.44 5964.46 3982.62 5889.47 3934.59 5804.88C3886.56 5720.29 3841.63 5634.46 3790.66 5551.57C3790.56 5551.44 3790.49 5551.29 3790.44 5551.13C3790.4 5550.97 3790.39 5550.8 3790.41 5550.63C3790.43 5550.47 3790.49 5550.31 3790.57 5550.16C3790.65 5550.02 3790.76 5549.89 3790.9 5549.79C3791.03 5549.69 3791.18 5549.61 3791.34 5549.57C3791.5 5549.53 3791.67 5549.52 3791.83 5549.54C3792 5549.56 3792.16 5549.61 3792.3 5549.7C3792.45 5549.78 3792.58 5549.89 3792.68 5550.02Z" fill="#263238"/>
<path d="M3565.55 5629.66C3653.55 5750.5 3719.09 5887.31 3780.28 6023.02C3783.38 6029.84 3777.34 6028.6 3773.78 6021.94C3704.83 5889.78 3651.69 5785.67 3561.21 5632.76C3559.82 5630.28 3563.69 5627.18 3565.55 5629.66Z" fill="#263238"/>
<path d="M1975.2 4919.31C2049.1 4872.05 2259.49 4759.26 2472.83 4776.77C2473.28 4776.77 2473.72 4776.95 2474.04 4777.27C2474.36 4777.59 2474.54 4778.02 2474.54 4778.47C2474.54 4778.93 2474.36 4779.36 2474.04 4779.68C2473.72 4780 2473.28 4780.18 2472.83 4780.18C2298.23 4788.23 2052.82 4881.5 1977.06 4921.94C1975.04 4922.87 1973.03 4920.23 1975.2 4919.31Z" fill="#263238"/>
<path d="M3048.55 3238.01C3060.01 3277.52 3265.45 3527.11 3447.03 3508.83C3506.37 3502.94 3487.93 3177.28 3487.93 3177.28L3492.11 3152.96L3549.75 2812.11L3140.58 2579.72L3081.7 2548.73C3081.7 2548.73 3072.1 2643.08 3061.25 2760.52C3061.25 2766.1 3060.17 2771.52 3059.7 2777.25C3059.24 2782.98 3058.16 2790.27 3057.69 2796.46C3055.83 2813.97 3053.97 2831.94 3052.58 2849.76C3051.49 2863.39 3050.25 2876.56 3049.63 2890.97C3049.01 2905.38 3047.78 2919.32 3046.85 2933.58C3039.56 3075.65 3043.9 3221.12 3048.55 3238.01Z" fill="#F7A9A0"/>
<path d="M3061.25 2760.05C3100.27 2852.9 3159.01 2936.15 3233.41 3004.02C3307.81 3071.89 3396.09 3122.77 3492.11 3153.11L3549.75 2812.26L3140.58 2579.87L3081.71 2548.88C3081.71 2548.88 3072.1 2642.62 3061.25 2760.05Z" fill="#263238"/>
<path d="M3940.63 2153.04C4114.62 2734.33 3785.71 2904.14 3660.68 2941.48C3546.96 2975.4 3154.99 3076.57 2921.97 2516.35C2688.96 1956.12 2904 1691.5 3160.25 1600.1C3416.51 1508.69 3766.34 1571.74 3940.63 2153.04Z" fill="#F7A9A0"/>
<path d="M3787.56 2032.5C3774.53 2037.59 3761.24 2041.98 3747.75 2045.67C3734.42 2052.3 3719.27 2054.31 3704.68 2051.41C3700.26 2049.6 3696.56 2046.39 3694.15 2042.28C3691.74 2038.16 3690.76 2033.36 3691.35 2028.63C3693.98 2019.46 3699.02 2011.16 3705.94 2004.6C3712.86 1998.03 3721.41 1993.44 3730.71 1991.29C3748.93 1984.13 3769.19 1984.13 3787.41 1991.29C3791.28 1993.16 3794.54 1996.08 3796.83 1999.72C3799.12 2003.35 3800.34 2007.55 3800.36 2011.85C3800.37 2016.15 3799.18 2020.36 3796.92 2024.01C3794.66 2027.66 3791.42 2030.61 3787.56 2032.5Z" fill="#263238"/>
<path d="M3434.94 2284.11C3446.82 2276.76 3458.3 2268.8 3469.34 2260.25C3482.35 2250.95 3493.82 2244.76 3500.33 2229.26C3501.58 2224.67 3501.25 2219.79 3499.4 2215.41C3497.54 2211.03 3494.27 2207.39 3490.1 2205.1C3481.21 2201.63 3471.55 2200.63 3462.13 2202.21C3452.72 2203.79 3443.92 2207.9 3436.65 2214.08C3419.93 2224.19 3407.57 2240.15 3401.95 2258.86C3401.07 2263.1 3401.42 2267.51 3402.94 2271.58C3404.45 2275.64 3407.09 2279.19 3410.53 2281.83C3413.97 2284.46 3418.09 2286.07 3422.41 2286.48C3426.73 2286.88 3431.07 2286.06 3434.94 2284.11Z" fill="#263238"/>
<path d="M3531.62 2306.26C3530.85 2304.87 3529.14 2309.05 3529.76 2310.6C3544.33 2349.33 3554.4 2396.12 3523.41 2421.07C3522.48 2421.84 3523.41 2423.86 3524.49 2423.24C3565.55 2402.48 3551.61 2340.5 3531.62 2306.26Z" fill="#263238"/>
<path d="M3482.82 2277.14C3418.21 2293.71 3456.17 2421.69 3515.97 2406.35C3575.78 2391.01 3536.89 2263.35 3482.82 2277.14Z" fill="#263238"/>
<path d="M3460.35 2291.39C3451.21 2301.93 3444.86 2317.88 3431.07 2323.31C3417.28 2328.73 3400.09 2319.59 3386.14 2309.67C3384.75 2308.59 3383.97 2309.67 3384.44 2311.84C3391.41 2336.48 3408.3 2358.32 3435.56 2354.6C3462.83 2350.88 3471.35 2323.62 3470.11 2297.59C3469.34 2292.79 3463.3 2287.21 3460.35 2291.39Z" fill="#263238"/>
<path d="M3750.69 2222.45C3750.69 2220.9 3754.41 2223.53 3754.72 2225.08C3764.94 2265.21 3783.38 2309.36 3823.04 2312.15C3824.28 2312.15 3824.75 2314.32 3823.04 2314.48C3777.8 2320.98 3754.72 2262.11 3750.69 2222.45Z" fill="#263238"/>
<path d="M3774.24 2170.86C3836.21 2147.62 3878.51 2274.19 3820.72 2295.73C3762.93 2317.26 3721.87 2190.38 3774.24 2170.86Z" fill="#263238"/>
<path d="M3803.37 2170.39C3815.61 2173.8 3829.55 2182.79 3841.79 2179.53C3854.03 2176.28 3861.62 2158.77 3866.11 2142.81C3866.11 2141.11 3867.97 2141.89 3868.59 2142.81C3877.27 2166.83 3877.58 2194.72 3855.89 2207.11C3834.2 2219.51 3813.59 2202.62 3799.8 2180.46C3797.33 2177.05 3798.41 2169 3803.37 2170.39Z" fill="#263238"/>
<path d="M3641.47 2643.55C3653.4 2650.67 3666.25 2661.21 3681.13 2659.04C3696 2655.13 3709.84 2648.05 3721.72 2638.28C3721.96 2638.05 3722.28 2637.92 3722.61 2637.9C3722.95 2637.88 3723.28 2637.99 3723.54 2638.2C3723.8 2638.4 3723.98 2638.7 3724.05 2639.03C3724.11 2639.35 3724.05 2639.69 3723.89 2639.98C3720.13 2649.31 3713.9 2657.43 3705.88 2663.49C3697.85 2669.55 3688.34 2673.31 3678.34 2674.38C3669.64 2674.24 3661.17 2671.53 3654.01 2666.6C3646.84 2661.66 3641.29 2654.72 3638.06 2646.65C3636.82 2644.17 3639.76 2642.62 3641.47 2643.55Z" fill="#263238"/>
<path d="M3762.31 2449.88C3762.31 2449.88 3788.8 2506.28 3797.32 2534.17C3798.1 2536.8 3791.75 2540.05 3782.61 2543.46C3782.61 2543.46 3782.61 2543.46 3781.52 2543.46C3758.95 2555.11 3733.63 2560.36 3708.3 2558.67C3682.96 2556.98 3658.57 2548.4 3637.75 2533.86C3637.23 2533.39 3636.89 2532.75 3636.78 2532.06C3636.66 2531.37 3636.79 2530.67 3637.13 2530.06C3637.47 2529.45 3638.01 2528.97 3638.65 2528.7C3639.3 2528.44 3640.02 2528.4 3640.69 2528.59C3683.67 2541.92 3729.81 2540.99 3772.23 2525.96C3772.23 2517.59 3723.73 2430.83 3728.07 2429.12C3750.25 2424.33 3772.97 2422.56 3795.62 2423.86C3744.03 2304.72 3673.85 2194.87 3624.27 2075.42C3623.95 2074.54 3623.95 2073.57 3624.26 2072.69C3624.58 2071.8 3625.2 2071.06 3626.01 2070.58C3626.81 2070.1 3627.76 2069.92 3628.69 2070.07C3629.62 2070.22 3630.47 2070.69 3631.08 2071.39C3712.73 2181.39 3775.01 2317.11 3831.41 2438.73C3838.69 2454.38 3775.01 2451.12 3762.31 2449.88Z" fill="#263238"/>
<path d="M2982.86 1615.12C2977.44 1666.72 2725.99 1779.04 2556.34 1638.52C2386.69 1498 2472.52 1239.57 2711.27 1276.91C2863.25 1300.62 2994.48 1505.9 2982.86 1615.12Z" fill="#263238"/>
<path d="M2478.56 1400.86C2508.04 1338.7 2557.75 1288.39 2619.55 1258.17C2648.15 1243.49 2680.11 1236.58 2712.22 1238.13C2744.33 1239.68 2775.47 1249.63 2802.52 1267C2858.45 1300.93 2899.51 1357.17 2930.8 1417.12C2946.14 1447.8 2958.69 1479.79 2968.3 1512.72C2979.49 1545.64 2984.43 1580.38 2982.86 1615.12C2991.87 1580.35 2993.24 1544.04 2986.89 1508.69C2981.44 1473.03 2971.82 1438.14 2958.23 1404.73C2932.01 1335.21 2884.72 1275.63 2822.97 1234.31C2790.44 1213.8 2752.96 1202.5 2714.52 1201.62C2676.35 1201.87 2638.93 1212.24 2606.07 1231.67C2574.44 1249.74 2546.83 1274.05 2524.9 1303.14C2502.98 1332.23 2487.22 1365.48 2478.56 1400.86Z" fill="#263238"/>
<path d="M3000.37 2562.36C3120.75 2519.45 3031.35 2240.88 3031.35 2240.88C3031.35 2240.88 3222.69 2132.43 3259.56 1965.11C3259.56 1965.11 3244.07 2104.55 3181.17 2182.01C3170.63 2195.02 3571.13 2011.59 3501.41 1679.57C3501.41 1679.57 3669.97 1972.39 3881.3 1971.77C3891.37 1971.77 3755.65 1695.53 3671.68 1649.36C3623.3 1622.12 3571.58 1601.29 3517.83 1587.39C3361.16 1537.05 3191 1550.18 3043.9 1623.95C2801.9 1747.9 2726.76 2073.25 2745.2 2189.76C2781.14 2418.74 2943.2 2582.66 3000.37 2562.36Z" fill="#263238"/>
<path d="M3196.97 2183.71C3419.76 2096.33 3550.37 1889.35 3489.94 1652.62C3489.73 1651.36 3489.97 1650.07 3490.62 1648.97C3491.27 1647.87 3492.28 1647.03 3493.48 1646.61C3494.69 1646.18 3496 1646.19 3497.2 1646.64C3498.39 1647.09 3499.39 1647.94 3500.02 1649.05C3611.1 1873.08 3416.35 2131.81 3196.2 2188.52C3190.78 2189.91 3191.55 2185.88 3196.97 2183.71Z" fill="#263238"/>
<path d="M2996.49 2548.88C3097.51 2443.84 3074.73 2314.01 3041.11 2185.73C3040.18 2182.01 3046.38 2179.69 3047.78 2183.56C3091.78 2305.49 3120.9 2463.52 3004.55 2557.72C3003.35 2558.52 3001.9 2558.87 3000.46 2558.7C2999.02 2558.53 2997.69 2557.84 2996.71 2556.77C2995.74 2555.7 2995.18 2554.32 2995.14 2552.87C2995.1 2551.42 2995.58 2550.01 2996.49 2548.88Z" fill="#263238"/>
<path d="M3487 1630.46C3486.95 1630.17 3487.01 1629.87 3487.16 1629.62C3487.31 1629.36 3487.55 1629.17 3487.83 1629.08C3488.11 1628.99 3488.42 1629 3488.69 1629.11C3488.96 1629.22 3489.19 1629.42 3489.32 1629.69C3561.37 1749.91 3641.93 1966.5 3819.17 1942.49C3819.64 1942.4 3820.12 1942.4 3820.59 1942.5C3821.05 1942.59 3821.5 1942.77 3821.89 1943.04C3822.29 1943.31 3822.63 1943.65 3822.89 1944.05C3823.16 1944.44 3823.34 1944.89 3823.43 1945.36C3823.52 1945.82 3823.52 1946.31 3823.43 1946.77C3823.33 1947.24 3823.15 1947.68 3822.88 1948.08C3822.61 1948.48 3822.27 1948.82 3821.87 1949.08C3821.48 1949.34 3821.03 1949.53 3820.56 1949.62C3652.47 1987.88 3515.51 1770.52 3487 1630.46Z" fill="#263238"/>
<path d="M2766.73 2175.66L2739.31 2234.22L2933.59 2370.87L2992.47 2239.03L2766.73 2175.66ZM2918.87 2311.07L2784.86 2227.87L2790.9 2214.08L2940.56 2264.9L2918.87 2311.07Z" fill="#FF73A4"/>
<path d="M2772.93 2072.79L2769.52 2137.39L3000.68 2190.84L3005.79 2046.45L2772.93 2072.79ZM2964.89 2140.95L2809.65 2115.08V2099.59L2967.37 2090.29L2964.89 2140.95Z" fill="#FF73A4"/>
<path d="M3027.33 2533.39C3027.33 2533.39 2859.23 2374.74 2784.71 2438.42C2710.18 2502.09 2863.25 2750.76 2969.69 2767.02C2983.23 2770.11 2997.26 2770.42 3010.93 2767.94C3024.59 2765.45 3037.61 2760.22 3049.2 2752.56C3060.78 2744.9 3070.69 2734.97 3078.33 2723.37C3085.97 2711.77 3091.18 2698.74 3093.63 2685.07L3027.33 2533.39Z" fill="#F7A9A0"/>
<path d="M2830.41 2508.6C2830.04 2508.6 2829.69 2508.75 2829.42 2509.01C2829.16 2509.27 2829.02 2509.63 2829.02 2510C2829.02 2510.37 2829.16 2510.72 2829.42 2510.98C2829.69 2511.24 2830.04 2511.39 2830.41 2511.39C2905.4 2525.03 2955.28 2581.73 2994.63 2643.08C2968.61 2621.7 2937.78 2613.49 2908.49 2645.1C2906.94 2646.8 2909.27 2649.12 2911.13 2648.35C2922.51 2641.95 2935.6 2639.24 2948.59 2640.6C2961.58 2641.96 2973.82 2647.32 2983.63 2655.94C2999.99 2670.33 3014.69 2686.49 3027.48 2704.12C3032.13 2709.7 3042.97 2704.12 3038.79 2697.31L3037.86 2695.91C3021.28 2607.14 2927.09 2497.91 2830.41 2508.6Z" fill="#263238"/>
<path d="M3990.06 2407.59C3995.5 2434.07 3997.47 2461.16 3995.94 2488.15C3994.99 2515.34 3989.76 2542.22 3980.45 2567.78C3980.45 2540.67 3982.62 2514.33 3983.71 2487.69C3984.79 2461.04 3987.11 2434.55 3990.06 2407.59Z" fill="#263238"/>
<path d="M3693.52 1460.51C3693 1426 3699.27 1391.73 3711.96 1359.65C3727.91 1326.13 3754.57 1298.88 3787.72 1282.18C3799.18 1275.21 3813.28 1267.46 3830.17 1258.63C3847.46 1249.66 3863.99 1239.3 3879.59 1227.65C3895.43 1215.61 3909.2 1201.06 3920.34 1184.58C3931.47 1167.79 3937.25 1148.01 3936.92 1127.87C3937.22 1113.19 3934.03 1098.64 3927.62 1085.42C3921.85 1073.54 3913.67 1062.99 3903.61 1054.44C3893.32 1045.82 3881.42 1039.34 3868.59 1035.38C3855.41 1031.25 3841.66 1029.16 3827.85 1029.18C3811.94 1028.86 3796.13 1031.75 3781.37 1037.7C3767.95 1043.19 3755.38 1050.54 3744.03 1059.55C3732.93 1068.32 3722.9 1078.35 3714.13 1089.45C3706.09 1099.33 3698.64 1109.68 3691.82 1120.44L3591.89 1051.65C3601.55 1028.54 3614.95 1007.19 3631.55 988.435C3647.88 970.23 3666.83 954.564 3687.79 941.956C3709.12 929.271 3732.12 919.624 3756.11 913.294C3780.84 906.764 3806.3 903.483 3831.87 903.534C3861 903.597 3889.96 907.876 3917.86 916.238C3945.73 924.414 3971.69 938.055 3994.24 956.365C4017.56 975.57 4036.34 999.695 4049.24 1027.01C4064.18 1059.14 4071.45 1094.31 4070.47 1129.73C4070.84 1151.62 4067.97 1173.44 4061.94 1194.49C4056.46 1212.72 4048.15 1229.97 4037.31 1245.62C4026.53 1260.97 4013.77 1274.83 3999.35 1286.83C3983.81 1299.88 3967.35 1311.79 3950.09 1322.46C3934.59 1331.6 3919.1 1340.43 3903.61 1348.8C3888.78 1356.89 3874.72 1366.33 3861.62 1377C3849.32 1386.95 3838.84 1398.95 3830.63 1412.48C3822.2 1427.33 3818.02 1444.21 3818.55 1461.28L3693.52 1460.51ZM3695.85 1727.76V1569.58H3823.35V1727.76H3695.85Z" fill="#FF73A4"/>
<path d="M3436.34 966.125C3436.78 991.724 3432.14 1017.16 3422.71 1040.96C3410.99 1065.98 3391.25 1086.38 3366.62 1098.9C3358.1 1104.01 3347.56 1109.74 3335.63 1116.41C3322.73 1123.11 3310.45 1130.94 3298.92 1139.8C3286.92 1148.69 3276.46 1159.47 3267.93 1171.72C3259.64 1184.18 3255.37 1198.89 3255.69 1213.86C3255.47 1224.19 3257.57 1234.43 3261.83 1243.84C3266.1 1253.26 3272.41 1261.59 3280.32 1268.24C3287.98 1274.61 3296.83 1279.4 3306.35 1282.34C3316.13 1285.41 3326.32 1286.98 3336.56 1286.98C3348.18 1287.11 3359.71 1284.95 3370.49 1280.63C3380.38 1276.72 3389.71 1271.51 3398.23 1265.14C3406.44 1258.69 3413.87 1251.3 3420.38 1243.14C3426.36 1235.62 3431.89 1227.75 3436.96 1219.59L3511.01 1270.72C3503.87 1287.75 3493.92 1303.46 3481.58 1317.2C3469.52 1330.76 3455.47 1342.41 3439.9 1351.74C3424.1 1361.16 3407.04 1368.31 3389.24 1372.97C3349.84 1383.37 3308.32 1382.62 3269.32 1370.8C3248.51 1364.63 3229.17 1354.3 3212.47 1340.43C3195.24 1326.15 3181.33 1308.28 3171.72 1288.07C3160.77 1264.24 3155.47 1238.21 3156.23 1212C3155.99 1195.71 3158.13 1179.48 3162.58 1163.81C3166.67 1150.34 3172.84 1137.59 3180.86 1126.01C3188.82 1114.46 3198.31 1104.04 3209.06 1095.03C3220.58 1085.36 3232.8 1076.55 3245.62 1068.69C3256.93 1061.87 3268.24 1055.21 3279.55 1049.01C3290.51 1043.08 3300.88 1036.13 3310.54 1028.25C3319.68 1020.8 3327.49 1011.84 3333.62 1001.76C3339.78 990.746 3342.83 978.27 3342.45 965.66L3436.34 966.125ZM3434.63 767.815V885.252H3340.28V767.195L3434.63 767.815Z" fill="#455A64"/>
<path d="M4615.2 2214.86C4615.62 2240.45 4610.99 2265.88 4601.56 2289.69C4589.66 2314.75 4569.7 2335.1 4544.86 2347.48C4536.34 2352.59 4525.8 2358.32 4513.87 2364.98C4501.04 2371.73 4488.81 2379.55 4477.31 2388.38C4465.52 2397.24 4455.31 2408.03 4447.1 2420.29C4438.78 2432.69 4434.45 2447.35 4434.71 2462.28C4434.58 2473.01 4436.97 2483.62 4441.68 2493.27C4445.96 2502.06 4452.02 2509.87 4459.49 2516.19C4467.08 2522.59 4475.88 2527.39 4485.37 2530.29C4495.15 2533.35 4505.33 2534.91 4515.58 2534.94C4527.25 2535.08 4538.83 2532.92 4549.66 2528.59C4559.6 2524.44 4568.92 2518.97 4577.4 2512.32C4585.57 2505.83 4593 2498.45 4599.55 2490.32C4605.48 2482.76 4611.01 2474.9 4616.13 2466.77L4690.18 2517.9C4683.04 2534.93 4673.09 2550.64 4660.75 2564.38C4648.65 2577.91 4634.61 2589.55 4619.07 2598.93C4603.25 2608.32 4586.2 2615.47 4568.41 2620.15C4550.06 2625.01 4531.15 2627.46 4512.17 2627.43C4490.55 2627.37 4469.05 2624.18 4448.34 2617.98C4427.69 2611.94 4408.46 2601.83 4391.79 2588.24C4374.53 2573.94 4360.57 2556.08 4350.89 2535.87C4339.98 2512.03 4334.68 2486.01 4335.4 2459.8C4335.08 2443.51 4337.22 2427.27 4341.75 2411.62C4345.84 2398.14 4352.01 2385.39 4360.03 2373.81C4367.93 2362.27 4377.37 2351.84 4388.07 2342.83C4399.67 2333.19 4411.94 2324.39 4424.79 2316.49C4436.1 2309.67 4447.41 2303.01 4458.72 2296.81C4469.66 2290.85 4480.03 2283.9 4489.71 2276.05C4498.8 2268.59 4506.56 2259.63 4512.63 2249.56C4518.92 2238.59 4522.03 2226.1 4521.62 2213.46L4615.2 2214.86ZM4613.49 2016.55V2133.98H4518.99V2016.55H4613.49Z" fill="#455A64"/>
<path d="M1995.65 2671.74C1995.21 2646.1 1999.85 2620.61 2009.28 2596.76C2021.02 2571.79 2040.76 2551.45 2065.37 2538.97C2073.89 2533.86 2084.42 2527.97 2096.35 2521.46C2109.15 2514.66 2121.38 2506.84 2132.92 2498.07C2144.67 2489.16 2154.88 2478.38 2163.13 2466.15C2171.44 2453.69 2175.77 2438.99 2175.52 2424.01C2175.69 2413.28 2173.3 2402.66 2168.55 2393.03C2164.27 2384.18 2158.21 2376.32 2150.73 2369.94C2143.14 2363.59 2134.34 2358.85 2124.86 2356C2114.84 2352.82 2104.39 2351.2 2093.87 2351.2C2082.19 2351.03 2070.59 2353.25 2059.79 2357.7C2049.87 2361.55 2040.53 2366.76 2032.06 2373.2C2023.88 2379.75 2016.45 2387.17 2009.9 2395.35C2003.94 2402.83 1998.41 2410.64 1993.33 2418.75L1919.27 2367.62C1926.45 2350.61 1936.4 2334.9 1948.71 2321.14C1960.76 2307.62 1974.82 2296.02 1990.38 2286.75C2006.2 2277.3 2023.25 2270.11 2041.04 2265.36C2059.4 2260.56 2078.31 2258.16 2097.28 2258.24C2118.9 2258.25 2140.39 2261.38 2161.11 2267.53C2181.73 2273.64 2200.95 2283.75 2217.66 2297.28C2234.92 2311.57 2248.88 2329.44 2258.56 2349.65C2269.45 2373.55 2274.75 2399.62 2274.06 2425.87C2274.37 2442.11 2272.23 2458.3 2267.71 2473.9C2263.61 2487.42 2257.44 2500.23 2249.42 2511.86C2241.48 2523.38 2232.05 2533.8 2221.38 2542.84C2209.78 2552.53 2197.51 2561.38 2184.66 2569.34C2173.41 2576.15 2162.1 2582.66 2150.73 2588.86C2139.79 2594.88 2129.42 2601.88 2119.75 2609.77C2110.62 2617.14 2102.86 2626.05 2096.82 2636.11C2090.52 2647.13 2087.41 2659.68 2087.83 2672.36L1995.65 2671.74ZM1997.35 2870.05V2752.46H2091.86V2870.05H1997.35Z" fill="#FF73A4"/>
</svg>
