<svg width="11649" height="11415" viewBox="0 0 11649 11415" fill="none" xmlns="http://www.w3.org/2000/svg">
<path d="M5828.05 11206.1C7076.92 11206.1 8089.33 10619.6 8089.33 9896.02C8089.33 9172.48 7076.92 8585.93 5828.05 8585.93C4579.19 8585.93 3566.78 9172.48 3566.78 9896.02C3566.78 10619.6 4579.19 11206.1 5828.05 11206.1Z" fill="#FF93B9"/>
<path d="M6828.48 9036.3C6818.82 8798.32 6954.23 7422.83 6954.23 7422.83L6149.06 7760.73C6223.4 8360.02 6344.32 8825.11 6348.66 9167.12C6348.66 9167.12 6551.64 9370.82 6664.84 9500.91C6760.16 9614.37 6865.14 9719.35 6978.6 9814.68C7065.97 9884.43 7263.4 9930.53 7301.3 9872.85C7163.97 9713.55 7003.22 9537.12 6903.06 9366C6855.27 9288.04 6835 9200.42 6828.48 9036.3Z" fill="#FFA8A7"/>
<path d="M7563.89 10058.9C7572.58 10060.1 7565.58 10161.5 7511.04 10196.3C7448.04 10236.6 7275.23 10291.6 7073.7 10230.5C6872.16 10169.5 6773.45 10084 6704.9 9997.62C6636.36 9911.22 6540.78 9789.33 6451.48 9752.65C6368.45 9718.62 6282.53 9662.14 6259.84 9629.31C6237.15 9596.49 6266.6 9470.74 6266.6 9470.74L7563.89 10058.9Z" fill="#263238"/>
<path d="M6344.32 9070.81C6336.87 9073.66 6330.45 9078.68 6325.89 9085.22C6321.33 9091.77 6318.83 9099.52 6318.73 9107.5C6314.87 9154.56 6330.8 9200.9 6307.87 9279.83C6283.73 9356.18 6268.5 9435.06 6262.5 9514.91C6261.29 9581.28 6394.28 9648.86 6477.79 9699.55C6561.3 9750.23 6654.94 9844.36 6732.66 9942.11C6810.38 10039.9 7001.29 10159.3 7135.73 10183.5C7341.36 10219.2 7486.66 10181.3 7543.38 10109.6C7613.61 10020.8 7584.65 9958.28 7370.81 9805.02C7330.26 9775.82 7192.2 9652.48 7145.62 9608.31C7019.39 9488.84 6902.09 9331.72 6869.27 9149.74C6868.09 9128.31 6859.57 9107.94 6845.13 9092.05C6831.71 9083.27 6815.75 9079.2 6799.76 9080.47C6758.84 9080.19 6718.12 9086.29 6679.08 9098.57C6644.08 9109.67 6576.02 9119.08 6568.05 9162.05C6566.89 9182.02 6568.35 9202.06 6572.4 9221.66C6572.4 9231.07 6575.78 9263.42 6567.33 9267.52C6558.88 9271.62 6544.64 9247.73 6540.3 9240.25C6519.54 9205.25 6514.23 9184.97 6482.37 9172.42C6450.51 9159.87 6364.59 9145.15 6347.45 9106.53L6344.32 9070.81Z" fill="#37474F"/>
<path d="M7404.36 9829.88C7101.7 9804.3 6969.91 9984.11 6932.5 10102.6C6995.12 10140.4 7063.53 10167.7 7135 10183.2C7340.64 10219 7494.38 10183.2 7551.1 10110.8C7617.23 10027.1 7599.13 9948.15 7404.36 9829.88Z" fill="#FAFAFA"/>
<path d="M6956.4 9762.3C6953.02 9761.79 6949.93 9760.08 6947.71 9757.48C6945.23 9754.15 6944.11 9750.02 6944.56 9745.9C6945 9741.78 6946.99 9737.99 6950.12 9735.27C7002.26 9688.21 7136.21 9636.07 7242.16 9665.76C7244.05 9666.34 7245.81 9667.28 7247.32 9668.55C7248.84 9669.82 7250.08 9671.37 7250.98 9673.13C7251.88 9674.88 7252.42 9676.8 7252.56 9678.77C7252.71 9680.74 7252.45 9682.72 7251.82 9684.59C7251.31 9686.55 7250.42 9688.4 7249.2 9690.02C7247.98 9691.64 7246.46 9693.01 7244.71 9694.04C7242.96 9695.07 7241.02 9695.75 7239.01 9696.03C7237 9696.31 7234.96 9696.2 7232.99 9695.69C7134.04 9668.42 7010.22 9721.03 6968.71 9758.44C6967.09 9759.99 6965.14 9761.15 6963.01 9761.82C6960.87 9762.49 6958.61 9762.66 6956.4 9762.3Z" fill="#F0F0F0"/>
<path d="M6843.44 9662.86C6840.13 9662.34 6837.13 9660.62 6835 9658.04C6832.45 9654.8 6831.26 9650.71 6831.66 9646.62C6832.07 9642.52 6834.04 9638.75 6837.17 9636.07C6889.3 9587.8 7023.5 9536.39 7129.21 9566.32C7131.13 9566.89 7132.91 9567.85 7134.44 9569.13C7135.98 9570.41 7137.23 9571.99 7138.14 9573.78C7139.04 9575.56 7139.57 9577.51 7139.7 9579.51C7139.82 9581.5 7139.54 9583.5 7138.86 9585.39C7137.79 9589.32 7135.22 9592.68 7131.7 9594.76C7128.19 9596.83 7124 9597.45 7120.04 9596.49C7021.08 9568.98 6897.26 9620.63 6855.75 9659C6854.16 9660.59 6852.21 9661.76 6850.07 9662.43C6847.93 9663.11 6845.65 9663.25 6843.44 9662.86Z" fill="#F0F0F0"/>
<path d="M6742.32 9553.53C6738.87 9553.02 6735.76 9551.2 6733.63 9548.46C6731.17 9545.18 6730.05 9541.08 6730.5 9537C6730.95 9532.92 6732.93 9529.17 6736.04 9526.5C6788.17 9479.43 6922.61 9427.3 7028.08 9456.74C7029.98 9457.34 7031.74 9458.32 7033.25 9459.61C7034.77 9460.9 7036.01 9462.47 7036.91 9464.25C7037.81 9466.03 7038.35 9467.96 7038.49 9469.95C7038.63 9471.93 7038.37 9473.93 7037.74 9475.81C7037.23 9477.78 7036.34 9479.62 7035.12 9481.25C7033.9 9482.87 7032.37 9484.23 7030.62 9485.26C7028.88 9486.3 7026.94 9486.97 7024.93 9487.25C7022.92 9487.54 7020.88 9487.42 7018.91 9486.91C6919.95 9459.64 6796.14 9512.26 6754.62 9549.67C6752.98 9551.17 6751.03 9552.3 6748.9 9552.97C6746.77 9553.64 6744.52 9553.83 6742.32 9553.53Z" fill="#F0F0F0"/>
<path d="M6643.36 9444.92C6640.12 9444.38 6637.2 9442.66 6635.15 9440.09C6632.64 9436.87 6631.44 9432.81 6631.79 9428.73C6632.15 9424.65 6634.04 9420.87 6637.08 9418.13C6709.49 9351.03 6848.51 9321.59 6954.23 9350.79C6956.14 9351.36 6957.92 9352.32 6959.46 9353.6C6960.99 9354.88 6962.25 9356.46 6963.15 9358.25C6964.06 9360.03 6964.59 9361.98 6964.71 9363.98C6964.84 9365.97 6964.55 9367.97 6963.88 9369.86C6962.75 9373.76 6960.17 9377.08 6956.67 9379.15C6953.17 9381.21 6949.02 9381.86 6945.06 9380.96C6849.72 9354.41 6720.11 9380.96 6655.43 9440.82C6653.82 9442.32 6651.92 9443.46 6649.84 9444.17C6647.75 9444.88 6645.55 9445.13 6643.36 9444.92Z" fill="#F0F0F0"/>
<path d="M5386.37 7881.65L4651.2 7787.28C4616.92 8247.79 4634.06 8672.58 4588.44 9103.88C4558.51 9232.28 4524 9813.95 4532.21 9984.35C4544.52 10240.4 4845.97 10246.5 4881.69 10099C4917.41 9951.53 5050.64 9237.83 5061.5 9171.94C5132.94 8880.14 5380.09 7904.82 5386.37 7881.65Z" fill="#FFA8A7"/>
<path d="M4952.89 10238C4935.03 10385.2 4904.62 10481.5 4844.76 10564.6C4784.91 10647.6 4679.19 10667.6 4575.65 10635.1C4472.11 10602.5 4341.78 10525.2 4319.57 10395.6C4297.37 10266 4308.71 10178.4 4340.81 10043.5L4952.89 10238Z" fill="#263238"/>
<path d="M4588.44 9103.88C4545 9103.88 4531.97 9336.31 4495.04 9533.5C4455.21 9744.69 4383.29 9828.44 4348.78 10001.5C4309.43 10199.2 4314.99 10289.2 4380.88 10414.7C4446.77 10540.2 4698.74 10676.8 4837.04 10512.7C4950 10378.7 4963.75 10223.1 4966.41 10023C4969.06 9816.13 4992.72 9674.45 5011.06 9518.78C5028.44 9369.86 5097.95 9191.25 5061.5 9171.95C5057.16 9193.67 5052.81 9221.42 5048.47 9242.9C5045.09 9259.08 5035.68 9339.45 5011.54 9339.45C5010.58 9320.57 5011.55 9301.65 5014.44 9282.97C5017.82 9266.33 5014.62 9249.03 5005.51 9234.7C4992.93 9221.78 4976.5 9213.31 4958.68 9210.56C4916.69 9199.46 4789.73 9186.43 4746.05 9178.7C4724.57 9175.32 4702.85 9172.91 4681.37 9171.7C4662.86 9170.12 4644.23 9171.34 4626.09 9175.32C4620.97 9176.57 4616.16 9178.89 4612 9182.14C4607.84 9185.38 4604.41 9189.48 4601.96 9194.15C4599.18 9201.29 4597.95 9208.94 4598.34 9216.6C4597.39 9230.47 4594.71 9244.17 4590.37 9257.39C4588.44 9262.94 4583.62 9269.94 4577.58 9268.01C4571.55 9266.08 4571.07 9260.52 4571.31 9255.46C4572.51 9231.32 4576.86 9214.18 4579.75 9186.19C4580.96 9173.39 4584.34 9155.78 4585.31 9142.74C4586.27 9129.71 4586.75 9116.43 4588.44 9103.88Z" fill="#37474F"/>
<path d="M4329.71 10116.1C4314.74 10239.7 4316.92 10325.1 4368.57 10423.4C4434.46 10549.1 4706.47 10687.2 4845.73 10523.1C4914.52 10441.5 4937.93 10341.1 4952.89 10237.8C4884.35 10099.2 4457.39 10012.1 4329.71 10116.1Z" fill="#FAFAFA"/>
<path d="M4855.14 10012.1C4853.28 10011.9 4851.47 10011.3 4849.83 10010.4C4734.8 9954.23 4605.94 9932.6 4478.87 9948.15C4474.75 9948.79 4470.54 9947.82 4467.13 9945.43C4463.71 9943.05 4461.34 9939.44 4460.52 9935.36C4460.15 9933.34 4460.19 9931.26 4460.65 9929.25C4461.11 9927.25 4461.98 9925.36 4463.2 9923.71C4464.43 9922.05 4465.98 9920.67 4467.76 9919.64C4469.54 9918.62 4471.51 9917.97 4473.56 9917.74C4607.85 9900.62 4744.2 9923.55 4865.52 9983.63C4867.32 9984.59 4868.9 9985.9 4870.19 9987.48C4871.48 9989.05 4872.44 9990.87 4873.03 9992.82C4873.61 9994.77 4873.8 9996.82 4873.59 9998.85C4873.38 10000.9 4872.77 10002.8 4871.8 10004.6C4870.12 10007.4 4867.63 10009.7 4864.65 10011C4861.67 10012.3 4858.35 10012.7 4855.14 10012.1Z" fill="#F0F0F0"/>
<path d="M4498.42 9800.92C4495.45 9800.49 4492.66 9799.21 4490.39 9797.25C4488.13 9795.28 4486.47 9792.7 4485.62 9789.82C4485.08 9787.85 4484.94 9785.8 4485.21 9783.78C4485.48 9781.76 4486.15 9779.81 4487.19 9778.05C4488.22 9776.3 4489.6 9774.77 4491.24 9773.55C4492.88 9772.34 4494.74 9771.47 4496.73 9770.99C4694.4 9721.52 4880.48 9828.92 4888.21 9833.51C4890.02 9834.45 4891.61 9835.77 4892.88 9837.37C4894.16 9838.96 4895.08 9840.81 4895.61 9842.78C4896.13 9844.76 4896.23 9846.82 4895.92 9848.84C4895.6 9850.85 4894.86 9852.78 4893.76 9854.5C4891.44 9857.99 4887.87 9860.46 4883.79 9861.4C4879.7 9862.35 4875.41 9861.69 4871.8 9859.57C4869.87 9859.57 4689.33 9754.58 4505.42 9800.68C4503.14 9801.36 4500.73 9801.45 4498.42 9800.92Z" fill="#F0F0F0"/>
<path d="M4518.21 9661.42C4515.25 9660.97 4512.48 9659.72 4510.18 9657.8C4507.88 9655.89 4506.15 9653.38 4505.17 9650.56C4504.63 9648.59 4504.47 9646.54 4504.72 9644.51C4504.97 9642.49 4505.62 9640.53 4506.63 9638.76C4507.64 9636.99 4508.99 9635.43 4510.61 9634.18C4512.22 9632.94 4514.07 9632.02 4516.04 9631.49C4583.43 9614.65 4653.51 9611.47 4722.15 9622.12C4790.79 9632.77 4856.6 9657.05 4915.72 9693.52C4917.42 9694.61 4918.88 9696.04 4920.02 9697.71C4921.15 9699.39 4921.93 9701.28 4922.31 9703.26C4922.7 9705.25 4922.67 9707.29 4922.25 9709.26C4921.82 9711.24 4921 9713.11 4919.83 9714.76C4917.28 9718.14 4913.52 9720.41 4909.33 9721.08C4905.15 9721.76 4900.87 9720.79 4897.38 9718.38C4785.52 9651.03 4651.63 9630.47 4524.72 9661.18C4522.59 9661.67 4520.38 9661.75 4518.21 9661.42Z" fill="#F0F0F0"/>
<path d="M4540.9 9505.26C4537.98 9504.77 4535.26 9503.5 4533.01 9501.59C4530.76 9499.68 4529.06 9497.19 4528.1 9494.4C4527.48 9492.45 4527.27 9490.4 4527.47 9488.36C4527.67 9486.33 4528.29 9484.35 4529.29 9482.57C4530.28 9480.78 4531.63 9479.22 4533.26 9477.97C4534.88 9476.73 4536.74 9475.83 4538.72 9475.33C4742.91 9417.65 4932.86 9536.64 4940.82 9541.71C4942.56 9542.76 4944.07 9544.16 4945.25 9545.82C4946.43 9547.47 4947.26 9549.35 4947.69 9551.34C4948.12 9553.33 4948.13 9555.38 4947.74 9557.38C4947.35 9559.37 4946.56 9561.27 4945.41 9562.94C4944.22 9564.68 4942.71 9566.16 4940.95 9567.3C4939.19 9568.44 4937.22 9569.23 4935.16 9569.61C4933.1 9569.99 4930.98 9569.96 4928.93 9569.52C4926.88 9569.08 4924.93 9568.24 4923.21 9567.05C4921.27 9567.05 4737.84 9451.2 4548.14 9504.78C4545.78 9505.42 4543.32 9505.58 4540.9 9505.26Z" fill="#EBEBEB"/>
<path d="M5345.34 3693.86C5209.7 3935.22 4926.34 4339.49 4890.62 5049.56C4834.39 6168.01 4801.32 6748.48 4801.32 6748.48C4735.67 6960.39 4686.92 6978.49 4648.3 7539.4C4617.41 7987.12 4612.34 8543.93 4612.34 8543.93C4612.34 8543.93 4939.62 8717.95 5208.49 8623.82C5331.34 8265.65 5530.22 7473.27 5668.52 6992.25C5794.26 6555.63 5934.01 5852.08 5934.01 5852.08L6134.34 6928.77C6095.62 7162.25 6088.8 7399.91 6114.06 7635.22C6147.13 7934.75 6262.98 8529.45 6262.98 8529.45C6262.98 8529.45 6627.67 8662.92 6862.51 8505.32C6862.51 8505.32 6980.78 7215.26 6991.15 6853.22C7006.84 6309.93 7020.84 5400.74 6978.36 4654.46C6962.19 4369.18 6862.75 3885.74 6827.27 3693.13L5345.34 3693.86Z" fill="#37474F"/>
<path d="M4604.37 8437.97C4708.64 8510.38 5093.12 8589.06 5242.04 8541.52L5183.87 8704.92C5183.87 8704.92 5087.33 8738.95 4885.8 8717.71C4684.26 8696.47 4604.37 8602.1 4604.37 8602.1V8437.97Z" fill="#455A64"/>
<path d="M6246.33 8464.77C6365.8 8513.04 6733.87 8505.56 6870.72 8425.91L6857.68 8612.96C6857.68 8612.96 6793.48 8670.41 6576.26 8682.71C6370.62 8694.54 6275.05 8635.65 6275.05 8635.65L6246.33 8464.77Z" fill="#455A64"/>
<path d="M5932.8 5852.08L6084.13 4973.78C6084.13 4973.78 6558.16 4940.95 6737.49 4784.55C6737.49 4784.55 6506.51 5079.01 6184.3 5113.04L6026.93 5852.08L6132.16 6919.36L5932.8 5852.08Z" fill="#263238"/>
<path d="M5124.01 1516.33C5124.01 1516.33 5155.63 1754.8 5074.54 1950.78C5021.92 2078.94 4933.83 2312.81 4833.18 2568.65C4739.05 2810.01 4624.41 3474.71 5406.89 3704.96C5859.19 3838.19 6495.89 3710.27 6710.21 3541.08C7283.2 3088.54 7166.62 2570.1 6528.47 1907.57C6380.52 1753.59 6325.73 1414.96 6325.73 1414.96L5124.01 1516.33Z" fill="#37474F"/>
<path d="M6293.39 2209.75C6544.4 2219.89 6610.05 2221.58 7021.57 2367.36L7478.45 2530.03L8052.88 2810.01C8063.02 2887.73 8084.26 3031.82 8019.09 3141.63C7966.24 3230.69 7875.49 3217.9 7707.26 3179.29C7464.46 3123.53 6780.45 2950.24 6780.45 2950.24L6293.39 2209.75Z" fill="#FFA8A7"/>
<path d="M7348.6 2482.97C7369.12 2788.05 7408.22 2845.01 7525.52 2975.82L7501.38 2539.69L7479.18 2528.83L7348.6 2482.97Z" fill="#F28F8F"/>
<path d="M7396.88 2599.79C7399.03 2723.21 7436.19 2843.49 7504.04 2946.62C7586.01 3066.91 7707.25 3154.96 7847.01 3195.7C7935.34 3217.18 8050.23 3194.49 8061.33 2984.27C8074.61 2730.36 7967.44 2515.07 7869.69 2244.03C7736.71 1875.23 7700.74 1785.45 7680.23 1676.11C7667.2 1606.36 7675.4 1472.89 7645.96 1406.76C7612.8 1329.69 7569.8 1257.25 7518.04 1191.23C7461.56 1115.92 7410.87 1164.68 7402.43 1177.47C7348.85 1127.03 7281.75 1129.2 7251.82 1173.85C7224.98 1170 7197.62 1174.77 7173.67 1187.48C7149.73 1200.19 7130.44 1220.18 7118.59 1244.57C7078.28 1234.19 7020.12 1260.98 7022.05 1313.59C7027.15 1334.72 7036.79 1354.49 7050.29 1371.52C7046.91 1404.83 7114.97 1536.85 7092.77 1579.57C7070.56 1622.29 7018.91 1623.5 6953.5 1635.32C6883.99 1648.12 6819.07 1683.59 6803.86 1731.87C6792.03 1769.52 6814.96 1784.97 6848.75 1784.72C6878.68 1784.72 6953.02 1769.04 7009.98 1767.59C7093.73 1765.42 7126.07 1761.79 7168.07 1779.41C7216.94 1797.68 7263.32 1822 7306.12 1851.82C7337.74 1878.13 7372.02 1913.37 7386.5 2032.11C7400.98 2150.86 7396.88 2464.63 7396.88 2599.79Z" fill="#FFA8A7"/>
<path opacity="0.5" d="M7181.1 1486.89C7170.22 1492.75 7157.73 1494.94 7145.5 1493.11C7133.28 1491.28 7121.97 1485.54 7113.28 1476.75C7125.83 1500.89 7134.76 1516.09 7143.69 1529.61C7157.69 1550.36 7185.2 1568.47 7212.24 1542.4C7239.27 1516.33 7232.99 1491.96 7219.96 1448.75C7216.59 1457.52 7211.37 1465.46 7204.67 1472.04C7197.97 1478.62 7189.93 1483.68 7181.1 1486.89ZM7439.11 1385.03C7430.2 1384.43 7421.65 1381.29 7414.47 1375.99C7407.28 1370.69 7401.77 1363.44 7398.56 1355.11C7398.56 1358.24 7398.56 1372.24 7399.77 1384.07C7399.77 1388.66 7399.77 1393 7399.77 1396.38C7399.77 1410.14 7372.74 1430.41 7359.22 1431.38C7345.71 1432.34 7322.3 1428.96 7305.16 1391.79C7305.29 1392.67 7305.29 1393.57 7305.16 1394.45C7305.86 1407.22 7302.63 1419.9 7295.89 1430.78C7289.16 1441.65 7279.25 1450.2 7267.51 1455.27C7259.76 1459.23 7250.98 1460.73 7242.35 1459.57C7233.73 1458.4 7225.66 1454.63 7219.24 1448.75C7226.81 1470.82 7238.16 1491.4 7252.78 1509.58C7276.92 1538.3 7310.71 1511.02 7318.68 1493.65C7319.17 1500.7 7321.72 1507.45 7326.01 1513.07C7330.3 1518.68 7336.14 1522.92 7342.81 1525.26C7368.4 1534.44 7391.08 1512.95 7397.12 1462.03C7397.12 1462.03 7397.12 1460.34 7397.12 1459.37C7411.84 1503.54 7453.84 1499.44 7466.63 1471.92C7479.22 1433.4 7487.31 1393.56 7490.76 1353.18C7490.52 1371.52 7470.49 1386.48 7439.11 1385.03Z" fill="#F28F8F"/>
<path d="M7409.43 1452.86V1455.03C7413.53 1469.51 7423.18 1481.82 7436.22 1482.3C7439.48 1482.48 7442.74 1482 7445.82 1480.88C7448.89 1479.76 7451.7 1478.02 7454.08 1475.79C7459.3 1470.3 7463.03 1463.57 7464.94 1456.24C7475.12 1422.23 7482.47 1387.43 7486.9 1352.21V1354.86V1353.42C7489.31 1333.63 7490.52 1312.63 7494.87 1292.59C7497.04 1282.46 7500.18 1272.56 7503.07 1262.91C7505.92 1253.12 7506.74 1242.85 7505.49 1232.74C7507.67 1242.84 7507.67 1253.29 7505.49 1263.39C7503.31 1273.53 7500.9 1283.18 7499.69 1293.32C7496.56 1313.35 7497.04 1333.63 7495.83 1354.38V1351.73V1353.42C7493.85 1389.67 7488.76 1425.68 7480.63 1461.06C7478.64 1471.32 7473.88 1480.83 7466.87 1488.58C7462.99 1492.78 7458.29 1496.15 7453.06 1498.48C7447.83 1500.8 7442.18 1502.03 7436.46 1502.09C7424.68 1502.25 7413.31 1497.73 7404.84 1489.54C7397.08 1482.1 7391.21 1472.91 7387.7 1462.75V1464.92L7409.43 1452.86Z" fill="#F28F8F"/>
<path d="M7541.69 1283.66C7538.07 1294.88 7532.06 1305.17 7524.07 1313.83C7516.2 1322.8 7507.38 1330.9 7497.76 1337.97L7491.73 1327.83C7512.55 1318.63 7530 1303.2 7541.69 1283.66Z" fill="#F28F8F"/>
<path d="M7252.06 1173.85C7260.91 1190.76 7268.18 1208.46 7273.78 1226.7C7279.58 1244.57 7285.13 1262.67 7289.71 1280.77L7297.44 1307.8L7303.71 1335.32L7315.78 1391.31V1395.17L7325.43 1453.82L7329.78 1483.03C7330.31 1491.46 7332.61 1499.68 7336.54 1507.16C7338.47 1509.8 7340.93 1512.02 7343.75 1513.68C7346.57 1515.34 7349.7 1516.4 7352.95 1516.82C7356.05 1517.34 7359.23 1517.06 7362.18 1516.01C7365.14 1514.95 7367.78 1513.15 7369.84 1510.78C7380.35 1496.74 7386.62 1480 7387.95 1462.51V1458.41C7389.92 1435.86 7390.4 1413.2 7389.39 1390.59V1318.42C7389.39 1294.28 7389.39 1270.15 7390.6 1247.46C7390.6 1235.39 7392.29 1223.33 7393.5 1211.74C7394.09 1199.79 7397.21 1188.11 7402.67 1177.47C7399.01 1188.58 7397.61 1200.32 7398.57 1211.98C7398.57 1223.81 7398.57 1236.12 7398.57 1247.22L7403.39 1317.94L7408.46 1388.66L7410.15 1424.38C7410.79 1437.02 7410.39 1449.69 7408.94 1462.27V1463.72C7407.55 1486.26 7399.11 1507.79 7384.81 1525.26C7380.25 1530.39 7374.49 1534.31 7368.05 1536.67C7361.6 1539.03 7354.67 1539.75 7347.88 1538.78C7341.5 1537.74 7335.36 1535.53 7329.78 1532.26C7323.81 1528.75 7318.77 1523.87 7315.06 1518.02C7309.65 1508.05 7306.52 1497.01 7305.88 1485.68L7301.78 1455.75L7295.99 1395.65V1393.72L7287.54 1338.94L7283.44 1311.18L7277.65 1283.42C7271.44 1246.39 7262.9 1209.8 7252.06 1173.85Z" fill="#F28F8F"/>
<path d="M7119.31 1244.32C7158.48 1294.83 7191.31 1349.95 7217.06 1408.45L7234.44 1452.86C7239.52 1467.09 7245.9 1480.83 7253.51 1493.89C7261.72 1507.16 7269.68 1518.02 7283.44 1516.58C7290.84 1515.71 7297.98 1513.25 7304.35 1509.38C7310.72 1505.51 7316.18 1500.3 7320.36 1494.13C7317.62 1502.17 7312.99 1509.43 7306.86 1515.31C7300.73 1521.19 7293.28 1525.52 7285.13 1527.92C7275.6 1529.99 7265.64 1528.26 7257.37 1523.09C7250.06 1518.04 7243.69 1511.75 7238.54 1504.51C7228.87 1491.08 7220.77 1476.59 7214.41 1461.3L7196.31 1417.86C7184.24 1388.9 7170.48 1360.66 7157.69 1331.94C7144.9 1303.22 7131.38 1274.98 7119.31 1244.32Z" fill="#F28F8F"/>
<path d="M7218.27 1443.93L7220.44 1449C7227.38 1465.77 7231.7 1483.52 7233.23 1501.61C7233.39 1511.21 7231.28 1520.71 7227.09 1529.35C7222.9 1537.98 7216.73 1545.51 7209.1 1551.33C7201.26 1557.84 7191.28 1561.19 7181.1 1560.74C7171.05 1559.91 7161.51 1555.94 7153.83 1549.4C7140.57 1536.4 7129.78 1521.11 7121.97 1504.27L7068.87 1411.1C7060.18 1395.42 7051.25 1379.97 7042.8 1362.83C7033.59 1347.36 7026.99 1330.48 7023.25 1312.87C7028.9 1330.05 7037.04 1346.31 7047.39 1361.14L7076.35 1406.28C7095.9 1436.2 7113.76 1467.82 7131.62 1498.23C7139.06 1513.77 7148.92 1528.02 7160.83 1540.47C7166.49 1545.97 7173.94 1549.26 7181.82 1549.75C7189.7 1550.23 7197.49 1547.88 7203.79 1543.13C7210.9 1538.53 7216.8 1532.3 7221.01 1524.95C7225.21 1517.6 7227.58 1509.35 7227.93 1500.89C7227.69 1483.18 7225.17 1465.58 7220.44 1448.51L7218.27 1443.93Z" fill="#F28F8F"/>
<path d="M7342.57 1511.75C7376.18 1533.6 7405.21 1561.8 7428.01 1594.77C7451.48 1626.33 7466.96 1663.1 7473.14 1701.94C7463.44 1664.71 7444.8 1630.41 7418.84 1602.02C7394.45 1573.29 7364.69 1549.59 7331.23 1532.26L7342.57 1511.75Z" fill="#F28F8F"/>
<path d="M7608.54 1739.35C7573.79 1763.48 7528.9 1763.48 7497.52 1783.52C7466.14 1803.55 7396.87 1849.41 7324.47 1817.31C7268.96 1793.17 7184.48 1767.59 7139.59 1769.03C7149.35 1771.47 7158.94 1774.53 7168.31 1778.21C7217.18 1796.47 7263.56 1820.79 7306.37 1850.61C7337.98 1876.92 7372.26 1912.16 7386.74 2030.91C7386.74 2037.67 7388.43 2045.63 7389.15 2055.04C7389.15 2055.04 7392.29 1960.19 7416.91 1912.64C7441.53 1865.09 7511.76 1836.37 7578.86 1796.79C7645.96 1757.21 7643.3 1715.94 7608.54 1739.35Z" fill="#F28F8F"/>
<path d="M5823.23 2233.65C5646.16 2256.86 5471.09 2293.33 5299.48 2342.74C5225.38 2381.12 5071.4 2460.77 5117.5 2935.27C5133.19 3096.74 5267.62 3343.41 5262.31 3626.28C5258.93 3821.05 5141.63 3940.04 5025.54 4322.35C5402.54 4723.49 6768.38 4729.52 6950.85 4389.69C6905.47 3879.22 6804.34 3843.02 6851.89 3361.99C6851.89 3361.99 6950.61 3148.15 6933.95 3012.75C6909.82 2814.35 6864.2 2745.81 6670.39 2532.69C6558.59 2409.84 6431.95 2301.37 6293.39 2209.75C6136.3 2206.27 5979.16 2214.25 5823.23 2233.65Z" fill="#FF73A4"/>
<path d="M5631.83 2122.14C5571.25 2070.49 5478.57 2038.63 5335.93 1922.78C5137.29 1761.79 4928.52 1227.67 5215.25 1106.03C5187.73 677.375 5791.85 513.735 6061.93 566.351C6848.51 719.854 6523.65 1233.22 6523.65 1233.22L5631.83 2122.14Z" fill="#37474F"/>
<path d="M6347.45 957.591C6446.17 1036.76 6499.75 1059.93 6537.64 1488.58C6567.09 1822.86 6499.03 1950.78 6355.9 2028.98C6305.22 2056.73 6204.81 2079.66 6106.82 2079.42L6122.75 2235.82C6122.75 2235.82 6303.29 2445.32 6301.36 2713.95C5703.27 2461.49 5605.76 2284.57 5605.76 2284.57L5528.29 1757.69C5511.63 1794.14 5415.09 1852.54 5322.17 1759.62C5212.83 1650.53 5216.45 1503.78 5293.93 1440.55C5371.41 1377.31 5480.5 1414.96 5530.94 1508.85C5626.04 1535.4 5688.07 1444.17 5639.55 1094.68C5831.92 962.66 6101.51 862.497 6347.45 957.591Z" fill="#FFA8A7"/>
<path d="M6331.52 778.262C6389.69 927.18 6366.76 1184.95 6156.06 1288.01C6192.26 1186.4 6168.61 1004.41 6168.61 1004.41C6168.61 1004.41 6049.14 1383.1 5602.63 1366.45L5534.56 966.28C5733.44 788.882 6056.62 635.862 6331.52 778.262Z" fill="#37474F"/>
<path d="M6106.82 2078.69C5814.05 2068.07 5648.24 1958.02 5605.76 1847.96C5605.76 1847.96 5627.24 1986.5 5728.13 2049.97C5850.5 2126.72 6114.3 2156.17 6114.3 2156.17L6106.82 2078.69Z" fill="#F28F8F"/>
<path d="M6219.29 1767.59L6015.11 1719.31C6011.27 1732.39 6010.16 1746.12 6011.82 1759.64C6013.49 1773.17 6017.91 1786.21 6024.81 1797.97C6031.7 1809.72 6040.93 1819.94 6051.92 1828C6062.91 1836.06 6075.43 1841.78 6088.72 1844.82C6116.23 1851.03 6145.07 1846.5 6169.35 1832.14C6193.62 1817.78 6211.49 1794.69 6219.29 1767.59Z" fill="#B16668"/>
<path d="M6134.09 1845.3C6119.14 1848.56 6103.67 1848.56 6088.72 1845.3C6070.31 1841.05 6053.5 1831.64 6040.25 1818.17C6027 1804.71 6017.86 1787.75 6013.9 1769.28C6039.4 1767.59 6064.79 1774.04 6086.39 1787.7C6107.99 1801.37 6124.69 1821.53 6134.09 1845.3Z" fill="#F28F8F"/>
<path d="M5882.36 1413.03C5883.64 1424.3 5888.25 1434.93 5895.59 1443.58C5902.93 1452.22 5912.67 1458.49 5923.58 1461.59C5934.49 1464.68 5946.08 1464.46 5956.86 1460.96C5967.65 1457.46 5977.15 1450.83 5984.16 1441.91C5991.17 1433 5995.37 1422.2 5996.23 1410.89C5997.09 1399.58 5994.57 1388.27 5988.99 1378.4C5983.4 1368.53 5975.01 1360.54 5964.88 1355.45C5954.75 1350.35 5943.33 1348.39 5932.08 1349.8C5917.11 1351.61 5903.47 1359.28 5894.15 1371.14C5884.83 1382.99 5880.59 1398.06 5882.36 1413.03Z" fill="#263238"/>
<path d="M6294.6 1366.21C6295.83 1377.49 6300.4 1388.15 6307.72 1396.83C6315.04 1405.51 6324.77 1411.82 6335.68 1414.95C6346.59 1418.08 6358.19 1417.9 6368.99 1414.42C6379.8 1410.94 6389.32 1404.32 6396.36 1395.41C6403.39 1386.5 6407.61 1375.7 6408.49 1364.38C6409.36 1353.06 6406.85 1341.74 6401.27 1331.85C6395.69 1321.96 6387.29 1313.96 6377.15 1308.86C6367.01 1303.76 6355.58 1301.8 6344.32 1303.22C6336.91 1304.08 6329.76 1306.4 6323.25 1310.04C6316.74 1313.67 6311.02 1318.56 6306.4 1324.41C6301.78 1330.26 6298.36 1336.96 6296.34 1344.13C6294.31 1351.31 6293.72 1358.81 6294.6 1366.21Z" fill="#263238"/>
<path d="M6115.51 1313.11L6191.78 1688.66L6363.62 1595.26L6115.51 1313.11Z" fill="#F28F8F"/>
<path d="M6442.79 1246.01L6307.39 1217.05C6308.91 1208.18 6312.21 1199.7 6317.1 1192.14C6321.99 1184.58 6328.36 1178.09 6335.83 1173.06C6343.29 1168.03 6351.7 1164.56 6360.55 1162.87C6369.39 1161.18 6378.48 1161.3 6387.28 1163.23C6405.37 1167.29 6421.22 1178.15 6431.55 1193.55C6441.87 1208.95 6445.9 1227.73 6442.79 1246.01Z" fill="#263238"/>
<path d="M5820.09 1300.32L5940.77 1229.84C5936.52 1221.82 5930.71 1214.74 5923.68 1209C5916.65 1203.27 5908.54 1199 5899.83 1196.46C5891.12 1193.92 5881.99 1193.15 5872.98 1194.2C5863.96 1195.25 5855.25 1198.09 5847.36 1202.57C5830.91 1212.04 5818.84 1227.59 5813.73 1245.87C5808.63 1264.15 5810.91 1283.7 5820.09 1300.32Z" fill="#263238"/>
<path d="M5916.39 1570.4C5919.04 1618.67 5868.12 1661.39 5801.02 1665.01C5733.92 1668.63 5678.65 1632.43 5676 1583.67C5673.34 1534.92 5724.27 1492.68 5791.37 1488.82C5858.46 1484.96 5913.73 1521.64 5916.39 1570.4Z" fill="#F28F8F"/>
<path d="M6633.95 1440.55C6651.08 1486.16 6614.88 1542.16 6552.85 1565.81C6490.82 1589.46 6426.14 1571.84 6408.04 1526.23C6389.93 1480.61 6426.86 1424.62 6489.13 1400.96C6551.4 1377.31 6616.57 1395.65 6633.95 1440.55Z" fill="#F28F8F"/>
<path d="M4689.57 5049.56C4657.71 5001.29 4613.79 4958.09 4606.3 4898.96C4603.85 4883.82 4604.97 4868.31 4609.58 4853.69C4614.19 4839.06 4622.16 4825.72 4632.85 4814.72C4638.15 4811.02 4642.53 4806.15 4645.64 4800.48C4647.22 4795.41 4647.71 4790.07 4647.09 4784.79C4644.97 4762.64 4649.77 4740.38 4660.85 4721.08C4666.15 4713.32 4673 4706.76 4680.98 4701.82C4688.96 4696.87 4697.89 4693.65 4707.19 4692.35C4701.92 4659.38 4707.24 4625.57 4722.4 4595.81C4740.74 4560.81 4783.22 4537.16 4802.04 4582.05C4810.78 4604.36 4817.25 4627.48 4821.35 4651.08C4832.04 4709.73 4835.77 4769.44 4832.46 4828.96C4829.56 4890.99 4818.46 5066.22 4722.64 5060.18C4715.16 5058.98 4693.68 5056.32 4689.57 5049.56Z" fill="#F28F8F"/>
<path d="M5357.89 2330.43C5049.44 2378.7 4957.72 2430.84 4763.19 2686.19C4539.69 2979.44 4237.51 3327.24 4147.97 3462.64C4037.42 3630.14 4009.19 3696.75 4173.55 3917.36C4259.23 4030.79 4379.91 4169.33 4500.59 4323.32C4597.13 4444 4713.71 4576.02 4805.18 4700.8C4817.85 4714.68 4826.34 4731.85 4829.67 4750.34C4833 4768.83 4831.04 4787.89 4824.01 4805.31C4812.56 4828.1 4802.49 4851.55 4793.84 4875.54C4789.11 4907.99 4786.93 4940.75 4787.32 4973.53C4783.94 5006.12 4768.25 5041.84 4736.64 5051.01C4721.2 5054.99 4705.01 5054.99 4689.57 5051.01C4713.51 5075.63 4741.11 5096.39 4771.39 5112.56C4802.04 5128.89 4837.74 5133.03 4871.31 5124.14C4902.93 5114.25 4929.48 5089.39 4962.55 5084.56C4980.17 5082.15 4998.51 5085.77 5016.37 5084.56C5034.45 5082.29 5051.35 5074.35 5064.64 5061.87C5086.12 5041.84 5098.43 5010.46 5125.95 5000.33C5139.57 4997.25 5153.34 4994.91 5167.22 4993.33C5180.96 4989.15 5193.47 4981.69 5203.69 4971.6C5213.91 4961.51 5221.52 4949.09 5225.87 4935.4C5234.28 4908.07 5237.79 4879.48 5236.25 4850.93C5236.21 4774 5231.94 4697.13 5223.45 4620.67C5219.31 4594.64 5210.56 4569.55 5197.63 4546.57C5184.35 4519.54 5171.8 4491.79 5156.84 4465.48C5055.23 4287.36 4737.6 3696.03 4737.6 3696.03L5294.65 3132.7C5294.65 3132.7 5586.7 2636.23 5357.89 2330.43Z" fill="#FFA8A7"/>
<path d="M4738.57 3693.86C4611.61 3785.82 4438.32 3768.92 4376.53 3755.65C4515.31 3876.33 4768.25 3747.2 4768.25 3747.2L4738.57 3693.86Z" fill="#F28F8F"/>
<path d="M4077.49 8539.83C4073.25 8540.58 4068.88 8539.7 4065.26 8537.38C4061.64 8535.05 4059.03 8531.45 4057.94 8527.28L4054.08 8511.35C4049.08 8491.32 4037.03 8473.76 4020.15 8461.88C4003.26 8450 3982.66 8444.6 3962.12 8446.67L3945.71 8448.36C3941.29 8449.13 3936.75 8448.11 3933.08 8445.53C3929.42 8442.95 3926.93 8439.02 3926.16 8434.6C3925.39 8430.18 3926.41 8425.64 3928.99 8421.98C3931.57 8418.31 3935.5 8415.82 3939.92 8415.05L3955.85 8410.95C3975.88 8405.95 3993.44 8393.9 4005.31 8377.02C4017.19 8360.13 4022.59 8339.53 4020.53 8318.99L4018.84 8302.58C4018.07 8298.16 4019.09 8293.62 4021.67 8289.95C4024.25 8286.29 4028.18 8283.8 4032.6 8283.03C4037.01 8282.26 4041.55 8283.28 4045.22 8285.86C4048.89 8288.44 4051.38 8292.37 4052.15 8296.78L4056.25 8312.71C4061.2 8332.77 4073.24 8350.36 4090.14 8362.25C4107.03 8374.13 4127.66 8379.51 4148.21 8377.4L4164.38 8375.71C4168.63 8375.34 4172.87 8376.57 4176.26 8379.16C4179.65 8381.75 4181.96 8385.51 4182.72 8389.71C4183.52 8393.92 4182.66 8398.28 4180.32 8401.88C4177.98 8405.48 4174.35 8408.03 4170.17 8409.02L4154.24 8413.12C4134.25 8418.17 4116.75 8430.23 4104.92 8447.11C4093.09 8464 4087.72 8484.57 4089.8 8505.08L4091.25 8521.49C4091.68 8525.72 4090.51 8529.95 4087.96 8533.35C4085.41 8536.75 4081.67 8539.06 4077.49 8539.83ZM4011.84 8419.15C4031.56 8426.44 4049.03 8438.76 4062.53 8454.87C4069.78 8435.07 4082.09 8417.51 4098.25 8403.95C4078.53 8396.66 4061.06 8384.35 4047.56 8368.23C4040.31 8388.03 4027.99 8405.59 4011.84 8419.15Z" fill="#E0E0E0"/>
<path d="M3583.43 8021.64C3579.22 8022.37 3574.89 8021.49 3571.31 8019.16C3567.72 8016.83 3565.16 8013.23 3564.12 8009.09L3560.02 7993.16C3555.02 7973.13 3542.97 7955.56 3526.09 7943.69C3509.2 7931.81 3488.6 7926.41 3468.06 7928.47L3451.65 7930.16C3447.4 7930.53 3443.16 7929.3 3439.77 7926.71C3436.38 7924.12 3434.07 7920.36 3433.31 7916.16C3432.57 7911.95 3433.45 7907.62 3435.78 7904.04C3438.11 7900.46 3441.71 7897.89 3445.86 7896.85L3461.79 7892.75C3481.82 7887.75 3499.38 7875.71 3511.26 7858.82C3523.13 7841.93 3528.54 7821.34 3526.47 7800.79L3524.78 7784.38C3524.47 7780.14 3525.72 7775.93 3528.3 7772.55C3530.88 7769.17 3534.61 7766.85 3538.78 7766.04C3542.98 7765.36 3547.29 7766.27 3550.86 7768.59C3554.43 7770.91 3557 7774.47 3558.09 7778.59L3562.19 7794.52C3567.15 7814.57 3579.18 7832.17 3596.08 7844.05C3612.98 7855.94 3633.6 7861.32 3654.15 7859.2L3670.56 7857.51C3674.8 7857.2 3679.01 7858.45 3682.39 7861.03C3685.77 7863.61 3688.09 7867.34 3688.9 7871.51C3689.58 7875.71 3688.68 7880.02 3686.36 7883.59C3684.04 7887.16 3680.47 7889.74 3676.35 7890.82L3660.42 7894.92C3640.37 7899.88 3622.78 7911.91 3610.89 7928.81C3599 7945.71 3593.62 7966.33 3595.74 7986.88L3597.43 8003.29C3597.8 8007.54 3596.57 8011.78 3593.98 8015.17C3591.39 8018.57 3587.63 8020.87 3583.43 8021.64ZM3517.78 7900.96C3537.59 7908.21 3555.15 7920.53 3568.71 7936.68C3575.96 7916.87 3588.28 7899.31 3604.43 7885.75C3584.62 7878.5 3567.06 7866.18 3553.5 7850.03C3546.33 7870.01 3534 7887.74 3517.78 7901.44V7900.96Z" fill="#E0E0E0"/>
<path d="M7565.83 7373.35C7561.59 7373.95 7557.29 7372.94 7553.77 7370.53C7550.24 7368.12 7547.74 7364.48 7546.76 7360.32L7543.14 7344.15C7538.66 7324.02 7527.06 7306.19 7510.47 7293.95C7493.88 7281.71 7473.42 7275.88 7452.87 7277.53L7436.46 7278.74C7432.19 7278.98 7427.98 7277.63 7424.64 7274.96C7421.3 7272.29 7419.06 7268.48 7418.36 7264.26C7417.76 7260.03 7418.77 7255.73 7421.18 7252.2C7423.59 7248.67 7427.23 7246.17 7431.39 7245.19L7447.56 7241.57C7467.7 7237 7485.53 7225.35 7497.8 7208.74C7510.07 7192.12 7515.97 7171.66 7514.42 7151.06L7513.21 7134.89C7512.89 7130.64 7514.19 7126.44 7516.84 7123.11C7519.5 7119.78 7523.31 7117.57 7527.52 7116.93C7531.72 7116.29 7536.02 7117.26 7539.54 7119.65C7543.07 7122.04 7545.56 7125.67 7546.52 7129.82L7550.14 7145.75C7554.62 7165.94 7566.24 7183.83 7582.88 7196.12C7599.51 7208.41 7620.03 7214.26 7640.65 7212.61L7657.06 7211.4C7661.3 7211.17 7665.48 7212.52 7668.78 7215.2C7672.08 7217.88 7674.27 7221.68 7674.92 7225.88C7675.57 7230.12 7674.59 7234.45 7672.17 7237.99C7669.75 7241.53 7666.07 7244.02 7661.89 7244.95L7645.96 7248.57C7625.83 7253.09 7608.01 7264.69 7595.73 7281.27C7583.46 7297.84 7577.56 7318.27 7579.1 7338.84L7580.31 7355.25C7580.66 7359.54 7579.35 7363.81 7576.66 7367.17C7573.97 7370.54 7570.09 7372.75 7565.83 7373.35ZM7503.31 7251.47C7522.87 7259.26 7540.08 7271.98 7553.28 7288.39C7561.01 7268.8 7573.74 7251.58 7590.2 7238.43C7570.48 7230.93 7553.2 7218.16 7540.24 7201.5C7532.44 7221.19 7519.53 7238.44 7502.83 7251.47H7503.31Z" fill="#E0E0E0"/>
<path d="M7962.86 7962.99C7958.89 7961.41 7955.67 7958.4 7953.83 7954.55C7952 7950.7 7951.69 7946.3 7952.96 7942.23L7958.03 7926.54C7964.21 7906.83 7963.09 7885.56 7954.9 7866.59C7946.7 7847.63 7931.97 7832.25 7913.38 7823.24L7898.66 7816C7894.83 7814.12 7891.84 7810.87 7890.27 7806.89C7888.71 7802.92 7888.69 7798.51 7890.21 7794.52C7891.78 7790.55 7894.79 7787.33 7898.64 7785.5C7902.49 7783.66 7906.9 7783.35 7910.97 7784.62L7926.9 7789.45C7946.54 7795.68 7967.78 7794.62 7986.71 7786.47C8005.64 7778.31 8020.99 7763.6 8029.96 7745.04L8037.2 7730.32C8039.08 7726.49 8042.33 7723.5 8046.3 7721.94C8050.27 7720.37 8054.69 7720.35 8058.68 7721.87C8062.64 7723.44 8065.86 7726.46 8067.7 7730.31C8069.54 7734.16 8069.85 7738.56 8068.57 7742.63L8063.74 7758.32C8057.5 7778 8058.55 7799.27 8066.71 7818.24C8074.86 7837.21 8089.58 7852.61 8108.15 7861.62L8123.12 7868.86C8125.18 7869.68 8127.06 7870.9 8128.64 7872.45C8130.23 7874 8131.5 7875.85 8132.37 7877.89C8133.25 7879.93 8133.71 7882.12 8133.74 7884.34C8133.77 7886.56 8133.36 7888.76 8132.53 7890.82C8131.71 7892.88 8130.49 7894.76 8128.94 7896.35C8127.39 7897.93 8125.54 7899.2 8123.5 7900.08C8121.46 7900.95 8119.27 7901.41 8117.05 7901.44C8114.83 7901.47 8112.63 7901.06 8110.57 7900.23L8094.88 7895.41C8075.2 7889.11 8053.91 7890.13 8034.93 7898.3C8015.94 7906.46 8000.55 7921.2 7991.58 7939.82L7984.34 7954.54C7982.5 7958.41 7979.25 7961.43 7975.27 7963C7971.28 7964.57 7966.84 7964.57 7962.86 7962.99ZM7970.1 7826.14C7982.99 7842.77 7991.32 7862.49 7994.23 7883.34C8010.67 7870.26 8030.36 7861.91 8051.19 7859.2C8038.24 7842.6 8029.91 7822.87 8027.06 7802C8010.58 7815.01 7990.91 7823.34 7970.1 7826.14Z" fill="#E0E0E0"/>
<path d="M4078.21 7536.99C4071.75 7538.05 4065.12 7536.65 4059.63 7533.08C4054.14 7529.51 4050.18 7524.02 4048.53 7517.68L4042.49 7493.55C4034.78 7462.87 4016.31 7435.98 3990.44 7417.77C3964.57 7399.57 3933.02 7391.25 3901.54 7394.35L3877.4 7397C3870.87 7397.59 3864.34 7395.71 3859.12 7391.74C3853.89 7387.77 3850.34 7381.98 3849.17 7375.52C3848.05 7369.05 3849.42 7362.4 3853 7356.9C3856.58 7351.39 3862.11 7347.44 3868.47 7345.84L3892.61 7339.56C3923.32 7331.93 3950.24 7313.47 3968.43 7287.58C3986.61 7261.68 3994.83 7230.08 3991.57 7198.61L3989.15 7174.47C3988.59 7167.97 3990.48 7161.49 3994.46 7156.32C3998.44 7151.15 4004.21 7147.65 4010.64 7146.53C4017.07 7145.41 4023.68 7146.74 4029.18 7150.26C4034.68 7153.78 4038.65 7159.23 4040.32 7165.54L4046.35 7189.68C4054.08 7220.38 4072.59 7247.28 4098.52 7265.45C4124.45 7283.62 4156.05 7291.85 4187.55 7288.63L4211.68 7286.22C4218.19 7285.64 4224.68 7287.52 4229.87 7291.5C4235.06 7295.48 4238.56 7301.26 4239.68 7307.7C4240.84 7314.15 4239.49 7320.8 4235.9 7326.27C4232.31 7331.75 4226.75 7335.64 4220.37 7337.15L4196.24 7343.42C4165.53 7351.05 4138.6 7369.51 4120.42 7395.41C4102.24 7421.31 4094.02 7452.9 4097.28 7484.37L4099.69 7508.51C4100.35 7515.09 4098.5 7521.67 4094.52 7526.95C4090.54 7532.22 4084.72 7535.81 4078.21 7536.99ZM3977.81 7352.59C4008.17 7363.66 4035.07 7382.56 4055.77 7407.38C4066.75 7377.03 4085.57 7350.14 4110.31 7329.42C4080.02 7318.35 4053.2 7299.45 4032.6 7274.64C4021.59 7305.03 4002.68 7331.94 3977.81 7352.59Z" fill="#E0E0E0"/>
<path d="M7457.22 8541.76C7450.75 8540.69 7444.94 8537.2 7440.95 8532C7436.96 8526.8 7435.09 8520.28 7435.73 8513.76L7438.15 8488.42C7441.14 8456.91 7432.69 8425.37 7414.34 8399.58C7395.99 8373.79 7368.98 8355.46 7338.23 8347.95L7314.09 8341.92C7307.83 8340.23 7302.41 8336.27 7298.91 8330.81C7295.41 8325.35 7294.08 8318.78 7295.16 8312.38C7296.25 8305.99 7299.68 8300.22 7304.79 8296.22C7309.89 8292.22 7316.31 8290.27 7322.78 8290.75L7346.91 8293.16C7378.4 8296.22 7409.93 8287.82 7435.73 8269.51C7461.53 8251.2 7479.87 8224.21 7487.38 8193.48L7493.66 8169.35C7494.81 8162.59 7498.6 8156.57 7504.19 8152.61C7509.78 8148.65 7516.71 8147.08 7523.47 8148.23C7530.22 8149.38 7536.24 8153.17 7540.2 8158.76C7544.16 8164.35 7545.74 8171.28 7544.59 8178.04L7542.41 8202.17C7539.36 8233.66 7547.76 8265.19 7566.07 8290.99C7584.37 8316.79 7611.37 8335.13 7642.09 8342.64L7666.23 8348.67C7672.5 8350.36 7677.91 8354.32 7681.41 8359.78C7684.91 8365.24 7686.24 8371.81 7685.16 8378.21C7684.07 8384.61 7680.64 8390.37 7675.53 8394.37C7670.43 8398.37 7664.01 8400.32 7657.54 8399.84L7633.41 8397.43C7601.93 8394.43 7570.42 8402.84 7544.63 8421.14C7518.84 8439.44 7500.5 8466.41 7492.94 8497.11L7486.66 8521.25C7485.31 8527.79 7481.51 8533.56 7476.03 8537.38C7470.55 8541.19 7463.82 8542.76 7457.22 8541.76ZM7424.15 8334.43C7449.08 8354.98 7468.08 8381.81 7479.18 8412.15C7499.71 8387.15 7526.54 8368.07 7556.9 8356.88C7532.02 8336.38 7513.03 8309.64 7501.87 8279.41C7481.32 8304.34 7454.49 8323.34 7424.15 8334.43Z" fill="#E0E0E0"/>
<path d="M7412.56 4024.52L7481.59 4107.55L7585.62 4079.79C7663.09 4059.28 7868.25 4004.73 7922.07 3836.02C7935.02 3795.19 7931.98 3750.96 7913.56 3712.28C7895.13 3673.6 7862.7 3643.37 7822.83 3627.7C7782.96 3612.03 7738.63 3612.09 7698.8 3627.86C7658.97 3643.64 7626.62 3673.96 7608.3 3712.69C7619.12 3669.16 7612.21 3623.12 7589.08 3584.69C7565.95 3546.26 7528.5 3518.59 7484.97 3507.77C7441.44 3496.96 7395.4 3503.87 7356.97 3527C7318.54 3550.13 7290.88 3587.58 7280.06 3631.11C7225.51 3799.82 7361.4 3963.22 7412.56 4024.52Z" fill="#FF73A4"/>
<path opacity="0.25" d="M7412.56 4024.52L7481.59 4107.55L7585.62 4079.79C7663.09 4059.28 7868.25 4004.73 7922.07 3836.02C7935.02 3795.19 7931.98 3750.96 7913.56 3712.28C7895.13 3673.6 7862.7 3643.37 7822.83 3627.7C7782.96 3612.03 7738.63 3612.09 7698.8 3627.86C7658.97 3643.64 7626.62 3673.96 7608.3 3712.69C7619.12 3669.16 7612.21 3623.12 7589.08 3584.69C7565.95 3546.26 7528.5 3518.59 7484.97 3507.77C7441.44 3496.96 7395.4 3503.87 7356.97 3527C7318.54 3550.13 7290.88 3587.58 7280.06 3631.11C7225.51 3799.82 7361.4 3963.22 7412.56 4024.52Z" fill="white"/>
<path d="M4434.21 2005.09L4551.27 2034.29L4626.82 1940.64C4683.05 1870.89 4831.97 1686.01 4768.98 1498.24C4753.81 1452.53 4721.78 1414.34 4679.43 1391.42C4637.08 1368.51 4587.58 1362.6 4541.03 1374.91C4494.47 1387.22 4454.36 1416.81 4428.86 1457.66C4403.37 1498.52 4394.41 1547.55 4403.8 1594.78C4382.6 1551.68 4345.81 1518.25 4300.89 1501.24C4255.97 1484.24 4206.27 1484.93 4161.84 1503.17C4117.41 1521.42 4081.56 1555.85 4061.56 1599.52C4041.55 1643.19 4038.88 1692.82 4054.08 1738.39C4117.07 1926.64 4347.57 1983.6 4434.21 2005.09Z" fill="#FF73A4"/>
<path opacity="0.35" d="M4434.21 2005.09L4551.27 2034.29L4626.82 1940.64C4683.05 1870.89 4831.97 1686.01 4768.98 1498.24C4753.81 1452.53 4721.78 1414.34 4679.43 1391.42C4637.08 1368.51 4587.58 1362.6 4541.03 1374.91C4494.47 1387.22 4454.36 1416.81 4428.86 1457.66C4403.37 1498.52 4394.41 1547.55 4403.8 1594.78C4382.6 1551.68 4345.81 1518.25 4300.89 1501.24C4255.97 1484.24 4206.27 1484.93 4161.84 1503.17C4117.41 1521.42 4081.56 1555.85 4061.56 1599.52C4041.55 1643.19 4038.88 1692.82 4054.08 1738.39C4117.07 1926.64 4347.57 1983.6 4434.21 2005.09Z" fill="white"/>
<path d="M4103.8 2655.06L4173.55 2649.03L4197.69 2583.38C4215.3 2535.11 4262.37 2405.26 4192.62 2314.26C4175.4 2293.14 4150.95 2279.18 4124.01 2275.08C4097.07 2270.98 4069.57 2277.04 4046.86 2292.08C4024.14 2307.13 4007.82 2330.08 4001.09 2356.48C3994.35 2382.89 3997.66 2410.85 4010.39 2434.94C3991.03 2413.62 3964.07 2400.76 3935.32 2399.13C3906.57 2397.49 3878.32 2407.22 3856.67 2426.21C3835.02 2445.2 3821.7 2471.94 3819.57 2500.66C3817.45 2529.38 3826.69 2557.78 3845.3 2579.76C3915.06 2671.23 4052.15 2659.4 4103.8 2655.06Z" fill="#FF73A4"/>
<path d="M2476.08 5868.01C2270.45 5751.19 1987.58 5769.05 1675.26 5949.34C1047.73 6311.38 537.503 7194.51 537.503 7920.27C537.503 8282.3 664.698 8537.18 870.334 8656.17L1259.16 8879.9C1464.8 8998.41 1749.12 8981.03 2062.88 8800.01C2690.41 8437.98 3200.88 7554.85 3200.88 6829.09C3200.88 6467.05 3074.17 6213.15 2869.26 6093.92C2783.09 6043.96 2562.97 5917.24 2476.08 5868.01Z" fill="#FF73A4"/>
<path opacity="0.15" d="M579.257 7543.03C552.332 7666.99 538.339 7793.41 537.503 7920.27C537.503 8282.3 664.698 8537.18 870.334 8656.16L1259.16 8879.9C1464.8 8998.41 1749.12 8981.03 2062.88 8800.01C2172.1 8736.01 2274.35 8660.78 2367.96 8575.55L579.257 7543.03Z" fill="black"/>
<path d="M2867.81 7949.71C3073.44 7593.23 3200.64 7191.61 3200.64 6829.09C3200.64 6103.57 2691.13 5809.36 2062.64 6172.36C1434.14 6535.36 924.881 7417.52 924.881 8143.04C924.881 8868.56 1435.35 9162.77 2062.88 8800.01C2227.88 8702.26 2377.59 8580.77 2507.22 8439.43L2971.59 8524.38C2985.02 8526.81 2998.86 8525.6 3011.66 8520.88C3024.47 8516.17 3035.78 8508.11 3044.42 8497.54C3053.06 8486.98 3058.72 8474.3 3060.81 8460.81C3062.9 8447.33 3061.35 8433.52 3056.31 8420.84L2867.81 7949.71Z" fill="#FF73A4"/>
<path opacity="0.35" d="M2867.81 7949.71C3073.44 7593.23 3200.64 7191.61 3200.64 6829.09C3200.64 6103.57 2691.13 5809.36 2062.64 6172.36C1434.14 6535.36 924.881 7417.52 924.881 8143.04C924.881 8868.56 1435.35 9162.77 2062.88 8800.01C2227.88 8702.26 2377.59 8580.77 2507.22 8439.43L2971.59 8524.38C2985.02 8526.81 2998.86 8525.6 3011.66 8520.88C3024.47 8516.17 3035.78 8508.11 3044.42 8497.54C3053.06 8486.98 3058.72 8474.3 3060.81 8460.81C3062.9 8447.33 3061.35 8433.52 3056.31 8420.84L2867.81 7949.71Z" fill="white"/>
<path d="M2614.14 7298.05C2656.5 7245.17 2680.85 7180.14 2683.65 7112.44C2683.65 7048 2659.52 7021.21 2635.38 7012.52C2657.61 6969.23 2669.66 6921.43 2670.62 6872.78C2670.62 6807.13 2633.45 6731.1 2554.04 6776.23L2257.41 6947.12C2276.72 6812.92 2268.28 6709.62 2229.9 6607.77C2194.66 6514.36 2105.84 6543.32 2058.05 6583.63C2045.96 6592.08 2035.89 6603.11 2028.59 6615.92C2021.28 6628.74 2016.92 6643.02 2015.82 6657.73C2015.82 6666.9 2015.82 6685.48 2017.75 6709.38C2020.16 6766.58 2025.95 6900.29 2017.75 6935.29C2009.54 6970.29 1918.07 7208.75 1859.42 7357.18C1857.2 7362.72 1855.98 7368.6 1855.8 7374.56V8179.73C1855.8 8193.48 1863.28 8200.48 1872.93 8197.1L1876.31 8195.41L2409.47 7888.17C2449.92 7861.59 2483.6 7825.92 2507.82 7784.02C2532.04 7742.11 2546.13 7695.13 2548.97 7646.81C2549.05 7622.46 2546.46 7598.18 2541.25 7574.4C2588.6 7519.39 2618.14 7451.3 2625.97 7379.14C2627.03 7351.62 2623.03 7324.13 2614.14 7298.05ZM2514.46 7539.41C2506.43 7544.8 2500.41 7552.69 2497.32 7561.85C2493.47 7570.35 2492.87 7579.97 2495.63 7588.88C2504.09 7614.57 2508.17 7641.49 2507.7 7668.53C2505.1 7701.61 2494.88 7733.64 2477.84 7762.12C2460.8 7790.59 2437.4 7814.73 2409.47 7832.66L1896.34 8129.52V7360.32C1922.41 7294.19 2041.16 6988.39 2055.64 6935.29C2067.22 6890.88 2063.85 6790.47 2059.26 6684.28C2059.26 6666.9 2057.81 6652.66 2057.57 6643.01C2073 6626.56 2092.74 6614.77 2114.53 6608.97C2122.47 6606.39 2130.84 6605.46 2139.15 6606.21C2147.46 6606.97 2155.53 6609.41 2162.86 6613.39C2170.2 6617.36 2176.65 6622.78 2181.83 6629.33C2187 6635.87 2190.8 6643.4 2192.97 6651.45C2231.11 6752.82 2237.14 6855.64 2212.76 6994.9C2211.64 6998.52 2211.38 7002.34 2212.01 7006.08C2212.64 7009.81 2214.14 7013.34 2216.38 7016.38C2218.42 7018.61 2221.22 7019.97 2224.23 7020.2C2227.24 7020.42 2230.21 7019.49 2232.55 7017.59L2555.25 6831.99C2611.97 6799.4 2630.55 6860.95 2630.55 6896.19C2629.37 6941.65 2614.58 6985.71 2588.07 7022.66C2580.84 7032.18 2577.4 7044.05 2578.42 7055.97C2578.42 7066.1 2585.66 7071.66 2593.87 7069.48C2595.8 7069.48 2642.14 7058.14 2642.14 7135.86C2640.33 7188.62 2617.98 7238.59 2579.87 7275.12C2572.33 7282.17 2567.11 7291.34 2564.9 7301.43C2563.65 7305.45 2563.3 7309.7 2563.88 7313.87C2564.47 7318.05 2565.97 7322.04 2568.28 7325.56C2568.28 7325.56 2584.45 7343.91 2584.45 7401.11C2584.69 7435.14 2546.8 7522.03 2514.46 7540.37V7539.41ZM1775.42 7370.46L1542.76 7504.17C1536.58 7508.28 1531.58 7513.94 1528.27 7520.58C1524.51 7527.65 1522.45 7535.5 1522.24 7543.51V8480.7C1522.24 8494.21 1529.72 8501.46 1539.38 8497.84L1542.76 8496.39L1775.42 8362.43C1781.66 8358.38 1786.66 8352.71 1789.91 8346.02C1793.69 8338.96 1795.76 8331.1 1795.94 8323.09V7385.9C1795.94 7370.7 1787.01 7363.22 1775.42 7370.21V7370.46ZM1658.61 8285.92C1634.47 8299.92 1614.68 8285.92 1614.68 8252.86C1614.96 8236.4 1619.08 8220.24 1626.7 8205.66C1634.33 8191.08 1645.25 8178.48 1658.61 8168.87C1682.74 8154.87 1702.53 8168.87 1702.53 8202.17C1702.22 8218.55 1698.08 8234.63 1690.46 8249.13C1682.83 8263.62 1671.92 8276.14 1658.61 8285.68V8285.92Z" fill="#FAFAFA"/>
<path d="M9180.02 5868.01C9385.66 5751.19 9668.53 5769.05 9980.85 5949.34C10608.4 6311.38 11118.6 7194.51 11118.6 7920.27C11118.6 8282.3 10991.4 8537.18 10785.8 8656.17L10396.9 8879.9C10191.3 8998.41 9906.99 8981.03 9593.23 8800.01C8965.7 8437.98 8455.23 7554.85 8455.23 6829.09C8455.23 6467.05 8581.94 6213.15 8786.85 6093.92C8873.02 6043.96 9093.13 5917.24 9180.02 5868.01Z" fill="#FF73A4"/>
<path opacity="0.15" d="M11076.8 7543.03C11103.8 7666.99 11117.8 7793.41 11118.6 7920.27C11118.6 8282.3 10991.4 8537.18 10785.8 8656.16L10396.9 8879.9C10191.3 8998.41 9906.99 8981.03 9593.23 8800.01C9484 8736.01 9381.76 8660.78 9288.15 8575.55L11076.8 7543.03Z" fill="black"/>
<path d="M8788.3 7949.71C8582.66 7593.23 8455.47 7191.61 8455.47 6829.09C8455.47 6103.57 8964.97 5809.36 9593.47 6172.36C10222 6535.36 10731.2 7417.52 10731.2 8143.04C10731.2 8868.56 10220.8 9162.77 9593.23 8800.01C9428.23 8702.26 9278.51 8580.77 9148.89 8439.43L8684.52 8524.38C8671.09 8526.81 8657.25 8525.6 8644.44 8520.88C8631.64 8516.17 8620.33 8508.11 8611.69 8497.54C8603.04 8486.98 8597.38 8474.3 8595.29 8460.81C8593.2 8447.33 8594.76 8433.52 8599.8 8420.84L8788.3 7949.71Z" fill="#FF73A4"/>
<path opacity="0.35" d="M8788.3 7949.71C8582.66 7593.23 8455.47 7191.61 8455.47 6829.09C8455.47 6103.57 8964.97 5809.36 9593.47 6172.36C10222 6535.36 10731.2 7417.52 10731.2 8143.04C10731.2 8868.56 10220.8 9162.77 9593.23 8800.01C9428.23 8702.26 9278.51 8580.77 9148.89 8439.43L8684.52 8524.38C8671.09 8526.81 8657.25 8525.6 8644.44 8520.88C8631.64 8516.17 8620.33 8508.11 8611.69 8497.54C8603.04 8486.98 8597.38 8474.3 8595.29 8460.81C8593.2 8447.33 8594.76 8433.52 8599.8 8420.84L8788.3 7949.71Z" fill="white"/>
<path d="M9971.19 8465.49C9959.41 8464.48 9948 8460.8 9937.84 8454.74C9927.68 8448.67 9919.03 8440.39 9912.54 8430.5L9580.43 8005.71L9252.43 8046.26C9241.93 8046.88 9231.43 8045.02 9221.79 8040.83C9212.14 8036.64 9203.62 8030.23 9196.92 8022.12C9183.12 8007.58 9172.58 7990.26 9166 7971.33C9159.43 7952.39 9156.96 7932.27 9158.78 7912.3L9222.5 7452.28L8949.77 6942.05C8927.08 6899.33 8925.63 6852.5 8948.32 6827.88C8955.1 6820.55 8963.98 6815.49 8973.75 6813.42C8983.52 6811.34 8993.69 6812.35 9002.87 6816.3L9364.9 6955.08L9526.37 6611.63C9530.29 6602.6 9536.88 6594.99 9545.25 6589.82C9553.62 6584.64 9563.37 6582.14 9573.19 6582.67C9606.5 6585.08 9639.57 6619.35 9653.81 6665.93L9821.55 7216.23L10195.9 7505.86C10211.6 7519.27 10224.2 7535.87 10233 7554.56C10241.7 7573.25 10246.3 7593.59 10246.6 7614.23C10247 7624.38 10245 7634.5 10240.8 7643.76C10236.6 7653.02 10230.3 7661.17 10222.4 7667.57L9956.95 7858.72L10020.2 8388.26C10024.8 8424.94 10012.7 8452.94 9988.33 8462.84C9982.83 8464.79 9977.02 8465.69 9971.19 8465.49ZM9589.36 7963.47C9592.49 7963.46 9595.58 7964.17 9598.38 7965.56C9601.19 7966.94 9603.64 7968.95 9605.54 7971.43L9944.88 8405.88C9958.16 8422.53 9969.02 8426.15 9973.61 8424.46C9978.19 8422.77 9983.02 8412.88 9980.6 8392.6L9915.68 7851.24C9915.23 7847.59 9915.78 7843.89 9917.26 7840.54C9918.75 7837.18 9921.12 7834.29 9924.13 7832.17L10198.5 7633.78C10201.1 7630.98 10203 7627.68 10204.1 7624.11C10205.3 7620.54 10205.7 7616.76 10205.3 7613.02C10205 7598.75 10201.8 7584.69 10195.8 7571.74C10189.8 7558.78 10181.2 7547.19 10170.6 7537.72L9791.14 7244.71C9787.72 7242.08 9785.19 7238.45 9783.9 7234.33L9614.95 6677.76C9604.57 6643.73 9582.61 6624.66 9570.78 6623.7C9568.85 6623.7 9566.68 6623.7 9564.02 6629.25L9395.07 6989.83C9392.86 6994.49 9388.97 6998.15 9384.19 7000.07C9379.4 7002 9374.07 7002.05 9369.25 7000.21L8989.59 6855.4C8983.07 6852.99 8981.39 6855.4 8980.42 6855.4C8975.93 6866.41 8974.22 6878.36 8975.44 6890.19C8976.66 6902.01 8980.77 6913.36 8987.42 6923.22L9262.08 7438.76C9264.19 7442.58 9265.03 7446.98 9264.5 7451.31L9199.57 7917.85C9198.66 7931.85 9200.68 7945.89 9205.5 7959.06C9210.33 7972.23 9217.84 7984.26 9227.57 7994.36C9230.15 7997.65 9233.35 8000.39 9237 8002.42C9240.65 8004.45 9244.66 8005.73 9248.81 8006.19L9588.16 7964.19L9589.36 7963.47Z" fill="#FAFAFA"/>
</svg>
