<svg width="17592" height="20442" viewBox="0 0 17592 20442" fill="none" xmlns="http://www.w3.org/2000/svg">
<path d="M8795.89 20441.9C13653.6 20441.9 17591.5 18204.8 17591.5 15445.3C17591.5 12685.7 13653.6 10448.7 8795.89 10448.7C3938.21 10448.7 0.277832 12685.7 0.277832 15445.3C0.277832 18204.8 3938.21 20441.9 8795.89 20441.9Z" fill="#F5F5F5"/>
<path d="M12456.1 18595.7L5890.5 14804.8C5832.74 14771.5 5784.77 14723.6 5751.42 14665.9C5718.06 14608.1 5700.5 14542.7 5700.5 14476C5700.5 14409.3 5718.06 14343.9 5751.42 14286.2C5784.77 14228.4 5832.74 14180.5 5890.5 14147.3L6538.18 13738.8C6649.98 13674.4 6776.74 13640.5 6905.76 13640.5C7034.78 13640.5 7161.54 13674.4 7273.34 13738.8L13839.8 17530.3C13897.6 17563.5 13945.5 17611.4 13978.9 17669.1C14012.2 17726.9 14029.8 17792.3 14029.8 17859C14029.8 17925.7 14012.2 17991.1 13978.9 18048.9C13945.5 18106.6 13897.6 18154.5 13839.8 18187.7L13192.1 18595.7C13080.3 18660.5 12953.3 18694.5 12824.1 18694.5C12694.9 18694.5 12567.9 18660.5 12456.1 18595.7Z" fill="#E0E0E0"/>
<path d="M2473.14 15139.5C3260.03 15139.5 3897.93 14773.2 3897.93 14321.3C3897.93 13869.5 3260.03 13503.2 2473.14 13503.2C1686.24 13503.2 1048.34 13869.5 1048.34 14321.3C1048.34 14773.2 1686.24 15139.5 2473.14 15139.5Z" fill="#E6E6E6"/>
<path d="M14784.3 15327L15409.2 15686.3C15409.2 15686.3 15090.1 14683.3 15260.1 13672.3C15324.4 13290.2 15462.3 13100.5 15510.5 12998.3C15558.8 12896.1 15932.4 12264.5 15599.8 11975.2C15267.3 11686 14493.7 12267.6 14535.7 13824.1C14554.8 14333.5 14638.3 14838.5 14784.3 15327Z" fill="#FF81AE"/>
<path opacity="0.5" d="M14784.3 15327L15409.2 15686.3C15409.2 15686.3 15090.1 14683.3 15260.1 13672.3C15324.4 13290.2 15462.3 13100.5 15510.5 12998.3C15558.8 12896.1 15932.4 12264.5 15599.8 11975.2C15267.3 11686 14493.7 12267.6 14535.7 13824.1C14554.8 14333.5 14638.3 14838.5 14784.3 15327Z" fill="black"/>
<path d="M15074.9 15516.3C15070.3 15516.4 15065.9 15515 15062.1 15512.5C15058.4 15509.9 15055.5 15506.2 15053.9 15502C15051.7 15495.3 14812.9 14842.7 14820.5 13793.7C14828.1 12744.8 15379.3 12175.2 15384.7 12169.9C15386.7 12167.8 15389.2 12166.1 15391.9 12165C15394.7 12163.8 15397.6 12163.3 15400.5 12163.3C15403.5 12163.3 15406.4 12163.8 15409.1 12165C15411.8 12166.1 15414.3 12167.8 15416.4 12169.9C15418.5 12171.9 15420.1 12174.4 15421.2 12177.1C15422.4 12179.8 15423 12182.8 15423 12185.7C15423 12188.7 15422.4 12191.6 15421.2 12194.3C15420.1 12197 15418.5 12199.5 15416.4 12201.6C15411 12206.9 14872.7 12759.5 14865.1 13794.2C14857.5 14828.9 15093.2 15480.5 15095.9 15486.8C15097.9 15492.4 15097.6 15498.5 15095.1 15503.9C15092.6 15509.2 15088 15513.3 15082.5 15515.4C15080 15516.1 15077.5 15516.4 15074.9 15516.3Z" fill="white"/>
<path d="M15045 15480.5L15899.3 15971.5C15988.3 16024.2 16093.9 16041.3 16195 16019.6C16296.1 15997.8 16385.3 15938.7 16444.8 15854.2C16501.3 15766.2 16525.2 15661.1 16512.2 15557.3C16471.1 15113.6 16278.3 15011.4 16514.4 14813.7C16750.5 14615.9 16812.1 14602.1 16798.8 14411.9C16785.4 14221.8 16655.5 14138.8 16593.9 14063.8C16532.3 13988.8 16361.8 13831.7 16477.8 13599.6C16593.9 13367.5 16752.3 13142.9 16512.2 13040.3C16368.9 12978.7 16130.1 13060.8 15973 13231.3C15815.9 13401.8 15686.4 13524.6 15536 13565.6C15385.6 13606.7 15072.2 13613.4 15085.6 13872.7C15099 14132.1 15167.7 14220.9 15106.1 14336.5C14990.1 14552.6 14485.2 14675.3 15045 15480.5Z" fill="#FF81AE"/>
<path d="M15467.2 15744.8C15461.7 15744.6 15456.4 15742.4 15452.3 15738.7C15448.2 15734.9 15445.6 15729.8 15444.9 15724.3C15444.9 15709.1 15313.7 14177.2 16367.1 13157.7C16371.5 13154.1 16377 13152.3 16382.6 13152.6C16388.2 13152.9 16393.5 13155.4 16397.4 13159.4C16401.3 13163.5 16403.5 13168.9 16403.6 13174.5C16403.7 13180.2 16401.7 13185.6 16397.9 13189.8C15359.7 14194.6 15488.2 15705.1 15489.6 15720.2C15490.1 15726.1 15488.2 15731.9 15484.5 15736.4C15480.7 15740.9 15475.3 15743.8 15469.5 15744.3L15467.2 15744.8Z" fill="white"/>
<path d="M15636.4 14426.2C15630.8 14426.2 15625.4 14424.1 15621.2 14420.3C15617.1 14416.5 15614.6 14411.3 15614.1 14405.7C15604.8 14287 15571.3 14171.4 15515.8 14066C15460.3 13960.7 15384 13867.7 15291.4 13792.8C15289 13791.1 15286.9 13789 15285.3 13786.5C15283.8 13784 15282.7 13781.2 15282.2 13778.3C15281.7 13775.4 15281.8 13772.5 15282.4 13769.6C15283.1 13766.7 15284.3 13764 15286 13761.6C15287.7 13759.2 15289.8 13757.1 15292.2 13755.6C15294.7 13754 15297.4 13752.9 15300.3 13752.4C15303.2 13751.9 15306.1 13752 15308.9 13752.7C15311.8 13753.3 15314.5 13754.5 15316.8 13756.2C15415.5 13834.5 15496.8 13932.4 15555.7 14043.7C15614.6 14155.1 15649.6 14277.4 15658.7 14403C15659.2 14409 15657.4 14414.9 15653.5 14419.5C15649.7 14424.1 15644.2 14427 15638.2 14427.6L15636.4 14426.2Z" fill="white"/>
<path d="M15563.7 14689.1C15558.3 14689.2 15553 14687.3 15548.9 14683.8C15544.5 14679.8 15541.8 14674.3 15541.4 14668.4C15541 14662.5 15542.9 14656.6 15546.7 14652.1C15557.4 14639.6 15821.2 14348.6 16439.4 14425.8C16445.3 14426.6 16450.6 14429.6 16454.2 14434.3C16457.8 14439 16459.4 14444.9 16458.6 14450.8C16457.8 14456.7 16454.8 14462 16450.1 14465.7C16445.5 14469.4 16439.5 14471.1 16433.6 14470.4C15840 14395.9 15582.4 14678.9 15579.7 14681.6C15577.7 14683.8 15575.2 14685.7 15572.5 14687C15569.7 14688.3 15566.7 14689 15563.7 14689.1Z" fill="white"/>
<path d="M12256.1 18142.7L6481.93 14808.8C6074.4 14573.5 5744.09 13942.4 5744.09 13399.2V1034.86C5744.09 491.632 6074.4 242.114 6481.93 477.348L12256.1 3811.24C12663.6 4046.48 12993.9 4677.64 12993.9 5220.86V17585.2C12993.9 18127.9 12663.6 18377.9 12256.1 18142.7Z" fill="#455A64"/>
<path d="M12921.2 3422.46L7146.57 88.5659C6972.49 -11.866 6812.69 -23.4716 6686.37 38.1267C6670.9 45.8714 6655.99 54.6707 6641.73 64.4622L5994.5 440.747C6124.84 362.634 6295.35 368.436 6482.38 476.457L12256.6 3810.35C12664.1 4045.59 12994.4 4676.75 12994.4 5219.97V17584.3C12994.4 17871.7 12902 18075.3 12754.7 18171.7L13393.4 17799.9C13556.4 17713.3 13661.3 17501.2 13661.3 17197.3V4832.97C13661.3 4288.85 13328.7 3657.7 12921.2 3422.46Z" fill="#37474F"/>
<path d="M12993.9 5219.97V17584.3C12993.9 17871.7 12901.5 18075.3 12754.2 18171.7L13393.4 17799.9C13556.4 17713.3 13661.3 17501.2 13661.3 17197.3V4832.97L12996.2 5219.08L12993.9 5219.97Z" fill="#263238"/>
<path d="M13659 5792.21L12993.9 6176.08V6476.04L13659 6091.72V5792.21Z" fill="#37474F"/>
<path d="M13367.6 7787.01C13308.2 7821.38 13260 7784.78 13260 7705.77V7060.78C13260.6 7020.46 13270.6 6980.84 13289.3 6945.1C13308 6909.37 13334.8 6878.51 13367.6 6855C13426.9 6820.63 13475.1 6855 13475.1 6936.24V7581.24C13474.5 7621.56 13464.5 7661.17 13445.8 7696.91C13427.1 7732.65 13400.3 7763.51 13367.6 7787.01Z" fill="#37474F"/>
<path d="M13259.5 7707.56V7060.78C13260.1 7020.46 13270.2 6980.84 13288.9 6945.11C13307.5 6909.37 13334.3 6878.51 13367.1 6855C13376.9 6848.16 13388.3 6843.98 13400.2 6842.88C13412.1 6841.79 13424.1 6843.81 13435 6848.76L13354.2 6807.24C13343.1 6801.93 13330.9 6799.62 13318.6 6800.56C13306.4 6801.5 13294.6 6805.65 13284.5 6812.6C13251.7 6836.11 13224.9 6866.96 13206.1 6902.69C13187.4 6938.41 13177.2 6978.03 13176.5 7018.37V7662.92C13174.8 7679.21 13177.3 7695.65 13183.7 7710.71C13190.1 7725.78 13200.2 7738.97 13213.1 7749.07L13297.5 7793.71C13284 7784.03 13273.4 7770.95 13266.8 7755.8C13260.1 7740.65 13257.6 7724 13259.5 7707.56Z" fill="#455A64"/>
<path d="M13367.6 9347.95C13308.2 9382.32 13260 9347.95 13260 9266.71V8621.71C13260.6 8581.4 13270.7 8541.8 13289.4 8506.07C13308 8470.34 13334.8 8439.47 13367.6 8415.94C13426.9 8381.57 13475.1 8415.94 13475.1 8497.62V9142.18C13474.6 9182.51 13464.6 9222.15 13445.9 9257.9C13427.2 9293.64 13400.4 9324.49 13367.6 9347.95Z" fill="#37474F"/>
<path d="M13259.5 9266.71V8621.71C13260.2 8581.4 13270.2 8541.79 13288.9 8506.06C13307.6 8470.33 13334.4 8439.47 13367.1 8415.94C13376.9 8409.21 13388.3 8405.11 13400.2 8404.01C13412.1 8402.92 13424 8404.87 13435 8409.69L13354.2 8367.73C13343.2 8362.18 13330.9 8359.74 13318.6 8360.69C13306.3 8361.63 13294.5 8365.92 13284.5 8373.09C13251.7 8396.52 13224.8 8427.35 13206 8463.1C13187.2 8498.84 13177.1 8538.5 13176.5 8578.86V9225.2C13174.8 9241.48 13177.2 9257.94 13183.7 9273.01C13190.1 9288.08 13200.2 9301.28 13213.1 9311.34L13297.5 9355.98C13283.5 9346.08 13272.5 9332.49 13265.8 9316.72C13259.1 9300.96 13257 9283.64 13259.5 9266.71Z" fill="#455A64"/>
<path d="M12054.3 4158.07L6380.16 880.861C6356.48 867.237 6329.65 860.043 6302.33 859.992C6275.01 859.942 6248.15 867.036 6224.42 880.571C6200.69 894.107 6180.91 913.613 6167.04 937.153C6153.18 960.694 6145.71 987.451 6145.38 1014.77V13399.2C6145.38 13812.5 6438.64 14320 6796.62 14526.7L12331.5 17724C12357.8 17739.1 12387.5 17747 12417.8 17747C12448.1 17747 12477.9 17739 12504.1 17723.8C12530.3 17708.7 12552.1 17686.9 12567.2 17660.7C12582.4 17634.5 12590.4 17604.7 12590.4 17574.4V5087.84C12592.7 4746.82 12350.7 4328.58 12054.3 4158.07Z" fill="#FF81AE"/>
<path opacity="0.9" d="M12054.3 4158.07L6380.16 880.861C6356.48 867.237 6329.65 860.043 6302.33 859.992C6275.01 859.942 6248.15 867.036 6224.42 880.571C6200.69 894.107 6180.91 913.613 6167.04 937.153C6153.18 960.694 6145.71 987.451 6145.38 1014.77V13399.2C6145.38 13812.5 6438.64 14320 6796.62 14526.7L12331.5 17724C12357.8 17739.1 12387.5 17747 12417.8 17747C12448.1 17747 12477.9 17739 12504.1 17723.8C12530.3 17708.7 12552.1 17686.9 12567.2 17660.7C12582.4 17634.5 12590.4 17604.7 12590.4 17574.4V5087.84C12592.7 4746.82 12350.7 4328.58 12054.3 4158.07Z" fill="white"/>
<path d="M8077.24 1736.54L8165.17 2106.58L10046.2 3191.24L10371.1 3018.06L8077.24 1736.54Z" fill="#455A64"/>
<path d="M8630.29 2094.08C8630.29 2155.68 8585.65 2180.23 8533.87 2149.88C8506.07 2131.42 8482.99 2106.71 8466.48 2077.71C8449.97 2048.72 8440.49 2016.26 8438.8 1982.94C8438.8 1921.78 8483.43 1896.79 8535.21 1927.59C8563 1945.95 8586.08 1970.58 8602.6 1999.5C8619.11 2028.42 8628.6 2060.82 8630.29 2094.08Z" fill="#263238"/>
<path d="M9897.52 2877.45C9887.22 2877.37 9877.11 2874.76 9868.05 2869.86L8907.48 2334.22C8893.92 2326.26 8884.01 2313.31 8879.86 2298.13C8875.72 2282.96 8877.68 2266.77 8885.31 2253.02C8892.94 2239.27 8905.65 2229.04 8920.72 2224.53C8935.79 2220.02 8952.02 2221.58 8965.95 2228.88L9926.98 2764.52C9938.66 2771.01 9947.85 2781.2 9953.11 2793.49C9958.36 2805.78 9959.38 2819.47 9956.01 2832.4C9952.64 2845.33 9945.06 2856.78 9934.47 2864.93C9923.88 2873.09 9910.88 2877.49 9897.52 2877.45Z" fill="#263238"/>
<path d="M7335.38 3458.17C7276.91 3424.25 7234.5 3453.71 7234.5 3528.25C7234.51 3565.53 7243.71 3602.23 7261.31 3635.09C7278.91 3667.95 7304.35 3695.95 7335.38 3716.61C7352 3726.7 7371.07 3732.04 7390.51 3732.04C7409.95 3732.04 7429.02 3726.7 7445.63 3716.61L7538.92 3885.34C7506.11 3903.45 7468.9 3912.08 7431.46 3910.27C7394.02 3908.45 7357.82 3896.27 7326.9 3875.07C7251.11 3828.7 7187.92 3764.37 7142.92 3687.76C7097.92 3611.15 7072.5 3524.63 7068.9 3435.85C7068.9 3270.25 7180.05 3212.67 7333.15 3301.94C7419.61 3357.62 7490.44 3434.44 7538.92 3525.12L7445.63 3599.22C7422.63 3542.92 7384.47 3494.09 7335.38 3458.17Z" fill="#FF81AE"/>
<path d="M8075.9 4017.47C8075.9 4184.41 7962.97 4240.65 7808.08 4151.38C7730.13 4104.79 7664.89 4039.67 7618.17 3961.8C7571.45 3883.92 7544.69 3795.72 7540.26 3705.01C7540.26 3538.07 7653.19 3481.83 7808.08 3571.1C7886.22 3617.48 7951.61 3682.55 7998.36 3760.46C8045.11 3838.38 8071.76 3926.7 8075.9 4017.47ZM7705.87 3804.55C7706.65 3842.88 7716.53 3880.47 7734.69 3914.22C7752.85 3947.98 7778.77 3976.94 7810.32 3998.72C7865.66 4030.86 7910.3 3998.72 7910.3 3922.84C7910.15 3885.38 7900.99 3848.5 7883.58 3815.33C7866.18 3782.15 7841.05 3753.66 7810.32 3732.24C7754.07 3699.66 7705.87 3727.33 7705.87 3804.55Z" fill="#FF81AE"/>
<path d="M8255.79 3840.26L8448.62 4241.99V3952.74L8594.58 4037.1V4599.97L8460.67 4522.3L8268.73 4124.14V4411.6L8121.88 4326.79V3762.59L8255.79 3840.26Z" fill="#FF81AE"/>
<path d="M9071.74 4311.17V4458.48L8932.47 4378.13V4794.14L8771.34 4700.85V4284.84L8632.96 4204.94V4058.09L9071.74 4311.17Z" fill="#FF81AE"/>
<path d="M9385.98 4976.25L9202.97 4870.47L9177.97 4935.63L9012.82 4840.11L9218.59 4395.98L9384.2 4491.5L9582.38 5169.08L9410.53 5069.99L9385.98 4976.25ZM9346.25 4820.03L9296.26 4627.64L9244.93 4761.55L9346.25 4820.03Z" fill="#FF81AE"/>
<path d="M9838.15 4903.05C9779.67 4869.58 9737.27 4898.59 9737.27 4973.58C9737.35 5010.84 9746.59 5047.51 9764.18 5080.36C9781.77 5113.21 9807.18 5141.23 9838.15 5161.94C9854.88 5171.93 9874.01 5177.2 9893.5 5177.2C9912.99 5177.2 9932.11 5171.93 9948.85 5161.94L10042.1 5330.67C10009.2 5348.57 9971.93 5357.08 9934.47 5355.27C9897 5353.46 9860.75 5341.4 9829.67 5320.4C9753.82 5273.99 9690.59 5209.59 9645.58 5132.89C9600.58 5056.2 9575.19 4969.59 9571.67 4880.73C9571.67 4715.13 9683.26 4657.55 9835.92 4746.82C9922.26 4802.77 9993.18 4879.51 10042.1 4970.01L9948.85 5043.66C9925.33 4987.65 9887.08 4939.06 9838.15 4903.05Z" fill="#FF81AE"/>
<path d="M10482.3 5125.79V5272.64L10343 5192.29V5609.64L10181.8 5516.35V5100.34L10043.5 5020.44V4873.59L10482.3 5125.79Z" fill="#FF81AE"/>
<path d="M10958.5 5816.76C10998.2 5839.52 11028.6 5821.67 11028.6 5765.87V5441.37L11190.2 5534.21V5858.72C11190.2 6008.25 11100.9 6052.89 10958.1 5971.2C10889.3 5932.99 10831.4 5877.74 10790.1 5810.76C10748.7 5743.78 10725.3 5667.31 10721.9 5588.67V5264.16L10883.5 5357.45V5681.96C10884.2 5708.82 10891.3 5735.14 10904.4 5758.62C10917.4 5782.11 10936 5802.06 10958.5 5816.76Z" fill="#FF81AE"/>
<path d="M11450.4 5818.54C11432.1 5808.28 11420.5 5807.83 11420.5 5824.79C11420.5 5895.32 11672.7 5997.09 11672.7 6201.08C11672.7 6326.06 11577.6 6326.51 11467.8 6263.12C11371.3 6203.98 11288.2 6125.39 11223.7 6032.35L11283.5 5927.01C11332.6 6003 11395.6 6069.03 11469.2 6121.62C11492.8 6135.46 11508 6135.46 11508 6115.38C11508 6042.17 11255.4 5944.86 11255.4 5747.12C11255.4 5634.64 11337.5 5613.21 11464.3 5684.63C11545.9 5734.03 11617.8 5798.03 11676.3 5873.45L11617.8 5981.47C11569.5 5919.95 11513.2 5865.16 11450.4 5818.54Z" fill="#FF81AE"/>
<path d="M6523.45 6231.88C6704.56 6009.44 6795.72 5727.2 6778.96 5440.84C6762.2 5154.49 6638.72 4884.81 6432.89 4685.03C6227.06 4485.24 5953.83 4369.85 5667.1 4361.62C5380.37 4353.39 5100.97 4452.93 4884.03 4640.58C4667.08 4828.24 4528.34 5090.39 4495.19 5375.31C4462.03 5660.23 4536.86 5947.24 4704.92 6179.69C4872.98 6412.15 5122.05 6573.19 5403.01 6631.02C5683.96 6688.85 5976.39 6639.29 6222.6 6492.11L6781.45 6734.93L6523.45 6231.88Z" fill="#FF81AE"/>
<path opacity="0.4" d="M6523.45 6231.88C6704.56 6009.44 6795.72 5727.2 6778.96 5440.84C6762.2 5154.49 6638.72 4884.81 6432.89 4685.03C6227.06 4485.24 5953.83 4369.85 5667.1 4361.62C5380.37 4353.39 5100.97 4452.93 4884.03 4640.58C4667.08 4828.24 4528.34 5090.39 4495.19 5375.31C4462.03 5660.23 4536.86 5947.24 4704.92 6179.69C4872.98 6412.15 5122.05 6573.19 5403.01 6631.02C5683.96 6688.85 5976.39 6639.29 6222.6 6492.11L6781.45 6734.93L6523.45 6231.88Z" fill="black"/>
<path d="M5209.35 5446.28C5209.35 5428.87 5196.85 5419.05 5174.09 5419.05C5121.28 5425.96 5071.97 5449.22 5033.04 5485.56L4969.65 5362.36C5036.37 5312.16 5116.97 5283.78 5200.42 5281.12C5307.55 5281.12 5388.79 5337.36 5388.79 5421.28C5388.79 5481.09 5344.15 5538.67 5287.02 5596.25L5207.12 5675.26H5395.93V5806.49H4990.19V5698.92L5170.96 5511.89C5190.43 5494.67 5203.88 5471.68 5209.35 5446.28Z" fill="white"/>
<path d="M5726.24 5288.71L5603.04 5584.2H5653.48V5484.66H5808.82V5584.2H5867.74V5706.06H5808.82V5806.49H5653.48V5706.06H5432.53V5595.36L5566.44 5288.71H5726.24Z" fill="white"/>
<path d="M6347.13 5548.94V5806.49H6181.08V5596.7C6182.04 5589.87 6181.52 5582.91 6179.56 5576.3C6177.6 5569.69 6174.24 5563.57 6169.72 5558.37C6165.19 5553.16 6159.6 5548.99 6153.32 5546.13C6147.04 5543.27 6140.22 5541.8 6133.32 5541.8C6100.74 5541.8 6080.21 5567.24 6080.21 5606.52V5806.49H5914.16V5259.25H6080.21V5460.56C6093.2 5440.03 6111.3 5423.23 6132.74 5411.8C6154.18 5400.38 6178.22 5394.72 6202.51 5395.39C6222.41 5394.88 6242.2 5398.57 6260.58 5406.23C6278.95 5413.89 6295.51 5425.34 6309.16 5439.83C6322.81 5454.32 6333.24 5471.53 6339.79 5490.33C6346.33 5509.13 6348.83 5529.11 6347.13 5548.94Z" fill="white"/>
<path d="M11761.5 9696.56V15242.6C11761.6 15305.4 11745.2 15367 11713.9 15421.4C11682.6 15475.7 11637.5 15520.9 11583.2 15552.3C11528.9 15583.7 11467.3 15600.2 11404.6 15600.3C11341.8 15600.3 11280.2 15583.8 11225.9 15552.4L8238.83 13827.7L7709.44 13522.3C7527.14 13416.9 7375.71 13265.5 7270.28 13083.3C7164.84 12901 7109.1 12694.2 7108.63 12483.7V6937.13C7108.54 6874.41 7124.97 6812.76 7156.27 6758.4C7187.58 6704.05 7232.65 6658.89 7286.95 6627.49C7341.25 6596.09 7402.86 6579.54 7465.59 6579.52C7528.32 6579.49 7589.94 6595.99 7644.27 6627.36L11161.6 8657.87C11344 8763.11 11495.4 8914.5 11600.7 9096.83C11706.1 9279.16 11761.5 9486 11761.5 9696.56Z" fill="#FF81AE"/>
<path opacity="0.5" d="M11761.5 9696.56V15242.6C11761.6 15305.4 11745.2 15367 11713.9 15421.4C11682.6 15475.7 11637.5 15520.9 11583.2 15552.3C11528.9 15583.7 11467.3 15600.2 11404.6 15600.3C11341.8 15600.3 11280.2 15583.8 11225.9 15552.4L8238.83 13827.7L7709.44 13522.3C7527.14 13416.9 7375.71 13265.5 7270.28 13083.3C7164.84 12901 7109.1 12694.2 7108.63 12483.7V6937.13C7108.54 6874.41 7124.97 6812.76 7156.27 6758.4C7187.58 6704.05 7232.65 6658.89 7286.95 6627.49C7341.25 6596.09 7402.86 6579.54 7465.59 6579.52C7528.32 6579.49 7589.94 6595.99 7644.27 6627.36L11161.6 8657.87C11344 8763.11 11495.4 8914.5 11600.7 9096.83C11706.1 9279.16 11761.5 9486 11761.5 9696.56Z" fill="white"/>
<path d="M10040.8 12978.2C10040.8 12978.2 10600.1 13905.8 10196.1 14951.6L8237.49 13827.7L10040.8 12978.2Z" fill="#263238"/>
<path d="M10932.7 8810.85C10975.1 8467.08 10730.7 8154.09 10387 8111.76C10043.2 8069.43 9730.2 8313.79 9687.87 8657.55C9645.54 9001.32 9889.9 9314.31 10233.7 9356.64C10577.4 9398.97 10890.4 9154.61 10932.7 8810.85Z" fill="#263238"/>
<path d="M10313.5 6975.08C10313.5 6975.08 10505.9 6662.62 10564.8 6685.39C10623.8 6708.15 10526.4 7005.87 10526.4 7005.87C10526.4 7005.87 10817.5 7066.58 10763.5 7139.78C10709.5 7212.99 10353.7 7195.58 10353.7 7195.58L10313.5 6975.08Z" fill="#263238"/>
<path d="M10447.4 7780.32C10313.5 8786.42 9465.43 8786.42 9465.43 8786.42L7688.9 8004.39C7688.9 8004.39 7555 7887 7513.93 7617.39C7498.17 7506.96 7498.17 7394.84 7513.93 7284.41C7513.93 7284.41 7513.93 7282.17 7513.93 7281.28C7570.62 6858.13 7887.09 6403.28 8576.28 6263.57C8727.31 6233.08 8881.06 6218.12 9035.14 6218.93C9109.68 6218.67 9184.18 6222.4 9258.32 6230.09C9793.96 6282.76 10169.4 6532.73 10348.3 6921.51C10388.6 7009.26 10418.6 7101.38 10437.6 7196.03C10473.9 7388.83 10477.3 7586.4 10447.4 7780.32Z" fill="#263238"/>
<path d="M6182.42 9726.46C6182.42 9726.46 5551.71 9704.59 5308.89 10319.2C5308.89 10319.2 5576.71 10500 5928 10319.2C6279.29 10138.5 6182.42 9726.46 6182.42 9726.46Z" fill="#FF81AE"/>
<path opacity="0.5" d="M6182.42 9726.46C6182.42 9726.46 5551.71 9704.59 5308.89 10319.2C5308.89 10319.2 5576.71 10500 5928 10319.2C6279.29 10138.5 6182.42 9726.46 6182.42 9726.46Z" fill="black"/>
<path d="M6164.57 10022.4C6164.57 10022.4 5986.02 9246.62 5891.84 9237.25C5797.66 9227.88 5779.36 9473.82 5786.95 9612.64L5563.76 9132.35C5556.68 9117.43 5546.62 9104.11 5534.2 9093.23C5521.77 9082.34 5507.25 9074.11 5491.53 9069.05C5475.8 9063.99 5459.21 9062.2 5442.77 9063.8C5426.33 9065.4 5410.39 9070.35 5395.93 9078.34C5172.75 9201.09 4781.29 9574.25 5606.61 10496.9L6164.57 10022.4Z" fill="#945959"/>
<path d="M8449.96 9485.87L8316.05 9468.47C8181.09 9450.57 8043.81 9468.93 7918.3 9521.64C7792.78 9574.36 7683.57 9659.53 7601.86 9768.42L6805.1 10829L6180.19 9726.46C6180.19 9726.46 6105.2 10476.4 5306.66 10319.2L6164.12 11762.3C6218.39 11853.7 6293.92 11930.6 6384.29 11986.5C6474.66 12042.4 6577.19 12075.6 6683.17 12083.4C6789.14 12091.1 6895.43 12073.2 6992.97 12031C7090.52 11988.9 7176.44 11923.8 7243.43 11841.3L7977.26 10939.2L8449.96 9485.87Z" fill="#FF81AE"/>
<path d="M10150.6 11961C9972.06 12413.6 9952.42 12502 10061.3 12728.3C10137.2 12895.4 10197 13069.4 10239.9 13247.8C10239.9 13247.8 9412.32 14175.4 8234.36 13828.1L7704.97 13522.8C7594.88 13459.3 7495.71 13378.5 7411.26 13283.5L7572.4 12081.9C7580.51 12018.7 7574.1 11954.4 7553.65 11894L7384.48 11398.1C7301.93 11155.9 7289.65 10895.2 7349.05 10646.3C7408.45 10397.4 7537.11 10170.4 7720.15 9991.61L8288.82 9435.88L9782.35 9626.93L10005.5 9690.76C10151.6 9733.01 10277.6 9826.57 10360.3 9954.25C10442.9 10081.9 10476.7 10235.1 10455.5 10385.7C10382.3 10912.5 10262.6 11676.6 10150.6 11961Z" fill="#FF81AE"/>
<path opacity="0.5" d="M10150.6 11961C9972.06 12413.6 9952.42 12502 10061.3 12728.3C10137.2 12895.4 10197 13069.4 10239.9 13247.8C10239.9 13247.8 9412.32 14175.4 8234.36 13828.1L7704.97 13522.8C7594.88 13459.3 7495.71 13378.5 7411.26 13283.5L7572.4 12081.9C7580.51 12018.7 7574.1 11954.4 7553.65 11894L7384.48 11398.1C7301.93 11155.9 7289.65 10895.2 7349.05 10646.3C7408.45 10397.4 7537.11 10170.4 7720.15 9991.61L8288.82 9435.88L9782.35 9626.93L10005.5 9690.76C10151.6 9733.01 10277.6 9826.57 10360.3 9954.25C10442.9 10081.9 10476.7 10235.1 10455.5 10385.7C10382.3 10912.5 10262.6 11676.6 10150.6 11961Z" fill="black"/>
<path d="M9249.84 10608.9L8950.78 10354.1C8919.1 10327 8880.91 10308.6 8839.97 10300.8C8799.03 10292.9 8756.76 10295.9 8717.33 10309.4L8355.77 10434L8307.12 10231.3C8299.53 10199.8 8285.63 10170.1 8266.26 10144.1C8246.89 10118.1 8222.45 10096.3 8194.42 10080C8166.39 10063.7 8135.35 10053.2 8103.16 10049.2C8070.98 10045.2 8038.32 10047.8 8007.16 10056.8L7850.49 10101.4L8115.63 9593.45C8202.2 9428.01 8335.55 9291.71 8499.06 9201.54L8603.06 9144.41L9462.31 9189.04C9462.31 9189.04 9782.35 9322.95 9782.35 9624.25L9249.84 10606.2" fill="#FF81AE"/>
<path d="M9465.88 9569.79L8604.4 10241.1V8103.48H9465.88V9569.79Z" fill="#945959"/>
<path d="M8617.79 9393.48L8355.77 10435.7L9462.31 9569.79L8617.79 9393.48Z" fill="#945959"/>
<path d="M8604.4 9238.59C8795.96 9167.46 8971.07 9058.14 9119.08 8917.26C9267.1 8776.38 9384.93 8606.88 9465.43 8419.06V8103.48H8603.95L8604.4 9238.59Z" fill="#703838"/>
<path d="M8790.08 6519.34C8463.35 6519.34 7768.8 6701.45 7688.46 7556.69C7608.11 8411.92 7685.78 9074.33 8126.79 9138.6C8567.8 9202.88 9592.65 8882.83 9730.13 7775.85C9867.61 6668.87 9108.34 6519.34 8790.08 6519.34Z" fill="#945959"/>
<path d="M8275.87 7918.69V8422.63L7980.38 8332.02L8275.87 7918.69Z" fill="#703838"/>
<path d="M8604.4 8108.39C8661.1 8108.39 8707.06 8062.43 8707.06 8005.73C8707.06 7949.03 8661.1 7903.07 8604.4 7903.07C8547.7 7903.07 8501.73 7949.03 8501.73 8005.73C8501.73 8062.43 8547.7 8108.39 8604.4 8108.39Z" fill="#263238"/>
<path d="M8031.26 7934.31C8031.18 7954.6 8025.08 7974.4 8013.75 7991.23C8002.41 8008.05 7986.35 8021.14 7967.58 8028.84C7948.81 8036.55 7928.19 8038.51 7908.3 8034.5C7888.41 8030.49 7870.16 8020.68 7855.85 8006.3C7841.54 7991.93 7831.8 7973.63 7827.88 7953.73C7823.95 7933.83 7826.01 7913.21 7833.8 7894.48C7841.58 7875.74 7854.74 7859.74 7871.61 7848.47C7888.48 7837.21 7908.32 7831.2 7928.6 7831.2C7942.12 7831.2 7955.51 7833.87 7967.99 7839.06C7980.48 7844.25 7991.81 7851.85 8001.35 7861.43C8010.89 7871.01 8018.45 7882.38 8023.58 7894.89C8028.71 7907.4 8031.32 7920.79 8031.26 7934.31Z" fill="#263238"/>
<path d="M7803.17 7720.06L8004.04 7600.88C8004.04 7600.88 7927.26 7520.98 7850.49 7568.74C7773.71 7616.5 7803.17 7720.06 7803.17 7720.06Z" fill="#263238"/>
<path d="M8137.05 8627.07C8234.87 8634.21 8332.23 8608.1 8413.35 8552.97C8413.35 8552.97 8432.55 8698.93 8310.24 8726.61C8187.94 8754.28 8137.05 8627.07 8137.05 8627.07Z" fill="#703838"/>
<path d="M7961.63 6810.36C7961.63 6810.36 8084.38 7991 9689.96 8028.05C9689.96 8028.05 10175.2 6854.56 9216.36 6473.36C8257.57 6092.16 7961.63 6810.36 7961.63 6810.36Z" fill="#263238"/>
<path d="M10162.7 7851.29L9965.36 7737.02C9890.37 7692.38 9786.82 7698.63 9672.1 7764.69C9444.45 7895.93 9259.66 8215.97 9259.66 8478.88C9259.66 8610.56 9304.3 8702.06 9381.07 8746.7L9574.79 8858.29L9585.95 8864.54L9592.65 8868.55C9665.85 8904.26 9763.6 8895.78 9871.18 8833.74C10098.8 8699.83 10283.6 8382.46 10283.6 8119.55C10282.3 7986.54 10236.3 7894.59 10162.7 7851.29Z" fill="#FF81AE"/>
<path d="M10161.1 8523.61C10322.1 8244.78 10322.1 7943.41 10161.1 7850.48C10000.1 7757.54 9739.14 7908.23 9578.16 8187.05C9417.18 8465.87 9417.18 8767.24 9578.15 8860.18C9739.12 8953.12 10000.1 8802.43 10161.1 8523.61Z" fill="#FF81AE"/>
<path opacity="0.5" d="M10161.1 8523.61C10322.1 8244.78 10322.1 7943.41 10161.1 7850.48C10000.1 7757.54 9739.14 7908.23 9578.16 8187.05C9417.18 8465.87 9417.18 8767.24 9578.15 8860.18C9739.12 8953.12 10000.1 8802.43 10161.1 8523.61Z" fill="black"/>
<path d="M10241.7 8099.02L10107.8 8020.91C10056.9 7990.55 9985.9 7994.57 9907.34 8039.65C9825.27 8093.28 9756.97 8165.47 9707.97 8250.38C9658.96 8335.29 9630.62 8430.53 9625.23 8528.42C9625.23 8617.69 9656.93 8681.52 9708.26 8710.98L9842.17 8787.31C9844.54 8789.05 9847.08 8790.54 9849.75 8791.78L9854.22 8794.45C9885.61 8806.36 9919.43 8810.39 9952.74 8806.19C9986.05 8801.98 10017.8 8789.68 10045.3 8770.35C10127.3 8716.76 10195.5 8644.65 10244.5 8559.82C10293.5 8475 10321.9 8379.84 10327.4 8282.03C10323.8 8191.42 10292.5 8128.48 10241.7 8099.02Z" fill="#FF81AE"/>
<path d="M10323.8 8281.14C10318.3 8378.95 10290 8474.1 10241 8558.93C10192 8643.75 10123.7 8715.87 10041.7 8769.46C9885.46 8858.73 9759.14 8786.42 9759.14 8606.54C9764.43 8508.64 9792.79 8413.37 9841.89 8328.51C9890.99 8243.65 9959.45 8171.59 10041.7 8118.21C10197.5 8028.05 10323.8 8100.8 10323.8 8281.14Z" fill="#FF81AE"/>
<path opacity="0.3" d="M10323.8 8281.14C10318.3 8378.95 10290 8474.1 10241 8558.93C10192 8643.75 10123.7 8715.87 10041.7 8769.46C9885.46 8858.73 9759.14 8786.42 9759.14 8606.54C9764.43 8508.64 9792.79 8413.37 9841.89 8328.51C9890.99 8243.65 9959.45 8171.59 10041.7 8118.21C10197.5 8028.05 10323.8 8100.8 10323.8 8281.14Z" fill="black"/>
<path d="M9549.8 6289.01C9421.83 6190.17 9265.11 6135.79 9103.43 6134.12H9063.71C8899.99 6132.36 8736.51 6147.32 8575.83 6178.76C8605.29 6178.76 8634.75 6178.76 8665.1 6178.76H8575.83V6261.78H8658.85C8944.99 6271.52 9216.12 6392.13 9414.95 6598.12C9613.78 6804.11 9724.72 7079.35 9724.32 7365.64V7716.93C9724.31 7730.82 9727.22 7744.55 9732.86 7757.24C9738.49 7769.93 9746.73 7781.3 9757.05 7790.6C9767.36 7799.9 9779.51 7806.93 9792.71 7811.23C9805.91 7815.54 9819.87 7817.02 9833.68 7815.58H9843.95L9933.22 7787.9C9927.28 7789.78 9921.14 7790.98 9914.92 7791.47C9941.54 7787.86 9965.89 7774.58 9983.34 7754.17C10000.8 7733.75 10010.1 7707.63 10009.6 7680.78V7354.93C10008.7 6765.28 9753.79 6448.36 9549.8 6289.01Z" fill="#FF81AE"/>
<path d="M8987.82 9114.05C8951.01 9114.05 8914.63 9106.14 8881.14 9090.84L8602.17 8961.84C8597.8 8960.28 8593.81 8957.83 8590.44 8954.65C8587.07 8951.47 8584.4 8947.62 8582.6 8943.35C8580.79 8939.08 8579.89 8934.49 8579.96 8929.85C8580.02 8925.22 8581.05 8920.65 8582.97 8916.43C8584.89 8912.21 8587.67 8908.44 8591.13 8905.35C8594.58 8902.27 8598.64 8899.93 8603.05 8898.49C8607.45 8897.05 8612.11 8896.55 8616.72 8897C8621.33 8897.46 8625.8 8898.87 8629.84 8901.14L8908.82 9030.14C8944.4 9046.68 8984.25 9051.7 9022.82 9044.5C9061.4 9037.3 9096.76 9018.23 9123.97 8989.96L9391.78 8713.22C9398.06 8706.95 9406.57 8703.43 9415.44 8703.43C9424.31 8703.43 9432.82 8706.95 9439.1 8713.22C9445.26 8719.55 9448.71 8728.04 9448.71 8736.87C9448.71 8745.71 9445.26 8754.2 9439.1 8760.53L9171.28 9037.28C9147.44 9061.76 9118.9 9081.18 9087.38 9094.37C9055.86 9107.56 9022 9114.25 8987.82 9114.05Z" fill="#FF81AE"/>
<path opacity="0.5" d="M8987.82 9114.05C8951.01 9114.05 8914.63 9106.14 8881.14 9090.84L8602.17 8961.84C8597.8 8960.28 8593.81 8957.83 8590.44 8954.65C8587.07 8951.47 8584.4 8947.62 8582.6 8943.35C8580.79 8939.08 8579.89 8934.49 8579.96 8929.85C8580.02 8925.22 8581.05 8920.65 8582.97 8916.43C8584.89 8912.21 8587.67 8908.44 8591.13 8905.35C8594.58 8902.27 8598.64 8899.93 8603.05 8898.49C8607.45 8897.05 8612.11 8896.55 8616.72 8897C8621.33 8897.46 8625.8 8898.87 8629.84 8901.14L8908.82 9030.14C8944.4 9046.68 8984.25 9051.7 9022.82 9044.5C9061.4 9037.3 9096.76 9018.23 9123.97 8989.96L9391.78 8713.22C9398.06 8706.95 9406.57 8703.43 9415.44 8703.43C9424.31 8703.43 9432.82 8706.95 9439.1 8713.22C9445.26 8719.55 9448.71 8728.04 9448.71 8736.87C9448.71 8745.71 9445.26 8754.2 9439.1 8760.53L9171.28 9037.28C9147.44 9061.76 9118.9 9081.18 9087.38 9094.37C9055.86 9107.56 9022 9114.25 8987.82 9114.05Z" fill="black"/>
<path d="M8675.37 8868.1C8675.37 8893.88 8667.72 8919.08 8653.4 8940.52C8639.08 8961.95 8618.73 8978.66 8594.91 8988.52C8571.09 8998.39 8544.89 9000.97 8519.6 8995.94C8494.32 8990.91 8471.1 8978.5 8452.87 8960.27C8434.64 8942.04 8422.23 8918.81 8417.2 8893.53C8412.17 8868.25 8414.75 8842.04 8424.61 8818.23C8434.48 8794.41 8451.18 8774.05 8472.62 8759.73C8494.05 8745.41 8519.25 8737.77 8545.03 8737.77C8579.6 8737.77 8612.75 8751.5 8637.19 8775.94C8661.64 8800.38 8675.37 8833.54 8675.37 8868.1Z" fill="#FF81AE"/>
<path opacity="0.5" d="M8675.37 8868.1C8675.37 8893.88 8667.72 8919.08 8653.4 8940.52C8639.08 8961.95 8618.73 8978.66 8594.91 8988.52C8571.09 8998.39 8544.89 9000.97 8519.6 8995.94C8494.32 8990.91 8471.1 8978.5 8452.87 8960.27C8434.64 8942.04 8422.23 8918.81 8417.2 8893.53C8412.17 8868.25 8414.75 8842.04 8424.61 8818.23C8434.48 8794.41 8451.18 8774.05 8472.62 8759.73C8494.05 8745.41 8519.25 8737.77 8545.03 8737.77C8579.6 8737.77 8612.75 8751.5 8637.19 8775.94C8661.64 8800.38 8675.37 8833.54 8675.37 8868.1Z" fill="black"/>
<path d="M10008.7 7354.93V7680.78C10009.2 7707.63 9999.9 7733.75 9982.45 7754.17C9965 7774.58 9940.64 7787.86 9914.03 7791.47C9899.33 7793.04 9884.46 7791.49 9870.39 7786.93C9856.32 7782.38 9843.37 7774.91 9832.38 7765.01C9821.39 7755.12 9812.61 7743.02 9806.61 7729.51C9800.6 7715.99 9797.51 7701.37 9797.53 7686.58V7354.93C9797.78 7196.65 9766.01 7039.95 9704.12 6894.27C9642.24 6748.58 9551.52 6616.92 9437.43 6507.21C9323.34 6397.5 9188.24 6312 9040.24 6255.86C8892.25 6199.72 8734.43 6174.1 8576.28 6180.55C8736.96 6149.1 8900.43 6134.15 9064.15 6135.91H9102.99C9264.67 6137.58 9421.39 6191.96 9549.35 6290.8C9753.79 6448.36 10008.7 6765.28 10008.7 7354.93Z" fill="#FF81AE"/>
<path opacity="0.5" d="M10008.7 7354.93V7680.78C10009.2 7707.63 9999.9 7733.75 9982.45 7754.17C9965 7774.58 9940.64 7787.86 9914.03 7791.47C9899.33 7793.04 9884.46 7791.49 9870.39 7786.93C9856.32 7782.38 9843.37 7774.91 9832.38 7765.01C9821.39 7755.12 9812.61 7743.02 9806.61 7729.51C9800.6 7715.99 9797.51 7701.37 9797.53 7686.58V7354.93C9797.78 7196.65 9766.01 7039.95 9704.12 6894.27C9642.24 6748.58 9551.52 6616.92 9437.43 6507.21C9323.34 6397.5 9188.24 6312 9040.24 6255.86C8892.25 6199.72 8734.43 6174.1 8576.28 6180.55C8736.96 6149.1 8900.43 6134.15 9064.15 6135.91H9102.99C9264.67 6137.58 9421.39 6191.96 9549.35 6290.8C9753.79 6448.36 10008.7 6765.28 10008.7 7354.93Z" fill="black"/>
<path d="M9506.95 13495.6C9506.95 13495.6 9290.91 14090.6 10063.1 14358.4C10063.1 14358.4 10315.3 13987.9 10063.1 13684.8C9810.92 13381.7 9506.95 13495.6 9506.95 13495.6Z" fill="#FF81AE"/>
<path opacity="0.7" d="M9506.95 13495.6C9506.95 13495.6 9290.91 14090.6 10063.1 14358.4C10063.1 14358.4 10315.3 13987.9 10063.1 13684.8C9810.92 13381.7 9506.95 13495.6 9506.95 13495.6Z" fill="black"/>
<path d="M9777.89 13522.8C9777.89 13522.8 9023.53 13799.1 9027.55 13906.2C9031.57 14013.3 9348.04 13940.1 9348.04 13940.1L9232.43 14016C9110.69 14095.5 9016.39 14210.5 8962.38 14345.4C8950.61 14375.2 8950.2 14408.3 8961.23 14438.3C8972.26 14468.4 8993.96 14493.3 9022.19 14508.4L9308.76 14660.1C9324.94 14668.7 9342.68 14674 9360.93 14675.6C9379.18 14677.2 9397.56 14675.1 9415 14669.5C9432.44 14663.9 9448.57 14654.8 9462.45 14642.9C9476.32 14630.9 9487.66 14616.3 9495.79 14599.9C9511.76 14568.3 9533.83 14540.2 9560.73 14517.2C9587.62 14494.3 9618.8 14476.8 9652.46 14466C9808.24 14414.2 10098.8 14265.1 10215.3 13857.1L9777.89 13522.8Z" fill="#945959"/>
<path d="M10004.2 9689.86C10004.2 9689.86 9602.47 9913.05 9815.83 10590.6C10029.2 11268.2 10429.6 12319.4 10429.6 12319.4L9506.95 13495.6C9605.52 13507.5 9700.47 13540 9785.61 13591.1C9870.76 13642.1 9944.17 13710.6 10001.1 13792C10055.6 13874.7 10089.6 13969.2 10100.4 14067.7C10111.2 14166.2 10098.4 14265.8 10063.1 14358.4L11208.5 12885.4C11314.4 12749.3 11384.7 12588.9 11413.1 12418.8C11441.5 12248.6 11427 12074.1 11371 11911L10880 10477.2C10819.9 10302.1 10720.2 10143.2 10588.6 10013.1C10456.9 9882.9 10296.9 9784.96 10121.1 9726.91L10004.2 9689.86Z" fill="#FF81AE"/>
<path d="M3223.03 5687.31L1447.84 4660.68C1427.41 4646.52 1403.77 4637.67 1379.07 4634.95C1354.36 4632.22 1329.37 4635.69 1306.34 4645.05C1301.49 4647.29 1296.85 4649.98 1292.5 4653.09L906.398 4879.39H909.076C860.422 4907.07 829.623 4971.35 829.623 5063.3V7038.01C829.623 7204.95 930.948 7399.12 1056.38 7471.43L2831.57 8498.07C2854.09 8514.36 2880.9 8523.68 2908.68 8524.87C2936.45 8526.06 2963.96 8519.07 2987.79 8504.77C2986.59 8505.25 2985.52 8506.01 2984.67 8507L3368.1 8283.82C3418.09 8257.03 3449.78 8191.86 3449.78 8098.57V6120.73C3449.78 5953.79 3350.24 5759.63 3223.03 5687.31Z" fill="#FF81AE"/>
<path d="M3386.4 5874.34C3350.48 5797.96 3293.89 5733.17 3223.03 5687.31L1447.84 4660.68C1427.41 4646.52 1403.77 4637.67 1379.07 4634.95C1354.36 4632.22 1329.37 4635.69 1306.34 4645.05C1301.49 4647.29 1296.85 4649.98 1292.5 4653.09L906.397 4879.39C930.016 4867.32 956.499 4861.98 982.951 4863.95C1009.4 4865.91 1034.8 4875.12 1056.38 4890.55L2831.57 5917.19C2904.84 5965.1 2962.91 6032.92 2998.95 6112.7L3386.4 5874.34Z" fill="#FF81AE"/>
<path d="M3058.32 8324.43C3058.32 8413.71 3029.75 8475.75 2984.67 8502.98L3368.1 8279.8C3418.09 8253.02 3449.78 8187.85 3449.78 8094.56V6120.73C3447.89 6034.82 3426.2 5950.5 3386.4 5874.34L2998.95 6112.7C3036.15 6186.61 3056.43 6267.88 3058.32 6350.61V8324.43Z" fill="#FF81AE"/>
<path opacity="0.3" d="M3386.4 5874.34C3350.48 5797.96 3293.89 5733.17 3223.03 5687.31L1447.84 4660.68C1427.41 4646.52 1403.77 4637.67 1379.07 4634.95C1354.36 4632.22 1329.37 4635.69 1306.34 4645.05C1301.49 4647.29 1296.85 4649.98 1292.5 4653.09L906.397 4879.39C930.016 4867.32 956.499 4861.98 982.951 4863.95C1009.4 4865.91 1034.8 4875.12 1056.38 4890.55L2831.57 5917.19C2904.84 5965.1 2962.91 6032.92 2998.95 6112.7L3386.4 5874.34Z" fill="black"/>
<path opacity="0.6" d="M3058.32 8324.43C3058.32 8413.71 3029.75 8475.75 2984.67 8502.98L3368.1 8279.8C3418.09 8253.02 3449.78 8187.85 3449.78 8094.56V6120.73C3447.89 6034.82 3426.2 5950.5 3386.4 5874.34L2998.95 6112.7C3036.15 6186.61 3056.43 6267.88 3058.32 6350.61V8324.43Z" fill="black"/>
<path d="M2537.86 6916.16C2537.86 7171.92 2436.53 7258.96 2284.77 7171.03C2242.9 7147.19 2206.3 7115.13 2177.15 7076.78C2148 7038.42 2126.91 6994.57 2115.15 6947.85C2070.52 7002.75 2001.33 7006.32 1904.02 6950.08C1744.22 6857.68 1618.35 6637.62 1618.35 6423.82C1618.35 6210.01 1742.88 6136.36 1904.02 6229.2C1985.79 6277.39 2051.84 6348.24 2094.17 6433.19V6348.83L2262.45 6446.13V6908.57C2259.95 6932.9 2264.15 6957.46 2274.62 6979.57C2285.09 7001.68 2301.41 7020.51 2321.82 7034C2378.51 7067.03 2413.32 7011.23 2413.32 6845.63C2413.32 6555.94 2227.64 6248.84 1953.12 6090.38C1678.61 5931.92 1493.37 6042.17 1493.37 6340.35C1496.96 6498.56 1540.56 6653.29 1620.09 6790.12C1699.63 6926.94 1812.51 7041.4 1948.21 7122.82C2021.9 7168.21 2105.57 7194.88 2191.93 7200.49L2231.65 7354.48C2131.1 7346.37 2033.93 7314.39 1948.21 7261.19C1591.12 7054.53 1354.99 6638.52 1354.99 6261.79C1354.99 5885.05 1593.35 5748.47 1953.12 5956.47C2300.84 6156.89 2537.86 6558.17 2537.86 6916.16ZM2096.85 6701.45C2097.72 6644.85 2083.91 6588.99 2056.76 6539.32C2029.62 6489.65 1990.07 6447.85 1941.96 6418.01C1852.69 6365.79 1788.86 6402.39 1788.86 6523.8C1787.71 6580.49 1801.2 6636.53 1828.02 6686.49C1854.83 6736.45 1894.08 6778.65 1941.96 6809.03C2031.24 6859.47 2096.85 6826.88 2096.85 6701.45Z" fill="#FF81AE"/>
<g opacity="0.9">
<path d="M2537.86 6916.16C2537.86 7171.92 2436.53 7258.96 2284.77 7171.03C2242.9 7147.19 2206.3 7115.13 2177.15 7076.78C2148 7038.42 2126.91 6994.57 2115.15 6947.85C2070.52 7002.75 2001.33 7006.32 1904.02 6950.08C1744.22 6857.68 1618.35 6637.62 1618.35 6423.82C1618.35 6210.01 1742.88 6136.36 1904.02 6229.2C1985.79 6277.39 2051.84 6348.24 2094.17 6433.19V6348.83L2262.45 6446.13V6908.57C2259.95 6932.9 2264.15 6957.46 2274.62 6979.57C2285.09 7001.68 2301.41 7020.51 2321.82 7034C2378.51 7067.03 2413.32 7011.23 2413.32 6845.63C2413.32 6555.94 2227.64 6248.84 1953.12 6090.38C1678.61 5931.92 1493.37 6042.17 1493.37 6340.35C1496.96 6498.56 1540.56 6653.29 1620.09 6790.12C1699.63 6926.94 1812.51 7041.4 1948.21 7122.82C2021.9 7168.21 2105.57 7194.88 2191.93 7200.49L2231.65 7354.48C2131.1 7346.37 2033.93 7314.39 1948.21 7261.19C1591.12 7054.53 1354.99 6638.52 1354.99 6261.79C1354.99 5885.05 1593.35 5748.47 1953.12 5956.47C2300.84 6156.89 2537.86 6558.17 2537.86 6916.16ZM2096.85 6701.45C2097.72 6644.85 2083.91 6588.99 2056.76 6539.32C2029.62 6489.65 1990.07 6447.85 1941.96 6418.01C1852.69 6365.79 1788.86 6402.39 1788.86 6523.8C1787.71 6580.49 1801.2 6636.53 1828.02 6686.49C1854.83 6736.45 1894.08 6778.65 1941.96 6809.03C2031.24 6859.47 2096.85 6826.88 2096.85 6701.45Z" fill="white"/>
</g>
<path d="M3223.03 9203.77L1447.84 8177.14C1427.44 8162.9 1403.77 8154.04 1379.04 8151.39C1354.3 8148.74 1329.3 8152.37 1306.34 8161.96C1301.49 8164.2 1296.85 8166.89 1292.5 8169.99L906.398 8396.3H909.076C860.422 8423.98 829.623 8488.25 829.623 8579.76V10553.6C829.623 10721 930.948 10914.7 1056.38 10987L2831.57 12013.6C2854.04 12030 2880.87 12039.4 2908.67 12040.6C2936.47 12041.8 2964 12034.8 2987.79 12020.3L2984.67 12023L3368.1 11797.6C3418.09 11771.3 3449.78 11708.3 3449.78 11612.4V9636.75C3449.78 9469.81 3350.24 9276.09 3223.03 9203.77Z" fill="#FF81AE"/>
<path d="M3386.4 9390.8C3350.61 9314.34 3293.98 9249.52 3223.03 9203.77L1447.84 8177.14C1427.44 8162.9 1403.77 8154.04 1379.04 8151.39C1354.3 8148.74 1329.3 8152.37 1306.34 8161.96C1301.49 8164.2 1296.85 8166.89 1292.5 8169.99L906.397 8396.3C929.962 8384.12 956.432 8378.67 982.894 8380.56C1009.36 8382.45 1034.78 8391.6 1056.38 8407.01L2831.57 9433.65C2904.95 9481.62 2963.04 9549.63 2998.95 9629.61L3386.4 9390.8Z" fill="#FF81AE"/>
<path d="M3058.32 11840.4C3058.32 11929.7 3029.75 11991.8 2984.67 12021.2L3368.1 11795.8C3418.09 11769.5 3449.78 11706.5 3449.78 11610.6V9636.75C3447.89 9550.98 3426.2 9466.8 3386.4 9390.8L2998.95 9629.16C3036.15 9702.92 3056.43 9784.04 3058.32 9866.62V11840.4Z" fill="#FF81AE"/>
<path opacity="0.3" d="M3386.4 9390.8C3350.61 9314.34 3293.98 9249.52 3223.03 9203.77L1447.84 8177.14C1427.44 8162.9 1403.77 8154.04 1379.04 8151.39C1354.3 8148.74 1329.3 8152.37 1306.34 8161.96C1301.49 8164.2 1296.85 8166.89 1292.5 8169.99L906.397 8396.3C929.962 8384.12 956.432 8378.67 982.894 8380.56C1009.36 8382.45 1034.78 8391.6 1056.38 8407.01L2831.57 9433.65C2904.95 9481.62 2963.04 9549.63 2998.95 9629.61L3386.4 9390.8Z" fill="black"/>
<path opacity="0.6" d="M3058.32 11840.4C3058.32 11929.7 3029.75 11991.8 2984.67 12021.2L3368.1 11795.8C3418.09 11769.5 3449.78 11706.5 3449.78 11610.6V9636.75C3447.89 9550.98 3426.2 9466.8 3386.4 9390.8L2998.95 9629.16C3036.15 9702.92 3056.43 9784.04 3058.32 9866.62V11840.4Z" fill="black"/>
<path d="M1745.56 10086.2L1317.5 9390.8V10333.1L1745.56 10086.2Z" fill="#FF81AE"/>
<path d="M2143.27 10286.7L2570.44 11026.3V10085.3L2143.27 10286.7Z" fill="#FF81AE"/>
<path d="M1382.22 9359.11L1821.89 10073.3C1823.75 10074.9 1825.4 10076.7 1826.8 10078.6C1827.19 10080.4 1827.19 10082.2 1826.8 10084L1957.59 10296.5L2068.28 10244.2C2070.01 10242.4 2071.96 10240.7 2074.09 10239.3C2078.45 10236.8 2083.33 10235.3 2088.37 10234.9L2534.73 10025.5L1382.22 9359.11Z" fill="#FF81AE"/>
<path d="M2078.55 10317L1958.92 10373.2C1954.32 10375.4 1949.28 10376.5 1944.19 10376.4C1938.03 10376.4 1931.96 10374.9 1926.56 10371.9C1921.17 10369 1916.63 10364.7 1913.4 10359.4L1782.61 10146.9L1353.21 10395.1L2508.85 11062L2078.55 10317Z" fill="#FF81AE"/>
<g opacity="0.9">
<path d="M1745.56 10086.2L1317.5 9390.8V10333.1L1745.56 10086.2Z" fill="white"/>
<path d="M2143.27 10286.7L2570.44 11026.3V10085.3L2143.27 10286.7Z" fill="white"/>
<path d="M1382.22 9359.11L1821.89 10073.3C1823.75 10074.9 1825.4 10076.7 1826.8 10078.6C1827.19 10080.4 1827.19 10082.2 1826.8 10084L1957.59 10296.5L2068.28 10244.2C2070.01 10242.4 2071.96 10240.7 2074.09 10239.3C2078.45 10236.8 2083.33 10235.3 2088.37 10234.9L2534.73 10025.5L1382.22 9359.11Z" fill="white"/>
<path d="M2078.55 10317L1958.92 10373.2C1954.32 10375.4 1949.28 10376.5 1944.19 10376.4C1938.03 10376.4 1931.96 10374.9 1926.56 10371.9C1921.17 10369 1916.63 10364.7 1913.4 10359.4L1782.61 10146.9L1353.21 10395.1L2508.85 11062L2078.55 10317Z" fill="white"/>
</g>
<path d="M3223.03 2172.64L1447.84 1146C1427.44 1131.77 1403.77 1122.91 1379.04 1120.26C1354.3 1117.6 1329.3 1121.24 1306.34 1130.83C1301.49 1133.07 1296.85 1135.76 1292.5 1138.86L906.398 1365.17H909.076C860.422 1392.4 829.623 1457.12 829.623 1548.62V3522.45C829.623 3689.39 930.948 3883.56 1056.38 3955.87L2831.57 4982.5C2854.04 4998.91 2880.87 5008.29 2908.67 5009.48C2936.47 5010.67 2964 5003.62 2987.79 4989.2L2984.67 4991.43L3368.1 4768.25C3418.09 4741.91 3449.78 4678.98 3449.78 4583.01V2604.28C3449.78 2437.34 3350.24 2243.17 3223.03 2172.64Z" fill="#FF81AE"/>
<path d="M3386.4 2358.33C3350.61 2281.75 3294 2216.78 3223.03 2170.86L1447.84 1146C1427.44 1131.77 1403.77 1122.91 1379.04 1120.26C1354.3 1117.6 1329.3 1121.24 1306.34 1130.83C1301.49 1133.07 1296.85 1135.76 1292.5 1138.86L906.397 1365.17C929.962 1352.98 956.432 1347.54 982.894 1349.43C1009.36 1351.32 1034.78 1360.47 1056.38 1375.88L2831.57 2402.52C2904.95 2450.49 2963.04 2518.49 2998.95 2598.47L3386.4 2358.33Z" fill="#FF81AE"/>
<path d="M3058.32 4806.19C3058.32 4895.46 3029.75 4957.51 2984.67 4984.74L3368.1 4761.55C3418.09 4735.22 3449.78 4672.28 3449.78 4576.31V2604.27C3447.89 2518.5 3426.2 2434.33 3386.4 2358.33L2998.95 2596.69C3036.15 2670.45 3056.43 2751.57 3058.32 2834.15V4806.19Z" fill="#FF81AE"/>
<path opacity="0.3" d="M3386.4 2358.33C3350.61 2281.75 3294 2216.78 3223.03 2170.86L1447.84 1146C1427.44 1131.77 1403.77 1122.91 1379.04 1120.26C1354.3 1117.6 1329.3 1121.24 1306.34 1130.83C1301.49 1133.07 1296.85 1135.76 1292.5 1138.86L906.397 1365.17C929.962 1352.98 956.432 1347.54 982.894 1349.43C1009.36 1351.32 1034.78 1360.47 1056.38 1375.88L2831.57 2402.52C2904.95 2450.49 2963.04 2518.49 2998.95 2598.47L3386.4 2358.33Z" fill="black"/>
<path opacity="0.6" d="M3058.32 4806.19C3058.32 4895.46 3029.75 4957.51 2984.67 4984.74L3368.1 4761.55C3418.09 4735.22 3449.78 4672.28 3449.78 4576.31V2604.27C3447.89 2518.5 3426.2 2434.33 3386.4 2358.33L2998.95 2596.69C3036.15 2670.45 3056.43 2751.57 3058.32 2834.15V4806.19Z" fill="black"/>
<path d="M2477.6 3958.1C2409.31 3845.61 2340.57 3734.92 2272.27 3621.54C2261.44 3600.06 2246.3 3581.05 2227.79 3565.69C2209.28 3550.33 2187.8 3538.95 2164.7 3532.27C2131.67 3525.57 2098.64 3517.98 2064.71 3508.16C2052.63 3503.12 2042.47 3494.37 2035.7 3483.17C1923.95 3291.9 1835.1 3088.15 1771.01 2876.11C1769.64 2871.58 1769.26 2866.81 1769.87 2862.11C1770.49 2857.42 1772.09 2852.91 1774.58 2848.88C1795.56 2827.9 1819.21 2808.71 1840.64 2789.96C1862.06 2771.21 1873.22 2727.92 1857.6 2671.68C1824.57 2552.5 1792.88 2433.32 1759.85 2314.58C1753.45 2280.85 1738.29 2249.39 1715.88 2223.38C1693.47 2197.36 1664.6 2177.71 1632.19 2166.39C1560.2 2146.38 1483.79 2149.19 1413.47 2174.43C1386.24 2184.69 1371.96 2209.24 1371.51 2251.65C1383.11 2333.33 1390.7 2414.12 1406.33 2497.15C1516.43 3095.87 1781.27 3646.39 2200.85 4148.69C2211.81 4165.35 2226.52 4179.2 2243.81 4189.13C2261.1 4199.05 2280.49 4204.77 2300.39 4205.83C2369.86 4204.18 2436.6 4178.46 2489.21 4133.07C2528.93 4097.36 2524.91 4033.98 2477.6 3958.1Z" fill="#FF81AE"/>
<path d="M2472.24 3349.7C2462.91 3221.31 2427.52 3096.17 2368.24 2981.9C2323.98 2892.63 2267.66 2809.87 2200.85 2735.95C2183.45 2716.31 2168.72 2710.06 2159.79 2724.79C2150.86 2739.52 2159.79 2760.5 2176.75 2779.7L2194.16 2799.78C2317.53 2942.2 2395.29 3118.39 2417.34 3305.51C2417.12 3319.16 2418.47 3332.79 2421.36 3346.13C2426.96 3361.48 2435.97 3375.37 2447.69 3386.75C2457.07 3393.45 2467.78 3386.75 2475.37 3386.75C2472.69 3368.45 2473.14 3359.08 2472.24 3349.7Z" fill="#FF81AE"/>
<path d="M2067.84 2983.24C2123.89 3044.89 2157.95 3123.37 2164.7 3206.42C2167.64 3219.05 2172.29 3231.21 2178.54 3242.58C2205.76 3264.9 2219.16 3257.31 2219.16 3229.19C2209.61 3122.7 2165.57 3022.24 2093.73 2943.07C2076.76 2925.66 2062.93 2920.3 2054.89 2935.03C2052 2943.44 2051.69 2952.53 2054 2961.12C2056.3 2969.7 2061.12 2977.41 2067.84 2983.24Z" fill="#FF81AE"/>
<g opacity="0.9">
<path d="M2477.6 3958.1C2409.31 3845.61 2340.57 3734.92 2272.27 3621.54C2261.44 3600.06 2246.3 3581.05 2227.79 3565.69C2209.28 3550.33 2187.8 3538.95 2164.7 3532.27C2131.67 3525.57 2098.64 3517.98 2064.71 3508.16C2052.63 3503.12 2042.47 3494.37 2035.7 3483.17C1923.95 3291.9 1835.1 3088.15 1771.01 2876.11C1769.64 2871.58 1769.26 2866.81 1769.87 2862.11C1770.49 2857.42 1772.09 2852.91 1774.58 2848.88C1795.56 2827.9 1819.21 2808.71 1840.64 2789.96C1862.06 2771.21 1873.22 2727.92 1857.6 2671.68C1824.57 2552.5 1792.88 2433.32 1759.85 2314.58C1753.45 2280.85 1738.29 2249.39 1715.88 2223.38C1693.47 2197.36 1664.6 2177.71 1632.19 2166.39C1560.2 2146.38 1483.79 2149.19 1413.47 2174.43C1386.24 2184.69 1371.96 2209.24 1371.51 2251.65C1383.11 2333.33 1390.7 2414.12 1406.33 2497.15C1516.43 3095.87 1781.27 3646.39 2200.85 4148.69C2211.81 4165.35 2226.52 4179.2 2243.81 4189.13C2261.1 4199.05 2280.49 4204.77 2300.39 4205.83C2369.86 4204.18 2436.6 4178.46 2489.21 4133.07C2528.93 4097.36 2524.91 4033.98 2477.6 3958.1Z" fill="white"/>
<path d="M2472.24 3349.7C2462.91 3221.31 2427.52 3096.17 2368.24 2981.9C2323.98 2892.63 2267.66 2809.87 2200.85 2735.95C2183.45 2716.31 2168.72 2710.06 2159.79 2724.79C2150.86 2739.52 2159.79 2760.5 2176.75 2779.7L2194.16 2799.78C2317.53 2942.2 2395.29 3118.39 2417.34 3305.51C2417.12 3319.16 2418.47 3332.79 2421.36 3346.13C2426.97 3361.48 2435.97 3375.37 2447.69 3386.75C2457.07 3393.45 2467.78 3386.75 2475.37 3386.75C2472.69 3368.45 2473.14 3359.08 2472.24 3349.7Z" fill="white"/>
<path d="M2067.84 2983.24C2123.89 3044.89 2157.95 3123.37 2164.7 3206.42C2167.64 3219.05 2172.29 3231.21 2178.54 3242.57C2205.76 3264.89 2219.16 3257.3 2219.16 3229.18C2209.61 3122.7 2165.57 3022.24 2093.73 2943.06C2076.77 2925.66 2062.93 2920.3 2054.89 2935.03C2052 2943.44 2051.69 2952.52 2054 2961.11C2056.3 2969.7 2061.12 2977.41 2067.84 2983.24Z" fill="white"/>
</g>
<path d="M12331.1 988.884L12749.3 1226.8V1078.6C12749.3 1068.34 12749.3 1057.62 12749.3 1047.36C12749.3 1037.09 12749.3 1027.27 12749.3 1017.45V1012.09C12764.5 816.141 12913.2 740.705 13094.4 845.601C13176.4 896.064 13246.7 963.483 13300.6 1043.34C13341.2 775.521 13558.6 680.892 13821.5 832.21C14113.4 1000.94 14350 1412.48 14350 1748.15V2065.07C14349.6 2090.42 14355.8 2115.43 14368.1 2137.61C14380.4 2159.78 14398.4 2178.32 14420.1 2191.39L14666.5 2335.56C14719.6 2367.09 14763.7 2411.89 14794.4 2465.56C14825.1 2519.23 14841.3 2579.95 14841.4 2641.77C14841.5 2667.42 14834.7 2692.61 14821.9 2714.82C14809 2737.03 14790.6 2755.47 14768.4 2768.27C14746.2 2781.08 14721 2787.81 14695.3 2787.78C14669.7 2787.74 14644.5 2780.95 14622.3 2768.09L12337.3 1447.3C12276.7 1412.1 12226.4 1361.65 12191.3 1300.96C12156.2 1240.27 12137.6 1171.46 12137.4 1101.37C12137.3 1078.68 12143.3 1056.38 12154.6 1036.71C12165.9 1017.04 12182.2 1000.69 12201.8 989.3C12221.4 977.907 12243.7 971.871 12266.4 971.798C12289.1 971.725 12311.4 977.617 12331.1 988.884Z" fill="#E6E6E6"/>
<path d="M15519.5 926.839L15823.4 1101.37V992.455C15823.4 984.867 15823.4 977.278 15823.4 969.69C15823.4 962.102 15823.4 954.96 15823.4 947.818V945.14C15834.6 802.75 15942.6 747.847 16074.3 824.176C16133.9 860.711 16185.1 909.562 16224.3 967.458C16254.2 773.736 16412.2 703.657 16603.2 813.909C16815.7 936.659 16987.6 1234.83 16987.6 1479.88V1710.66C16987.7 1728.75 16992.6 1746.48 17001.7 1762.13C17010.7 1777.78 17023.7 1790.81 17039.3 1799.93L17217.9 1904.82C17256.7 1927.67 17288.9 1960.3 17311.3 1999.46C17333.6 2038.61 17345.2 2082.93 17345.1 2128.01C17345.1 2146.47 17340.2 2164.6 17331.1 2180.62C17321.9 2196.64 17308.7 2210 17292.8 2219.37C17276.9 2228.74 17258.8 2233.8 17240.4 2234.06C17221.9 2234.32 17203.7 2229.77 17187.5 2220.85L15523.9 1260.27C15479.9 1234.77 15443.3 1198.13 15417.8 1154.03C15392.3 1109.92 15378.9 1059.9 15378.9 1008.97C15378.8 992.488 15383.1 976.285 15391.3 961.982C15399.5 947.679 15411.3 935.775 15425.5 927.462C15439.8 919.148 15455.9 914.715 15472.4 914.606C15488.9 914.497 15505.1 918.715 15519.5 926.839Z" fill="#E6E6E6"/>
</svg>
