<?xml version="1.0" encoding="utf-8"?>
<!-- Generator: Adobe Illustrator 26.0.2, SVG Export Plug-In . SVG Version: 6.00 Build 0)  -->
<svg version="1.1" id="Layer_1" xmlns="http://www.w3.org/2000/svg" xmlns:xlink="http://www.w3.org/1999/xlink" x="0px" y="0px"
	 viewBox="0 0 50 50" style="enable-background:new 0 0 50 50;" xml:space="preserve">
<style type="text/css">
	.st0{fill:#FFFFFF;}
</style>
<g>
	<path class="st0" d="M40.4,46.4l0.2-0.1l0-0.1c0-0.1,0-0.3-0.1-0.4c0,0,0-0.1,0-0.1c-0.1-0.5-0.4-1-0.7-1.4c-0.5-0.5-1.2-0.9-1.8-1
		c-0.1,0-0.2,0-0.4,0c-0.1,0-0.2,0-0.2-0.2c0-2.4,0-4.7,0-7.1c0-2.9-0.8-5.4-2.3-7.6c-0.8-1.1-1.7-2.1-2.9-3
		c-0.3-0.2-0.4-0.4-0.4-0.4c0,0,0-0.1,0.1-0.2c0.1-0.1,0.1-0.1,0.2-0.2c0.9-0.7,1.7-1.5,2.3-2.3c1.4-1.7,2.3-3.7,2.6-5.9
		c0.2-1.1,0.3-2.2,0.2-3.4c0-1.5,0-3,0-4.4l0-0.4c0-0.4,0-0.8,0-1.3c0,0,0-0.2,0-0.2c0,0,0.1,0,0.2-0.1c0.1,0,0.1,0,0.2,0
		c1.6-0.1,2.8-1.4,2.8-3.1c0-0.1,0-0.1,0-0.2c0-0.6-0.3-1.2-0.7-1.7c-0.6-0.7-1.4-1.1-2.3-1.2c-0.1,0-0.2,0-0.3,0
		c-2.9,0-5.9,0-8.8,0l-3.6,0l-3.6,0c-2.9,0-5.9,0-8.8,0c-0.1,0-0.2,0-0.3,0c-0.9,0-1.7,0.4-2.3,1.1C9.7,2.1,9.4,2.7,9.4,3.4
		c0,0.1,0,0.1,0,0.2c0,1.6,1.2,3,2.8,3.1c0.1,0,0.1,0,0.2,0c0.1,0,0.1,0,0.2,0c0,0.1,0,0.2,0,0.3c0,0.4,0,0.8,0,1.2l0,0.4
		c0,1.5,0,3,0,4.4c0,1.3,0,2.4,0.2,3.4c0.4,2.2,1.2,4.2,2.6,5.9c0.7,0.9,1.5,1.6,2.3,2.3c0.1,0.1,0.2,0.1,0.2,0.2
		c0.1,0.1,0.1,0.2,0.1,0.2c0,0.1-0.1,0.2-0.4,0.4c-1.1,0.9-2.1,1.9-2.8,3c-1.5,2.2-2.3,4.7-2.3,7.6c0,2.2,0,4.6,0,7.1
		c0,0.2,0,0.2-0.2,0.2c-0.1,0-0.2,0-0.3,0c-0.7,0.1-1.4,0.4-1.9,1c-0.4,0.4-0.6,0.9-0.7,1.4l0,0.1c0,0.1,0,0.3-0.1,0.5l0,0.1
		c0,0.8,0.3,1.5,0.8,2.1c0,0,0.1,0.1,0.1,0.1l0.1,0.1c0.1,0,0.1,0.1,0.2,0.1c0.5,0.4,1.1,0.6,1.8,0.6c0.1,0,0.2,0,0.3,0h0.6
		c0.8,0,1.6,0,2.5,0c0.5,0,1,0,1.6,0l15.3,0c0.1,0,0.3,0,0.4,0c0.8,0,1.5,0,2.3,0c0.4,0,0.9,0,1.3,0h0.6c0.1,0,0.2,0,0.3,0
		c0.7,0,1.3-0.2,1.8-0.7c0.1,0,0.1-0.1,0.2-0.1l0.1-0.1c0,0,0.1-0.1,0.1-0.1l0,0c0.5-0.6,0.8-1.3,0.8-2L40.4,46.4
		C40.4,46.4,40.4,46.4,40.4,46.4z M13.8,43.2l0.2-0.1L13.8,43.2L13.8,43.2L13.8,43.2z M14,38.1l0-0.5c0-0.3,0-0.6,0-1l0-0.8
		c0-1.3,0.2-2.5,0.6-3.6c0.3-1,0.8-2,1.3-2.8c0.7-1,1.5-1.9,2.5-2.8c0.1-0.1,0.2-0.2,0.4-0.3c0.3-0.2,0.5-0.5,0.7-0.9
		c0.1-0.2,0.1-0.3,0.1-0.5c0-0.2,0-0.4-0.1-0.6c-0.2-0.4-0.5-0.7-0.8-0.9c-1-0.8-1.9-1.7-2.5-2.6c-0.9-1.3-1.5-2.7-1.9-4.4
		c-0.2-0.8-0.2-1.6-0.2-2.4l0-0.8l0-0.2c0-0.1,0-0.2,0-0.3c0-1,0-2,0-3l0-1.4c0-0.5,0-1,0-1.4l-0.2,0L14,6.9c0-0.1,0-0.1,0-0.2
		c0,0,0,0,0.2,0c1.4,0,2.7,0,4.1,0l1.4,0l5.2,0l3.3,0l3.4,0c1.4,0,2.7,0,4.1,0c0.1,0,0.2,0,0.2,0c0,0,0,0.1,0,0.1L36,7
		c0,0.5,0,1,0,1.4l0,1.4c0,1,0,2,0,3c0,0.1,0,0.2,0,0.3l0,0.1l0,0.9c0,0.8-0.1,1.6-0.2,2.4c-0.3,1.6-1,3.1-1.9,4.4
		c-0.7,0.9-1.5,1.8-2.6,2.7c-0.3,0.2-0.6,0.5-0.8,0.9c-0.1,0.2-0.1,0.4-0.1,0.6c0,0.2,0,0.4,0.1,0.5c0.1,0.4,0.3,0.6,0.7,0.9
		c0.1,0.1,0.2,0.2,0.4,0.3c1,0.8,1.9,1.8,2.5,2.8c0.6,0.8,1,1.8,1.3,2.8c0.4,1.1,0.5,2.3,0.6,3.6l0,0.8c0,0.3,0,0.6,0,1l0,0.5l0,1.3
		c0,1.2,0,2.5,0,3.7l0,0.2c0,0-0.1,0-0.2,0c-3.6,0-7.1,0-10.7,0h-0.2c-3.6,0-7.1,0-10.7,0c-0.1,0-0.1,0-0.2,0l0-0.1l0,0
		c0-1.2,0-2.5,0-3.7L14,38.1z M37.3,5.2H12.7v0.2l0-0.2c-0.5,0-0.9-0.1-1.2-0.3c-0.2-0.2-0.4-0.4-0.5-0.6c0-0.1-0.1-0.1-0.1-0.2
		c-0.1-0.2-0.1-0.4-0.1-0.6c0-0.1,0-0.2,0-0.3C11,3,11.1,2.8,11.2,2.6l0.2-0.2C11.7,2.1,12,2,12.4,2l3.7,0l21.1,0l0.5,0
		c0.4,0,0.8,0.2,1,0.4l0.2,0.2C38.9,2.8,39,3,39.1,3.2c0,0.1,0,0.2,0,0.3c0,0.2,0,0.4-0.1,0.6C39,4.2,39,4.2,39,4.3
		c-0.1,0.2-0.3,0.4-0.5,0.6C38.2,5.1,37.8,5.2,37.3,5.2z M39.1,46.4c0,0.7-0.5,1.4-1.2,1.6c0,0-0.1,0-0.2,0l-0.1,0c0,0-0.1,0-0.1,0
		c-0.4,0-0.8,0-1.3,0l-7.9,0l-14.8,0c-0.4,0-0.8,0-1.3,0c0,0-0.1,0-0.1,0l-0.1,0c0,0,0,0-0.1,0L12,48c-0.7-0.2-1.2-0.8-1.2-1.6
		c0-0.1,0-0.2,0-0.4c0.1-0.3,0.3-0.7,0.6-0.9c0.3-0.2,0.7-0.4,1.2-0.4h24.7c0.5,0,0.9,0.1,1.2,0.3c0.3,0.2,0.5,0.5,0.6,0.9
		C39.1,46.2,39.1,46.3,39.1,46.4z M40.4,46.3C40.4,46.3,40.4,46.3,40.4,46.3L40.4,46.3L40.4,46.3z"/>
	<path class="st0" d="M17.2,12.3c0.4,0.4,0.6,0.5,0.9,0.5c0,0,0,0,0,0c0.2,0,0.3-0.1,0.5-0.3c0.5-0.6,0-1-0.3-1.2l-0.1-0.1
		c0,0-0.1-0.1-0.1-0.1c0,0,0,0,0.1-0.1c0.6-0.6,1.2-1.2,2-2c0.2-0.2,0.3-0.5,0.3-0.8c0-0.2-0.2-0.4-0.5-0.5
		c-0.4-0.2-0.8-0.3-1.4-0.5c-0.4-0.1-0.7,0.1-0.9,0.5c-0.1,0.3,0,0.7,0.4,0.9c0.1,0,0.2,0.1,0.3,0.1l-0.1,0.1
		c-0.3,0.3-0.6,0.6-0.9,0.9c-0.1,0.1-0.3,0.3-0.3,0.3c-0.1,0-0.2-0.2-0.3-0.3c-0.5-0.5-0.9-0.2-1.1-0.1c-0.2,0.2-0.5,0.6,0.1,1.1
		c0.3,0.3,0.7,0.6,1,1L17.2,12.3z"/>
	<path class="st0" d="M30.5,12.6c0.2,0.2,0.4,0.3,0.6,0.3c0.2,0,0.3-0.1,0.5-0.2c0.2-0.2,0.2-0.3,0.2-0.5c0-0.2-0.1-0.4-0.3-0.6
		l-0.1-0.1c-0.1-0.1-0.1-0.1-0.2-0.2c-0.1,0-0.1-0.1-0.1-0.1c0,0,0-0.1,0.1-0.1c0.7-0.7,1.3-1.3,2-2c0.3-0.3,0.3-0.6,0.3-0.8
		c0-0.2-0.2-0.4-0.6-0.6c-0.2-0.1-0.5-0.2-0.7-0.2c-0.1,0-0.3-0.1-0.4-0.1c-0.3-0.1-0.5,0-0.6,0C31.2,7.5,31,7.6,31,7.9
		c-0.1,0.4,0.1,0.7,0.5,0.9l0.1,0.1L31.4,9c-0.3,0.3-0.6,0.6-0.9,0.9c-0.1,0.1-0.3,0.3-0.3,0.3c-0.1,0-0.2-0.2-0.3-0.3
		c-0.5-0.5-0.9-0.2-1.1,0c-0.3,0.3-0.3,0.7,0.1,1.1L30.5,12.6z"/>
	<path class="st0" d="M30.1,38.7c0.2,0.3,0.5,0.5,0.9,0.4c0.1,0,0.2-0.1,0.2-0.1l0,0.1c0,0.4,0,0.8,0,1.1c0,0.1,0,0.2,0,0.3
		c0,0.1,0,0.3,0,0.3c0,0-0.2,0-0.3,0c-0.1,0-0.2,0-0.3,0c-0.5,0-0.8,0.3-0.7,0.8c0,0.4,0.3,0.7,0.8,0.7c0,0,0,0,0,0
		c0.4,0,0.9,0,1.3,0c0.4,0,0.8,0,1.2,0c0.2,0,0.5-0.1,0.6-0.2c0.1-0.1,0.2-0.3,0.2-0.5c0-0.4-0.3-0.7-0.8-0.7l0,0.2l0,0l0-0.2
		c-0.1,0-0.2,0-0.2,0c-0.1,0-0.2,0-0.2,0c0,0,0-0.1,0-0.2c0-0.9,0-1.7,0-2.6l0-0.2c0-0.3-0.1-0.6-0.3-0.7C32.2,37,32,37,31.7,37
		c-0.5,0.2-1,0.4-1.4,0.7C30.1,37.9,30,38.3,30.1,38.7z"/>
	<path class="st0" d="M23,33.2c0,0.2,0.1,0.4,0.2,0.5c0.2,0.2,0.5,0.2,0.7,0.2c0.3,0,0.7,0,1,0c0.3,0,0.6,0,1,0l0.1,0
		c0,0,0.1,0,0.1,0c0.2,0,0.5,0,0.6-0.2c0.1-0.1,0.2-0.3,0.2-0.5c0-0.2-0.1-0.4-0.2-0.6c-0.2-0.2-0.6-0.2-0.8-0.2l-0.1,0
		c0,0,0,0-0.1,0c0,0-0.1,0-0.1,0c0,0,0-0.1,0-0.1c0-1,0-1.9,0-2.9c0-0.3-0.1-0.6-0.3-0.7c-0.2-0.1-0.4-0.1-0.7,0
		c-0.4,0.2-0.8,0.4-1.3,0.6c-0.4,0.2-0.5,0.6-0.3,1c0.2,0.3,0.5,0.5,0.9,0.3c0.1,0,0.1-0.1,0.2-0.1v1.5c0,0.2,0,0.4,0,0.4
		c0,0-0.2,0-0.4,0C23.3,32.5,23,32.8,23,33.2z"/>
	<path class="st0" d="M17.1,40.8c-0.1,0-0.2,0-0.4,0l-0.1,0C16.2,41,16,41.3,16,41.6c0,0.4,0.3,0.6,0.7,0.6c0.4,0,0.9,0,1.3,0
		c0.4,0,0.9,0,1.3,0c0.4,0,0.6-0.3,0.7-0.7c0-0.4-0.2-0.7-0.5-0.8l0,0c-0.2,0-0.4-0.1-0.6,0c0,0-0.1,0-0.1,0c0,0,0,0,0,0
		c0,0,0-0.1,0-0.2c0-0.9,0-1.8,0-2.7l0-0.1c0-0.3-0.1-0.6-0.3-0.7c-0.2-0.1-0.4-0.1-0.7,0c-0.4,0.2-0.9,0.4-1.3,0.6
		c-0.4,0.2-0.5,0.6-0.3,1c0.2,0.4,0.5,0.5,0.9,0.3c0.1,0,0.1,0,0.2-0.1V39c0,0.4,0,0.8,0,1.1c0,0.1,0,0.2,0,0.3c0,0.2,0,0.3,0,0.4
		C17.3,40.8,17.1,40.8,17.1,40.8z"/>
	<path class="st0" d="M24.3,18.8c0.1,0.1,0.3,0.2,0.4,0.2c0.2,0,0.4-0.1,0.5-0.2c0.3-0.3,0.3-0.7,0-1c-0.1-0.1-0.1-0.2-0.3-0.3
		c-0.1-0.1-0.1-0.1-0.1-0.1c0,0,0-0.1,0.1-0.1c0.5-0.5,1-1,1.5-1.5l0.2-0.2c0.3-0.3,0.4-0.6,0.3-0.8c-0.1-0.3-0.3-0.5-0.7-0.6
		C26.2,14.1,26,14,25.8,14l-0.1,0c-0.3-0.1-0.9-0.3-1.2,0.4c-0.2,0.6,0.2,0.8,0.5,0.9l0,0c-0.3,0.2-0.5,0.5-0.7,0.7
		c-0.1,0.1-0.1,0.1-0.2,0.2c-0.1,0.1-0.2,0.2-0.2,0.2c0,0-0.1-0.1-0.1-0.1c-0.1-0.1-0.1-0.2-0.3-0.3c-0.5-0.3-0.8-0.1-1,0.1
		c-0.3,0.3-0.3,0.7,0,1C23.1,17.7,23.7,18.3,24.3,18.8z"/>
	<path class="st0" d="M25,37c-1.1,0-2,0.9-2,2c0,0.2,0,0.3,0,0.5l0,0.2l0,0.3c0,0.2,0,0.4,0,0.6c0.1,1.1,1,2,2.1,2c0,0,0,0,0,0
		c1.1,0,2-0.9,2.1-1.9c0-0.6,0-1.2,0-1.7C27,37.8,26,37,25,37z M25,41.1c-0.3,0-0.6-0.3-0.6-0.6c0-0.2,0-0.3,0-0.5l0-0.2l0-0.2
		c0-0.2,0-0.3,0-0.5c0-0.3,0.3-0.6,0.6-0.6c0,0,0,0,0,0c0.3,0,0.6,0.2,0.6,0.6c0,0.5,0,1,0,1.5v0C25.6,40.8,25.3,41.1,25,41.1z"/>
	<path class="st0" d="M25.5,12.3c0.8,0,1.4-0.4,1.8-1.1c0.4-0.7,0.3-1.5-0.2-2.1c-0.4-0.5-0.8-0.9-1.3-1.3c-0.5-0.4-1.2-0.6-1.9-0.3
		c-0.7,0.2-1.2,0.8-1.3,1.5c-0.1,0.6,0.1,1.3,0.6,2C23.7,11.6,24.6,12.3,25.5,12.3z M24.2,9c0.1-0.1,0.2-0.2,0.4-0.2
		c0.1,0,0.2,0,0.3,0.1c0.3,0.3,0.6,0.6,0.9,0.9l0.1,0.1c0.1,0.1,0.1,0.2,0.1,0.3c0,0.3-0.2,0.4-0.3,0.5c-0.3,0.1-0.5,0-0.6-0.1
		c-0.4-0.4-0.7-0.7-1-1C23.9,9.5,24,9.2,24.2,9z"/>
	<path class="st0" d="M31.6,14.5c-0.8-0.5-1.8-0.3-2.5,0.4c-0.6,0.7-0.7,1.8-0.1,2.5c0.4,0.5,0.8,0.9,1.3,1.3
		c0.4,0.3,0.8,0.4,1.2,0.4c0.3,0,0.6-0.1,1-0.3c0.7-0.4,1.1-1,1.1-1.8c0-0.4-0.1-0.7-0.3-1C32.8,15.5,32.2,14.9,31.6,14.5z
		 M31.9,17.6c-0.1,0.1-0.2,0.2-0.3,0.2c-0.1,0-0.2,0-0.4-0.1c-0.3-0.3-0.6-0.6-1-1c-0.1-0.1-0.1-0.3,0-0.5v0
		c0.1-0.2,0.2-0.3,0.5-0.3c0.1,0,0.3,0,0.3,0.1l0.2,0.2c0.3,0.3,0.6,0.5,0.8,0.8C32.1,17.1,32.1,17.3,31.9,17.6z"/>
	<path class="st0" d="M21,16c-0.4-0.5-0.9-1-1.3-1.3c-0.6-0.5-1.4-0.5-2.1-0.2c-0.7,0.4-1.1,1-1.1,1.8c0,0.4,0.1,0.8,0.3,1.1
		c0.5,0.6,1,1.1,1.5,1.5c0.3,0.2,0.7,0.3,1.1,0.3c0.5,0,1.1-0.2,1.5-0.7C21.5,17.8,21.6,16.7,21,16z M19.7,17.6L19.7,17.6
		c-0.2,0.2-0.4,0.2-0.6,0c-0.4-0.3-0.7-0.7-1.1-1.1c-0.2-0.2-0.1-0.4,0-0.5c0.1-0.2,0.2-0.2,0.5-0.3l0.1,0c0.6,0.3,1.1,0.8,1.4,1.4
		C20,17.3,19.9,17.5,19.7,17.6z"/>
	<path class="st0" d="M25.8,20.7c-0.5-0.4-1.2-0.6-1.9-0.4c-0.7,0.2-1.2,0.8-1.3,1.4c-0.1,0.6,0.1,1.3,0.6,2
		c0.5,0.7,1.4,1.3,2.4,1.3h0c0.7,0,1.3-0.5,1.7-1.1c0.4-0.7,0.3-1.5-0.3-2.1C26.6,21.4,26.2,21,25.8,20.7z M24.1,22.5
		c-0.2-0.2-0.1-0.5,0-0.6c0.1-0.1,0.2-0.2,0.4-0.2c0.1,0,0.1,0,0.2,0c0.6,0.3,1,0.8,1.3,1.4l0,0c0,0.2-0.1,0.4-0.3,0.5
		c-0.1,0.1-0.4,0.1-0.5,0C24.8,23.2,24.4,22.9,24.1,22.5z"/>
</g>
</svg>
