<svg width="27673" height="31476" viewBox="0 0 27673 31476" fill="none" xmlns="http://www.w3.org/2000/svg">
<path d="M2024.96 30275.9C1941.12 30204.2 1754.24 29976.4 1896.96 29712.1C1950.08 29614.8 2062.08 29566.8 2163.84 29523.9C2268.47 29488.5 2367.09 29437.3 2456.32 29372.2C2614.4 29237.8 2658.56 29013.8 2763.52 28834C2884.48 28627.3 3109.76 28472.4 3347.84 28483.3C3620.48 28495.4 3848.32 28718.8 3951.36 28972.2C4054.4 29225.7 4058.24 29508.5 4060.16 29783.1C4060.16 29934.8 4054.4 30103.1 3943.04 30208.1C3831.68 30313 3688.96 30302.1 3546.88 30302.1L2056.32 30256.1" fill="#F5F5F5"/>
<path d="M4874.88 26176.7H954.24L1658.24 30387.9C1672.89 30475.6 1712.12 30557.3 1771.37 30623.6C1830.62 30689.9 1907.46 30738 1992.96 30762.3C1997.35 30763.9 2001.84 30765.2 2006.4 30766.1C2017.95 30769.8 2029.7 30772.8 2041.6 30775.1C2067.73 30780.6 2094.28 30783.8 2120.96 30784.7V30788.5L2140.16 30785.3H3887.36C4006.11 30785 4120.87 30742.5 4211.15 30665.3C4301.43 30588.2 4361.33 30481.5 4380.16 30364.2L4720.64 27463.1L4736 27347.9L4871.04 26199.1L4874.88 26176.7ZM4136.96 28862.8H3733.12L3773.44 27641H4239.36L4136.96 28862.8ZM4280.32 27641H4664.32L4520.96 28862.8H4174.08L4280.32 27641ZM3128.32 30217.7L3104 29155.9H3680L3644.8 30217.7H3128.32ZM2502.4 29155.9H3064.96L3089.92 30217.7H2585.6L2502.4 29155.9ZM2545.92 30217.7H2074.24C2029.44 29930.9 1971.2 29558.5 1907.84 29155.9H2464L2545.92 30217.7ZM2481.92 28862.8L2387.2 27641H3031.04L3059.2 28862.8H2481.92ZM3100.16 28862.8L3072 27641H3734.4L3694.08 28862.8H3100.16ZM3064.96 27347.9L3038.72 26216.4H3781.76L3744 27347.9H3064.96ZM3025.92 27347.9H2362.24L2274.56 26216.4H2998.4L3025.92 27347.9ZM2321.92 27347.9H1623.04C1598.08 27191.7 1575.04 27043.3 1553.92 26910.1C1480.32 26452.5 1452.8 26281 1438.08 26216.4H2235.52L2321.92 27347.9ZM2344.96 27641L2439.68 28862.8H1863.68C1844.48 28738.6 1824.64 28613.2 1804.8 28487.7C1759.36 28199.7 1713.92 27911.7 1671.68 27641H2344.96ZM1821.44 28862.8H1444.48L1239.68 27641H1630.08C1689.6 28018.6 1756.16 28439.1 1822.72 28862.8H1821.44ZM1867.52 29155.9C1925.12 29523.3 1982.08 29885.5 2033.92 30217.7H1671.68L1493.76 29155.9H1867.52ZM3688.96 30217.7L3724.16 29155.9H4108.16L4017.28 30217.7H3688.96ZM3784.32 27347.9L3822.08 26216.4H4362.24L4264.96 27347.9H3784.32ZM1400.96 26216.4C1416.32 26297.7 1488 26743.1 1584 27347.9H1192.96L1000.96 26216.4H1400.96ZM4361.6 30217.7H4058.24L4149.12 29155.9H4485.76L4361.6 30217.7ZM4698.24 27347.9H4303.36L4400.64 26216.4H4830.72L4698.24 27347.9Z" fill="#E0E0E0"/>
<path d="M17554.6 23228.2H7486.08V27872.1H17554.6V23228.2Z" fill="#F5F5F5"/>
<path d="M17315.2 27652.5H7715.2V23472.1H17315.2V27652.5ZM7779.2 27588.5H17251.2V23534.8H7779.2V27588.5Z" fill="#E0E0E0"/>
<path d="M20014.7 23228.2H17555.2V27872.1H20014.7V23228.2Z" fill="#E0E0E0"/>
<path d="M7747.84 24766.1H17283.8C17287.2 24766.1 17290.5 24764.8 17292.9 24762.4C17295.3 24760 17296.6 24756.7 17296.6 24753.3C17296.6 24750 17295.3 24746.7 17292.9 24744.3C17290.5 24741.9 17287.2 24740.5 17283.8 24740.5H7747.84C7744.45 24740.5 7741.19 24741.9 7738.79 24744.3C7736.39 24746.7 7735.04 24750 7735.04 24753.3C7735.04 24756.7 7736.39 24760 7738.79 24762.4C7741.19 24764.8 7744.45 24766.1 7747.84 24766.1Z" fill="#E0E0E0"/>
<path d="M12547.2 24753.3C12573.9 24333.3 12574.9 23912.1 12550.4 23491.9C12550.4 23488.5 12549.1 23485.3 12546.7 23482.8C12544.3 23480.4 12541 23479.1 12537.6 23479.1C12534.2 23479.1 12530.9 23480.4 12528.5 23482.8C12526.1 23485.3 12524.8 23488.5 12524.8 23491.9C12500.3 23912.1 12501.3 24333.3 12528 24753.3C12528 24755.9 12529 24758.3 12530.8 24760.1C12532.6 24761.9 12535.1 24762.9 12537.6 24762.9C12540.1 24762.9 12542.6 24761.9 12544.4 24760.1C12546.2 24758.3 12547.2 24755.9 12547.2 24753.3Z" fill="#E0E0E0"/>
<path d="M15114.2 24122.9C15114.2 24148.3 15106.7 24173 15092.7 24194.1C15078.6 24215.1 15058.6 24231.5 15035.2 24241.2C15011.8 24250.9 14986.1 24253.4 14961.3 24248.5C14936.4 24243.5 14913.6 24231.4 14895.7 24213.5C14877.8 24195.6 14865.6 24172.7 14860.7 24147.9C14855.8 24123.1 14858.3 24097.3 14868 24074C14877.7 24050.6 14894.1 24030.6 14915.1 24016.5C14936.2 24002.5 14960.9 23994.9 14986.2 23994.9C15020.2 23994.9 15052.7 24008.4 15076.7 24032.4C15100.8 24056.4 15114.2 24089 15114.2 24122.9Z" fill="#E0E0E0"/>
<path d="M10109.4 24122.9C10109.4 24148.3 10101.9 24173 10087.9 24194.1C10073.8 24215.1 10053.8 24231.5 10030.4 24241.2C10007 24250.9 9981.3 24253.4 9956.47 24248.5C9931.64 24243.5 9908.83 24231.4 9890.93 24213.5C9873.03 24195.6 9860.84 24172.7 9855.9 24147.9C9850.96 24123.1 9853.5 24097.3 9863.18 24074C9872.87 24050.6 9889.28 24030.6 9910.33 24016.5C9931.38 24002.5 9956.12 23994.9 9981.44 23994.9C10015.4 23994.9 10047.9 24008.4 10071.9 24032.4C10096 24056.4 10109.4 24089 10109.4 24122.9Z" fill="#E0E0E0"/>
<path d="M12649 25562.3C12649 25587.6 12641.5 25612.4 12627.4 25633.4C12613.3 25654.5 12593.3 25670.9 12569.9 25680.6C12546.6 25690.2 12520.8 25692.8 12496 25687.8C12471.2 25682.9 12448.4 25670.7 12430.4 25652.8C12412.5 25634.9 12400.4 25612.1 12395.4 25587.3C12390.5 25562.4 12393 25536.7 12402.7 25513.3C12412.4 25489.9 12428.8 25469.9 12449.8 25455.9C12470.9 25441.8 12495.6 25434.3 12521 25434.3C12554.9 25434.3 12587.5 25447.8 12611.5 25471.8C12635.5 25495.8 12649 25528.4 12649 25562.3Z" fill="#E0E0E0"/>
<path d="M8689.92 27871.4L8171.52 30786.6H8463.36L9418.88 27871.4H8689.92Z" fill="#E0E0E0"/>
<path d="M16842.9 27871.4L17276.2 30791.7H16984.3L16113.9 27871.4H16842.9Z" fill="#E0E0E0"/>
<path d="M18789.1 27871.4L19280 30791.7H18988.8L18060.2 27871.4H18789.1Z" fill="#E0E0E0"/>
<path d="M12637.4 26876.9C12637.4 26902.2 12629.9 26926.9 12615.9 26948C12601.8 26969 12581.8 26985.4 12558.4 26995.1C12535 27004.8 12509.3 27007.3 12484.5 27002.4C12459.6 26997.5 12436.8 26985.3 12418.9 26967.4C12401 26949.5 12388.8 26926.7 12383.9 26901.8C12379 26877 12381.5 26851.3 12391.2 26827.9C12400.9 26804.5 12417.3 26784.5 12438.3 26770.4C12459.4 26756.4 12484.1 26748.9 12509.4 26748.9C12543.4 26748.9 12575.9 26762.3 12599.9 26786.3C12624 26810.4 12637.4 26842.9 12637.4 26876.9Z" fill="#E0E0E0"/>
<path d="M7747.84 26206.1H17283.8C17287.2 26206.1 17290.5 26204.8 17292.9 26202.4C17295.3 26200 17296.6 26196.7 17296.6 26193.3C17296.6 26190 17295.3 26186.7 17292.9 26184.3C17290.5 26181.9 17287.2 26180.5 17283.8 26180.5H7747.84C7744.45 26180.5 7741.19 26181.9 7738.79 26184.3C7736.39 26186.7 7735.04 26190 7735.04 26193.3C7735.04 26196.7 7736.39 26200 7738.79 26202.4C7741.19 26204.8 7744.45 26206.1 7747.84 26206.1Z" fill="#E0E0E0"/>
<path d="M14515.3 21650.6L14512.1 21031.1L11467.7 21047L11470.9 21666.5L14515.3 21650.6Z" fill="#E0E0E0"/>
<path d="M14881.4 23214.1L14876.4 22250.9L11483.1 22268.6L11488.2 23231.8L14881.4 23214.1Z" fill="#F5F5F5"/>
<path d="M14228.5 23208.4C14211.6 23048.5 14206.1 22887.7 14211.8 22727.1C14206.1 22566.3 14211.6 22405.2 14228.5 22245.2C14244.5 22405.3 14249.9 22566.3 14244.5 22727.1C14249.9 22887.7 14244.5 23048.5 14228.5 23208.4Z" fill="#E0E0E0"/>
<path d="M14370.6 23208.4C14354.5 23048.5 14349.2 22887.7 14354.6 22727.1C14349.2 22566.3 14354.5 22405.3 14370.6 22245.2C14387 22405.3 14392.6 22566.3 14387.2 22727.1C14392.6 22887.7 14387 23048.5 14370.6 23208.4Z" fill="#E0E0E0"/>
<path d="M11999.4 23208.4C11982.9 23048.5 11977.3 22887.7 11982.7 22727.1C11977.3 22566.3 11982.9 22405.3 11999.4 22245.2C12015.8 22405.3 12021.4 22566.3 12016 22727.1C12021.4 22887.7 12015.8 23048.5 11999.4 23208.4Z" fill="#E0E0E0"/>
<path d="M12142.1 23208.4C12125.2 23048.5 12119.7 22887.7 12125.4 22727.1C12119.7 22566.3 12125.2 22405.2 12142.1 22245.2C12158.1 22405.3 12163.5 22566.3 12158.1 22727.1C12163.5 22887.7 12158.1 23048.5 12142.1 23208.4Z" fill="#E0E0E0"/>
<path d="M12453.1 22742.5C12453.1 22733.5 12794.9 22725.8 13217.3 22725.8C13639.7 22725.8 13985.3 22733.5 13985.3 22742.5C13985.3 22751.4 13642.9 22759.1 13217.3 22759.1C12791.7 22759.1 12453.1 22750.1 12453.1 22742.5Z" fill="#E0E0E0"/>
<path d="M16155.5 22245.9L16152.3 21626.4L11965.4 21648.3L11968.7 22267.8L16155.5 22245.9Z" fill="#EBEBEB"/>
<path d="M15556.5 22169.7C15516.8 22170.2 15477.8 22158.9 15444.5 22137.2C15411.2 22115.5 15385.1 22084.3 15369.6 22047.8C15354 22011.2 15349.7 21970.9 15357.1 21931.9C15364.6 21892.8 15383.5 21856.9 15411.4 21828.6C15439.3 21800.4 15475 21781 15513.9 21773.1C15552.8 21765.1 15593.2 21769 15630 21784C15666.7 21799.1 15698.2 21824.8 15720.3 21857.8C15742.4 21890.8 15754.2 21929.6 15754.2 21969.3C15754.4 21995.5 15749.4 22021.4 15739.6 22045.6C15729.7 22069.8 15715.2 22091.9 15696.8 22110.5C15678.5 22129.1 15656.6 22143.9 15632.6 22154C15608.5 22164.2 15582.6 22169.5 15556.5 22169.7Z" fill="#E0E0E0"/>
<path d="M15012.5 22031.4V21907.3H12209.9V22031.4H15012.5Z" fill="#E0E0E0"/>
<path d="M18733.2 14446.7C21392.7 11787.1 21392.7 7475.13 18733.2 4815.57C16073.6 2156 11761.6 2156 9102.05 4815.57C6442.49 7475.13 6442.48 11787.1 9102.05 14446.7C11761.6 17106.3 16073.6 17106.3 18733.2 14446.7Z" fill="#E0E0E0"/>
<path d="M17770.2 13483.7C19897.9 11356 19897.9 7906.29 17770.2 5778.59C15642.5 3650.89 12192.8 3650.89 10065.1 5778.59C7937.37 7906.29 7937.37 11356 10065.1 13483.7C12192.8 15611.4 15642.5 15611.4 17770.2 13483.7Z" fill="#FAFAFA"/>
<path d="M17815.4 10855.1C18491.7 8702.37 17294.8 6408.96 15142 5732.67C12989.2 5056.39 10695.8 6253.31 10019.5 8406.09C9343.22 10558.9 10540.1 12852.3 12692.9 13528.6C14845.7 14204.9 17139.1 13007.9 17815.4 10855.1Z" fill="#E0E0E0"/>
<path d="M16406.1 10741C17018.7 9367.04 16401.5 7756.62 15027.5 7144.04C13653.6 6531.45 12043.1 7148.66 11430.6 8522.62C10818 9896.58 11435.2 11507 12809.1 12119.6C14183.1 12732.2 15793.5 12115 16406.1 10741Z" fill="#FAFAFA"/>
<path d="M14534.7 10845.4C15205.2 10504.5 15472.4 9684.58 15131.5 9014.09C14790.6 8343.61 13970.7 8076.42 13300.2 8417.31C12629.7 8758.21 12362.6 9578.09 12703.5 10248.6C13044.3 10919.1 13864.2 11186.2 14534.7 10845.4Z" fill="#E0E0E0"/>
<path d="M14127.4 9831.74L12236.8 9333.18L12720.6 8836.54L8808.96 5624.38L9025.28 5413.18L12957.4 8606.14L13337 8087.1L14127.4 9831.74Z" fill="#EBEBEB"/>
<path d="M8808.96 5624.38L8750.08 5657.66C8606.07 5739.05 8443.03 5780.75 8277.63 5778.5C8112.23 5776.25 7950.38 5730.14 7808.64 5644.86L6169.6 4660.54L7272.96 4487.1L7153.92 3326.14L8662.4 4359.1C8828.17 4472.6 8952.97 4636.46 9018.33 4826.43C9083.69 5016.39 9086.12 5222.36 9025.28 5413.82L8808.96 5624.38Z" fill="#EBEBEB"/>
<path d="M25058.6 26042.3C25066 25645.2 25219.3 25264.8 25489.3 24973.5C25619.2 25509.8 25058.6 26042.3 25058.6 26042.3Z" fill="#EBEBEB"/>
<path d="M25683.2 25740.2C26050.2 25588.2 26460.3 25576.8 26835.2 25708.2C26395.5 26041 25683.2 25740.2 25683.2 25740.2Z" fill="#EBEBEB"/>
<path d="M25754.9 25392.1C25695.1 25084.4 25750.7 24765.4 25911 24496.1C26099.8 24889.7 25754.9 25392.1 25754.9 25392.1Z" fill="#EBEBEB"/>
<path d="M23337 24138.3C24252.2 24381.5 24745 25175.7 24745 25175.7C23961 25175.7 23337 24138.3 23337 24138.3Z" fill="#EBEBEB"/>
<path d="M24797.4 24512.7C24750.1 23528.4 25712 22414.1 25712 22414.1C25566.7 23636.5 24797.4 24512.7 24797.4 24512.7Z" fill="#EBEBEB"/>
<path d="M24792.3 21708.9C24810.8 22201.3 24691.1 22689 24446.7 23116.9C24311 22485.8 24792.3 21708.9 24792.3 21708.9Z" fill="#EBEBEB"/>
<path d="M24425 23710.1C23705 23633.3 23313.3 22917.2 23313.3 22917.2C24180.5 23159.7 24425 23710.1 24425 23710.1Z" fill="#EBEBEB"/>
<path d="M22869.1 26718.1C23206.7 26508.9 23609.5 26431.2 24000.6 26499.9C23620.5 26900.5 22869.1 26718.1 22869.1 26718.1Z" fill="#EBEBEB"/>
<path d="M24734.1 27042C24642.3 27274.9 24471.2 27467.8 24250.9 27586.6C24281.6 27254.5 24734.1 27042 24734.1 27042Z" fill="#EBEBEB"/>
<path d="M24641.9 26935.7C24381.9 27086.4 24077.2 27140.8 23781.1 27089.3C24058.2 26800.7 24641.9 26935.7 24641.9 26935.7Z" fill="#EBEBEB"/>
<path d="M25009.9 28261.2C25009.2 28256.3 25009.2 28251.3 25009.9 28246.5C25009.9 28234.3 25009.9 28220.2 25009.9 28203.6C25009.9 28162.6 25009.9 28107.6 25009.9 28038.5C25009.9 27969.3 25009.9 27879.1 25009.9 27777.3C25009.9 27675.6 25009.9 27559.7 25002.9 27431.7C24996.5 27175.7 24978.6 26871.7 24952.3 26535.7C24926.1 26199.7 24881.9 25828.5 24824.3 25442C24707.2 24670.1 24553 23977 24425 23480.4C24361 23232.1 24309.1 23032.4 24270.7 22894.1C24252.2 22826.9 24238.1 22773.8 24227.2 22734.8L24217 22693.2C24216.4 22688.3 24216.4 22683.3 24217 22678.5C24219.6 22682.8 24221.6 22687.6 24222.7 22692.5L24236.2 22732.9L24284.8 22890.3C24327.7 23027.3 24384 23226.9 24449.9 23474.6C24620.2 24121.2 24754.8 24776.7 24853.1 25438.1C24909.4 25822.1 24949.8 26195.9 24977.3 26533.8C25004.8 26871.7 25017.6 27177 25020.8 27433.7C25025.3 27561.7 25024 27677.5 25020.8 27779.3C25017.6 27881 25020.8 27971.3 25017 28040.4C25013.1 28109.5 25012.5 28165.2 25011.2 28205.5C25011.2 28222.8 25011.2 28236.9 25011.2 28248.4L25009.9 28261.2Z" fill="#E0E0E0"/>
<path d="M23689 26177.3C23694.1 26169.7 23984.6 26360.4 24338.6 26602.9C24692.5 26845.5 24974.7 27047.7 24969.6 27055.4C24964.5 27063.1 24673.9 26872.4 24320 26629.8C23966.1 26387.3 23683.8 26184.4 23689 26177.3Z" fill="#E0E0E0"/>
<path d="M24969.6 26282.3C24982.4 26264.1 24997.5 26247.5 25014.4 26233L25142.4 26108.2L25575 25702.5C25740.8 25546.9 25890.6 25406.1 26007.7 25297.3L26135.7 25173.8C26151.1 25157.8 26168.3 25143.7 26186.9 25131.6C26175.1 25150.4 26160.9 25167.6 26144.6 25182.8C26116.5 25214.8 26073.6 25258.9 26020.5 25310.8C25914.2 25419.6 25764.5 25566.8 25594.2 25723.6C25424 25880.4 25269.1 26022.5 25155.2 26122.9C25098.2 26172.9 25051.5 26212.5 25018.2 26240.1C25003.7 26256 24987.4 26270.2 24969.6 26282.3Z" fill="#E0E0E0"/>
<path d="M22764.8 25710.8C22764.8 25710.8 23508.5 25696.7 23823.4 26281.7C23614.6 26275.6 23410.2 26220.9 23226.4 26121.8C23042.6 26022.6 22884.5 25881.9 22764.8 25710.8Z" fill="#EBEBEB"/>
<path d="M23780.5 25411.9C23780.5 25411.9 24385.9 25843.9 24292.5 26499.9C24128.3 26371 23996.4 26205.5 23907.5 26016.6C23818.6 25827.7 23775.1 25620.6 23780.5 25411.9Z" fill="#EBEBEB"/>
<path d="M26970.2 24350.1C26970.2 24350.1 26731.5 25182.1 25971.8 25332.5C26050.2 25102.3 26181.3 24893.6 26354.7 24723.1C26528 24552.5 26738.8 24424.8 26970.2 24350.1Z" fill="#EBEBEB"/>
<path d="M23450.2 21252.5C23450.2 21252.5 24399.4 21871.4 24297 22878.1C24038.8 22692 23827.8 22448 23680.8 22165.8C23533.8 21883.5 23454.8 21570.8 23450.2 21252.5Z" fill="#EBEBEB"/>
<path d="M26608.6 26758.5C26589.1 26777.1 26567.6 26793.6 26544.6 26807.7C26503.7 26837.2 26445.4 26881.3 26374.4 26935.7C26190.8 27082.5 26019.6 27244.1 25862.4 27418.9C25705.7 27594.6 25563.6 27782.8 25437.4 27981.5C25389.4 28057.7 25351.7 28120.4 25326.7 28164.5C25314.7 28187.3 25300.3 28208.8 25283.8 28228.5C25291.8 28203.4 25302.3 28179.2 25315.2 28156.2C25337 28110.1 25372.2 28045.5 25418.2 27964.2C25661.1 27555.1 25982 27197.8 26362.9 26912.7C26435.8 26858.3 26496.6 26816.7 26539.5 26790.5C26561.4 26777.5 26584.6 26766.8 26608.6 26758.5Z" fill="#E0E0E0"/>
<path d="M25782.4 27376.7C25713.7 26985.5 25791.4 26582.7 26000.6 26245.2C26102.4 26950.5 25782.4 27376.7 25782.4 27376.7Z" fill="#EBEBEB"/>
<path d="M26421.1 27028.5C26672.2 26885.8 26966.9 26840.3 27249.3 26900.5C26793 27143.1 26421.1 27028.5 26421.1 27028.5Z" fill="#EBEBEB"/>
<path d="M23626.2 28338L23982.1 30677.8H26050.6L26530.6 28371.9L23626.2 28338Z" fill="#EBEBEB"/>
<path d="M26241.3 29837.5C26241.3 29844.5 25711.4 29849.7 25057.9 29849.7C24404.5 29849.7 23873.9 29844.5 23873.9 29837.5C23873.9 29830.5 24403.8 29825.3 25057.9 29825.3C25712 29825.3 26241.3 29831.1 26241.3 29837.5Z" fill="#FAFAFA"/>
<path d="M26249.6 29726.1C26249.6 29732.5 25715.8 29738.3 25057.9 29738.3C24400 29738.3 23865.6 29732.5 23865.6 29726.1C23865.6 29719.7 24399.4 29714 25057.9 29714C25716.5 29714 26249.6 29715.9 26249.6 29726.1Z" fill="#FAFAFA"/>
<path d="M26245.1 29593C26245.1 29599.4 25712 29605.2 25053.4 29605.2C24394.9 29605.2 23861.8 29599.4 23861.8 29593C23861.8 29586.6 24395.5 29580.9 25053.4 29580.9C25711.4 29580.9 26245.1 29586 26245.1 29593Z" fill="#FAFAFA"/>
<path d="M24219.5 30544.7C24190.8 30448.1 24169.4 30349.5 24155.5 30249.7C24134.7 30151.4 24121.4 30051.7 24115.8 29951.4C24166.8 30145.9 24201.2 30344.4 24218.9 30544.7H24219.5Z" fill="#FAFAFA"/>
<path d="M24361 30519.7C24346.3 30424.6 24337.7 30328.6 24335.4 30232.4C24324.5 30136.6 24320 30040.1 24321.9 29943.7C24359.2 30133.3 24372.3 30326.9 24361 30519.7Z" fill="#FAFAFA"/>
<path d="M24617 30519.7C24589 30423.5 24571 30324.6 24563.2 30224.7C24547.4 30125.9 24542 30025.7 24547.2 29925.8C24566.3 30023.7 24579.5 30122.7 24586.9 30222.1C24602.4 30320.7 24612.4 30420.1 24617 30519.7Z" fill="#FAFAFA"/>
<path d="M24796.8 30531.9C24777.2 30433.3 24767.6 30332.9 24768 30232.4C24760.7 30132.1 24763.9 30031.2 24777.6 29931.6C24788.2 30031.3 24793.1 30131.5 24792.3 30231.7C24799.7 30331.6 24801.1 30431.8 24796.8 30531.9Z" fill="#FAFAFA"/>
<path d="M25115.5 30519.7C25100.3 30425.8 25093.1 30330.7 25093.8 30235.6C25085.6 30140.6 25085.6 30045.1 25093.8 29950.1C25109 30044.3 25116.2 30139.6 25115.5 30234.9C25123.7 30329.7 25123.7 30425 25115.5 30519.7Z" fill="#FAFAFA"/>
<path d="M25348.5 30531.9C25336.7 30434.5 25333.5 30336.2 25338.9 30238.1C25335.8 30140 25340.5 30041.8 25353 29944.4C25364.8 30041.8 25368 30140.1 25362.6 30238.1C25365.6 30336.3 25360.9 30434.5 25348.5 30531.9Z" fill="#FAFAFA"/>
<path d="M25566.7 30500.5C25564.3 30397.8 25570.1 30295.1 25584 30193.3C25589.8 30090.8 25604 29988.9 25626.2 29888.7C25628.2 29991.4 25622.2 30094.1 25608.3 30195.9C25602.1 30298.3 25588.2 30400.2 25566.7 30500.5Z" fill="#FAFAFA"/>
<path d="M25848.3 30469.8C25848.2 30381.6 25859.8 30293.8 25882.9 30208.7C25897.5 30121.7 25923.3 30036.9 25959.7 29956.5C25946.7 30042.8 25929 30128.3 25906.6 30212.5C25891.9 30299.3 25872.4 30385.2 25848.3 30469.8Z" fill="#FAFAFA"/>
<path d="M23388.8 27875.3V28313C23388.8 28358.7 23406.9 28402.5 23439.2 28434.8C23471.5 28467 23515.3 28485.2 23561 28485.2H26556.2C26601.9 28485.2 26645.7 28467.1 26678.1 28434.8C26710.5 28402.5 26728.8 28358.7 26729 28313V27875.3H23388.8Z" fill="#EBEBEB"/>
<path d="M23648.6 28485.2L23673 28624.7L26437.1 28821.8L26506.9 28485.2H23648.6Z" fill="#E0E0E0"/>
<path d="M26578.6 30738C26578.6 30747.6 20857.6 30754.6 13801.6 30754.6C6745.6 30754.6 1023.36 30750.1 1023.36 30738C1023.36 30725.8 6743.04 30721.3 13801.6 30721.3C20860.2 30721.3 26578.6 30729 26578.6 30738Z" fill="#263238"/>
<path d="M0 11789.5C0 11789.5 656 14477.5 3592.32 13860.5C3592.32 13860.5 2741.76 11139.9 0 11789.5Z" fill="#455A64"/>
<path d="M1418.88 15858.6C1418.88 15858.6 2766.72 17868.2 4993.92 16478.1C4993.92 16478.1 3475.2 14499.3 1418.88 15858.6Z" fill="#455A64"/>
<path d="M3566.72 18924.9C3566.72 18924.9 5533.44 20597.2 7416.96 18524.2C7416.96 18526.1 5283.84 16932.5 3566.72 18924.9Z" fill="#455A64"/>
<path d="M5599.36 12473.7C5599.36 12473.7 3418.24 13522 4476.8 15924.5C4632.32 15838.1 6632.96 14656.7 5599.36 12473.7Z" fill="#455A64"/>
<path d="M6072.96 15370.3C6072.96 15370.3 4984.96 16839.1 6606.08 18100.5C6707.2 17943.1 7656.96 16542.1 6072.96 15370.3Z" fill="#455A64"/>
<path d="M1027.84 8697.02C1027.84 8697.02 777.6 10873 3129.6 11223.7C3129.6 11223.7 3244.16 8967.1 1027.84 8697.02Z" fill="#455A64"/>
<path d="M4401.28 6494.14C4401.28 6494.14 2498.56 7288.38 3324.8 9518.14C3324.8 9518.14 5231.36 8567.1 4401.28 6494.14Z" fill="#455A64"/>
<path d="M5549.44 9675.58C5549.44 9675.58 3030.4 9962.94 3251.84 12702.1C3251.84 12702.1 5824.64 12243.9 5549.44 9675.58Z" fill="#455A64"/>
<path d="M9134.72 19246.1L9102.72 19236.5L9008 19211.6C8925.44 19189.8 8801.92 19160.4 8647.04 19109.8C8207.8 18974.3 7783.1 18795.5 7379.2 18576.1C6781.06 18249.8 6228.83 17845.6 5736.96 17374.1C5445.17 17095.1 5173.55 16795.7 4924.16 16478.1L4732.16 16222.1C4700.16 16179.9 4668.16 16137 4636.8 16094.1C4605.44 16051.3 4577.28 16004.5 4547.84 15959.7L4369.28 15685.8L4205.44 15399.1L4123.52 15254.5L4050.56 15106.6C4002.56 15008.7 3953.28 14911.4 3906.56 14813.5L3778.56 14517.8C3758.08 14468.5 3736.32 14419.9 3714.56 14370.6C3692.8 14321.3 3678.72 14272.1 3661.44 14222.8L3556.48 13929.7C3527.04 13831.1 3498.24 13733.8 3470.08 13637.2C3456 13588.5 3441.28 13540.5 3427.2 13493.2C3413.12 13445.8 3403.52 13396.5 3392 13349.2C3369.6 13253.2 3347.2 13157.2 3328 13064.4C3186.21 12398.7 3125.18 11718.4 3146.24 11038.1C3161.1 10578.7 3212.25 10121.2 3299.2 9669.82C3333.12 9510.46 3363.2 9387.58 3382.4 9304.38C3391.36 9262.78 3398.4 9231.42 3403.52 9209.02C3408.64 9186.62 3409.92 9176.38 3409.92 9176.38C3409.92 9176.38 3406.08 9186.62 3400.32 9208.38C3394.56 9230.14 3386.88 9261.5 3376.64 9302.46C3356.16 9386.3 3324.16 9508.54 3288.32 9667.26C3057.88 10791.5 3063.55 11951.4 3304.96 13073.3C3326.72 13167.4 3349.12 13262.1 3368.96 13358.8C3381.12 13406.8 3390.08 13455.4 3404.16 13503.4C3418.24 13551.4 3432.32 13599.4 3447.04 13648.1C3475.2 13744.7 3504 13840.1 3533.44 13941.2L3638.4 14235.6C3655.68 14284.9 3673.6 14334.8 3691.52 14384.1C3709.44 14433.3 3732.48 14482 3755.52 14531.3L3883.52 14828.9C3929.6 14926.8 3978.88 15024.1 4027.52 15122.6C4051.84 15172.5 4076.16 15221.8 4101.12 15271.1C4126.08 15320.4 4155.52 15367.7 4183.04 15416.4L4347.52 15704.4L4526.72 15978.9C4556.8 16023.7 4584.96 16069.8 4615.68 16114L4711.68 16242L4903.68 16498C5153.83 16815.6 5426.31 17115.1 5719.04 17394C6213.6 17866.8 6769.13 18271.5 7370.88 18597.2C7776.67 18815.5 8203.62 18992 8645.12 19123.9C8800.64 19173.2 8924.8 19200.1 9008 19220.5L9103.36 19242.3L9134.72 19246.1Z" fill="#263238"/>
<path d="M6308.48 16554.3C6305.74 16575.5 6305.74 16597.1 6308.48 16618.3C6308.48 16658 6317.44 16714.9 6326.4 16784.7C6343.04 16925.5 6372.48 17118.8 6413.44 17330C6454.4 17541.2 6501.12 17731.9 6537.6 17868.2C6556.16 17936.7 6572.16 17991.7 6584.32 18029.5C6588.76 18049.6 6595.86 18068.9 6605.44 18087.1C6604.75 18065.4 6601.31 18043.9 6595.2 18023.1L6557.44 17860.5C6525.44 17722.9 6483.2 17532.9 6441.6 17321.7C6400 17110.5 6368.64 16918.5 6346.24 16778.9C6336 16714.9 6327.04 16658.6 6319.36 16613.8C6318.05 16593.6 6314.4 16573.6 6308.48 16554.3Z" fill="#263238"/>
<path d="M5772.8 18735.4C5794.29 18736.3 5815.81 18734.4 5836.8 18729.7L6004.48 18705.3C6145.28 18684.2 6340.48 18656.7 6556.16 18631.7C6771.84 18606.8 6968.32 18588.2 7110.4 18576.1L7278.72 18561.3C7300.34 18561 7321.84 18558 7342.72 18552.4C7321.46 18549.9 7299.98 18549.9 7278.72 18552.4C7238.4 18552.4 7180.8 18552.4 7109.76 18558.1C6967.04 18565.2 6769.92 18580.5 6553.6 18605.5C6337.28 18630.5 6142.08 18661.8 6001.28 18688.1C5931.52 18700.9 5873.28 18712.4 5835.52 18721.3C5814.12 18723.5 5793.05 18728.2 5772.8 18735.4Z" fill="#263238"/>
<path d="M3121.92 16069.8C3145.44 16077.8 3169.65 16083.6 3194.24 16087.1L3393.28 16126.8C3561.6 16159.4 3793.92 16208.1 4048 16269.5C4302.08 16330.9 4530.56 16394.3 4695.04 16441.7L4887.04 16498C4910.66 16506.5 4935.12 16512.5 4960 16515.9C4938.03 16504.1 4914.86 16494.6 4890.88 16487.7C4845.44 16471.1 4779.52 16448.7 4698.88 16423.7C4535.68 16371.3 4307.84 16304.7 4052.48 16243.3C3797.12 16181.8 3564.8 16135.7 3395.2 16107.6C3310.72 16093.5 3241.6 16083.3 3194.24 16077.5C3170.48 16072.4 3146.23 16069.8 3121.92 16069.8Z" fill="#263238"/>
<path d="M5047.04 14010.3C5029.79 14029.9 5014.77 14051.4 5002.24 14074.3C4974.72 14117.8 4938.24 14183.1 4895.36 14266.3C4674.09 14696.6 4539.08 15166 4497.92 15648.1C4490.24 15740.2 4487.04 15814.5 4487.04 15866.3C4484.73 15893.1 4484.73 15920.1 4487.04 15946.9C4492.39 15920.6 4495.18 15893.8 4495.36 15866.9C4495.36 15815.7 4505.6 15738.9 4515.2 15650C4567.44 15172.5 4701.22 14707.5 4910.72 14275.3C4950.4 14192.1 4984.96 14125.5 5009.28 14083.3C5024.24 14060.3 5036.89 14035.8 5047.04 14010.3Z" fill="#263238"/>
<path d="M2125.44 12757.2C2143.18 12772.8 2162.48 12786.5 2183.04 12798.1L2344.96 12903.1C2480.64 12993.3 2664.96 13122.6 2856.96 13278.8C3048.96 13434.9 3214.72 13587.9 3330.56 13701.8L3466.88 13837.5C3482.56 13855.6 3500.16 13871.9 3519.36 13886.1C3506.66 13866.1 3491.86 13847.4 3475.2 13830.5C3445.76 13795.3 3401.6 13746.6 3347.2 13687.7C3199.73 13534.3 3042.84 13390.3 2877.44 13256.4C2711.98 13122.5 2538.43 12999 2357.76 12886.5C2288.64 12842.9 2229.76 12809.7 2191.36 12788.5C2170.53 12775.8 2148.44 12765.3 2125.44 12757.2Z" fill="#263238"/>
<path d="M4876.16 10768.1C4876.16 10768.1 4867.84 10773.2 4855.04 10784.1L4800 10833.3C4752 10876.9 4684.16 10941.5 4601.6 11022.1C4437.12 11184.1 4217.6 11415.1 3987.84 11683.3C3758.08 11951.4 3566.08 12205.5 3432.96 12394.3C3368.96 12488.4 3313.28 12565.2 3278.08 12619.6L3237.76 12683.6C3232.57 12690.4 3228.47 12697.9 3225.6 12706C3225.6 12706 3232.64 12700.2 3242.88 12686.8L3287.04 12627.3L3448.96 12407.1C3586.56 12222.1 3781.76 11970.6 4009.6 11703.1C4237.44 11435.6 4457.6 11202.6 4616.32 11037.5L4808.32 10845.5L4859.52 10792.4C4866.31 10785.2 4871.92 10777 4876.16 10768.1Z" fill="#263238"/>
<path d="M1841.92 9405.5C1857.89 9429.59 1875.88 9452.28 1895.68 9473.34L2048.64 9653.82C2176.64 9806.78 2348.8 10022.5 2526.08 10269.5C2703.36 10516.5 2851.2 10750.1 2954.88 10921C3004.16 11002.9 3044.48 11071.4 3075.84 11123.9C3089.51 11149.4 3105.13 11173.8 3122.56 11196.9C3112.59 11169.7 3100.39 11143.3 3086.08 11118.1C3060.48 11068.2 3022.08 10997.2 2972.16 10910.8C2872.96 10736.7 2727.04 10501.8 2549.12 10252.9C2371.2 10003.9 2196.48 9790.78 2064 9640.38C2000 9565.5 1943.04 9505.98 1904 9465.66C1885.41 9443.54 1864.61 9423.38 1841.92 9405.5Z" fill="#263238"/>
<path d="M4119.68 7337.66C4104.09 7363.09 4090.81 7389.86 4080 7417.66C4056.32 7469.5 4023.04 7545.66 3982.72 7639.74C3902.72 7828.54 3797.12 8087.74 3688.96 8384.06C3580.8 8680.38 3489.28 8945.98 3427.2 9141.18C3396.48 9238.46 3372.16 9317.82 3356.16 9372.86C3346.34 9400.96 3339.06 9429.87 3334.4 9459.26C3348.45 9431.98 3360.01 9403.5 3368.96 9374.14C3389.44 9315.26 3416.32 9238.46 3448.32 9145.66C3515.52 8953.66 3608.96 8685.5 3717.76 8392.38C3826.56 8099.26 3926.4 7838.14 4001.92 7646.14C4037.76 7554.62 4065.92 7478.46 4090.24 7420.22C4102.27 7393.54 4112.11 7365.93 4119.68 7337.66Z" fill="#263238"/>
<path d="M27672.3 11407.4C27672.3 11407.4 27016.3 14095.4 24080 13479.1C24080 13479.1 24931.2 10757.8 27672.3 11407.4Z" fill="#455A64"/>
<path d="M26253.4 15476.5C26253.4 15476.5 24905.6 17486.8 22678.4 16096.7C22678.4 16094.1 24197.1 14117.8 26253.4 15476.5Z" fill="#455A64"/>
<path d="M24105 18542.8C24105 18542.8 22138.9 20215.7 20255.4 18142.1C20255.4 18142.1 22388.5 16551.1 24105 18542.8Z" fill="#455A64"/>
<path d="M22073 12092.2C22073 12092.2 24254.1 13140.5 23195.5 15542.5C23040.6 15454.1 21042.6 14275.3 22073 12092.2Z" fill="#455A64"/>
<path d="M21599.4 14988.2C21599.4 14988.2 22687.4 16457 21066.2 17719.1C20965.1 17561.7 20015.4 16158.1 21599.4 14988.2Z" fill="#455A64"/>
<path d="M26645.1 8315.58C26645.1 8315.58 26895.4 10491.6 24542.7 10842.3C24542.7 10842.3 24428.2 8585.66 26645.1 8315.58Z" fill="#455A64"/>
<path d="M23273 6110.14C23273 6110.14 25175.7 6905.02 24349.4 9134.78C24347.5 9136.7 22441 8185.02 23273 6110.14Z" fill="#455A64"/>
<path d="M22121 9294.14C22121 9294.14 24640 9581.5 24418.6 12323.3C24420.5 12323.3 21847.7 11862.5 22121 9294.14Z" fill="#455A64"/>
<path d="M18537 18864.1L18569 18855.1L18663 18829.5C18746.2 18807.7 18869.1 18778.9 19024 18728.4C19463.1 18592.6 19887.8 18413.8 20291.8 18194.6C20890.9 17867.5 21443.9 17462.5 21936.6 16990.1C22227.5 16712.2 22498.7 16414.3 22748.2 16098.6L22937 15842.6L23033 15714.6C23063.7 15670.5 23091.8 15625 23121.3 15579.6C23180.8 15489.3 23239.7 15397.8 23299.8 15306.3L23463.7 15018.9C23491.2 14970.9 23518.7 14922.9 23545.6 14874.9L23618.6 14727.1C23667.2 14628.5 23716.5 14535.1 23762.6 14434L23890.6 14137.7C23911 14088.4 23932.8 14040.4 23954.6 13991.1C23976.3 13941.8 23990.4 13891.9 24007.7 13842.6L24112.6 13550.1C24142.1 13451.6 24170.9 13353.7 24199 13257C24213.8 13209 24227.8 13161 24241.9 13113C24256 13065 24265.6 13017 24277.1 12969C24300.2 12873 24322.6 12778.3 24344.3 12684.9C24486.3 12017.7 24547.5 11335.9 24526.7 10654.1C24511.7 10194.5 24460.3 9736.74 24373.1 9285.18C24339.2 9126.46 24309.1 9003.58 24290.6 8919.74C24281 8878.78 24273.9 8846.78 24268.8 8824.38C24263.7 8801.98 24263 8791.74 24263 8791.74L24272 8823.74L24295.7 8918.46C24316.2 9001.66 24348.2 9124.54 24384.6 9283.26C24475.5 9735.1 24529.7 10193.6 24546.6 10654.1C24569.1 11337.8 24508 12021.7 24364.8 12690.6L24300.8 12975.4C24289.3 13023.4 24279.7 13072.7 24265.6 13120.1C24251.5 13167.4 24237.4 13216.7 24222.7 13264.7C24194.6 13362 24165.8 13459.9 24136.3 13558.5C24101.8 13655.7 24067.2 13750.5 24031.4 13852.2C24014.1 13902.1 23996.2 13951.4 23978.2 14001.3C23960.3 14051.3 23937.3 14099.3 23914.2 14148.5L23786.2 14446.1C23739.5 14544.1 23690.2 14638.1 23641.6 14739.9L23568.6 14888.4L23486.1 15033L23321.6 15321L23142.4 15595.6C23113 15641 23084.2 15687.1 23053.4 15730.6L22957.4 15858.6L22765.4 16114.6C22515.1 16432.3 22242.4 16731.7 21949.4 17010.6C21455.2 17484 20899.6 17888.9 20297.6 18214.5C19891.9 18432.7 19464.9 18609 19023.4 18740.5C18867.8 18789.8 18743.7 18817.3 18660.5 18837.2L18565.8 18859.6C18556.2 18861.5 18546.6 18863 18537 18864.1Z" fill="#263238"/>
<path d="M21363.8 16172.9C21366.6 16194.1 21366.6 16215.6 21363.8 16236.9C21360.6 16275.9 21354.9 16332.9 21346.6 16403.3C21329.3 16543.4 21300.5 16736.7 21258.9 16948.5C21217.3 17160.4 21171.8 17350.5 21134.7 17486.8C21116.2 17555.3 21100.2 17609.7 21088 17647.4C21083.3 17667.6 21076.2 17687.2 21066.9 17705.7C21067.9 17685 21071.6 17664.6 21077.8 17644.9C21088 17600.1 21100.2 17545.7 21114.9 17481.7C21146.9 17344.7 21189.8 17154 21230.7 16942.8C21271.7 16731.6 21304.3 16539.6 21326.1 16400.1C21337 16336.1 21345.9 16280.4 21353 16235.6C21353.9 16214.3 21357.6 16193.2 21363.8 16172.9Z" fill="#263238"/>
<path d="M21900.2 18354C21878.7 18354.8 21857.2 18352.9 21836.2 18348.2L21669.1 18323.9C21527.7 18302.8 21333.1 18275.3 21116.8 18249.7C20900.5 18224.1 20704.6 18206.1 20562.6 18194L20394.9 18179.3C20373.2 18179.3 20351.7 18176.2 20330.9 18170.3C20352.1 18167.8 20373.6 18167.8 20394.9 18170.3C20434.6 18170.3 20492.2 18170.3 20563.8 18176.1C20705.9 18183.1 20903 18197.8 21119.4 18223.4C21335.7 18249 21530.9 18279.7 21671.7 18306C21741.4 18318.8 21799.7 18330.3 21837.4 18339.3C21858.8 18341.7 21879.9 18346.7 21900.2 18354Z" fill="#263238"/>
<path d="M24553 15687.7C24529.3 15696.1 24504.9 15702.1 24480 15705.7L24281 15744.7C24112.6 15778 23881 15826.6 23626.2 15888.1C23371.5 15949.5 23143.7 16012.9 22979.2 16060.2L22784 16116.5C22760.3 16124.7 22735.9 16130.5 22711 16133.8C22733.6 16122.8 22756.9 16113.4 22780.8 16105.7C22825.6 16089 22891.5 16067.3 22972.8 16041.7C23136 15989.2 23364.5 15922.6 23619.2 15860.5C23873.9 15798.5 24106.9 15753.7 24276.5 15725.5C24361 15711.4 24430.1 15701.2 24477.4 15694.8C24502.3 15690.1 24527.6 15687.7 24553 15687.7Z" fill="#263238"/>
<path d="M22625.3 13628.2C22642.4 13649.1 22657.4 13671.6 22670.1 13695.4C22698.2 13738.9 22734.1 13804.2 22777.6 13887.4C22998.3 14317.9 23133.1 14787.2 23174.4 15269.2C23182.1 15361.3 23185.9 15436.2 23185.3 15488.1C23188 15514.7 23188 15541.5 23185.3 15568.1C23180.3 15541.9 23177.5 15515.3 23177 15488.7C23177 15436.9 23167.4 15360.7 23157.1 15271.1C23104.6 14793.2 22970.6 14327.8 22761 13895.1C22721.3 13812.5 22687.4 13746 22662.4 13703.1C22647.7 13679.3 22635.3 13654.3 22625.3 13628.2Z" fill="#263238"/>
<path d="M25547.5 12375.1C25529.7 12390.9 25510.2 12404.6 25489.3 12416.1L25328 12521.7C25192.3 12611.3 25008 12740.5 24816 12896.7C24624 13052.9 24458.2 13205.8 24342.4 13319.7L24206.1 13456.1C24190.4 13473.7 24173 13489.8 24154.2 13504.1C24166.5 13483.9 24181.1 13465.2 24197.8 13448.4C24227.2 13413.8 24271.4 13364.5 24325.8 13305.7C24473.4 13152.4 24630.3 13008.4 24795.5 12874.3C24960.7 12740.3 25134 12616.8 25314.6 12504.4C25383.7 12461.5 25442.6 12428.2 25481 12406.5C25502.1 12393.8 25524.4 12383.3 25547.5 12375.1Z" fill="#263238"/>
<path d="M22796.8 10386.6C22804.4 10390.8 22811.3 10396.2 22817.3 10402.6L22873 10451.9C22921 10495.4 22988.2 10559.4 23070.7 10640.7C23235.2 10802 23454.7 11033 23684.5 11301.2C23914.2 11569.3 24106.2 11824.1 24240 12012.2C24304 12106.3 24359 12183.7 24394.2 12237.5L24434.6 12301.5C24439.7 12308.6 24443.8 12316.3 24446.7 12324.5C24440.2 12318.6 24434.4 12312 24429.4 12304.7L24385.3 12245.2L24223.4 12025.7C24085.8 11840.7 23890.6 11589.2 23662.7 11321.7C23434.9 11054.1 23214.7 10821.8 23056 10656.7L22864 10464.7L22812.2 10410.9C22805.8 10403.7 22800.6 10395.5 22796.8 10386.6Z" fill="#263238"/>
<path d="M25833 9023.42C25817.2 9047.66 25799.2 9070.38 25779.2 9091.26L25626.2 9271.74C25498.2 9425.34 25326.1 9640.38 25148.8 9888.06C24971.5 10135.7 24823.7 10368.7 24720.6 10538.9L24599 10741.8C24585 10767.3 24569.4 10791.9 24552.3 10815.4C24562.2 10788.1 24574.7 10761.7 24589.4 10736.7C24614.4 10686.8 24653.4 10615.7 24702.7 10528.7C24801.9 10355.3 24947.8 10119.7 25125.8 9871.42C25303.7 9623.1 25478.4 9408.7 25610.9 9258.94C25674.9 9184.06 25731.8 9123.9 25770.9 9084.22C25790 9062.44 25810.8 9042.12 25833 9023.42Z" fill="#263238"/>
<path d="M23552.6 6956.22C23568.3 6981.36 23581.6 7007.93 23592.3 7035.58C23616.6 7088.06 23649.9 7163.58 23689.6 7258.3C23769.6 7446.46 23875.2 7706.3 23983.4 8002.62C24091.5 8298.94 24183 8563.9 24245.1 8759.1C24276.5 8857.02 24300.2 8935.74 24316.2 8991.42C24325.8 9019.33 24333.1 9048.02 24337.9 9077.18C24324.8 9050.69 24314.1 9023.05 24305.9 8994.62L24225.9 8765.5C24158.7 8573.5 24065.3 8305.34 23956.5 8012.22C23847.7 7719.1 23745.9 7456.06 23671 7265.98L23582.1 7040.06C23570.5 7012.77 23560.6 6984.77 23552.6 6956.22Z" fill="#263238"/>
<path d="M17180.8 22826.9C17180.8 22826.9 17512.3 24151.1 17180.8 24688.1C17167.4 24710.5 17152.6 24732.9 17137.3 24752.1C16921.7 25062.1 16610.5 25292.9 16251.3 25409.3C15892 25525.7 15504.6 25521.2 15148.2 25396.5L11418.9 24116.5L11703.7 23115.6L14097.9 23411.3L16652.8 22715.6L17180.8 22826.9Z" fill="#FFBE9D"/>
<path d="M15518.1 20782.1C15518.1 20782.1 16712.3 24261.8 16652.8 25096.4C16593.3 25930.9 14284.8 30303.4 14284.8 30303.4L13273.6 29838.8C13273.6 29838.8 13661.4 28611.9 13920 27538.6C14048 26996.5 14101.8 26338 14201.6 26071.7C14505 25276.2 14859.5 24862.1 14859.5 24862.1L13232 21516.9L15518.1 20782.1Z" fill="#FFBE9D"/>
<path d="M12245.8 18462.1C12245.8 18462.1 11893.1 19432.4 12137 20348.9C12380.8 21265.3 14675.8 25020.9 14675.8 25020.9L17331.8 23484.9C17331.8 23484.9 17229.4 20137.7 16304 18270.1L12245.8 18462.1Z" fill="#263238"/>
<path d="M16631.7 23882.9C16631.7 23882.9 16638.1 23892.5 16647 23912.4C16656 23932.2 16668.8 23961.7 16682.2 24000.7C16720.7 24111.3 16746.3 24226 16758.4 24342.5C16775.5 24515.6 16771 24690.1 16745 24862.1C16730.2 24959.4 16713 25059.9 16686.7 25163.6C16660.5 25267.3 16625.9 25372.2 16588.2 25477.8C16436.5 25902.8 16273.9 26275.9 16155.5 26546C16096 26681 16046.7 26789.2 16011.5 26866C15994.9 26899.9 15981.4 26930 15970.6 26951.1C15966.2 26961.3 15960.6 26971 15953.9 26979.9C15956 26969 15959.4 26958.5 15964.2 26948.5L15999.4 26860.9L16133.8 26540.9C16246.4 26268.2 16405.8 25893.8 16556.8 25470.8C16593.9 25365.2 16627.8 25260.9 16654.7 25159.7C16681.6 25058.6 16699.5 24957.5 16714.9 24861.5C16742.1 24692.3 16749.2 24520.4 16736 24349.5C16726.7 24234.1 16705.3 24119.9 16672 24009C16646.4 23925.8 16628.5 23884.2 16631.7 23882.9Z" fill="#EB996E"/>
<path d="M14013.4 27081.7C14012.8 27051.7 14014.7 27021.7 14019.2 26992.1C14024.3 26933.8 14034.6 26850.6 14048.6 26748.2C14083.3 26479.4 14144.4 26214.6 14231 25957.8C14325.4 25703.4 14448 25460.4 14596.5 25233.3C14652.2 25146.3 14698.9 25075.9 14732.2 25028.5C14748 25003 14766.2 24979 14786.6 24956.9C14774.5 24984.4 14759.9 25010.7 14743 25035.6C14709.8 25090.6 14667.5 25163.6 14615 25245.5C14473.6 25474.4 14355.1 25716.6 14261.1 25968.7C14175.2 26223.7 14110.9 26485.6 14069.1 26751.4C14052.5 26848.7 14039 26930 14028.8 26993.3C14026.9 27023.3 14021.8 27052.9 14013.4 27081.7Z" fill="#EB996E"/>
<path d="M16617 23154.6C16611.6 23144.9 16607.5 23134.6 16604.8 23123.9L16576 23034.9C16551 22952.4 16516.5 22842.9 16474.9 22706.6C16389.8 22428.9 16268.8 22046.8 16125.4 21628.2C15982.1 21209.7 15843.2 20833.3 15741.4 20561.3L15619.8 20241.3C15607 20206.1 15596.8 20177.3 15587.8 20153.7C15583.3 20143.7 15580.3 20133.1 15578.9 20122.3C15585.4 20131.1 15590.6 20140.8 15594.2 20151.1L15632 20236.9C15664.6 20311.1 15709.4 20419.9 15763.2 20556.9C15871.4 20826.3 16013.4 21202 16157.4 21621.2C16301.4 22040.4 16418.6 22424.4 16498.6 22703.4C16538.2 22842.9 16569.6 22959.4 16589.4 23035.6C16598.4 23071.4 16606.1 23099.6 16611.8 23125.8C16614.9 23135.1 16616.6 23144.8 16617 23154.6Z" fill="#455A64"/>
<path d="M15054.1 20558.1C15050.2 20562.6 14970.9 20497.3 14829.4 20412.2C14746.9 20362.8 14661.4 20318.3 14573.4 20279.1C14465.1 20232.3 14353.7 20193 14240 20161.3C14125.6 20131.6 14009.3 20110.3 13891.8 20097.3C13796 20086.7 13699.6 20082.2 13603.2 20083.9C13438.1 20087.1 13337 20103.7 13335.7 20097.3C13358.4 20089.2 13382.1 20083.9 13406.1 20081.3C13471 20070 13536.7 20063 13602.6 20060.2C13700.1 20055.3 13797.8 20057.4 13895 20066.6C14014.3 20078.5 14132.5 20099.9 14248.3 20130.6C14363.9 20162.5 14476.8 20203.2 14586.2 20252.2C14674.8 20293.3 14760.4 20340.5 14842.2 20393.7C14897.9 20428.9 14951.1 20467.9 15001.6 20510.1C15021 20524 15038.6 20540.1 15054.1 20558.1Z" fill="#455A64"/>
<path d="M16031.4 16798.1C16050.6 16359.1 16569 15807.4 16435.2 14562C16294.4 13255.7 16096 12104.4 16096 12104.4L15111 12344.4L14942.1 12104.4L13315.8 12488.4L13059.8 12729.7L11931.5 13191.1C11864.8 13218.5 11804.3 13259.1 11753.6 13310.5C11702.9 13361.9 11663.1 13422.9 11636.5 13490L10850.6 15488.7L9142.4 14339.9L8495.36 15217.3C8495.36 15217.3 10645.8 17190.5 11207.7 17133.5C11711.4 17082.3 12133.1 16318.1 12342.4 15860.5L12666.2 17210.3C12666.2 17210.3 12154.2 18112.7 12051.2 19642.3L15429.1 19770.3C15533.3 19774.4 15637.1 19754.2 15732.1 19711.3C15827.2 19668.4 15911 19604.1 15977 19523.3L16617 18741.8C16617 18741.8 16012.2 17234.6 16031.4 16798.1Z" fill="#FF72A4"/>
<path d="M15635.8 12345.7L16071.7 12146L17783.7 10654.1L18399.4 8051.9L19487.4 8506.94C19487.4 8506.94 19383 10462.1 19246.7 11130.9C19110.4 11799.7 16361 13982.1 16361 13982.1L15635.8 12345.7Z" fill="#FF72A4"/>
<path d="M16233 12744.4C16247.5 12817.8 16257.9 12891.9 16264.3 12966.5C16282.9 13113 16306.6 13298.6 16332.2 13503.4C16357.8 13708.2 16379.5 13904.1 16391 14041.7C16397.4 14110.8 16401.3 14169.7 16403.2 14205.5C16406.2 14225.7 16406.2 14246.1 16403.2 14266.3C16387.1 14193.1 16375.8 14118.9 16369.3 14044.2C16350.7 13897.7 16327 13712.7 16300.8 13507.9C16274.6 13303.1 16253.4 13107.3 16242.6 12969C16236.8 12899.9 16233.6 12844.2 16232.3 12805.2C16229.3 12785 16229.5 12764.5 16233 12744.4Z" fill="#263238"/>
<path d="M15064.3 16239.4C15052.7 16229.5 15042 16218.6 15032.3 16206.8L14945.9 16108.2C14869.1 16019.3 14761.6 15895.1 14631 15742.8L13601.9 14526.8L13036.2 13854.1L13029.1 13845.8L13034.9 13836.9L13161 13617.3L13176.3 13638.5C13102.1 13653.8 13032.3 13657.7 12968.3 13671.1L12949.8 13675.6V13656.4C12984.3 13385 13013.8 13160.4 13033 12999.7C13043.2 12924.2 13051.5 12864.1 13057.9 12819.3C13059.7 12797.6 13063.5 12776.2 13069.4 12755.3C13069.9 12776.7 13068.6 12798.1 13065.6 12819.3C13061.1 12864.7 13055.4 12924.9 13047.7 13001C13030.4 13161.7 13006.1 13385 12976.6 13658.9L12960 13644.9C13024 13629.5 13097.6 13625 13168 13609.7L13199.4 13602.6L13184 13630.8C13145 13701.2 13104 13774.8 13061.1 13850.9V13833.7C13234.6 14039.7 13427.2 14266.9 13628.8 14505.7L14652.8 15726.8L14959.4 16099.3L15041.3 16201.7C15050.3 16213.4 15058 16226 15064.3 16239.4Z" fill="#263238"/>
<path d="M15317.1 16054.5C15316.7 16040.3 15318 16026.1 15321 16012.2L15338.2 15891.3C15354.2 15786.3 15379.8 15635.3 15413.1 15447.7C15446.4 15260.2 15485.4 15038.8 15521.9 14791.1C15563.2 14523.3 15587 14253.1 15593 13982.1C15600.5 13689.1 15579 13396.1 15529 13107.3L15540.5 13118.8L15317.1 13065.7L15283.2 13057.3L15313.3 13039.4L15476.5 12943.4L15472.6 12962C15401.6 12860.9 15349.1 12764.2 15299.8 12679.7C15250.6 12595.3 15210.2 12523.6 15175.7 12462.1C15141.1 12400.7 15111.7 12356.5 15094.4 12325.2C15083.5 12310 15073.8 12294 15065.6 12277.2C15069.5 12280.3 15073 12284 15075.8 12288.1C15084.7 12298.7 15093.1 12309.8 15100.8 12321.3C15121.9 12350.8 15151.4 12396.2 15187.8 12454.5L15315.8 12669.5C15366.4 12752.1 15421.4 12848.7 15491.8 12946.6L15500.2 12958.1L15488 12965.8L15326.1 13063.7L15322.2 13038.1L15545.6 13089.3H15555.2V13098.9C15609.2 13390.1 15633.5 13686 15627.5 13982.1C15621.2 14254.9 15595.9 14526.9 15552 14796.2C15514.2 15044.5 15471.4 15266.6 15436.2 15452.9C15401 15639.1 15372.2 15785.7 15351 15893.8C15341.4 15943.1 15333.8 15982.8 15327.4 16013.5C15325.3 16027.5 15321.9 16041.2 15317.1 16054.5Z" fill="#263238"/>
<path d="M15529 16743.1C15514.1 16756.3 15497.2 16767.1 15479 16775.1C15445.8 16793.7 15397.1 16818.6 15336.3 16848.1C15018.3 17000.3 14684.9 17118.1 14341.8 17199.4C14277.8 17214.8 14222.7 17226.3 14185.6 17232.7C14166.4 17238 14146.6 17240.1 14126.7 17239.1C14195.2 17213.8 14265.1 17192.5 14336 17175.1C14464 17138.6 14643.8 17084.9 14837.1 17016.4C15030.4 16947.9 15203.2 16877.5 15326.7 16824.4C15392.4 16793.1 15459.9 16765.9 15529 16743.1Z" fill="#263238"/>
<path d="M15583.4 17266.6C15530.7 17272.7 15477.6 17274.2 15424.6 17271.1C15326.7 17271.1 15191.7 17271.1 15040.6 17278.8C14889.6 17286.5 14757.1 17296.1 14659.8 17304.4C14608.5 17311.3 14556.7 17313.2 14505 17310.1C14555.7 17293.9 14608.1 17283.2 14661.1 17278.1C14758.4 17264.1 14894.1 17249.3 15045.1 17242.9C15196.2 17236.5 15331.2 17239.1 15429.1 17242.9C15481.3 17244.7 15533.1 17252.7 15583.4 17266.6Z" fill="#263238"/>
<path d="M15337 16756.5C15317.7 16640.7 15309.1 16523.3 15311.4 16405.8C15302.9 16288.7 15305.5 16171.1 15319 16054.5C15338.7 16170.3 15347.3 16287.7 15344.6 16405.2C15353.5 16522.3 15350.9 16639.9 15337 16756.5Z" fill="#263238"/>
<path d="M15285.1 17235.3C15260 17177.9 15245.1 17116.6 15241 17054.1C15226 16993 15222.1 16929.7 15229.4 16867.3C15269.6 16985.7 15288.4 17110.3 15285.1 17235.3Z" fill="#263238"/>
<path d="M15685.1 19732.5C15678.7 19701.1 15675.3 19669.2 15674.9 19637.2C15670.4 19573.2 15664 19486.1 15653.8 19376.7C15635.2 19156.5 15601.9 18853.2 15552.6 18520.4C15503.4 18187.6 15445.1 17886.1 15401 17672.4C15378.6 17564.2 15358.1 17477.2 15344.6 17416.4C15335.3 17385.5 15329.3 17353.8 15326.7 17321.7C15339.4 17351.3 15349.7 17381.9 15357.4 17413.2C15374.7 17472.1 15398.4 17558.5 15421.4 17666C15473.9 17881 15535.4 18181.2 15585.3 18514.6C15635.2 18848.1 15664.6 19154.6 15677.4 19374.1C15684.5 19484.9 15687 19573.8 15687.7 19635.9C15690 19668.1 15689.2 19700.5 15685.1 19732.5Z" fill="#263238"/>
<g opacity="0.3">
<path d="M12952.3 13666.6L13027.8 13698L12944.6 13890C12944.6 13890 14224.6 15455.4 14574.7 15758.1C14997.1 16125.5 15009.3 16172.9 15009.3 16172.9L13047.7 13842.6L13171.2 13623.1L12952.3 13666.6Z" fill="black"/>
</g>
<g opacity="0.3">
<path d="M13872 17316.5L15756.2 16729C15767.3 16783.9 15763 16840.7 15744 16893.3C15724.9 16945.9 15691.7 16992.3 15648 17027.3C15559.3 17095.8 15456.6 17144.1 15347.2 17168.7C14893.4 17296.7 14346.2 17376.1 13879 17316.5" fill="black"/>
</g>
<path d="M11315.8 15902.1C11209.5 15688.2 11022.6 15525.3 10796.2 15449C10832 15447.9 10867.7 15454.9 10900.5 15469.5C11065.1 15527.4 11201.3 15646 11281.3 15801C11299.9 15831.9 11311.7 15866.4 11315.8 15902.1Z" fill="#263238"/>
<path d="M11985.9 14153C11990.8 14162.5 11994.2 14172.6 11996.2 14183.1C12002.6 14207.4 12010.2 14236.2 12019.2 14271.4C12038.4 14354 12064.6 14463.4 12096.6 14598.5C12160.6 14874.3 12247.7 15256.4 12341.1 15678.1C12434.6 16099.9 12515.2 16478.8 12576.6 16760.4C12604.8 16895.4 12627.8 17006.8 12644.5 17089.3C12651.5 17125.2 12657.3 17153.3 12661.8 17178.9C12664.3 17189.2 12665.8 17199.7 12666.2 17210.3C12651.5 17171.9 12640.1 17132.3 12632.3 17091.9C12612.5 17010 12585.6 16899.9 12553.6 16765.5C12489.6 16489.7 12401.9 16108.2 12308.5 15685.8C12215 15263.4 12131.8 14878.1 12073 14603.6C12045.4 14468.5 12022.4 14357.2 12009 14274.6C12002.6 14238.8 11996.8 14210.6 11992.3 14184.4C11988.9 14174.2 11986.7 14163.7 11985.9 14153Z" fill="#263238"/>
<path d="M8773.12 15134.1C8766.76 15160.4 8768.09 15188 8776.96 15213.5C8781.99 15226.2 8789.76 15237.7 8799.71 15247.1C8809.66 15256.5 8821.56 15263.6 8834.56 15267.9C8850.26 15271.5 8866.69 15270.3 8881.67 15264.3C8896.64 15258.4 8909.46 15248 8918.4 15234.6C8928.64 15222.3 8934.96 15207.1 8936.55 15191.2C8938.15 15175.2 8934.95 15159.2 8927.36 15145C8919.43 15133.9 8909.23 15124.5 8897.43 15117.5C8885.62 15110.6 8872.49 15106.2 8858.88 15104.7C8831.81 15103.2 8804.9 15109.7 8781.44 15123.3C8781.44 15123.3 8781.44 15113 8795.52 15102.1C8813.85 15088.1 8836.46 15080.9 8859.52 15081.7C8877.47 15081.7 8895.16 15085.9 8911.17 15094C8927.17 15102.2 8941.05 15113.9 8951.68 15128.4C8962.9 15148 8968.11 15170.5 8966.66 15193C8965.21 15215.5 8957.16 15237.2 8943.52 15255.2C8929.88 15273.2 8911.25 15286.8 8889.94 15294.3C8868.63 15301.8 8845.59 15302.8 8823.68 15297.3C8806.77 15291.3 8791.57 15281.3 8779.32 15268.1C8767.07 15255 8758.14 15239.1 8753.28 15221.8C8744.92 15199.8 8744.92 15175.4 8753.28 15153.3C8763.52 15138.6 8771.84 15134.1 8773.12 15134.1Z" fill="#263238"/>
<path d="M18542.7 8414.14C18542.7 8414.14 18547.8 8404.54 18566.4 8399.42C18579.3 8397.69 18592.4 8398.56 18604.9 8401.96C18617.4 8405.37 18629.1 8411.25 18639.4 8419.26C18671.1 8442.17 18692.5 8476.67 18698.9 8515.26C18700.7 8540.35 18694 8565.33 18680 8586.21C18666 8607.09 18645.4 8622.67 18621.4 8630.46C18598.8 8639.91 18573.9 8642.64 18549.7 8638.33C18525.5 8634.02 18503.1 8622.84 18485.1 8606.14C18471.8 8591.26 18462.7 8573.09 18458.8 8553.51C18454.8 8533.93 18456.2 8513.66 18462.7 8494.78C18483.2 8430.78 18519 8411.58 18521 8414.14C18506.7 8441.84 18494.9 8470.76 18485.8 8500.54C18481.7 8515.15 18481.6 8530.55 18485.3 8545.25C18489 8559.94 18496.4 8573.42 18506.9 8584.38C18521 8596.12 18538.1 8603.75 18556.3 8606.46C18574.4 8609.17 18593 8606.84 18609.9 8599.74C18627.1 8594.34 18642.1 8583.49 18652.6 8568.83C18663.1 8554.17 18668.6 8536.49 18668.2 8518.46C18663.8 8487.22 18648.4 8458.6 18624.6 8437.82C18609.3 8422.87 18589.1 8414 18567.7 8412.86C18552.3 8414.14 18544 8419.9 18542.7 8414.14Z" fill="#263238"/>
<path d="M9505.92 12807.1C9925.76 12271.4 10492.8 11847.1 11177.6 11738.3C11530.9 11681.3 11873.3 11738.3 12208.6 11854.1C12564.5 11975.1 12905.6 12118.5 13281.3 12167.7C13712.6 12224.7 14145.9 12185 14576 12135.7C14659.2 12126.1 14967 12048.1 14967 11957.2C14967 11880.4 14659.8 11815.1 14576 11824.7C14185.6 11869.5 13790.7 11908.5 13397.8 11870.8C13013.8 11833.7 12665 11682 12304.6 11559.1C11953.1 11429.4 11576.3 11383 11203.8 11423.4C10831.2 11471 10473.1 11598.5 10154.2 11797.2C9820.63 12007.7 9526.66 12275.2 9285.76 12587.6C9258.05 12617.4 9242.65 12656.6 9242.65 12697.3C9242.65 12738.1 9258.05 12777.3 9285.76 12807.1C9315.1 12836 9354.64 12852.2 9395.84 12852.2C9437.04 12852.2 9476.58 12836 9505.92 12807.1Z" fill="#455A64"/>
<g opacity="0.3">
<path d="M9507.2 12811.6C9927.04 12275.9 10494.1 11851.6 11178.9 11742.8C11527.1 11695.5 11881.5 11735.3 12210.6 11858.6C12566.4 11978.9 12907.5 12122.9 13282.6 12172.2C13713.9 12229.2 14147.8 12189.5 14577.3 12140.2C14661.1 12130.6 14967 12076.2 14967 11986C14967 11909.2 14661.1 11819.6 14577.3 11829.2C14186.9 11874 13792 11913 13399 11874.6C13015 11838.1 12666.9 11686.5 12306.6 11563.6C11954.8 11434.1 11577.9 11387.4 11205.1 11427.3C10832.4 11475.2 10474.4 11602.9 10155.5 11801.7C9822.1 12012.2 9528.34 12279.7 9287.68 12592.1C9259.69 12621.8 9244.1 12661 9244.1 12701.8C9244.1 12742.6 9259.69 12781.9 9287.68 12811.6C9316.91 12840.5 9356.35 12856.7 9397.44 12856.7C9438.53 12856.7 9477.97 12840.5 9507.2 12811.6Z" fill="black"/>
</g>
<path d="M15593 9029.18C15738.9 8946.62 15767.7 8724.54 15668.5 8588.22C15614.9 8523.16 15542.9 8475.69 15462.1 8451.96C15381.2 8428.22 15295 8429.32 15214.7 8455.1C15231.9 8406.52 15233 8353.69 15217.8 8304.45C15202.6 8255.22 15171.9 8212.21 15130.2 8181.82C15045.3 8123.05 14943.5 8093.61 14840.3 8097.98C14702.7 8097.98 14545.3 8140.86 14489 8266.3C14467.2 8184.38 14374.4 8142.78 14289.9 8138.3C14176.5 8134.42 14065.6 8172.49 13978.5 8245.22C13891.3 8317.95 13834.1 8420.24 13817.6 8532.54C13741.9 8489.36 13654.7 8470.8 13568 8479.42C13524.9 8484.81 13484.7 8504.29 13453.8 8534.85C13422.9 8565.41 13403 8605.32 13397.1 8648.38C13368.1 8616.96 13331.8 8593.3 13291.3 8579.55C13250.8 8565.8 13207.6 8562.4 13165.4 8569.66C13103.3 8571.44 13043.2 8592.21 12993.3 8629.18C12968.8 8648.11 12950.7 8674.05 12941.3 8703.55C12931.9 8733.05 12931.7 8764.7 12940.8 8794.3C12881.9 8784.26 12821.3 8796.45 12770.9 8828.5C12720.4 8860.56 12683.7 8910.21 12667.7 8967.82C12651.8 9025.43 12657.8 9086.91 12684.6 9140.34C12711.4 9193.77 12757.1 9235.35 12812.8 9257.02C12772.4 9290.31 12741.1 9333.34 12721.9 9382.07C12702.6 9430.8 12696.2 9483.61 12703 9535.54C12709.9 9587.47 12729.8 9636.8 12761 9678.88C12792.2 9720.95 12833.6 9754.4 12881.3 9776.06C12869.6 9781.18 12859.3 9788.89 12851.1 9798.6C12842.8 9808.31 12836.9 9819.77 12833.8 9832.1C12830.6 9844.44 12830.3 9857.33 12832.9 9869.8C12835.5 9882.27 12840.9 9893.98 12848.6 9904.06C12879.4 9946.3 12858.9 9948.86 12912.6 9947.58C12922.9 10126.8 12937 10264.4 12947.2 10443.6C12954.2 10559.4 12951.7 10711.1 12993.9 10818.6C13025.6 10878.8 13068.9 10932.2 13121.3 10975.6C13173.7 11018.9 13234.1 11051.5 13299.2 11071.4L15433.6 10270.1C15504.4 10194.9 15552.4 10101.2 15572.1 9999.84C15591.8 9898.47 15582.4 9793.58 15545 9697.34C15538.1 9688.77 15533.3 9678.75 15530.9 9668.06C15528.6 9657.36 15528.6 9646.26 15531.2 9635.6C15533.7 9624.93 15538.6 9614.98 15545.5 9606.5C15552.5 9598.01 15561.3 9591.22 15571.2 9586.62C15614.5 9553.34 15650.5 9511.61 15677.1 9463.97C15703.7 9416.33 15720.4 9363.78 15726.1 9309.5C15730.1 9255.24 15720 9200.87 15696.6 9151.72C15673.3 9102.57 15637.6 9060.34 15593 9029.18Z" fill="#263238"/>
<path d="M15401 9758.14C15353 9326.14 14866.6 8915.26 14441 8981.18L13056 9310.14L13072 9543.1L13425.3 12679.1L14922.2 13571.3L14834.6 12029.5C14834.6 12029.5 15381.1 11911.7 15460.5 11183.4C15500.2 10824.4 15453.4 10235.6 15401 9758.14Z" fill="#FFBE9D"/>
<path d="M15134.1 10386C15135.3 10410 15127.2 10433.5 15111.5 10451.7C15095.7 10469.8 15073.5 10481.1 15049.6 10483.3C15026.4 10485.6 15003.1 10478.6 14985 10463.9C14966.9 10449.1 14955.4 10427.8 14953 10404.5C14951.4 10380.4 14959.3 10356.6 14975.1 10338.3C14990.9 10320 15013.3 10308.6 15037.4 10306.6C15060.8 10304.5 15084 10311.6 15102.1 10326.5C15120.1 10341.3 15131.7 10362.7 15134.1 10386Z" fill="#263238"/>
<path d="M15287.7 10067.9C15276.8 10080.7 15203.8 10032.1 15104.6 10037.2C15005.4 10042.3 14935 10095.4 14924.2 10083.9C14913.3 10072.4 14928.6 10056.4 14959.4 10031.4C15001 9999.86 15051.2 9981.77 15103.4 9979.58C15155.2 9976.46 15206.7 9990.39 15249.9 10019.3C15281.3 10041 15292.8 10062.8 15287.7 10067.9Z" fill="#263238"/>
<path d="M14265 10413.5C14266.6 10437.5 14258.7 10461.1 14243 10479.3C14227.3 10497.5 14205.1 10508.8 14181.1 10510.8C14169.4 10512.3 14157.5 10511.4 14146.1 10508.3C14134.8 10505.1 14124.1 10499.7 14114.9 10492.4C14105.6 10485 14098 10475.9 14092.3 10465.6C14086.6 10455.2 14083.1 10443.8 14081.9 10432.1C14080.3 10408 14088.2 10384.3 14103.9 10366C14119.5 10347.7 14141.8 10336.3 14165.8 10334.1C14177.5 10332.6 14189.5 10333.5 14200.9 10336.7C14212.3 10339.9 14222.9 10345.4 14232.2 10352.8C14241.5 10360.2 14249.1 10369.4 14254.8 10379.8C14260.4 10390.2 14263.9 10401.7 14265 10413.5Z" fill="#263238"/>
<path d="M14316.2 10154.3C14305.3 10167.1 14233 10118.5 14133.8 10123.6C14034.6 10128.7 13964.2 10181.8 13952.6 10169.7C13941.1 10157.5 13957.8 10142.8 13988.5 10117.8C14029.6 10086 14079.5 10067.7 14131.4 10065.4C14183.3 10063.1 14234.7 10076.9 14278.4 10105C14313 10127.4 14321.3 10148.5 14316.2 10154.3Z" fill="#263238"/>
<path d="M14708.5 10855.7C14760 10836.5 14813.8 10824 14868.5 10818.6C14893.4 10814.8 14917.1 10808.4 14921 10791.1C14921.7 10764.7 14914.6 10738.6 14900.5 10716.2L14816 10524.2C14698.2 10252.9 14611.8 10029.5 14624 10025C14636.2 10020.5 14739.2 10236.2 14857 10507.6C14885.1 10571.6 14912 10635.6 14938.2 10699.6C14955.4 10729.6 14961.8 10764.6 14956.2 10798.8C14952.9 10808 14947.6 10816.4 14940.6 10823.3C14933.6 10830.2 14925.2 10835.4 14915.8 10838.5C14902.2 10842.9 14888 10845.4 14873.6 10846.1C14819.1 10855.9 14763.7 10859.2 14708.5 10855.7Z" fill="#263238"/>
<path d="M14834.6 12032.1C14495.8 12053.4 14157.8 11979.8 13858.6 11819.6C13858.6 11819.6 14153 12356.5 14869.8 12254.8L14834.6 12032.1Z" fill="#EB996E"/>
<path d="M14678.4 11097.7C14658.3 11074.8 14632.7 11057.4 14604.1 11047.1C14575.4 11036.8 14544.6 11033.9 14514.6 11038.8C14492.9 11041.5 14472.1 11048.5 14453.3 11059.5C14434.4 11070.5 14418.1 11085.2 14405.1 11102.8C14393 11120.3 14386.5 11141 14386.5 11162.3C14386.5 11183.6 14393 11204.3 14405.1 11221.8C14421.8 11239.1 14443.3 11250.9 14466.9 11255.7C14490.4 11260.5 14514.8 11258 14537 11248.7C14583.2 11230 14625.2 11202.1 14660.5 11166.8C14671.2 11158.3 14680.4 11147.9 14687.4 11136.1C14690.8 11130.5 14692.7 11124.1 14692.7 11117.5C14692.7 11110.9 14690.8 11104.5 14687.4 11098.9" fill="#EB996E"/>
<path d="M14419.8 10938.3C14435.8 10938.3 14441.6 11044.5 14537.6 11117.5C14633.6 11190.5 14747.5 11172.5 14748.8 11187.3C14750.1 11202 14724.5 11209.7 14675.8 11213.5C14612.8 11217.3 14550.5 11198.7 14499.8 11161C14451 11124.5 14418.1 11070.7 14407.7 11010.6C14401.9 10965.2 14412.2 10938.3 14419.8 10938.3Z" fill="#263238"/>
<path d="M14329 9796.54C14320 9824.06 14220.8 9816.38 14105 9835.58C13989.1 9854.78 13896.3 9891.9 13879.7 9868.22C13872 9856.7 13887.4 9830.46 13923.8 9804.22C13973.1 9769.88 14029.5 9747.14 14088.8 9737.72C14148.1 9728.3 14208.8 9732.44 14266.2 9749.82C14313 9763.26 14332.2 9783.74 14329 9796.54Z" fill="#263238"/>
<path d="M15237.1 9781.18C15220.5 9804.86 15150.7 9781.19 15068.8 9787.59C14986.9 9793.99 14917.8 9809.99 14900.5 9787.59C14892.8 9776.07 14900.5 9753.02 14931.8 9729.98C14971.4 9702.2 15018.5 9687.03 15066.9 9686.47C15115.3 9685.12 15162.9 9698.76 15203.2 9725.51C15233.3 9747.27 15244.2 9769.66 15237.1 9781.18Z" fill="#263238"/>
<path d="M15063 8937.02L15018.2 8918.46C15088 8762.3 14970.2 8561.98 14803.8 8522.94C14719.4 8508.43 14632.5 8521.58 14556.2 8560.45C14479.8 8599.31 14418.1 8661.81 14380.2 8738.62C14341.8 8671.61 14281.9 8619.53 14210.2 8590.83C14138.6 8562.13 14059.3 8558.51 13985.3 8580.54C13864.3 8620.86 13777.9 8724.54 13694.7 8821.82C13676.2 8843.58 13652.5 8867.26 13623.7 8864.06C13603.2 8858.63 13584.9 8847.01 13571.2 8830.78C13499.1 8771.34 13410.8 8734.97 13317.8 8726.41C13224.8 8717.85 13131.3 8737.49 13049.6 8782.78C12969.1 8830.03 12898.9 8892.95 12843.2 8967.81C12787.4 9042.68 12747.3 9127.96 12725.1 9218.62C12701.9 9291.9 12697.9 9369.92 12713.6 9445.18C12721.7 9482.49 12739.6 9516.98 12765.3 9545.19C12791 9573.39 12823.8 9594.31 12860.2 9605.82C12827.7 9651.46 12806.1 9703.95 12797.1 9759.25C12788.1 9814.54 12792 9871.16 12808.4 9924.73C12824.8 9978.3 12853.3 10027.4 12891.7 10068.2C12930 10109 12977.3 10140.4 13029.8 10160.1C13037.4 10184.5 13048 10207.9 13061.1 10229.8C13049 10361.3 13044.5 10493.4 13047.7 10625.3C13045.7 10682.4 13057.6 10739 13082.2 10790.5C13095.4 10815.6 13116.1 10836 13141.5 10848.6C13166.9 10861.3 13195.7 10865.6 13223.7 10860.9C13283.2 10844.2 13366.4 10813.5 13384.3 10754C13415.7 10647.7 13381.1 10501.2 13389.4 10390.5C13451.1 10381.3 13508.8 10354.6 13555.7 10313.5C13602.6 10272.5 13636.7 10218.8 13654 10158.9C13671.2 10099.1 13670.9 10035.5 13653.1 9975.76C13635.2 9916.05 13600.6 9862.73 13553.3 9822.14C13604.9 9843.69 13661 9852.65 13716.8 9848.29C13772.6 9843.93 13826.6 9826.37 13874.3 9797.05C13922 9767.74 13962 9727.51 13991.1 9679.69C14020.2 9631.86 14037.5 9577.81 14041.6 9521.98C14092.6 9569.67 14153.4 9605.8 14219.6 9627.88C14285.9 9649.97 14356.2 9657.51 14425.6 9649.98C14492.4 9646.34 14555.1 9616.71 14600.3 9567.42C14621.8 9541.95 14633.1 9509.49 14632.1 9476.21C14631.2 9442.93 14618 9411.16 14595.2 9386.94C14658.9 9415.41 14729.6 9424.53 14798.4 9413.15C14867.3 9401.77 14931.2 9370.4 14982.4 9322.94C15031.8 9273.36 15065.7 9210.48 15080.1 9141.96C15094.4 9073.45 15088.5 9002.24 15063 8937.02Z" fill="#263238"/>
<path d="M13257.6 10503.7C13246.7 10499.3 12828.2 10389.8 12855 10814.1C12881.9 11238.5 13299.8 11125.2 13299.8 11113C13299.8 11100.9 13257.6 10503.7 13257.6 10503.7Z" fill="#FFBE9D"/>
<path d="M13161 10960.1C13161 10960.1 13153.9 10965.8 13141.8 10972.2C13124.7 10980.9 13104.9 10982.5 13086.7 10976.7C13058.3 10960.8 13034.7 10937.7 13018 10909.7C13001.4 10881.7 12992.4 10849.9 12992 10817.3C12988.9 10781.1 12993.7 10744.7 13006.1 10710.5C13009.3 10697 13015.7 10684.5 13024.7 10674.1C13033.7 10663.6 13045.1 10655.4 13057.9 10650.3C13066.3 10647.5 13075.4 10647.7 13083.6 10651C13091.8 10654.3 13098.6 10660.4 13102.7 10668.2C13109.1 10679.7 13107.2 10688.1 13109.1 10688.7C13111 10689.3 13118.1 10681 13113.6 10663.7C13110.5 10653.4 13103.9 10644.3 13095 10638.1C13089.1 10634.1 13082.4 10631.3 13075.4 10629.9C13068.4 10628.5 13061.1 10628.4 13054.1 10629.8C13036.9 10634.3 13021.1 10643.1 13008.3 10655.4C12995.6 10667.8 12986.2 10683.2 12981.1 10700.2C12965.2 10738 12959.1 10779.1 12963.2 10819.9C12963.2 10857.8 12974.5 10894.9 12995.5 10926.5C13016.6 10958 13046.6 10982.6 13081.6 10997.2C13092.7 10999.2 13104.2 10998.9 13115.2 10996.3C13126.2 10993.6 13136.6 10988.7 13145.6 10981.8C13161 10970.3 13161 10960.7 13161 10960.1Z" fill="#EB996E"/>
<path d="M14020.5 9450.3C14024.3 9450.71 14028.2 9450.71 14032 9450.3L14065.9 9454.14C14108.7 9457.37 14151.7 9455.22 14193.9 9447.74C14224.6 9441.8 14254.5 9432.13 14282.9 9418.94C14316.5 9403.8 14346.8 9382.03 14371.8 9354.94C14400.1 9322.7 14420.1 9284.03 14430.1 9242.3C14441.2 9195.16 14434.9 9145.57 14412.2 9102.78L14400.6 9113.66C14489.1 9170.21 14593.5 9196.48 14698.2 9188.54C14755.4 9185.02 14811.4 9170.91 14863.4 9146.94C14890.6 9134.24 14916 9117.88 14938.9 9098.3C14962.1 9077 14979.2 9049.8 14988.2 9019.58C14997.2 8984.64 14998.3 8948.11 14991.4 8912.7C14985.8 8878.58 14977.4 8844.98 14966.4 8812.22C14956.3 8779.91 14941.9 8749.12 14923.5 8720.7C14914.4 8706.07 14902.2 8693.65 14887.7 8684.35C14873.2 8675.05 14856.8 8669.1 14839.7 8666.94V8684.22C14902.5 8700.24 14968.8 8694.37 15027.8 8667.58C15082.1 8644.48 15128.6 8606.54 15162.2 8558.14C15191.4 8515.67 15207.6 8465.65 15209 8414.14C15209.3 8360.33 15195.5 8307.38 15169 8260.55C15142.5 8213.73 15104.2 8174.66 15057.9 8147.26C15038.1 8135.55 15016.5 8127.32 14993.9 8122.94C15014 8131.74 15033.7 8141.57 15052.8 8152.38C15104.6 8185.15 15145.3 8232.92 15169.3 8289.34C15186.3 8328.68 15194.6 8371.27 15193.6 8414.14C15192.5 8463.81 15176.5 8512 15147.5 8552.38C15115.3 8597.87 15071 8633.36 15019.5 8654.78C14963.8 8679.56 14901.3 8684.75 14842.2 8669.5L14839 8687.42C14853.5 8689.41 14867.4 8694.65 14879.6 8702.74C14891.8 8710.82 14902 8721.56 14909.4 8734.14C14927 8760.75 14940.4 8789.89 14949.1 8820.54C14974.7 8882.69 14982.2 8950.78 14970.9 9017.02C14961.4 9043.43 14946.2 9067.43 14926.4 9087.33C14906.6 9107.24 14882.7 9122.56 14856.3 9132.22C14806.3 9155.3 14752.5 9169.18 14697.6 9173.18C14596.7 9181.14 14496 9156.45 14410.2 9102.78L14382.7 9084.86L14398.7 9113.66C14420.1 9152.73 14426.2 9198.32 14416 9241.66C14407.1 9281.2 14388.9 9318.05 14362.9 9349.18C14339.3 9376 14310.6 9397.77 14278.4 9413.18C14251.2 9426.58 14222.4 9436.47 14192.6 9442.62C14150.6 9451.33 14107.6 9454.98 14064.6 9453.5C14050 9451.52 14035.3 9450.45 14020.5 9450.3Z" fill="white"/>
<path d="M15145 9234.62C15145 9234.62 15153.3 9240.38 15169.9 9244.86C15200.5 9252.65 15232.4 9253.05 15263.1 9246.04C15293.8 9239.03 15322.4 9224.8 15346.6 9204.54C15355.7 9196.48 15363.1 9186.66 15368.4 9175.66C15373.7 9164.67 15376.7 9152.72 15377.3 9140.54C15377.9 9127.52 15374.7 9114.6 15368.3 9103.27C15361.8 9091.95 15352.3 9082.68 15340.8 9076.54L15334.4 9094.46H15340.8C15382.2 9103.95 15425.1 9104.22 15466.6 9095.27C15508 9086.31 15547 9068.33 15580.8 9042.62C15601.1 9027.23 15619 9008.9 15633.9 8988.22C15639.9 8981.03 15644.5 8972.78 15647.4 8963.9C15624.6 8988.57 15599.7 9011.26 15573.1 9031.74C15540.3 9054.5 15503.1 9070.24 15463.9 9077.95C15424.7 9085.65 15384.3 9085.18 15345.3 9076.54H15339.5L15250.6 9056.7L15333.1 9093.82C15341.6 9098.63 15348.6 9105.74 15353.3 9114.35C15357.9 9122.96 15360 9132.7 15359.4 9142.46C15357.9 9161.76 15349.2 9179.8 15335 9193.02C15309 9216.5 15276.8 9232.05 15242.2 9237.82C15209.8 9241.51 15177.1 9240.43 15145 9234.62Z" fill="white"/>
<path d="M18585 8105.02L18631.7 7840.06C18631.7 7840.06 18476.8 7264.06 18492.8 7180.86C18508.8 7097.66 18526.1 6702.78 18526.1 6702.78L18924.2 6254.78C18952.2 6253.72 18979.9 6261 19003.9 6275.7C19027.8 6290.39 19046.8 6311.84 19058.6 6337.34C19058.6 6337.34 19240.3 6322.62 19281.3 6445.5C19296.9 6437.11 19314.4 6432.85 19332.1 6433.1C19349.9 6433.36 19367.2 6438.14 19382.6 6446.98C19398 6455.82 19410.9 6468.43 19420 6483.63C19429.1 6498.82 19434.3 6516.1 19434.9 6533.82C19443.1 6571.65 19446.7 6610.32 19445.8 6649.02C19472 6654.78 19623 6690.62 19624.3 6765.5C19619.7 6880.67 19598.1 6994.53 19560.3 7103.42C19552.4 7122.78 19539.9 7139.9 19523.8 7153.29C19507.7 7166.67 19488.6 7175.92 19468.2 7180.22L19423.4 7384.38C19423.4 7384.38 19384.3 7719.74 19309.4 7875.9L19252.5 7968.7L19235.2 8386.62L18585 8105.02Z" fill="#FFBE9D"/>
<path d="M19177 6617.66C19155.3 6510.69 19111.7 6409.36 19049 6320.06L18896.6 6417.34C18914.4 6469.14 18935.8 6519.61 18960.6 6568.38C18971.2 6597.18 18988.3 6623.16 19010.5 6644.35C19032.6 6665.54 19059.4 6681.37 19088.6 6690.62C19122.6 6698.94 19166.1 6690.62 19177 6657.34C19180.2 6644.31 19180.2 6630.7 19177 6617.66Z" fill="#FFBE9D"/>
<path d="M18897.3 6417.34C18898 6428.09 18900.4 6438.67 18904.3 6448.7C18913.4 6476.29 18924.3 6503.23 18937 6529.34C18944.6 6546.62 18952.3 6565.18 18961.3 6585.02C18971 6606.28 18984 6625.92 18999.7 6643.26C19017.5 6663.01 19039.3 6678.72 19063.7 6689.34C19077.1 6695.06 19091.6 6698.01 19106.2 6698.01C19120.9 6698.01 19135.3 6695.06 19148.8 6689.34C19156 6686.36 19162.5 6681.93 19167.9 6676.31C19173.3 6670.69 19177.5 6664.01 19180.2 6656.7C19183.7 6642.62 19183.7 6627.9 19180.2 6613.82C19176.1 6588.24 19170.1 6562.99 19162.2 6538.3C19149.4 6497.01 19132.9 6456.95 19113 6418.62C19095.7 6385.34 19079.7 6360.38 19068.8 6343.1C19063.2 6333.83 19056.7 6325.05 19049.6 6316.86C19053.8 6326.81 19058.7 6336.44 19064.3 6345.66C19074.6 6363.58 19088.6 6389.18 19104.6 6422.46C19123.6 6460.95 19139.2 6500.99 19151.4 6542.14C19158.2 6566.37 19163.7 6590.94 19168 6615.74C19170.9 6627.73 19170.9 6640.23 19168 6652.22C19166 6657.95 19162.7 6663.19 19158.6 6667.6C19154.4 6672.01 19149.3 6675.49 19143.7 6677.82C19131.8 6682.87 19119.1 6685.48 19106.2 6685.48C19093.4 6685.48 19080.6 6682.87 19068.8 6677.82C19046.1 6668.28 19025.8 6653.86 19009.3 6635.58C18993.9 6618.92 18981 6600.17 18970.9 6579.9C18961.9 6561.34 18954.2 6542.14 18945.9 6525.5C18932.4 6499.93 18920.2 6473.66 18909.4 6446.78C18906.2 6436.66 18902.1 6426.81 18897.3 6417.34Z" fill="#EB996E"/>
<path d="M19139.8 6686.14C19139.8 6686.14 19139.8 6686.14 19139.8 6695.1C19139.2 6703.84 19139.2 6712.61 19139.8 6721.34C19142.1 6753.4 19150.5 6784.71 19164.8 6813.5C19186.6 6856.1 19218.5 6892.78 19257.6 6920.38C19269.4 6929.05 19283 6935.13 19297.3 6938.21C19311.6 6941.3 19326.5 6941.33 19340.8 6938.3C19356.6 6935.33 19370.8 6926.96 19381.1 6914.62C19391.4 6901.43 19397 6885.24 19397.1 6868.54C19395.4 6838.45 19390.5 6808.63 19382.4 6779.58C19375.4 6751.42 19367.7 6724.54 19360 6698.94L19318.4 6564.54C19306.9 6526.78 19297.9 6495.42 19292.8 6474.3C19290.6 6462.66 19287.2 6451.29 19282.6 6440.38C19283 6452.05 19284.7 6463.64 19287.7 6474.94C19292.2 6497.34 19299.2 6528.7 19310.1 6567.1C19321 6605.5 19334.4 6652.22 19349.1 6702.14C19356.2 6727.74 19363.2 6754.62 19370.2 6782.14C19377.8 6810.19 19382.5 6838.92 19384.3 6867.9C19384.6 6881.8 19380.1 6895.37 19371.5 6906.3C19362.8 6916.43 19351.2 6923.59 19338.2 6926.78C19325.4 6929.19 19312.3 6929.02 19299.5 6926.27C19286.8 6923.53 19274.7 6918.26 19264 6910.78C19226.2 6886.16 19194.6 6853.07 19171.8 6814.14C19157 6786.72 19147.5 6756.76 19143.7 6725.82C19140.5 6701.5 19141.1 6686.14 19139.8 6686.14Z" fill="#EB996E"/>
<path d="M19237.1 6904.38C19237.1 6904.38 19237.1 6904.38 19233.3 6914.62C19229.4 6924.86 19229.4 6931.26 19226.9 6944.7C19220.9 6982.23 19220.9 7020.45 19226.9 7057.98C19234.3 7114.88 19260.7 7167.62 19301.8 7207.74C19326.8 7232.03 19360.3 7245.78 19395.2 7246.14C19404.7 7245.98 19414.1 7243.91 19422.7 7240.06C19431.4 7236.21 19439.3 7230.66 19445.8 7223.74C19458.2 7208.86 19465.8 7190.56 19467.5 7171.26C19472.4 7102.65 19472.4 7033.79 19467.5 6965.18C19462.4 6901.18 19457.9 6846.78 19454.1 6798.78C19450.2 6750.78 19449 6713.02 19447.7 6686.78C19448.5 6672.92 19448.5 6659.03 19447.7 6645.18C19447.7 6645.18 19447.7 6649.02 19447.7 6656.06C19447.7 6663.1 19447.7 6673.34 19447.7 6686.78C19447.7 6713.02 19447.7 6750.78 19447.7 6799.42C19447.7 6848.06 19454.7 6903.74 19458.6 6966.46C19463.1 7034.01 19463.1 7101.79 19458.6 7169.34C19457.1 7186.01 19450.6 7201.84 19440 7214.78C19434.8 7220.69 19428.4 7225.44 19421.2 7228.75C19414.1 7232.05 19406.3 7233.83 19398.4 7233.98C19366.6 7233.22 19336.3 7220.67 19313.3 7198.78C19273.5 7160.73 19247.6 7110.5 19239.7 7056.06C19230 7006.04 19229.1 6954.7 19237.1 6904.38Z" fill="#EB996E"/>
<path d="M15201.9 6693.82L15208.3 6677.82L15217.9 6691.9C15225.5 6702.85 15236.2 6711.31 15248.6 6716.22L15264 6722.62L15250.6 6732.22C15239.2 6739.57 15230.5 6750.32 15225.6 6762.94L15219.2 6778.3L15210.2 6764.22C15202.5 6753.42 15191.8 6745 15179.5 6739.9L15164.2 6733.5L15177.6 6723.9C15188.4 6716.37 15196.8 6705.94 15201.9 6693.82Z" fill="#E0E0E0"/>
<path d="M19464.3 4926.14L19475.2 4899.9L19491.8 4922.94C19504.8 4941.85 19523.1 4956.54 19544.3 4965.18L19570.6 4976.06L19547.5 4992.7C19528.4 5005.5 19513.7 5023.81 19505.3 5045.18L19494.4 5071.42L19477.8 5048.38C19464.8 5029.46 19446.5 5014.78 19425.3 5006.14L19398.4 4995.26L19422.1 4978.62C19440.8 4965.45 19455.5 4947.26 19464.3 4926.14Z" fill="#E0E0E0"/>
<path d="M19276.8 3970.62L19294.7 3926.46L19322.9 3965.5C19344.7 3997.34 19375.4 4022.05 19411.2 4036.54L19455.4 4054.46L19416.3 4082.62C19384.6 4104.61 19360 4135.28 19345.3 4170.94L19327.4 4215.1L19299.8 4176.06C19277.6 4144.33 19246.7 4119.66 19210.9 4105.02L19166.7 4087.1L19205.8 4059.58C19237.5 4037.37 19262.2 4006.48 19276.8 3970.62Z" fill="#E0E0E0"/>
<path d="M17118.1 7943.74L17102.1 7898.3L17148.8 7909.82C17186.3 7918.71 17225.5 7916.94 17262.1 7904.7L17307.5 7888.7L17296.6 7935.42C17287.1 7972.86 17288.9 8012.28 17301.8 8048.7L17317.1 8094.14L17270.4 8082.62C17232.9 8073.74 17193.7 8075.51 17157.1 8087.74L17111.7 8103.74L17123.2 8057.02C17132.1 8019.52 17130.3 7980.29 17118.1 7943.74Z" fill="#E0E0E0"/>
<path d="M16341.1 6302.14C16259.8 6400.06 16176 6494.14 16097.3 6595.26C16062.3 6637.42 16037 6686.69 16023.1 6739.64C16009.2 6792.58 16007 6847.93 16016.6 6901.82C16028.9 6956.56 16052.3 7008.21 16085.3 7053.56C16118.3 7098.92 16160.3 7137.01 16208.6 7165.5C16507.5 7370.3 16873.6 7543.1 17244.8 7497.66C17497.1 7461.95 17726.1 7330.95 17884.8 7131.58C17897.8 7115.22 17903.8 7094.43 17901.7 7073.66C17899.6 7052.88 17889.4 7033.77 17873.3 7020.4C17857.3 7007.03 17836.7 7000.46 17815.8 7002.1C17795 7003.74 17775.7 7013.46 17761.9 7029.18C17642.8 7180.55 17475.4 7286.5 17287.7 7329.34C17125.7 7357.48 16959.2 7344.04 16803.8 7290.3C16654.9 7241.01 16513 7172.83 16381.4 7087.42C16311.7 7052.87 16250.1 7003.77 16201 6943.42C16178.2 6905.54 16167.8 6861.52 16171.3 6817.47C16174.7 6773.42 16191.8 6731.54 16220.2 6697.66C16298.9 6597.82 16383.4 6505.66 16464.6 6404.54C16478.2 6388.16 16484.7 6367.06 16482.8 6345.87C16480.8 6324.69 16470.5 6305.16 16454.1 6291.58C16437.7 6278 16416.6 6271.49 16395.4 6273.47C16374.2 6275.45 16354.7 6285.76 16341.1 6302.14Z" fill="#FF72A4"/>
<path d="M18005.1 4536.38C18081.9 4444.22 18158.1 4352.06 18234.9 4260.54C18254.8 4232.51 18280.8 4209.36 18311 4192.85C18341.1 4176.33 18374.6 4166.87 18409 4165.18C18503.7 4165.18 18563.2 4229.18 18624 4293.18C18839 4514.62 19038.7 4798.78 19060.5 5116.22C19069.9 5329.48 18997.1 5538.22 18857 5699.26C18844 5715.62 18837.9 5736.41 18840.1 5757.18C18842.2 5777.96 18852.4 5797.07 18868.4 5810.44C18884.5 5823.81 18905.1 5830.38 18925.9 5828.74C18946.7 5827.1 18966.1 5817.38 18979.8 5801.66C19128.9 5629.79 19215.5 5412.61 19225.6 5185.34C19225.1 4988.35 19173.3 4794.89 19075.2 4624.06C18986.4 4465.21 18876.4 4319.22 18748.2 4190.14C18684.6 4109.2 18598.7 4048.68 18501.1 4016.06C18443.5 4001.71 18383.3 4001.49 18325.6 4015.42C18267.8 4029.35 18214.3 4057.01 18169.6 4096.06C18065.5 4200.9 17969.4 4313.44 17882.2 4432.7C17875.5 4440.77 17870.4 4450.09 17867.2 4460.13C17864 4470.18 17862.9 4480.75 17863.8 4491.24C17864.7 4501.72 17867.7 4511.93 17872.6 4521.27C17877.4 4530.61 17884.1 4538.89 17892.2 4545.66C17900.2 4552.43 17909.6 4557.54 17919.6 4560.7C17929.6 4563.86 17940.2 4565.02 17950.7 4564.1C17961.2 4563.17 17971.4 4560.2 17980.7 4555.33C17990.1 4550.47 17998.4 4543.81 18005.1 4535.74V4536.38Z" fill="#FF72A4"/>
<path d="M19153.9 6787.9L18985.6 6915.9V6921.02H18981.1L18886.4 7113.02C18886.4 7113.02 19181.4 7395.26 19306.9 7701.82L19556.5 7402.94L19562.9 7394.62L19812.5 7095.74C19484.8 7027.9 19153.9 6787.9 19153.9 6787.9Z" fill="#FF72A4"/>
<path d="M19226.2 6750.14L18860.2 7189.18C18848.9 7202.75 18835.1 7213.96 18819.5 7222.17C18803.9 7230.39 18786.9 7235.44 18769.3 7237.05C18751.8 7238.65 18734.1 7236.78 18717.3 7231.53C18700.5 7226.28 18684.9 7217.76 18671.4 7206.46C18657.3 7195.2 18645.7 7181.21 18637.2 7165.35C18628.7 7149.48 18623.5 7132.07 18621.9 7114.14C18620.3 7096.21 18622.3 7078.14 18627.8 7061.02C18633.3 7043.89 18642.3 7028.05 18654.1 7014.46L19020.2 6575.42C19031.4 6561.86 19045.2 6550.65 19060.8 6542.43C19076.4 6534.22 19093.4 6529.16 19111 6527.56C19128.5 6525.95 19146.2 6527.83 19163 6533.08C19179.8 6538.32 19195.4 6546.84 19209 6558.14C19223 6569.41 19234.6 6583.39 19243.1 6599.26C19251.6 6615.12 19256.8 6632.54 19258.5 6650.47C19260.1 6668.39 19258 6686.46 19252.5 6703.59C19247 6720.72 19238 6736.55 19226.2 6750.14Z" fill="#FF72A4"/>
<path d="M17705 4093.5L16841 5131.58L16794.9 5186.62L15977 6166.46C15991.7 6190.78 17946.9 7993.02 18865.3 6819.26C19857.3 5701.18 17732.5 4104.38 17705 4093.5Z" fill="#FF72A4"/>
<path d="M17705 4093.5C17712.3 4096.84 17719.2 4101.14 17725.4 4106.3C17738.9 4115.26 17758.1 4128.7 17782.4 4147.9C17832.3 4185.02 17904 4241.98 17993.6 4319.42C18246.9 4536.68 18477.8 4778.74 18682.9 5041.98C18825.4 5224.26 18943.5 5424.35 19034.2 5637.18C19145.8 5882.49 19171.5 6158.2 19107.2 6419.9C19067.4 6559.61 18997.5 6688.93 18902.4 6798.78C18812.3 6920.12 18699.2 7022.54 18569.6 7100.22C18432.3 7177.22 18278.9 7221.05 18121.6 7228.22C17961 7235.46 17800.1 7217.98 17644.8 7176.38C17314.9 7082.57 17001.3 6938.82 16714.9 6750.14C16576 6661.82 16444.2 6569.02 16318.7 6473.66C16254.7 6425.66 16195.8 6377.02 16137.6 6328.38L16050.6 6254.14C16021.8 6227.9 15996.2 6207.42 15965.4 6175.42L15958.4 6167.74L15966.7 6157.5C16478.7 5546.3 16913.3 5029.18 17219.8 4663.1L17577 4240.7L17671.7 4129.98L17696.6 4102.46C17699.1 4099.21 17701.9 4096.21 17705 4093.5C17702.8 4097.42 17700.3 4101.07 17697.3 4104.38L17673 4134.46L17580.2 4249.66L17229.4 4677.82L15990.4 6174.14L15980.2 6163.9L15991.7 6156.86L15995.5 6160.7L16005.8 6169.66L16026.2 6188.86L16067.8 6225.34L16156.8 6302.14C16215.7 6350.78 16275.8 6398.14 16337.9 6445.5C16462.7 6540.22 16593.9 6632.38 16732.2 6720.06C17016.1 6907.07 17326.9 7049.72 17653.8 7143.1C17805.8 7183.78 17963.1 7201.04 18120.3 7194.3C18272.4 7186.94 18420.7 7144.44 18553.6 7070.14C18679.9 6994.32 18790.3 6894.78 18878.7 6777.02C18971.2 6670.52 19039.3 6545.16 19078.4 6409.66C19141.4 6154.37 19117 5885.35 19009.3 5645.5C18920.3 5435.25 18804.6 5237.36 18665 5056.7C18462 4793.09 18234.5 4549.43 17985.3 4329.02C17897 4254.14 17827.2 4190.14 17779.2 4153.02L17724.2 4108.86L17705 4093.5Z" fill="#263238"/>
<g opacity="0.3">
<path d="M17705 4093.5C17833 4198.46 17953.9 4292.54 18067.2 4395.58C18832 5089.98 19324.8 5875.9 19049 6542.78L18837.8 6862.78C18837.8 6862.78 19060.5 6044.86 18645.8 5454.78C18231 4864.7 17660.2 4193.34 17660.2 4193.34L17705 4093.5Z" fill="black"/>
</g>
<path d="M20337.9 6930.62L19259.5 8222.14C19217.5 8187.16 19182.8 8144.23 19157.4 8095.83C19132 8047.42 19116.4 7994.48 19111.5 7940.03C19106.5 7885.59 19112.4 7830.7 19128.7 7778.52C19144.9 7726.33 19171.4 7677.87 19206.4 7635.9L19753 6983.74C19787.9 6941.74 19830.9 6907.04 19879.3 6881.63C19927.7 6856.22 19980.6 6840.61 20035.1 6835.67C20089.5 6830.74 20144.4 6836.59 20196.6 6852.88C20248.8 6869.17 20297.2 6895.59 20339.2 6930.62H20337.9Z" fill="#FF72A4"/>
<path d="M20498.7 6704.78L19051.3 8441.96L19887.2 9138.4L21334.6 7401.22L20498.7 6704.78Z" fill="#263238"/>
<path d="M20499.3 7143.85L19475.5 8372.62L19885.1 8713.87L20908.9 7485.11L20499.3 7143.85Z" fill="#455A64"/>
<path d="M17372.8 5544.38L17776 5641.66L18085.1 5364.54L18117.1 5777.98L18476.8 5985.98L18092.8 6144.7L18006.4 6551.1L17737 6234.94L17324.2 6277.82L17541.1 5923.9L17372.8 5544.38Z" fill="white"/>
<path d="M18425.6 7013.82L18420.5 7018.3L18405.8 7029.82C18385.6 7044.11 18364.2 7056.53 18341.8 7066.94C18307.3 7083.29 18271 7095.32 18233.6 7102.78C18184.3 7112.89 18134.1 7117.4 18083.8 7116.22C18022.8 7115.34 17962 7109.13 17902.1 7097.66L17801.6 7078.46C17767.7 7070.78 17733.1 7061.18 17697.3 7052.86C17543.3 7010.14 17393.4 6954.03 17249.3 6885.18C17104.6 6816.67 16964.2 6739.52 16828.8 6654.14C16700.8 6576.06 16593.3 6500.54 16501.8 6437.18C16410.2 6373.82 16337.3 6319.42 16287.4 6282.3L16233 6238.14L16217.6 6227.26L16213.1 6222.78L16218.2 6226.62L16233 6238.14L16291.2 6279.74C16342.4 6316.22 16416 6368.7 16507.5 6432.06C16599 6495.42 16709.1 6570.3 16834.6 6647.74C16969.2 6732.68 17108.8 6809.61 17252.5 6878.14C17396.7 6946.61 17546.6 7002.49 17700.5 7045.18C17736.3 7054.14 17770.9 7063.74 17804.8 7071.42L17904.6 7091.26C17964.4 7102.38 18025 7108.58 18085.8 7109.82C18135.8 7111.41 18185.8 7107.33 18234.9 7097.66C18272 7090.48 18308.1 7078.88 18342.4 7063.1C18364.7 7053.07 18386.2 7041.07 18406.4 7027.26L18421.8 7016.38L18425.6 7013.82Z" fill="white"/>
<path d="M18691.8 7059.26C18688.2 7068.28 18685.8 7077.75 18684.8 7087.42C18684.1 7099.37 18686.1 7111.32 18690.6 7122.4C18695.2 7133.48 18702.2 7143.39 18711 7151.42C18728.8 7166.56 18749.5 7177.89 18771.8 7184.7C18788.5 7190.46 18799.4 7193.66 18799.4 7194.3C18789.3 7194.24 18779.4 7192.51 18769.9 7189.18C18746.3 7183.44 18724.4 7172.26 18705.9 7156.54C18697.3 7148.3 18690.5 7138.35 18686 7127.32C18681.5 7116.3 18679.3 7104.45 18679.7 7092.54C18680.6 7085.11 18683 7077.93 18686.7 7071.42L18691.8 7059.26Z" fill="white"/>
<path d="M19269.8 7632.06C19269.8 7632.06 19265.3 7637.82 19257.6 7648.7C19246 7663.49 19235.5 7679.1 19226.2 7695.42C19194.8 7749.22 19175.8 7809.35 19170.6 7871.42C19166.1 7933.61 19175 7996.04 19196.8 8054.46C19203.6 8072 19211.6 8089.09 19220.5 8105.66C19224.1 8111.53 19227.1 8117.75 19229.4 8124.22L19226.2 8120.38L19217.9 8106.94C19208.3 8090.65 19199.8 8073.76 19192.3 8056.38C19168.6 7997.76 19158.8 7934.47 19163.5 7871.42C19170.5 7788.98 19202.4 7710.62 19255 7646.78L19265.9 7635.26C19265.9 7635.26 19269.8 7631.42 19269.8 7632.06Z" fill="white"/>
<path d="M18917.1 7189.82C18991.5 7117.07 19050.3 7029.98 19089.9 6933.82C19109.3 6885.98 19114.2 6833.51 19104.1 6782.9C19093.9 6732.29 19069.2 6685.75 19033 6649.02L18585 7161.02L19086.7 7815.74C19232 7566.14 19113 7269.82 18917.1 7189.82Z" fill="#FFBE9D"/>
<path d="M19177 7710.15C19177 7710.15 19177 7706.3 19177 7698.62C19177 7690.95 19182.1 7680.07 19184 7664.71C19191.1 7621.26 19191.1 7576.95 19184 7533.5C19173.1 7466.86 19148 7403.33 19110.4 7347.27C19063.3 7275.62 18996.7 7218.97 18918.4 7184.06V7193.67C18955.2 7154.23 18989.8 7112.78 19022.1 7069.5C19057.4 7023.09 19083.8 6970.59 19100.2 6914.62C19112 6866.05 19112 6815.36 19100.2 6766.79C19090.2 6720.31 19065.8 6678.18 19030.4 6646.46L19025.9 6642.62L19022.1 6647.1L18702.1 7018.31L18610.6 7125.83L18586.2 7155.27C18580.5 7162.31 18577.9 7165.51 18578.6 7166.15L18587.5 7156.54L18613.1 7129.02L18707.8 7022.79L19031 6655.42H19022.7C19055.4 6685.81 19077.8 6725.64 19086.7 6769.35C19096.9 6816.11 19095.6 6864.65 19082.9 6910.79C19067.3 6965.37 19041.7 7016.58 19007.4 7061.83C18975.6 7104.74 18941.6 7145.97 18905.6 7185.35L18899.8 7191.1H18907.5C18985.3 7224.38 19051.9 7279.23 19099.5 7349.19C19136.8 7403.95 19162.3 7465.84 19174.4 7530.94C19182.2 7573.16 19183.7 7616.29 19178.9 7658.94C19182.1 7694.14 19177 7710.15 19177 7710.15Z" fill="#EB996E"/>
<path d="M19200.6 7673.66C19383 7433.66 19607.7 7184.06 19790.1 6943.42Z" fill="#FF72A4"/>
<path d="M19790.1 6942.14C19708.2 7076.09 19613.7 7201.89 19507.8 7317.82C19429.1 7411.9 19357.4 7496.38 19294.1 7573.82C19267 7611.04 19235.6 7644.98 19200.6 7674.94C19282.3 7541.03 19376.6 7415.24 19482.2 7299.26L19696.6 7043.26C19724.2 7006.41 19755.5 6972.52 19790.1 6942.14Z" fill="#263238"/>
<path d="M11597.4 24384.1L11517.4 24364.2C11517.4 24364.2 10632.3 25591.1 10369.9 25541.8L11054.7 22839.1L11944.3 23104.1C11656.3 23458.6 11529 23874 11597.4 24384.1Z" fill="#455A64"/>
<path d="M11587.8 23304.4C11586.5 23276.4 11574.8 23249.8 11555.1 23229.9C11535.4 23209.9 11509 23197.9 11481 23196.2C11453 23196.7 11426.2 23207.8 11406.1 23227.3C11386 23246.8 11374.1 23273.2 11372.8 23301.2C11374.2 23330.8 11386.5 23358.9 11407.5 23380C11428.4 23401 11456.4 23413.5 11486.1 23415.1C11515.3 23411.7 11542 23397.2 11560.8 23374.5C11579.5 23351.8 11588.7 23322.8 11586.6 23293.5" fill="white"/>
<path d="M11054.7 22839.1L11268.5 22903.1L10537 25469.5C10537 25469.5 10453.8 25576.4 10372.5 25541.8L11054.7 22839.1Z" fill="#263238"/>
<path d="M11507.2 24371.9C11494.4 24368.1 11507.2 24300.2 11479 24224.7C11450.9 24149.2 11406.1 24100.5 11415 24089.7C11424 24078.8 11495 24117.8 11524.5 24210C11553.9 24302.1 11518.7 24377.7 11507.2 24371.9Z" fill="#263238"/>
<path d="M11318.4 24625.3C11305 24625.3 11296.6 24561.3 11254.4 24503.7C11212.2 24446.1 11153.9 24416.7 11157.8 24403.9C11161.6 24391.1 11238.4 24403.9 11292.2 24475.6C11345.9 24547.3 11331.2 24628.5 11318.4 24625.3Z" fill="#263238"/>
<path d="M10938.2 24700.2C10938.2 24688.1 11009.3 24686.1 11072.6 24738.6C11136 24791.1 11149.4 24859.6 11136.6 24862.1C11123.8 24864.7 11095 24817.3 11041.9 24775.1C10988.8 24732.9 10936.3 24713.7 10938.2 24700.2Z" fill="#263238"/>
<path d="M14398.7 30165.2L14368 30236.2C14368 30236.2 15359.4 31238.5 15273.6 31472.1L12895.4 30430.1L13275.5 29653.2C13415.1 29814 13587.7 29942.9 13781.5 30031.3C13975.3 30119.6 14185.8 30165.3 14398.7 30165.2Z" fill="#455A64"/>
<path d="M13405.4 30008.4C13379.5 30005.2 13353.3 30011.7 13331.9 30026.7C13310.5 30041.8 13295.4 30064.2 13289.6 30089.7C13285.6 30115.4 13291.5 30141.8 13306.3 30163.3C13321 30184.9 13343.5 30199.9 13369 30205.5C13396.5 30208.5 13424.1 30201.4 13446.7 30185.3C13469.2 30169.3 13485.1 30145.5 13491.2 30118.5C13492.6 30091.2 13483.4 30064.4 13465.5 30043.7C13447.6 30023.1 13422.4 30010.2 13395.2 30007.7" fill="white"/>
<path d="M12895.4 30430.1L12986.9 30243.3L15232.6 31313.3C15232.6 31313.3 15318.4 31405.5 15273.6 31475.3L12895.4 30430.1Z" fill="#263238"/>
<path d="M14377 30246.5C14371.2 30258 14313 30238.1 14237.4 30250.3C14161.9 30262.5 14109.4 30297.7 14103 30288.7C14096.6 30279.7 14141.4 30219.6 14231 30206.1C14320.6 30192.7 14380.8 30238.1 14377 30246.5Z" fill="#263238"/>
<path d="M14577.3 30459.6C14577.3 30471.7 14516.5 30469.2 14455 30501.2C14393.6 30533.2 14360.3 30579.9 14348.8 30574.1C14337.3 30568.4 14359 30499.9 14435.2 30462.1C14511.4 30424.4 14582.4 30448.1 14577.3 30459.6Z" fill="#263238"/>
<path d="M14588.2 30819.9C14576.6 30819.9 14588.2 30755.9 14643.2 30702.1C14698.2 30648.4 14766.7 30650.3 14767.4 30662.5C14768 30674.6 14719.4 30693.2 14672.6 30735.4C14625.9 30777.7 14600.3 30824.4 14588.2 30819.9Z" fill="#263238"/>
<path d="M13225 11126.5C13220.6 11102.7 13207.6 11081.5 13188.4 11066.8C13169.3 11052.1 13145.3 11045.1 13121.3 11047.1H13114.9C13097.1 11050.7 13080.8 11059.3 13067.9 11072.1C13055 11084.8 13046.1 11101 13042.3 11118.8C13038.5 11136.5 13040 11154.9 13046.6 11171.8C13053.2 11188.7 13064.6 11203.3 13079.4 11213.8C13094.2 11224.3 13111.7 11230.2 13129.8 11230.8C13147.9 11231.5 13165.8 11226.8 13181.3 11217.4C13196.8 11208 13209.2 11194.2 13216.9 11177.8C13224.7 11161.4 13227.5 11143.1 13225 11125.2V11126.5Z" fill="#455A64"/>
<path d="M13315.2 12489L13878.4 14044.2L15229.4 16239.4L15269.8 13910.5L14881.3 12110.8H14849.9L14570.9 13300.5L14200.3 12852.5L13357.4 12265.7L13315.2 12489Z" fill="#FAFAFA"/>
<path d="M15097 13111.1C15064.9 13079.4 15036.1 13044.4 15011.2 13006.8C14985.6 12974.1 14954.9 12935.1 14919 12892.9C14882 12846.4 14838.9 12805.1 14791 12770L14816 12759.1C14810.7 12780.8 14804.1 12802.2 14796.2 12823.1C14741.1 12960.7 14677.8 13075.9 14636.8 13162.3C14595.8 13248.7 14576 13303.1 14572.8 13302.5C14577.4 13250.1 14592.5 13199.2 14617 13152.7C14652.2 13063.7 14713 12945.3 14766.1 12811.6C14773.5 12792.8 14779.7 12773.6 14784.6 12754L14790.4 12730.9L14809.6 12743.7C14860.6 12780.7 14905.7 12825.1 14943.4 12875.6C14978.6 12919.7 15007.4 12961.3 15031 12995.9C15058 13031.3 15080.1 13070 15097 13111.1Z" fill="#263238"/>
<path d="M15229.4 16239.4C15217.8 16203.3 15209.4 16166.3 15204.5 16128.7C15189.1 16051.9 15168.6 15949.5 15144.3 15826C15092.5 15570 15016.3 15218.6 14929.9 14830.1C14843.5 14441.7 14764.2 14095.4 14705.9 13835.6C14678.4 13712.7 14656 13610.9 14641.9 13534.1C14632 13497.4 14625.2 13460 14621.4 13422.1C14635 13457.6 14645.9 13493.9 14654.1 13530.9C14673.3 13601.3 14699.5 13703.7 14731.5 13830.5C14795.5 14086.5 14878.1 14434 14964.5 14822.5C15050.9 15210.9 15123.8 15564.9 15169.9 15821.5C15192.3 15949.5 15210.2 16054.5 15219.8 16126.8C15225.4 16164.1 15228.6 16201.7 15229.4 16239.4Z" fill="#263238"/>
<path d="M14967 11986C14592.6 12259.3 13774.1 12309.2 13427.8 12286.8C12961.3 12254.1 12457 12062.1 12009 11941.8C11542.4 11819.6 11113 11827.3 10647.7 11893.8C10182.4 11960.4 9627.52 12277.8 9353.6 12654.1L9545.6 12859.6C9545.6 12859.6 10185.6 12327.7 10769.3 12249.7C11328.6 12176.1 11674.2 12295.1 12330.9 12468.5C13078.4 12666.3 13982.1 12622.8 14266.9 12546C14540.9 12469 14802.8 12354.2 15045.1 12204.9L14967 11986Z" fill="#455A64"/>
<path d="M13449.6 12859.6C13469.7 12870.3 13488.4 12883.4 13505.3 12898.6C13539.2 12924.9 13587.8 12962.6 13648 13013.2C13767.7 13111.1 13931.5 13248.7 14110.7 13401.7L14120.3 13410L14093.4 13418.9C14124.2 13276.2 14153.6 13142.5 14179.2 13025.3L14184.3 13001.7L14202.2 13016.4C14304.6 13099.6 14389.1 13169.3 14448 13218.6C14480.2 13243.1 14510 13270.5 14537 13300.5C14501.6 13280.9 14468.2 13258 14437.1 13232.1C14373.1 13186.6 14288 13120.1 14184.3 13040.1L14207.4 13031.7L14126.1 13426.6L14120.3 13454.1L14098.6 13435.6L14089 13427.3C13909.8 13274.3 13748.5 13134.1 13632.6 13031.7C13574.4 12980.5 13528.3 12938.3 13496.3 12908.9C13478.7 12894.5 13463 12877.9 13449.6 12859.6Z" fill="#263238"/>
<path d="M8856.32 14393.7C8860.16 14368.7 8728.32 13865 8728.32 13865L8088.32 13572.5L8200.96 14156.2C8273.77 14228.4 8350.24 14296.7 8430.08 14361C8440.96 14357.2 8856.32 14393.7 8856.32 14393.7Z" fill="#EB996E"/>
<path d="M9818.24 13320.4C9832.57 13488.6 9796.68 13657.4 9715.12 13805.2C9633.55 13953.1 9509.96 14073.4 9359.99 14151.1C9210.02 14228.7 9040.39 14260.1 8872.57 14241.3C8704.75 14222.5 8546.27 14154.4 8417.18 14045.5C8288.08 13936.7 8194.17 13792 8147.32 13629.7C8100.47 13467.5 8102.78 13295 8153.96 13134.1C8205.15 12973.1 8302.91 12831 8434.88 12725.6C8566.85 12620.3 8727.1 12556.4 8895.36 12542.1C9120.93 12523 9344.88 12594.2 9517.94 12740.2C9691.01 12886.1 9799.03 13094.8 9818.24 13320.4Z" fill="#FF72A4"/>
<g opacity="0.3">
<path d="M9818.24 13320.4C9832.57 13488.6 9796.68 13657.4 9715.12 13805.2C9633.55 13953.1 9509.96 14073.4 9359.99 14151.1C9210.02 14228.7 9040.39 14260.1 8872.57 14241.3C8704.75 14222.5 8546.27 14154.4 8417.18 14045.5C8288.08 13936.7 8194.17 13792 8147.32 13629.7C8100.47 13467.5 8102.78 13295 8153.96 13134.1C8205.15 12973.1 8302.91 12831 8434.88 12725.6C8566.85 12620.3 8727.1 12556.4 8895.36 12542.1C9120.93 12523 9344.88 12594.2 9517.94 12740.2C9691.01 12886.1 9799.03 13094.8 9818.24 13320.4Z" fill="black"/>
</g>
<path d="M9818.24 13209.7C9832.57 13377.9 9796.68 13546.7 9715.12 13694.5C9633.55 13842.4 9509.96 13962.7 9359.99 14040.3C9210.02 14118 9040.39 14149.4 8872.57 14130.6C8704.75 14111.8 8546.27 14043.7 8417.18 13934.8C8288.08 13825.9 8194.17 13681.2 8147.32 13519C8100.47 13356.8 8102.78 13184.3 8153.96 13023.3C8205.15 12862.4 8302.91 12720.3 8434.88 12614.9C8566.85 12509.6 8727.1 12445.7 8895.36 12431.4C9120.93 12412.3 9344.88 12483.5 9517.94 12629.4C9691.01 12775.4 9799.03 12984.1 9818.24 13209.7Z" fill="#FF72A4"/>
<g opacity="0.3">
<path d="M8371.2 13368.4C8356.49 13194.4 8411.46 13021.7 8524.03 12888.3C8636.6 12754.8 8797.56 12671.5 8971.52 12656.7H8999.04C8909.8 12651.6 8820.46 12664.8 8736.47 12695.4C8652.48 12726 8575.61 12773.4 8510.54 12834.6C8445.47 12895.9 8393.57 12969.8 8358.02 13051.8C8322.46 13133.9 8303.99 13222.3 8303.73 13311.6C8303.47 13401 8321.42 13489.5 8356.5 13571.7C8391.58 13654 8443.04 13728.2 8507.75 13789.8C8572.45 13851.5 8649.05 13899.3 8732.86 13930.4C8816.67 13961.5 8905.93 13975.2 8995.2 13970.6C8835.85 13963 8684.72 13897.7 8569.93 13786.9C8455.14 13676.1 8384.52 13527.4 8371.2 13368.4Z" fill="black"/>
</g>
<g opacity="0.3">
<path d="M9323.52 12758.5L9463.68 12587.6L9570.56 12678.5L9420.16 12834.6L9323.52 12758.5Z" fill="white"/>
</g>
<path d="M9623.04 13256.4C9612.89 13203.6 9599.64 13151.5 9583.36 13100.2C9532.91 12962.3 9438.15 12845.1 9313.92 12766.8C9222.57 12709.7 9118.4 12676.3 9010.88 12669.7C8903.35 12663.1 8795.88 12683.5 8698.24 12729C8642.05 12754.8 8590.06 12788.9 8544 12830.1C8495.14 12872.5 8453.43 12922.4 8420.48 12978C8349.17 13094.3 8316.92 13230.4 8328.44 13366.4C8339.95 13502.4 8394.62 13631.1 8484.48 13733.8C8526.48 13782.9 8575.94 13825 8631.04 13858.6C8683.44 13891.8 8740.65 13916.6 8800.64 13932.2C8887.8 13955.6 8978.87 13960.6 9068.06 13946.9C9157.26 13933.2 9242.63 13901.2 9318.76 13852.7C9394.9 13804.3 9460.12 13740.5 9510.3 13665.5C9560.48 13590.5 9594.51 13505.9 9610.24 13417C9617.91 13363.8 9622.19 13310.1 9623.04 13256.4C9631.77 13310.4 9631.77 13365.5 9623.04 13419.6C9608.9 13512.3 9575.35 13600.9 9524.57 13679.7C9473.8 13758.5 9406.95 13825.7 9328.4 13876.9C9249.85 13928.1 9161.38 13962.1 9068.78 13976.7C8976.17 13991.3 8881.53 13986.2 8791.04 13961.7C8662.32 13927.5 8546.68 13855.7 8458.88 13755.6C8363.48 13647.5 8305.49 13511.5 8293.49 13367.9C8281.5 13224.2 8316.16 13080.5 8392.32 12958.1C8426.72 12900.4 8469.9 12848.4 8520.32 12803.9C8568.78 12760.8 8623.61 12725.4 8682.88 12698.9C8792.13 12648.9 8912.79 12629 9032.32 12641.3C9159.31 12654.8 9279.74 12704.6 9379.17 12784.7C9478.6 12864.9 9552.83 12971.9 9592.96 13093.2C9612.1 13145.5 9622.27 13200.7 9623.04 13256.4Z" fill="#263238"/>
<path d="M8654.08 12560.1C8654.08 12565.8 8606.72 12578.6 8541.44 12624.1C8458.69 12686.5 8386.33 12761.7 8327.04 12846.8C8265.37 12929.8 8221.76 13024.9 8199.04 13125.8C8181.12 13203.3 8180.48 13253.8 8175.36 13253.8C8165.47 13210.2 8165.47 13164.9 8175.36 13121.3C8193.19 13014.2 8237.15 12913.1 8303.36 12826.9C8364.63 12738.6 8442.43 12663 8532.48 12604.2C8568.22 12578.7 8610.28 12563.4 8654.08 12560.1Z" fill="white"/>
<path d="M8816.64 12502.5C8816.64 12511.4 8803.84 12522.9 8782.08 12529.3C8760.32 12535.7 8740.48 12529.3 8737.92 12523.6C8735.36 12517.8 8751.36 12502.5 8773.12 12496.7C8794.88 12490.9 8814.72 12493.5 8816.64 12502.5Z" fill="white"/>
<path d="M9245.44 13799.1C9180.35 13842.7 9106.11 13870.9 9028.44 13881.3C8950.77 13891.7 8871.74 13884.2 8797.44 13859.3C8797.44 13849.7 8901.76 13865.7 9025.28 13848.4C9148.8 13831.1 9241.6 13790.1 9245.44 13799.1Z" fill="white"/>
<path d="M9624.96 13583.4C9617.28 13578.3 9631.36 13541.2 9643.52 13494.5C9655.68 13447.7 9660.8 13408.1 9670.4 13407.4C9680 13406.8 9689.6 13450.3 9675.52 13502.8C9661.44 13555.3 9632.64 13588.5 9624.96 13583.4Z" fill="white"/>
<g opacity="0.3">
<path d="M9055.36 13063.7V13653.8H8918.4V13173.2H8800.64V13063.7H9055.36Z" fill="black"/>
</g>
<path d="M8896 14318.8C8773.76 14268.2 8337.92 14215.1 8337.92 14215.1L8372.48 14014.1C8372.48 14014.1 8616.96 13941.2 8682.88 13834.9C8701.56 13801.3 8711.78 13763.6 8712.67 13725.2C8713.57 13686.7 8705.1 13648.6 8688 13614.1L8552.96 13652.5C8620.8 13583.4 8581.76 13448.4 8581.76 13448.4L8431.36 13480.4C8444.59 13470.5 8455.58 13458 8463.62 13443.6C8471.66 13429.2 8476.57 13413.2 8478.02 13396.8C8479.47 13380.3 8477.43 13363.8 8472.04 13348.2C8466.64 13332.6 8458.02 13318.3 8446.72 13306.3L8330.24 13344.1C8400.64 13267.3 8275.2 13183.4 8275.2 13183.4C8275.2 13183.4 7745.28 13596.9 7710.72 13653.8C7676.16 13710.8 7752.32 13862.5 7752.32 13862.5C7710.04 13911.5 7682.91 13971.7 7674.24 14035.9C7671.04 14124.2 7783.04 14156.9 7783.04 14156.9C7776.29 14203.7 7779.34 14251.4 7792 14297C7813.76 14370 8165.76 14573.5 8165.76 14573.5L8628.48 15040.1L9093.76 14403.9C9093.76 14403.9 9018.24 14369.3 8896 14318.8Z" fill="#FFBE9D"/>
<path d="M8680.96 13620.5C8645.85 13643.2 8606.76 13659.1 8565.76 13667.3C8470.48 13691 8376.85 13721 8285.44 13756.9C8236.87 13777.8 8191.94 13806.3 8152.32 13841.3C8115.84 13874.6 8088.32 13905.3 8059.52 13936.1C8007.04 13992.4 7965.44 14018 7962.88 14014.1C7960.32 14010.3 7994.88 13980.2 8042.24 13920.7C8069.79 13885 8099.5 13851 8131.2 13818.9C8172.12 13780 8219.56 13748.6 8271.36 13726.1C8364.7 13689.6 8461.37 13662.1 8560 13644.2C8599.57 13632.9 8640.04 13625 8680.96 13620.5Z" fill="#EB996E"/>
<path d="M8591.36 14260.5C8591.36 14268.9 8481.28 14244.5 8335.36 14250.9H8312.96L8319.36 14229.2C8327.68 14199.7 8336 14165.2 8342.4 14134.5C8351.49 14090.4 8357.48 14045.7 8360.32 14000.7V13987.3H8374.4C8425.42 13981.6 8475.16 13967.5 8521.6 13945.7C8557.44 13930.9 8577.92 13920.1 8579.84 13923.3C8581.76 13926.5 8564.48 13941.8 8530.56 13962.3C8483.17 13991.6 8430.22 14010.8 8375.04 14018.6L8389.76 14003.9C8388.22 14050.6 8382.87 14097 8373.76 14142.8C8367.41 14175.7 8359.07 14208.2 8348.8 14240.1L8332.8 14218.9C8421.05 14212.4 8509.6 14226.7 8591.36 14260.5Z" fill="#EB996E"/>
<path d="M7900.8 13810C7922.12 13778.6 7947.75 13750.4 7976.96 13726.1L8066.56 13637.8C8083.96 13619 8103.51 13602.2 8124.8 13587.9C8148.02 13573.3 8172.43 13560.7 8197.76 13550.1C8285.19 13516.2 8375.32 13489.6 8467.2 13470.8C8504.45 13459.7 8542.93 13453.3 8581.76 13451.6C8548.21 13471.4 8511.69 13485.6 8473.6 13493.8C8405.76 13515.6 8309.76 13540.5 8211.2 13580.9C8187.44 13590.4 8164.54 13602 8142.72 13615.4C8122.82 13628.3 8104.37 13643.4 8087.68 13660.2L7993.6 13742.8C7965.98 13769.4 7934.74 13792.1 7900.8 13810Z" fill="#EB996E"/>
<path d="M7812.48 13674.3C7809.28 13670.5 7838.72 13640.4 7888.64 13594.9L7976.96 13516.9L8030.08 13470.8L8058.24 13447.1L8072.96 13434.9C8078.79 13430.6 8085 13426.7 8091.52 13423.4C8172.11 13387.1 8255.07 13356.3 8339.84 13331.3C8373.9 13317.3 8409.99 13308.8 8446.72 13306.3C8416.03 13326.1 8382.9 13341.8 8348.16 13353C8284.16 13379.3 8197.12 13410.6 8107.52 13452.9L8093.44 13461.2L8078.72 13472.7L8050.56 13496.4L7996.16 13540.5L7903.36 13613.5C7876.16 13638 7845.54 13658.5 7812.48 13674.3Z" fill="#EB996E"/>
<path d="M9776 9986.62L9799.68 9927.74L9836.16 9979.58C9865.45 10021.3 9906.1 10053.7 9953.28 10073L10012.2 10097.3L9960.32 10133.8C9918.45 10162.7 9885.96 10203.2 9866.88 10250.3L9842.56 10309.2L9806.08 10257.3C9776.79 10215.6 9736.14 10183.2 9688.96 10163.9L9630.08 10139.6L9682.56 10103.1C9724.08 10073.9 9756.48 10033.5 9776 9986.62Z" fill="#FF72A4"/>
<path d="M17754.2 16750.8L17777.9 16691.9L17814.4 16743.7C17843.7 16785.5 17884.3 16817.9 17931.5 16837.2L17990.4 16861.5L17937.9 16898C17896.4 16927.5 17864 16968 17844.5 17015.1L17820.8 17073.3L17784.3 17021.5C17755 16979.8 17714.4 16947.4 17667.2 16928.1L17608.3 16903.7L17660.8 16867.3C17702.3 16838 17734.7 16797.7 17754.2 16750.8Z" fill="#FF72A4"/>
<path d="M19130.9 14020.5L19154.6 13962.3L19191 14014.1C19220.5 14055.7 19261.1 14088.1 19308.2 14107.6L19367 14131.9L19315.2 14168.4C19273.5 14197.4 19241.1 14237.9 19221.8 14284.9L19197.4 14343.7L19161 14291.9C19131.7 14250.2 19091 14217.8 19043.8 14198.5L18985 14174.1L19037.4 14137.7C19079.2 14108.4 19111.6 14067.7 19130.9 14020.5Z" fill="#FF72A4"/>
<path d="M7481.6 9664.7L7495.68 9630.78L7516.8 9660.86C7533.67 9685.18 7557.24 9704.07 7584.64 9715.26L7618.56 9729.34L7588.48 9750.46C7564.16 9767.34 7545.27 9790.9 7534.08 9818.3L7520 9852.22L7498.88 9822.14C7482.01 9797.83 7458.44 9778.93 7431.04 9767.74L7397.12 9753.66L7427.2 9732.54C7451.51 9715.67 7470.41 9692.1 7481.6 9664.7Z" fill="#FF72A4"/>
<path d="M17836.8 14754L17850.9 14720.1L17872 14750.1C17888.8 14774.5 17912.4 14793.4 17939.8 14804.5L17974.4 14818.6L17943.7 14839.7C17919.7 14856.8 17901.1 14880.3 17889.9 14907.6L17875.8 14941.5L17854.7 14911.4C17837.5 14887.4 17814.1 14868.6 17786.9 14857L17752.3 14843.6L17782.4 14821.8C17806.9 14805.1 17825.8 14781.5 17836.8 14754Z" fill="#FF72A4"/>
<path d="M8560 7863.1L8616.96 7774.14L8665.6 7869.5C8704.62 7945.54 8764.58 8008.83 8838.4 8051.9L8930.56 8105.66L8835.84 8154.3C8759.73 8193.46 8696.27 8253.37 8652.8 8327.1L8599.04 8419.26L8550.4 8324.54C8511.48 8248.27 8451.51 8184.75 8377.6 8141.5L8285.44 8087.74L8380.8 8039.1C8456.24 7998.93 8518.47 7937.81 8560 7863.1Z" fill="#FF72A4"/>
</svg>
