<svg width="1194" height="1008" viewBox="0 0 1194 1008" fill="none" xmlns="http://www.w3.org/2000/svg">
<path d="M538.32 136.139C541.224 123.872 571.6 112.217 597.736 130.311C609.322 138.183 618.012 149.653 622.471 162.96C626.931 176.266 626.913 190.674 622.42 203.969C608.394 245.635 681.604 244.091 698.563 314.34C711.951 369.7 699.551 448.108 624.831 443.854C510.791 437.356 520.635 325.529 515.64 266.759C510.645 207.99 448.413 142.083 538.32 136.139Z" fill="#263238"/>
<path d="M500.656 293.041C500.162 301.549 499.175 309.328 498.071 317.399C496.968 325.47 495.429 333.366 493.715 341.292C492.002 349.217 490.056 357.142 487.588 364.951C485.204 372.875 482.372 380.658 479.108 388.26L476.553 394.088C476.175 394.933 475.478 396.215 474.955 397.293C474.433 398.371 473.736 399.361 473.126 400.41C470.738 404.147 468.078 407.701 465.169 411.045C459.759 417.258 453.938 423.099 447.745 428.527C435.741 439.173 422.967 448.912 409.528 457.664L401.804 447.292C407.263 441.989 412.839 436.511 418.211 431.033C423.584 425.555 428.898 419.99 433.951 414.338C438.929 408.858 443.63 403.13 448.035 397.176C450.049 394.389 451.873 391.468 453.495 388.435C453.814 387.765 454.221 387.066 454.482 386.425C454.744 385.784 455.034 385.259 455.353 384.298L457.328 379.17C462.311 365.09 466.195 350.643 468.944 335.959C470.425 328.559 471.5 321.041 472.603 313.553C473.707 306.065 474.549 298.344 475.188 291.234L500.656 293.041Z" fill="#FFB573"/>
<path d="M483.232 262.45C472.922 265.072 465.808 307.67 465.808 307.67L505.273 334.593C505.273 334.593 521.506 284.098 513.549 272.706C505.186 260.818 498.274 258.604 483.232 262.45Z" fill="#FF73A4"/>
<path opacity="0.2" d="M484.16 271.945L476.232 314.893L492.204 325.761L484.16 271.945Z" fill="black"/>
<path d="M406.507 443.738L379.936 447.992L395.094 464.833C395.094 464.833 410.747 461.25 413.506 451.197L406.507 443.738Z" fill="#FFB573"/>
<path d="M367.361 451.343L382.52 467.805L395.095 464.833L379.936 447.992L367.361 451.343Z" fill="#FFB573"/>
<path d="M539.046 979.331H514.013L512.329 921.174H537.362L539.046 979.331Z" fill="#FFB573"/>
<path d="M712.124 905.325L688.95 914.823L659.591 864.038L682.765 854.539L712.124 905.325Z" fill="#FFB573"/>
<path d="M684.594 911.327L708.756 896.933C709.17 896.674 709.664 896.576 710.145 896.656C710.626 896.737 711.061 896.991 711.369 897.37L725.483 914.852C725.807 915.306 726.035 915.823 726.151 916.369C726.267 916.915 726.27 917.48 726.158 918.027C726.046 918.575 725.823 919.093 725.501 919.549C725.18 920.006 724.769 920.391 724.292 920.68C715.783 925.545 711.427 927.469 700.799 933.82C694.265 937.725 678.874 951.069 669.842 956.46C660.811 961.85 655.032 953.167 658.226 950.108C668.876 940.451 676.943 928.27 681.69 914.677C682.253 913.263 683.277 912.082 684.594 911.327Z" fill="#263238"/>
<path d="M513.142 976.448H541.282C541.76 976.436 542.227 976.602 542.591 976.914C542.955 977.226 543.192 977.662 543.256 978.138L546.48 1000.49C546.537 1001.05 546.475 1001.62 546.3 1002.15C546.124 1002.69 545.839 1003.19 545.461 1003.61C545.084 1004.03 544.623 1004.36 544.108 1004.59C543.593 1004.82 543.036 1004.94 542.472 1004.94C532.657 1004.77 527.952 1004.19 515.552 1004.19C507.944 1004.19 492.32 1004.97 481.721 1004.97C471.121 1004.97 470.656 994.571 475.012 993.61C494.643 989.385 502.368 983.557 508.96 977.992C510.128 976.997 511.61 976.45 513.142 976.448Z" fill="#263238"/>
<g opacity="0.2">
<path d="M512.358 921.205L513.201 951.187H538.233L537.391 921.205H512.358Z" fill="black"/>
<path d="M682.794 854.539L659.591 864.038L674.75 890.232L697.924 880.733L682.794 854.539Z" fill="black"/>
</g>
<path d="M483.231 262.449C483.231 262.449 471.296 266.645 495.196 413.961H596.836C595.122 372.441 595.093 346.946 614.87 261.663C600.636 258.668 586.203 256.72 571.687 255.835C556.325 254.727 540.904 254.727 525.542 255.835C505.708 257.904 483.231 262.449 483.231 262.449Z" fill="#FF73A4"/>
<path opacity="0.2" d="M606.477 295.432C597.271 297.733 588.763 307.815 589.779 326.375C590.352 334.793 593.292 342.876 598.259 349.685C599.885 335.407 602.615 318.829 606.971 297.617L606.477 295.432Z" fill="black"/>
<path d="M530.885 296.742C530.885 296.742 544.098 304.93 547.554 317.138C561.9 306.59 581.385 277.25 582.169 259.68C582.173 259.169 582.076 258.662 581.884 258.188C581.691 257.715 581.408 257.284 581.049 256.921C580.689 256.558 580.262 256.27 579.792 256.073C579.321 255.877 578.817 255.776 578.307 255.776C576.096 255.718 573.884 255.816 571.686 256.067L530.885 296.742Z" fill="#FAFAFA"/>
<path d="M530.886 296.741C530.886 296.741 517.673 304.929 514.217 317.137C498.797 305.803 507.364 268.391 516.192 255.95C519.3 255.621 522.434 255.621 525.543 255.95L530.886 296.741Z" fill="#FAFAFA"/>
<path d="M567.156 203.854C564.252 218.742 561.349 246.044 571.716 256.009C562.084 273.09 547.973 287.198 530.915 296.8C510.325 280.309 525.571 256.009 525.571 256.009C542.124 252.046 541.688 239.692 538.813 228.125L567.156 203.854Z" fill="#FFB573"/>
<path opacity="0.2" d="M555.541 213.76L538.756 228.124C539.48 230.813 539.957 233.564 540.179 236.341C546.51 235.408 556.47 230.018 557.835 223.113C558.445 219.849 556.122 215.304 555.541 213.76Z" fill="black"/>
<path d="M592.016 179.904C585.162 203.854 582.752 214.14 567.767 223.9C545.232 238.469 517.412 224.833 517.005 199.309C516.628 176.32 527.924 141.035 553.77 136.635C559.461 135.638 565.312 136.119 570.765 138.031C576.219 139.943 581.094 143.224 584.928 147.56C588.761 151.897 591.425 157.146 592.665 162.807C593.906 168.468 593.682 174.354 592.016 179.904Z" fill="#FFB573"/>
<path d="M540.469 138.763C541.601 146.863 585.8 172.912 594.193 159.334C602.585 145.756 590.505 135.529 571.687 132.936C560.923 131.241 549.905 133.297 540.469 138.763Z" fill="#263238"/>
<path d="M569.277 143.162C563.846 150.33 575.346 201.96 591.812 197.095C608.277 192.229 607.522 175.708 596.08 160.469C589.606 151.552 580.048 145.38 569.277 143.162Z" fill="#263238"/>
<path d="M495.196 414.018C495.196 414.018 475.449 607.545 477.133 684.029C478.847 763.69 507.945 945.387 507.945 945.387H541.776C541.776 945.387 536.433 768.351 539.424 690.119C542.676 604.835 569.684 414.018 569.684 414.018H495.196Z" fill="#FF73A4"/>
<path opacity="0.4" d="M495.196 414.018C495.196 414.018 475.449 607.545 477.133 684.029C478.847 763.69 507.945 945.387 507.945 945.387H541.776C541.776 945.387 536.433 768.351 539.424 690.119C542.676 604.835 569.684 414.018 569.684 414.018H495.196Z" fill="black"/>
<path d="M544.651 946.582H504.953L502.049 933.878L546.509 932.334L544.651 946.582Z" fill="#263238"/>
<path opacity="0.2" d="M539.046 462.151C514.071 512.529 534.022 604.456 542.85 638.663C547.38 587.294 555.018 524.504 560.971 478.41C557.167 452.303 550.545 438.9 539.046 462.151Z" fill="black"/>
<path d="M522.028 414.019C522.028 414.019 545.057 615.063 562.452 679.689C583.099 756.348 666.996 887.144 666.996 887.144L698.591 874.207C698.591 874.207 644.432 725.288 628.634 684.817C594.948 598.601 623.784 470.165 596.864 413.844L522.028 414.019Z" fill="#FF73A4"/>
<path opacity="0.4" d="M522.028 414.019C522.028 414.019 545.057 615.063 562.452 679.689C583.099 756.348 666.996 887.144 666.996 887.144L698.591 874.207C698.591 874.207 644.432 725.288 628.634 684.817C594.948 598.601 623.784 470.165 596.864 413.844L522.028 414.019Z" fill="black"/>
<path d="M702.889 874.352L663.685 890.406L654.479 879.771L699.753 858.793L702.889 874.352Z" fill="#263238"/>
<path d="M240.776 158.138C215.486 180.595 197.401 210.073 188.809 242.843C180.216 275.613 181.502 310.204 192.503 342.241C203.504 374.278 223.727 402.322 250.614 422.827C277.501 443.333 309.844 455.378 343.554 457.44C377.264 459.502 410.826 451.488 439.997 434.412C469.167 417.335 492.635 391.963 507.434 361.504C522.233 331.045 527.697 296.868 523.135 263.293C518.574 229.718 504.192 198.255 481.808 172.881C451.789 138.864 409.534 118.202 364.335 115.437C319.135 112.672 274.691 128.032 240.776 158.138ZM449.196 394.438C427.908 413.336 401.512 425.476 373.347 429.323C345.182 433.17 316.513 428.551 290.964 416.049C265.416 403.548 244.136 383.726 229.815 359.09C215.495 334.455 208.777 306.112 210.511 277.645C212.245 249.179 222.353 221.867 239.558 199.165C256.762 176.462 280.29 159.388 307.165 150.102C334.041 140.816 363.058 139.734 390.546 146.994C418.035 154.254 442.76 169.529 461.596 190.888C474.103 205.07 483.703 221.585 489.849 239.49C495.995 257.394 498.565 276.338 497.413 295.24C496.262 314.141 491.411 332.63 483.138 349.65C474.865 366.671 463.331 381.89 449.196 394.438Z" fill="#263238"/>
<path opacity="0.3" d="M345.93 418.359C319.918 416.789 294.956 407.513 274.2 391.705C253.444 375.898 237.827 354.269 229.325 329.554C220.823 304.84 219.817 278.151 226.436 252.863C233.055 227.575 247 204.825 266.508 187.491C286.016 170.157 310.209 159.017 336.028 155.482C361.847 151.946 388.131 156.173 411.555 167.628C434.979 179.083 454.491 197.252 467.621 219.835C480.752 242.418 486.912 268.402 485.322 294.498C483.183 329.46 467.303 362.142 441.167 385.365C415.032 408.589 380.778 420.455 345.93 418.359Z" fill="#FF73A4"/>
<g opacity="0.5">
<path d="M361.96 154.523H359.491L222.655 276.024L222.48 278.501C220.705 307.149 228.313 335.594 244.144 359.502L439.38 185.933C417.672 167.282 390.487 156.253 361.96 154.523Z" fill="#FAFAFA"/>
<path d="M452.129 198.346L254.86 373.488C261.448 381.121 268.893 387.965 277.047 393.883L469.466 222.937C464.64 214.104 458.824 205.853 452.129 198.346Z" fill="#FAFAFA"/>
</g>
<path d="M488.314 416.03L465.837 435.988C464.202 437.436 462.062 438.176 459.885 438.045C457.708 437.914 455.671 436.923 454.221 435.289C452.792 433.642 452.064 431.498 452.195 429.319C452.325 427.139 453.303 425.098 454.918 423.634L477.394 403.676C479.033 402.231 481.175 401.497 483.352 401.633C485.529 401.77 487.564 402.766 489.01 404.404C490.452 406.04 491.188 408.182 491.057 410.361C490.927 412.541 489.94 414.579 488.314 416.03Z" fill="#263238"/>
<path d="M480.036 412.329C496.967 427.276 513.171 442.894 529.172 458.715C545.173 474.536 560.797 490.766 576.246 506.907C591.695 523.049 606.854 539.715 621.897 556.44C636.01 573.922 655.235 586.859 658.11 614.306C658.335 616.501 658.036 618.718 657.237 620.774C656.439 622.831 655.164 624.666 653.518 626.13C651.872 627.593 649.902 628.643 647.772 629.191C645.641 629.739 643.411 629.77 641.267 629.282C614.434 623.076 604.008 602.36 588.443 586.16C573.768 569.163 559.306 552.011 545.057 534.704C530.808 517.397 516.82 499.808 503.094 481.937C489.387 464.105 475.913 446.069 463.164 427.393C461.528 425.105 460.794 422.291 461.104 419.493C461.413 416.695 462.744 414.111 464.841 412.239C466.937 410.367 469.65 409.341 472.456 409.358C475.262 409.374 477.962 410.433 480.036 412.329Z" fill="#263238"/>
<path d="M551.998 177.747C551.562 179.729 550.168 181.098 548.861 180.661C547.555 180.224 546.887 178.534 547.322 176.582C547.758 174.63 549.152 173.231 550.459 173.668C551.765 174.105 552.433 175.766 551.998 177.747Z" fill="#263238"/>
<path d="M529.724 172.794C529.289 174.775 527.866 176.145 526.588 175.853C525.31 175.562 524.613 173.726 525.049 171.745C525.484 169.764 526.878 168.394 528.185 168.686C529.492 168.977 530.16 170.813 529.724 172.794Z" fill="#263238"/>
<path d="M528.736 168.918L524.293 166.5C524.293 166.5 525.89 170.754 528.736 168.918Z" fill="#263238"/>
<path d="M535.793 177.893C533.038 182.005 529.736 185.721 525.978 188.935C526.822 189.884 527.862 190.635 529.026 191.139C530.189 191.642 531.448 191.884 532.715 191.849L535.793 177.893Z" fill="#ED893E"/>
<path d="M541.746 201.959C540.768 201.89 539.797 201.744 538.842 201.522C538.768 201.505 538.697 201.473 538.635 201.429C538.573 201.384 538.52 201.328 538.48 201.263C538.439 201.198 538.412 201.126 538.4 201.05C538.387 200.975 538.389 200.897 538.406 200.823C538.424 200.748 538.455 200.678 538.5 200.615C538.544 200.553 538.6 200.5 538.665 200.459C538.729 200.419 538.801 200.391 538.877 200.379C538.952 200.366 539.029 200.368 539.103 200.386C541.544 200.98 544.09 200.992 546.536 200.42C548.982 199.848 551.26 198.709 553.188 197.093C553.237 197.016 553.303 196.951 553.38 196.903C553.458 196.854 553.545 196.824 553.636 196.814C553.726 196.804 553.818 196.815 553.904 196.845C553.99 196.876 554.069 196.925 554.133 196.99C554.198 197.055 554.247 197.133 554.277 197.219C554.307 197.306 554.318 197.398 554.308 197.489C554.298 197.58 554.268 197.667 554.22 197.745C554.172 197.823 554.107 197.889 554.03 197.938C552.35 199.391 550.399 200.494 548.29 201.184C546.181 201.875 543.957 202.138 541.746 201.959Z" fill="#263238"/>
<path d="M593.612 203.794C592.274 205.776 590.559 207.473 588.566 208.788C586.572 210.103 584.34 211.01 581.996 211.457C575.723 212.623 573.284 206.854 575.404 201.23C577.379 196.16 583.07 189.575 589.111 190.857C590.426 191.185 591.639 191.837 592.641 192.753C593.642 193.669 594.401 194.821 594.847 196.105C595.294 197.389 595.415 198.764 595.199 200.106C594.984 201.449 594.438 202.716 593.612 203.794Z" fill="#FFB573"/>
<path d="M561.348 169.037C561.112 169.109 560.86 169.105 560.626 169.027C560.392 168.949 560.187 168.799 560.042 168.599C556.818 164.142 549.732 164.2 549.674 164.2C549.359 164.2 549.056 164.074 548.832 163.85C548.609 163.626 548.484 163.322 548.484 163.005C548.48 162.85 548.507 162.695 548.564 162.55C548.62 162.405 548.705 162.273 548.814 162.162C548.922 162.051 549.051 161.962 549.194 161.902C549.337 161.842 549.49 161.81 549.645 161.811C549.994 161.811 558.009 161.811 561.958 167.201C562.142 167.456 562.217 167.774 562.168 168.085C562.119 168.396 561.95 168.675 561.697 168.862L561.348 169.037Z" fill="#263238"/>
<path d="M525.078 156.419C524.873 156.404 524.675 156.338 524.502 156.225C524.329 156.113 524.188 155.959 524.09 155.778C523.949 155.496 523.924 155.168 524.022 154.868C524.12 154.568 524.333 154.319 524.613 154.175C526.273 153.282 528.121 152.797 530.005 152.762C531.888 152.726 533.753 153.141 535.445 153.971C535.713 154.135 535.907 154.396 535.989 154.7C536.07 155.003 536.031 155.327 535.881 155.603C535.723 155.877 535.463 156.077 535.158 156.159C534.853 156.241 534.528 156.198 534.254 156.04C532.907 155.402 531.429 155.094 529.94 155.139C528.451 155.185 526.994 155.583 525.688 156.302C525.495 156.383 525.287 156.423 525.078 156.419Z" fill="#263238"/>
<path d="M674.983 920.855H674.605C674.044 920.726 673.525 920.455 673.098 920.067C672.671 919.679 672.35 919.188 672.166 918.641C672.003 918.319 671.931 917.96 671.956 917.601C671.982 917.241 672.105 916.896 672.311 916.601C674.141 913.979 683.201 914.299 684.218 914.357C684.334 914.353 684.449 914.388 684.544 914.456C684.639 914.525 684.708 914.624 684.74 914.736C684.78 914.846 684.787 914.964 684.761 915.078C684.735 915.191 684.678 915.295 684.595 915.377C682.359 917.592 678.09 921.234 674.983 920.855ZM682.824 915.465C679.194 915.465 674.344 915.873 673.386 917.242C673.307 917.379 673.265 917.535 673.265 917.694C673.265 917.852 673.307 918.008 673.386 918.145C673.504 918.512 673.713 918.842 673.992 919.107C674.271 919.372 674.612 919.562 674.983 919.66C676.638 920.039 679.513 918.437 682.824 915.465Z" fill="#FF73A4"/>
<path d="M683.317 915.463C680.21 915.084 674.605 912.957 673.85 910.51C673.694 910.063 673.696 909.577 673.854 909.132C674.013 908.686 674.319 908.309 674.721 908.062C675.077 907.779 675.49 907.578 675.931 907.472C676.373 907.366 676.832 907.359 677.276 907.45C680.848 908.15 684.566 914.356 684.74 914.618C684.784 914.709 684.806 914.808 684.806 914.909C684.806 915.01 684.784 915.11 684.74 915.201C684.685 915.29 684.608 915.364 684.516 915.415C684.425 915.466 684.322 915.493 684.217 915.492C683.917 915.511 683.615 915.501 683.317 915.463ZM676.899 908.587C676.38 908.528 675.86 908.674 675.447 908.995C674.837 909.461 674.866 909.839 674.982 910.102C675.563 911.763 680.064 913.831 683.084 914.239C681.749 912.229 679.193 909.024 677.073 908.616L676.899 908.587Z" fill="#FF73A4"/>
<path d="M503.762 980.818C501.622 981.02 499.478 980.475 497.693 979.273C497.287 978.916 496.976 978.462 496.788 977.953C496.6 977.444 496.542 976.897 496.619 976.36C496.632 976.034 496.73 975.717 496.903 975.441C497.076 975.165 497.319 974.939 497.606 974.786C500.684 973.067 510.674 978.195 511.777 978.778C511.886 978.836 511.974 978.925 512.031 979.034C512.088 979.144 512.111 979.267 512.097 979.39C512.085 979.513 512.033 979.628 511.949 979.718C511.865 979.807 511.754 979.866 511.632 979.885C509.045 980.448 506.409 980.76 503.762 980.818ZM499.29 975.631C498.911 975.609 498.533 975.679 498.187 975.835C498.072 975.901 497.975 975.994 497.905 976.105C497.834 976.217 497.791 976.344 497.78 976.476C497.736 976.829 497.776 977.188 497.897 977.522C498.019 977.856 498.217 978.157 498.477 978.399C499.987 979.769 504.111 980.002 509.657 979.069C506.419 977.346 502.914 976.183 499.29 975.631Z" fill="#FF73A4"/>
<path d="M511.516 979.943H511.284C508.38 978.603 502.398 973.183 502.862 970.328C502.862 969.658 503.443 968.812 505.07 968.638C505.659 968.574 506.255 968.635 506.82 968.815C507.385 968.996 507.907 969.293 508.351 969.687C511.516 972.309 512.097 979.069 512.097 979.36C512.113 979.461 512.1 979.564 512.059 979.657C512.018 979.75 511.95 979.829 511.865 979.885C511.758 979.942 511.636 979.962 511.516 979.943ZM505.563 969.745H505.186C504.111 969.745 504.053 970.298 504.024 970.444C503.734 972.134 507.741 976.417 510.79 978.253C510.556 975.399 509.439 972.689 507.596 970.502C507.041 969.996 506.313 969.725 505.563 969.745Z" fill="#FF73A4"/>
<path d="M551.01 173.901L546.567 171.453C546.567 171.453 548.165 175.707 551.01 173.901Z" fill="#263238"/>
<path d="M598.375 408.017L600.959 417.137C601.308 417.865 600.495 418.594 599.304 418.594H494.557C493.656 418.594 492.901 418.127 492.843 417.545L491.914 408.425C491.914 407.784 492.64 407.259 493.656 407.259H596.603C596.94 407.208 597.283 407.251 597.596 407.385C597.909 407.519 598.179 407.738 598.375 408.017Z" fill="#FF73A4"/>
<path opacity="0.2" d="M598.375 408.017L600.959 417.137C601.308 417.865 600.495 418.594 599.304 418.594H494.557C493.656 418.594 492.901 418.127 492.843 417.545L491.914 408.425C491.914 407.784 492.64 407.259 493.656 407.259H596.603C596.94 407.208 597.283 407.251 597.596 407.385C597.909 407.519 598.179 407.738 598.375 408.017Z" fill="black"/>
<path d="M584.203 419.553H586.962C587.513 419.553 587.92 419.291 587.891 418.941L586.584 407.082C586.584 406.733 586.061 406.441 585.539 406.441H582.635C582.083 406.441 581.647 406.733 581.705 407.082L582.983 418.941C583.157 419.291 583.651 419.553 584.203 419.553Z" fill="#FF73A4"/>
<path opacity="0.4" d="M584.203 419.553H586.962C587.513 419.553 587.92 419.291 587.891 418.941L586.584 407.082C586.584 406.733 586.061 406.441 585.539 406.441H582.635C582.083 406.441 581.647 406.733 581.705 407.082L582.983 418.941C583.157 419.291 583.651 419.553 584.203 419.553Z" fill="white"/>
<path d="M502.427 419.553H505.186C505.738 419.553 506.144 419.291 506.115 418.941L504.837 407.082C504.837 406.733 504.315 406.441 503.763 406.441H501.004C500.452 406.441 500.046 406.733 500.075 407.082L501.352 418.941C501.411 419.291 501.875 419.553 502.427 419.553Z" fill="#FF73A4"/>
<path opacity="0.4" d="M502.427 419.553H505.186C505.738 419.553 506.144 419.291 506.115 418.941L504.837 407.082C504.837 406.733 504.315 406.441 503.763 406.441H501.004C500.452 406.441 500.046 406.733 500.075 407.082L501.352 418.941C501.411 419.291 501.875 419.553 502.427 419.553Z" fill="white"/>
<path d="M543.14 419.553H546.044C546.596 419.553 547.002 419.291 546.973 418.941L545.696 407.082C545.696 406.733 545.173 406.441 544.621 406.441H541.862C541.311 406.441 540.904 406.733 540.933 407.082L542.211 418.941C542.124 419.291 542.588 419.553 543.14 419.553Z" fill="#FF73A4"/>
<path opacity="0.4" d="M543.14 419.553H546.044C546.596 419.553 547.002 419.291 546.973 418.941L545.696 407.082C545.696 406.733 545.173 406.441 544.621 406.441H541.862C541.311 406.441 540.904 406.733 540.933 407.082L542.211 418.941C542.124 419.291 542.588 419.553 543.14 419.553Z" fill="white"/>
<path d="M535.764 434.357L511.08 423.285L518.108 447.848C518.108 447.848 533.789 451.402 540.614 443.506L535.764 434.357Z" fill="#FFB573"/>
<path d="M626.718 291.963C627.85 300.558 628.75 309.212 629.767 317.807L632.38 343.739C633.31 352.48 634.007 361.017 634.82 369.671L635.894 382.637L636.185 385.9C636.185 386.221 636.185 387.561 636.185 388.493C636.185 389.426 636.185 390.504 636.185 391.407C635.751 395.111 634.576 398.689 632.729 401.926C629.739 406.911 625.79 411.249 621.113 414.688C617.191 417.655 613.034 420.296 608.684 422.584C600.549 426.801 592.091 430.357 583.39 433.219C574.881 436.132 566.343 438.551 557.777 440.707C549.21 442.863 540.643 444.64 531.786 446.01L528.882 433.627C536.868 430.975 545.028 428.265 552.956 425.206C560.884 422.147 568.812 419.145 576.42 415.678C583.91 412.39 591.167 408.593 598.142 404.315C601.358 402.366 604.408 400.154 607.261 397.701C609.498 395.883 611.362 393.646 612.749 391.116C613.052 390.562 613.212 389.941 613.214 389.309C613.214 389.309 613.214 389.309 613.214 389.076C613.214 388.843 613.214 389.076 613.214 388.435L612.749 385.23L610.891 372.322C609.758 363.581 608.48 355.103 607.435 346.478L604.154 320.634C603.224 311.893 602.15 303.385 601.25 294.731L626.718 291.963Z" fill="#FFB573"/>
<path d="M614.87 261.719C625.034 264.808 637.288 300.005 637.288 300.005L601.656 336.805C601.656 336.805 583.361 298.927 587.63 285.757C592.102 272.005 603.254 258.165 614.87 261.719Z" fill="#FF73A4"/>
<path d="M490.665 428.384L497.635 448.605L518.108 447.848L511.08 423.285L490.665 428.384Z" fill="#FFB573"/>
<path d="M844.193 353.01C850.873 305.109 817.535 266.27 769.793 266.27H1118.62C1166.39 266.27 1199.7 305.109 1193.05 353.01H844.193Z" fill="#263238"/>
<path opacity="0.7" d="M844.193 353.01C850.873 305.109 817.535 266.27 769.793 266.27H1118.62C1166.39 266.27 1199.7 305.109 1193.05 353.01H844.193Z" fill="#FF73A4"/>
<path d="M769.792 266.27H1118.62C1070.88 266.27 1026.77 305.109 1020.12 353.01L941.244 920.714C934.594 968.644 890.482 1007.48 842.74 1007.48H666.816C619.074 1007.48 585.766 968.644 592.416 920.714L671.259 353.01C677.938 305.109 722.021 266.27 769.792 266.27Z" fill="#FF73A4"/>
<path d="M768.312 920.715C761.661 968.645 794.97 1007.48 842.741 1007.48H493.884C446.142 1007.48 412.833 968.645 419.483 920.715H768.312Z" fill="#263238"/>
<path opacity="0.7" d="M768.312 920.715C761.661 968.645 794.97 1007.48 842.741 1007.48H493.884C446.142 1007.48 412.833 968.645 419.483 920.715H768.312Z" fill="#FF73A4"/>
<path opacity="0.4" d="M824.242 442.868H959.307C961.275 442.774 963.153 442.015 964.635 440.713C966.117 439.411 967.115 437.644 967.467 435.7C967.622 434.807 967.577 433.891 967.337 433.017C967.098 432.143 966.668 431.333 966.08 430.646C965.491 429.958 964.759 429.409 963.934 429.039C963.11 428.668 962.214 428.486 961.311 428.503H826.246C824.265 428.566 822.367 429.318 820.878 430.631C819.389 431.944 818.402 433.736 818.086 435.7C817.931 436.592 817.975 437.507 818.215 438.379C818.455 439.251 818.885 440.06 819.474 440.745C820.063 441.431 820.796 441.977 821.62 442.344C822.445 442.711 823.34 442.89 824.242 442.868Z" fill="white"/>
<path opacity="0.4" d="M820.525 469.585H919.813C921.79 469.524 923.685 468.776 925.173 467.468C926.662 466.161 927.651 464.376 927.973 462.418C928.128 461.526 928.084 460.611 927.844 459.738C927.604 458.866 927.174 458.058 926.585 457.372C925.996 456.687 925.263 456.141 924.439 455.774C923.614 455.407 922.719 455.228 921.817 455.25H822.529C820.55 455.306 818.653 456.052 817.163 457.36C815.674 458.668 814.686 460.457 814.369 462.418C814.214 463.309 814.258 464.224 814.498 465.097C814.738 465.969 815.168 466.777 815.757 467.463C816.346 468.148 817.079 468.694 817.904 469.061C818.728 469.428 819.624 469.607 820.525 469.585Z" fill="white"/>
<path opacity="0.4" d="M764.52 473.811C783.202 456.325 786.055 428.929 770.892 412.62C755.729 396.311 728.292 397.265 709.61 414.751C690.927 432.237 688.074 459.633 703.237 475.942C718.4 492.251 745.838 491.297 764.52 473.811Z" fill="white"/>
<path d="M698.557 444.442C697.623 450.658 698.344 457.011 700.648 462.857C703.154 469.007 707.473 474.241 713.026 477.861C718.579 481.48 725.102 483.31 731.721 483.107C739.005 482.933 746.141 481.002 752.525 477.478C758.909 473.953 764.354 468.938 768.398 462.857C772.182 457.358 774.647 451.055 775.6 444.442C778.504 423.114 763.723 405.807 742.437 405.807C731.783 406.113 721.57 410.14 713.56 417.193C705.549 424.247 700.243 433.884 698.557 444.442Z" fill="white"/>
<path opacity="0.4" d="M709.041 459.009C710.961 463.723 714.271 467.736 718.526 470.511C722.782 473.287 727.781 474.692 732.854 474.539C738.447 474.409 743.926 472.93 748.829 470.227C753.732 467.524 757.915 463.676 761.023 459.009C753.786 453.767 745.06 450.999 736.135 451.113C726.552 451.194 717.177 453.927 709.041 459.009Z" fill="#263238"/>
<path opacity="0.4" d="M725.216 434.825C724.922 436.471 724.997 438.162 725.436 439.775C725.876 441.388 726.668 442.883 727.756 444.15C728.843 445.417 730.199 446.425 731.724 447.1C733.249 447.775 734.905 448.101 736.571 448.053C740.214 447.948 743.706 446.568 746.443 444.153C749.179 441.737 750.988 438.437 751.555 434.825C751.85 433.183 751.775 431.495 751.338 429.885C750.9 428.276 750.11 426.784 749.025 425.52C747.94 424.255 746.587 423.25 745.066 422.576C743.544 421.902 741.892 421.578 740.23 421.626C736.587 421.728 733.095 423.103 730.354 425.512C727.613 427.922 725.796 431.215 725.216 434.825Z" fill="#263238"/>
<path opacity="0.4" d="M808.038 559.62H853.602C855.579 559.559 857.474 558.811 858.962 557.504C860.45 556.196 861.44 554.411 861.762 552.453C861.917 551.561 861.873 550.646 861.633 549.774C861.393 548.901 860.963 548.093 860.374 547.408C859.785 546.722 859.052 546.176 858.227 545.809C857.403 545.442 856.507 545.263 855.606 545.285H810.013C808.037 545.342 806.144 546.089 804.659 547.398C803.175 548.707 802.192 550.495 801.882 552.453C801.727 553.344 801.771 554.259 802.011 555.132C802.251 556.004 802.681 556.812 803.27 557.498C803.859 558.184 804.592 558.729 805.416 559.097C806.241 559.464 807.136 559.642 808.038 559.62Z" fill="white"/>
<path opacity="0.4" d="M881.104 559.619H946.211C948.188 559.558 950.083 558.81 951.571 557.503C953.06 556.195 954.049 554.41 954.371 552.452C954.532 551.559 954.492 550.642 954.254 549.768C954.016 548.893 953.586 548.082 952.996 547.395C952.406 546.709 951.671 546.163 950.843 545.797C950.016 545.432 949.118 545.257 948.215 545.284H883.107C881.128 545.34 879.231 546.086 877.741 547.394C876.252 548.703 875.264 550.491 874.947 552.452C874.792 553.343 874.836 554.258 875.076 555.131C875.316 556.003 875.746 556.811 876.335 557.497C876.924 558.183 877.657 558.728 878.482 559.096C879.306 559.463 880.202 559.641 881.104 559.619Z" fill="white"/>
<path opacity="0.4" d="M804.321 586.366H915.921C917.903 586.304 919.801 585.551 921.29 584.238C922.778 582.925 923.766 581.133 924.082 579.169C924.236 578.278 924.192 577.363 923.952 576.49C923.712 575.618 923.282 574.81 922.693 574.124C922.104 573.439 921.371 572.893 920.547 572.526C919.722 572.159 918.827 571.98 917.925 572.002H806.295C804.323 572.07 802.435 572.821 800.953 574.128C799.471 575.434 798.485 577.216 798.164 579.169C798.004 580.063 798.045 580.981 798.283 581.858C798.521 582.734 798.95 583.546 799.539 584.235C800.129 584.924 800.863 585.472 801.69 585.841C802.517 586.21 803.416 586.389 804.321 586.366Z" fill="white"/>
<path opacity="0.4" d="M748.314 590.575C766.996 573.089 769.849 545.693 754.686 529.384C739.523 513.075 712.086 514.029 693.404 531.515C674.721 549.001 671.868 576.397 687.031 592.706C702.194 609.015 729.632 608.061 748.314 590.575Z" fill="white"/>
<path d="M682.323 560.988C681.397 567.206 682.129 573.559 684.443 579.402C686.927 585.545 691.217 590.782 696.743 594.415C702.268 598.049 708.766 599.906 715.371 599.74C722.657 599.571 729.794 597.642 736.179 594.117C742.564 590.592 748.007 585.574 752.048 579.49C755.858 574.001 758.334 567.695 759.279 561.075C762.183 539.747 747.402 522.439 726.116 522.439C715.49 522.762 705.308 526.786 697.317 533.82C689.326 540.854 684.025 550.459 682.323 560.988Z" fill="white"/>
<path opacity="0.4" d="M692.808 575.849C694.733 580.565 698.048 584.579 702.308 587.354C706.569 590.13 711.572 591.534 716.649 591.379C722.237 591.244 727.711 589.763 732.609 587.06C737.506 584.357 741.684 580.512 744.789 575.849C737.554 570.603 728.828 567.835 719.902 567.953C710.32 568.043 700.947 570.775 692.808 575.849Z" fill="#263238"/>
<path opacity="0.4" d="M709.012 551.579C708.718 553.222 708.793 554.911 709.231 556.522C709.668 558.133 710.458 559.626 711.542 560.892C712.627 562.159 713.979 563.167 715.5 563.845C717.021 564.522 718.674 564.85 720.338 564.807C723.984 564.703 727.48 563.324 730.222 560.909C732.963 558.494 734.777 555.193 735.351 551.579C735.646 549.936 735.571 548.249 735.133 546.639C734.696 545.03 733.905 543.538 732.82 542.274C731.735 541.009 730.383 540.004 728.861 539.33C727.34 538.656 725.688 538.332 724.026 538.38C720.383 538.482 716.89 539.857 714.15 542.266C711.409 544.676 709.592 547.969 709.012 551.579Z" fill="#263238"/>
<path opacity="0.4" d="M791.805 676.401H871.171C873.153 676.339 875.051 675.587 876.539 674.273C878.028 672.96 879.015 671.168 879.331 669.205C879.486 668.313 879.442 667.398 879.202 666.526C878.962 665.653 878.532 664.845 877.943 664.159C877.354 663.474 876.621 662.928 875.797 662.561C874.972 662.194 874.077 662.015 873.175 662.037H793.78C791.802 662.098 789.908 662.847 788.419 664.154C786.931 665.461 785.941 667.246 785.619 669.205C785.459 670.101 785.5 671.022 785.74 671.9C785.979 672.778 786.411 673.592 787.003 674.281C787.596 674.971 788.335 675.519 789.165 675.886C789.996 676.253 790.898 676.429 791.805 676.401Z" fill="white"/>
<path opacity="0.4" d="M787.971 703.118H911.71C913.682 703.023 915.563 702.26 917.046 700.952C918.528 699.645 919.524 697.871 919.871 695.921C920.021 695.028 919.972 694.112 919.728 693.24C919.485 692.368 919.052 691.56 918.461 690.876C917.87 690.191 917.135 689.645 916.31 689.279C915.484 688.912 914.588 688.732 913.685 688.754H789.975C787.998 688.815 786.103 689.563 784.615 690.87C783.126 692.178 782.137 693.963 781.815 695.921C781.655 696.815 781.695 697.733 781.933 698.609C782.171 699.485 782.6 700.297 783.19 700.986C783.779 701.675 784.514 702.224 785.341 702.593C786.168 702.962 787.066 703.141 787.971 703.118Z" fill="white"/>
<path opacity="0.2" d="M652.616 816.87H842.073C844.849 816.778 847.507 815.723 849.593 813.884C851.68 812.046 853.066 809.538 853.515 806.788C853.737 805.531 853.675 804.239 853.335 803.009C852.995 801.778 852.386 800.639 851.55 799.676C850.715 798.712 849.676 797.948 848.509 797.439C847.341 796.931 846.075 796.69 844.803 796.736H655.404C652.633 796.816 649.977 797.864 647.893 799.699C645.81 801.534 644.43 804.041 643.992 806.788C643.767 808.04 643.823 809.327 644.156 810.555C644.489 811.782 645.09 812.92 645.916 813.886C646.742 814.851 647.772 815.62 648.931 816.136C650.09 816.652 651.349 816.903 652.616 816.87Z" fill="white"/>
<path opacity="0.2" d="M647.418 854.34H786.636C789.41 854.253 792.066 853.199 794.149 851.359C796.232 849.519 797.611 847.008 798.049 844.259C798.27 843.001 798.209 841.71 797.869 840.479C797.529 839.249 796.919 838.11 796.084 837.146C795.249 836.183 794.209 835.419 793.042 834.91C791.875 834.401 790.609 834.161 789.337 834.207H650.206C647.433 834.291 644.776 835.34 642.688 837.174C640.601 839.008 639.214 841.512 638.764 844.259C638.571 845.509 638.65 846.786 638.997 848.003C639.344 849.219 639.949 850.345 640.772 851.304C641.595 852.262 642.615 853.03 643.763 853.554C644.91 854.079 646.157 854.347 647.418 854.34Z" fill="white"/>
<path opacity="0.2" d="M718.479 358.226H944.381C945.801 358.162 947.154 357.608 948.213 356.658C949.271 355.707 949.97 354.419 950.189 353.01C950.301 352.364 950.269 351.7 950.094 351.068C949.919 350.435 949.607 349.85 949.179 349.353C948.751 348.857 948.218 348.462 947.62 348.198C947.021 347.933 946.371 347.806 945.717 347.824H719.931C718.52 347.897 717.175 348.45 716.119 349.393C715.063 350.336 714.359 351.612 714.123 353.01C714.014 353.649 714.044 354.303 714.212 354.928C714.38 355.554 714.682 356.135 715.096 356.631C715.511 357.128 716.028 357.527 716.612 357.803C717.197 358.078 717.834 358.223 718.479 358.226Z" fill="white"/>
<path opacity="0.4" d="M732.096 707.337C750.779 689.851 753.632 662.455 738.468 646.146C723.305 629.837 695.868 630.791 677.186 648.277C658.503 665.762 655.65 693.159 670.814 709.467C685.977 725.776 713.414 724.822 732.096 707.337Z" fill="white"/>
<path d="M666.003 677.856C665.071 684.072 665.792 690.425 668.094 696.271C670.608 702.413 674.93 707.639 680.482 711.252C686.034 714.865 692.553 716.693 699.167 716.492C706.449 716.319 713.582 714.392 719.965 710.872C726.349 707.353 731.795 702.345 735.845 696.271C739.624 690.769 742.088 684.468 743.047 677.856C745.951 656.499 731.169 639.191 709.883 639.191C699.225 639.499 689.009 643.53 680.998 650.589C672.987 657.648 667.684 667.292 666.003 677.856Z" fill="white"/>
<path opacity="0.4" d="M676.604 692.629C678.529 697.345 681.844 701.359 686.104 704.135C690.365 706.91 695.368 708.314 700.445 708.159C706.033 708.024 711.507 706.543 716.405 703.84C721.302 701.137 725.48 697.292 728.585 692.629C721.355 687.374 712.625 684.604 703.698 684.733C694.112 684.801 684.734 687.534 676.604 692.629Z" fill="#263238"/>
<path opacity="0.4" d="M692.779 668.357C692.49 670.001 692.569 671.689 693.01 673.298C693.452 674.908 694.245 676.399 695.332 677.662C696.419 678.926 697.773 679.931 699.296 680.605C700.818 681.278 702.471 681.603 704.134 681.556C707.773 681.452 711.262 680.077 713.998 677.667C716.734 675.257 718.545 671.964 719.119 668.357C719.412 666.713 719.338 665.025 718.9 663.414C718.462 661.803 717.672 660.31 716.588 659.043C715.504 657.777 714.152 656.768 712.63 656.091C711.109 655.414 709.457 655.085 707.793 655.129C704.146 655.233 700.65 656.611 697.909 659.027C695.168 661.442 693.353 664.742 692.779 668.357Z" fill="#263238"/>
</svg>
