<svg width="29238" height="27650" viewBox="0 0 29238 27650" fill="none" xmlns="http://www.w3.org/2000/svg">
<path d="M4052.22 23453.4L3371.9 22985C3371.9 22985 2978.94 23556.5 2378.62 23158.4C2261.55 23083.7 2170.61 22974.5 2118.43 22845.8C2066.25 22717.2 2055.41 22575.4 2087.42 22440.3C2112.8 22326.4 2164.76 22220.1 2239.06 22130.1C2313.36 22040.2 2407.9 21969 2514.94 21922.6C2760.7 21811.8 3132.54 21813.1 3535.74 22209.3L4590.46 20673.3L3917.82 20210.6L3300.22 21106.6C3300.22 21106.6 2189.18 20701.4 1473.66 21740.8C789.5 22735.4 1522.3 23580.2 1904.38 23842.6C2196.22 24048 3236.22 24661.8 4052.22 23453.4Z" fill="#EBEBEB"/>
<path d="M4124.01 19891.4L4806.27 20360.9L5244.87 19723.4L4562.6 19254L4124.01 19891.4Z" fill="#EBEBEB"/>
<path d="M6948.86 25334.4L7309.82 25239C7299.1 25198 7296.65 25155.2 7302.62 25113.2C7308.6 25071.2 7322.87 25030.7 7344.61 24994.3C7366.35 24957.8 7395.12 24926.1 7429.25 24900.9C7463.38 24875.6 7502.19 24857.4 7543.42 24847.4C7603.55 24829.1 7667.9 24830 7727.45 24850.1C7787.01 24870.2 7838.8 24908.4 7875.58 24959.4C7907.19 25001.6 7928.37 25050.6 7937.38 25102.6C7946.39 25154.5 7942.98 25207.9 7927.42 25258.2C7892.86 25375.4 7782.78 25502.7 7528.06 25523.8L7742.46 26338.6L8099.58 26244.5L7971.58 25767C8106.61 25685.2 8211.04 25561.3 8268.84 25414.3C8326.65 25267.4 8334.64 25105.5 8291.58 24953.6C8152.06 24425.6 7645.82 24427.5 7443.58 24481.3C7291.9 24522.2 6774.14 24698.9 6948.86 25334.4Z" fill="#EBEBEB"/>
<path d="M8149.94 26409.9L7787.3 26505.5L7876.61 26844L8239.24 26748.4L8149.94 26409.9Z" fill="#EBEBEB"/>
<path d="M12948.2 2529.92C13130.8 2418.67 13327.6 2332.56 13533.2 2273.92L13653.5 1697.92L14632.1 1680.64L14772.9 2256.64C14980.4 2307.48 15180.2 2386.06 15366.8 2490.24L15861.5 2165.76L16565.5 2845.44L16258.9 3351.04C16369.8 3534.06 16455.9 3730.98 16514.9 3936.64L17094.1 4056.96L17110.8 5035.52L16534.8 5176.32C16483.6 5383.79 16405.1 5583.53 16301.2 5770.24L16625 6264.96L15945.3 6968.96L15439.7 6662.4C15256.9 6773.66 15060 6859.77 14854.1 6918.4L14733.8 7498.24L13755.3 7514.88L13614.5 6938.88C13406.8 6888.32 13207 6809.73 13020.5 6705.28L12525.8 7029.76L11821.8 6350.08L12128.4 5844.48C12017.1 5661.67 11931 5464.7 11872.4 5258.88L11296.4 5138.56L11279.1 4160L11855.1 4019.2C11905 3810.41 11982.9 3609.33 12086.8 3421.44L11762.3 2926.72L12442 2222.72L12948.2 2529.92ZM13469.8 3833.6C13325.9 3983.15 13229.5 4172.04 13192.8 4376.37C13156.2 4580.7 13181 4791.3 13264.1 4981.54C13347.1 5171.78 13484.8 5333.12 13659.5 5445.15C13834.3 5557.19 14038.3 5614.88 14245.9 5610.94C14453.4 5607.01 14655.2 5541.61 14825.5 5423.03C14995.9 5304.45 15127.3 5138.01 15203.1 4944.75C15278.9 4751.49 15295.7 4540.1 15251.3 4337.31C15207 4134.51 15103.5 3949.42 14954 3805.44C14753.4 3612.51 14484.4 3507.11 14206.1 3512.39C13927.8 3517.67 13663 3633.2 13469.8 3833.6Z" fill="#F5F5F5"/>
<path d="M8852.22 489.6C8957.7 426.254 9071.11 377.186 9189.5 343.68L9258.62 9.59985L9822.46 0L9903.74 330.88C10023.2 360.09 10138.2 405.299 10245.5 465.28L10530.3 278.4L10933.5 669.44L10756.9 960.64C10820.6 1066.02 10869.8 1179.45 10903.4 1297.92L11236.9 1367.04L11246.5 1930.88L10915.6 2013.44C10886.5 2132.93 10841.3 2247.9 10781.2 2355.2L10968.1 2640L10576.4 3045.76L10285.2 2869.12C10179.8 2932.82 10066.4 2982.11 9947.9 3015.68L9876.22 3348.48L9312.38 3358.72L9236.22 3027.84C9116.83 2998.12 9001.92 2952.71 8894.46 2892.8L8609.66 3079.68L8203.9 2688L8377.98 2397.44C8314.18 2292.35 8264.88 2179.11 8231.42 2060.8L7897.98 1991.04L7887.74 1427.2L8219.26 1346.56C8248.35 1226.87 8293.57 1111.68 8353.66 1004.16L8166.78 719.36L8558.46 314.24L8852.22 489.6ZM9152.38 1240.96C9068.86 1326.87 9012.74 1435.66 8991.15 1553.52C8969.55 1671.37 8983.44 1792.99 9031.07 1902.93C9078.7 2012.88 9157.91 2106.2 9258.66 2171.06C9359.4 2235.92 9477.14 2269.39 9596.94 2267.23C9716.74 2265.07 9833.2 2227.38 9931.54 2158.93C10029.9 2090.48 10105.7 1994.36 10149.3 1882.77C10192.9 1771.18 10202.4 1649.14 10176.6 1532.14C10150.8 1415.14 10090.8 1308.45 10004.2 1225.6C9888.81 1114.47 9734.03 1053.68 9573.84 1056.56C9413.66 1059.44 9261.16 1125.76 9149.82 1240.96H9152.38Z" fill="#EBEBEB"/>
<path d="M26840.7 10954.9C26945.9 10891.3 27059.1 10842.1 27177.3 10808.3L27247.1 10474.9L27810.3 10465.3L27891.6 10796.2C28011.3 10825.3 28126.5 10870.5 28234 10930.6L28518.8 10743.7L28923.9 11135.4L28747.3 11426.6C28811 11531.9 28860.2 11645.4 28893.8 11763.8L29227.9 11833L29237.5 12396.8L28906.6 12478.1C28876.8 12597.4 28831.7 12712.2 28772.2 12819.8L28958.5 13104.6L28567.4 13510.4L28276.2 13333.8C28170.8 13397.5 28057.4 13446.8 27938.9 13480.3L27869.2 13813.8L27306 13824L27224.7 13492.5C27105.2 13463.4 26990.2 13418.2 26882.9 13358.1L26597.5 13545L26192.4 13153.3L26369 12862.1C26305.2 12756.8 26255.9 12643.3 26222.5 12524.8L25889 12455.7L25878.8 11891.8L26209.7 11810.6C26239.4 11691.3 26284.6 11576.4 26344.1 11468.8L26157.8 11184L26548.9 10778.2L26840.7 10954.9ZM27140.9 11705.6C27057.7 11791.6 27002 11900.4 26980.6 12018.1C26959.3 12135.8 26973.4 12257.2 27021 12366.9C27068.7 12476.6 27147.8 12569.7 27248.4 12634.5C27349 12699.2 27466.5 12732.7 27586.2 12730.6C27705.8 12728.6 27822.1 12691.1 27920.4 12622.9C28018.7 12554.7 28094.6 12459 28138.4 12347.7C28182.3 12236.4 28192.2 12114.6 28166.8 11997.7C28141.4 11880.7 28081.9 11774 27995.9 11690.9C27880.5 11579.6 27725.6 11518.7 27565.3 11521.5C27405 11524.2 27252.4 11590.4 27140.9 11705.6Z" fill="#EBEBEB"/>
<path d="M28358.1 27633.3C28358.1 27642.9 22289 27649.9 14804.9 27649.9C7320.7 27649.9 1250.3 27642.9 1250.3 27633.3C1250.3 27623.7 7317.5 27616.6 14804.9 27616.6C22292.2 27616.6 28358.1 27624.3 28358.1 27633.3Z" fill="#263238"/>
<path d="M25406.5 27586.6L16318.5 27581.4C15793.5 27581.1 15290.2 27372.3 14919.1 27001C14548 26629.7 14339.6 26126.2 14339.6 25601.3L14344.1 2817.28C14345.2 2291.87 14554.8 1788.38 14926.7 1417.28C15298.7 1046.17 15802.6 837.76 16328.1 837.762L25416.1 843.522C25941 843.861 26444.3 1052.63 26815.4 1423.95C27186.5 1795.26 27394.9 2298.73 27394.9 2823.68L27390.5 25607.7C27390.5 25868 27339.1 26125.7 27239.3 26366.2C27139.6 26606.6 26993.3 26825 26809 27008.8C26624.8 27192.6 26406 27338.3 26165.3 27437.4C25924.6 27536.5 25666.8 27587.2 25406.5 27586.6Z" fill="#455A64"/>
<path d="M25403.3 1646.72H23641.3C23525.2 1649.41 23414.8 1698.1 23334.5 1782.11C23254.3 1866.11 23210.6 1978.55 23213.2 2094.72V2414.72C23215.8 2530.89 23172.1 2643.33 23091.8 2727.34C23011.5 2811.34 22901.2 2860.04 22785 2862.72H19350.1C19234.1 2859.87 19123.9 2811.1 19043.8 2727.12C18963.6 2643.13 18920 2530.79 18922.6 2414.72V2094.72C18925.2 1978.55 18881.5 1866.11 18801.3 1782.11C18721 1698.1 18610.6 1649.41 18494.5 1646.72H16332.5C15965.6 1646.38 15613.4 1791.58 15353.3 2050.48C15093.2 2309.38 14946.4 2660.86 14945 3027.84L14940.5 25269.1C14941.2 25636.4 15087.5 25988.4 15347.4 26247.9C15607.3 26507.4 15959.5 26653.3 16326.8 26653.4L25397.5 26658.6C25579.6 26658.6 25760 26622.9 25928.3 26553.2C26096.6 26483.6 26249.5 26381.5 26378.4 26252.8C26507.2 26124.1 26609.4 25971.2 26679.2 25803C26749 25634.8 26784.9 25454.5 26785 25272.3L26788.9 3031.04C26788.4 2663.83 26642.2 2311.83 26382.4 2052.29C26122.6 1792.75 25770.5 1646.89 25403.3 1646.72Z" fill="white"/>
<path d="M26788.2 6321.28V3008C26781.7 2644.91 26632.9 2298.89 26373.9 2044.33C26114.9 1789.77 25766.4 1647 25403.3 1646.72H23641.3C23583.8 1647.97 23527.1 1660.55 23474.4 1683.75C23421.7 1706.95 23374.1 1740.31 23334.3 1781.92C23294.6 1823.54 23263.4 1872.58 23242.6 1926.26C23221.8 1979.93 23211.8 2037.18 23213.2 2094.72V2414.72C23215.8 2530.89 23172.1 2643.33 23091.8 2727.34C23011.5 2811.34 22901.2 2860.04 22785 2862.72H19350.1C19234.1 2859.87 19123.9 2811.1 19043.8 2727.12C18963.6 2643.13 18920 2530.79 18922.6 2414.72V2094.72C18925.2 1978.55 18881.5 1866.11 18801.3 1782.11C18721 1698.1 18610.6 1649.41 18494.5 1646.72H16332.5C15965.6 1646.38 15613.4 1791.58 15353.3 2050.48C15093.2 2309.38 14946.4 2660.86 14945 3027.84V6331.52H26788.2V6321.28Z" fill="#EBEBEB"/>
<path d="M17360.4 10815.4C18153.2 10815.4 18795.9 10174.1 18795.9 9383.04C18795.9 8591.99 18153.2 7950.72 17360.4 7950.72C16567.6 7950.72 15924.9 8591.99 15924.9 9383.04C15924.9 10174.1 16567.6 10815.4 17360.4 10815.4Z" fill="#E0E0E0"/>
<path d="M16689.7 9741.44L17066 9709.44L17983.7 9864.32L18091.9 10554.9L18076.5 10635.5C17869.8 10752.2 17637.5 10816.1 17400.1 10821.6C17162.8 10827 16927.8 10773.9 16715.9 10666.9L16689.7 9741.44Z" fill="#455A64"/>
<path d="M17787.3 9853.44C17878.3 9840.15 17971.2 9852.72 18055.4 9889.73C18139.6 9926.74 18211.7 9986.68 18263.4 10062.7C18325.6 10149.6 18382.7 10239.9 18434.3 10333.4C18284.5 10496 18162.9 10619.5 17955.6 10691.8L17787.3 9853.44Z" fill="#455A64"/>
<path d="M16689.7 9741.44C16689.7 9741.44 16441.3 9772.16 16345.3 9984C16249.3 10195.8 16226.9 10261.8 16226.9 10261.8C16354.9 10416.6 16518.8 10599.7 16719.1 10668.2C16719.1 10668.2 16764.5 10134.4 16770.3 9984C16777.3 9821.44 16783.7 9736.96 16689.7 9741.44Z" fill="#455A64"/>
<path d="M16916.2 8384.64C16978.8 8304.52 17058.5 8239.46 17149.6 8194.26C17240.6 8149.07 17340.7 8124.9 17442.3 8123.52C17529.7 8123.51 17616.4 8139.11 17698.3 8169.6C17784.5 8190.02 17860.7 8240.37 17913.3 8311.68C17978.6 8395.53 18021.3 8494.67 18037.5 8599.68C18052.5 8707.15 18057.7 8815.76 18052.9 8924.16C18047.6 9033.34 18012.4 9138.96 17951.1 9229.44L17675.3 9276.8C17523.2 9288.94 17370.1 9280.76 17220.2 9252.48C17068.6 9223.38 16934.7 9135.49 16847.7 9008C16737 8828.16 16783.1 8548.48 16916.2 8384.64Z" fill="#263238"/>
<path d="M16650 9181.44C16652.8 9150.23 16662.7 9120.07 16678.9 9093.24C16695 9066.41 16717.1 9043.61 16743.4 9026.56C16770.3 9010.39 16801.7 9003.16 16833 9005.92C16864.2 9008.68 16893.8 9021.28 16917.5 9041.92L16961 9093.12C16994.6 9108.64 17022.5 9134.24 17040.9 9166.36C17059.2 9198.47 17067.1 9235.51 17063.4 9272.32C17058.6 9309.16 17043.3 9343.83 17019.2 9372.11C16995.1 9400.4 16963.3 9421.09 16927.7 9431.68C16892.1 9441.78 16854.6 9442.55 16818.6 9433.92C16782.6 9425.29 16749.4 9407.55 16722.3 9382.4C16695.7 9356.67 16675.3 9325.17 16662.8 9290.33C16650.2 9255.49 16645.9 9218.24 16650 9181.44Z" fill="#263238"/>
<path d="M16704.4 9369.6C16694 9353.4 16688.9 9334.41 16689.7 9315.2C16698.9 9268.61 16721.1 9225.58 16753.7 9191.04C16784.6 9154.77 16822.1 9124.78 16864.4 9102.72C16896.4 9085.44 16918.8 9079.04 16918.1 9077.12C16897.7 9078.61 16877.8 9084.51 16859.9 9094.4C16814.8 9114.46 16774.9 9144.69 16743.4 9182.72C16725.8 9202.01 16710.7 9223.52 16698.6 9246.72C16688.1 9266.53 16682 9288.35 16680.7 9310.72C16680.4 9326.1 16684.6 9341.23 16692.9 9354.24C16698.6 9367.04 16704.4 9373.44 16704.4 9369.6Z" fill="#455A64"/>
<path d="M17672.7 9804.16V9548.16C17672.7 9548.16 17897.3 9523.2 17960.1 9235.2C17989.5 9044.7 18001.1 8851.86 17994.6 8659.2C17994.6 8484.48 17844.2 8246.4 17627.9 8245.76L17531.9 8234.24L17163.9 8380.16C17138.3 8381.57 17114.2 8392.44 17096.2 8410.66C17078.3 8428.88 17067.7 8453.15 17066.6 8478.72L17055.7 9708.16L17224.1 9944.32C17254.9 9986.03 17298 10017 17347.3 10033C17396.7 10049 17449.8 10049.1 17499.2 10033.4C17548.6 10017.6 17591.8 9986.82 17622.8 9945.25C17653.8 9903.68 17671.1 9853.45 17672.1 9801.6L17672.7 9804.16Z" fill="#FFBE9D"/>
<path d="M17526.1 9168.64C17528.1 9153.83 17535.7 9140.33 17547.3 9130.88C17557.8 9122.06 17570.9 9116.86 17584.6 9116.05C17598.3 9115.25 17611.9 9118.87 17623.4 9126.4C17635.2 9135.57 17644.3 9147.67 17649.9 9161.48C17655.6 9175.3 17657.4 9190.35 17655.4 9205.12C17649 9214.02 17640.8 9221.47 17631.3 9226.99C17621.8 9232.5 17611.3 9235.95 17600.4 9237.12H17590.1C17581.7 9237.34 17573.2 9235.87 17565.3 9232.79C17557.4 9229.71 17550.2 9225.09 17544.1 9219.2C17537.6 9212.57 17532.6 9204.62 17529.5 9195.89C17526.5 9187.16 17525.3 9177.86 17526.1 9168.64Z" fill="#EB996E"/>
<path d="M17860.9 8861.44C17860.5 8871.18 17856.4 8880.39 17849.3 8887.09C17842.3 8893.8 17832.8 8897.46 17823.1 8897.28C17818.3 8897.37 17813.6 8896.51 17809.1 8894.75C17804.6 8893 17800.6 8890.38 17797.1 8887.05C17793.7 8883.72 17790.9 8879.75 17789 8875.36C17787.1 8870.96 17786.1 8866.23 17786 8861.44C17786.5 8851.65 17790.8 8842.44 17797.9 8835.75C17805.1 8829.06 17814.6 8825.43 17824.4 8825.6C17829.1 8825.52 17833.9 8826.38 17838.3 8828.15C17842.7 8829.91 17846.7 8832.54 17850.1 8835.87C17853.5 8839.21 17856.2 8843.19 17858.1 8847.58C17859.9 8851.97 17860.9 8856.68 17860.9 8861.44Z" fill="#263238"/>
<path d="M17922.3 8769.28C17917.2 8773.76 17889.7 8751.36 17850 8749.44C17810.3 8747.52 17778.9 8766.08 17775.1 8760.96C17771.3 8755.84 17778.3 8750.08 17791.7 8741.12C17809.9 8730.31 17830.8 8725.19 17851.9 8726.4C17872.8 8727.23 17892.8 8734.87 17908.9 8748.16C17920.4 8758.4 17924.2 8767.36 17922.3 8769.28Z" fill="#263238"/>
<path d="M17669.5 9072.64C17690.5 9067.72 17711.9 9065.14 17733.5 9064.96C17743.7 9064.96 17754 9064.96 17755.9 9056C17757.3 9045.48 17755.6 9034.77 17750.8 9025.28L17724.5 8945.92C17700.1 8878.2 17681 8808.65 17667.6 8737.92C17697.5 8803.47 17722.1 8871.32 17741.2 8940.8C17750.1 8968.32 17757.8 8995.2 17766.1 9020.8C17771.5 9033.54 17772.7 9047.69 17769.3 9061.12C17765.4 9067.98 17759 9073.04 17751.4 9075.2C17745.7 9075.79 17739.9 9075.79 17734.1 9075.2C17712.6 9077.28 17690.8 9076.42 17669.5 9072.64Z" fill="#263238"/>
<path d="M17671.4 9548.8C17534 9542.63 17401 9498.3 17287.4 9420.8C17287.4 9420.8 17380.2 9627.52 17671.4 9616.64V9548.8Z" fill="#EB996E"/>
<path d="M17549.8 9094.4C17556.9 9094.4 17554.3 9137.92 17590.1 9170.56C17626 9203.2 17672.1 9201.28 17672.1 9207.04C17672.1 9212.8 17661.2 9215.36 17642 9214.72C17616.4 9213.57 17592 9203.62 17572.9 9186.56C17554.8 9169.94 17543.8 9147.04 17542.1 9122.56C17541.5 9104 17547.3 9093.76 17549.8 9094.4Z" fill="#263238"/>
<path d="M17914 8618.24C17906.9 8627.84 17876.2 8618.24 17840.4 8618.24C17804.5 8618.24 17776.4 8627.2 17766.8 8618.24C17757.2 8609.28 17766.8 8604.16 17780.9 8595.2C17798.5 8584.11 17818.9 8578.12 17839.7 8577.92C17860.7 8577.37 17881.4 8582.93 17899.3 8593.92C17912.7 8605.44 17917.2 8613.76 17914 8618.24Z" fill="#263238"/>
<path d="M17420.5 8861.44C17420.4 8871.24 17424 8880.73 17430.7 8887.89C17437.4 8895.06 17446.6 8899.34 17456.4 8899.84C17461.1 8900.28 17465.9 8899.76 17470.5 8898.31C17475.1 8896.87 17479.3 8894.53 17482.9 8891.43C17486.6 8888.32 17489.5 8884.53 17491.7 8880.26C17493.8 8875.99 17495.1 8871.33 17495.4 8866.56C17495.4 8856.87 17491.7 8847.55 17485 8840.52C17478.4 8833.49 17469.3 8829.29 17459.6 8828.8C17454.9 8828.27 17450.1 8828.71 17445.5 8830.08C17441 8831.45 17436.7 8833.73 17433.1 8836.78C17429.4 8839.83 17426.4 8843.59 17424.3 8847.82C17422.1 8852.06 17420.9 8856.7 17420.5 8861.44Z" fill="#263238"/>
<path d="M17371.9 8755.2C17376.4 8760.32 17405.2 8739.84 17445.5 8740.48C17485.8 8741.12 17514.6 8761.6 17519.1 8757.12C17523.6 8752.64 17519.1 8746.24 17503.7 8736.64C17486.7 8724.12 17466 8717.39 17444.9 8717.44C17424.1 8716.79 17403.7 8722.85 17386.6 8734.72C17373.8 8744.32 17369.3 8752.64 17371.9 8755.2Z" fill="#263238"/>
<path d="M17348.9 8669.44C17356.5 8679.04 17387.9 8669.44 17425 8669.44C17462.1 8669.44 17493.5 8677.12 17501.2 8669.44C17508.9 8661.76 17501.2 8655.36 17485.8 8646.4C17467.2 8635.49 17446 8629.74 17424.4 8629.74C17402.8 8629.74 17381.6 8635.49 17362.9 8646.4C17349.5 8655.36 17345 8664.32 17348.9 8669.44Z" fill="#263238"/>
<path d="M17115.3 8969.6C17115.3 8947.84 17094.8 8895.36 17073 8890.88C17016.7 8878.72 16913.7 8878.08 16904.7 9022.72C16892.5 9220.48 17096.7 9191.68 17096.7 9185.92C17096.7 9180.16 17111.4 9043.84 17115.3 8969.6Z" fill="#FFBE9D"/>
<path d="M17044.2 9110.4C17044.2 9110.4 17041 9110.4 17034.6 9114.88C17030.6 9116.61 17026.2 9117.5 17021.8 9117.5C17017.4 9117.5 17013.1 9116.61 17009 9114.88C16996.6 9105.98 16986.8 9093.94 16980.6 9079.99C16974.4 9066.03 16972.1 9050.69 16973.8 9035.52C16974.6 9018.58 16978.9 9002 16986.6 8986.88C16988.9 8980.85 16992.6 8975.44 16997.4 8971.1C17002.2 8966.76 17007.9 8963.62 17014.1 8961.92C17018.2 8961.05 17022.4 8961.66 17026.1 8963.66C17029.7 8965.66 17032.5 8968.91 17034 8972.8C17034.4 8975.99 17034.4 8979.22 17034 8982.4C17034 8982.4 17038.5 8982.4 17037.2 8971.52C17036.4 8966.57 17033.9 8962.05 17030.1 8958.72C17027.7 8956.35 17024.8 8954.55 17021.6 8953.45C17018.4 8952.34 17015 8951.96 17011.6 8952.32C17003.4 8953.37 16995.6 8956.52 16989 8961.45C16982.4 8966.38 16977.2 8972.94 16973.8 8980.48C16964.3 8997.09 16959.1 9015.77 16958.5 9034.88C16956.3 9052.48 16959.4 9070.32 16967.4 9086.16C16975.3 9102 16987.8 9115.11 17003.3 9123.84C17008.5 9125.61 17014.1 9126.24 17019.6 9125.69C17025.1 9125.14 17030.5 9123.42 17035.3 9120.64C17044.2 9117.44 17044.2 9111.04 17044.2 9110.4Z" fill="#EB996E"/>
<path d="M17065.3 8891.52L17115.3 8943.36C17332.9 8736 17758.5 8215.68 17734.8 8246.4C17635.4 8209.75 17528.6 8198.31 17423.7 8213.12C17261.8 8240.64 16955.3 8321.28 16959.7 8511.36C16969.3 8643.85 17005.2 8773.1 17065.3 8891.52Z" fill="#263238"/>
<path d="M16777.3 8848C16777.3 8848 16777.3 8843.52 16777.3 8836.48C16781.1 8825.74 16785.6 8815.26 16790.8 8805.12C16811.3 8768.44 16839.7 8736.75 16874 8712.32C16924.7 8676.16 16981.2 8648.9 17041 8631.68C17105 8610.56 17181.8 8593.92 17255.4 8562.56C17381.3 8509.38 17495 8430.97 17589.5 8332.16C17617.9 8302.13 17644.6 8270.5 17669.5 8237.44L17689.3 8209.92C17691.5 8206.61 17694.1 8203.6 17697 8200.96L17691.3 8211.2C17686.8 8217.6 17681 8227.84 17672.7 8240C17648.8 8274.11 17622.8 8306.6 17594.6 8337.28C17552.5 8382.54 17506.3 8423.68 17456.4 8460.16C17395.4 8505.01 17329.2 8542.4 17259.3 8571.52C17188.7 8598.56 17116.7 8621.64 17043.6 8640.64C16984.6 8657.09 16928.8 8683.27 16878.5 8718.08C16844.5 8741.45 16815.9 8771.78 16794.6 8807.04C16787.9 8820.25 16782.1 8833.94 16777.3 8848Z" fill="#455A64"/>
<path d="M16834.9 8878.72C16834.5 8864.05 16837.1 8849.44 16842.6 8835.84C16857.4 8797.94 16883.3 8765.37 16916.9 8742.4C16967.3 8710.21 17023.6 8688.45 17082.6 8678.4C17153.3 8664.91 17222.2 8643.44 17288.1 8614.4C17353.5 8584.64 17415 8546.8 17471.1 8501.76C17517.6 8464.78 17560.5 8423.41 17599.1 8378.24C17624.5 8347.88 17647.8 8315.8 17668.9 8282.24C17675.9 8271.36 17681.7 8261.76 17685.5 8254.72C17687.5 8251.27 17689.8 8248.05 17692.5 8245.12C17691.2 8248.69 17689.5 8252.12 17687.4 8255.36L17672.1 8284.16C17652.4 8318.96 17629.7 8351.94 17604.2 8382.72C17566.4 8429.98 17523.5 8472.9 17476.2 8510.72C17419.6 8556.69 17357.5 8595.39 17291.3 8625.92C17224.6 8655.22 17154.8 8676.7 17083.3 8689.92C17025.3 8700.78 16969.9 8722.5 16920.1 8753.92C16886.9 8775.55 16860.8 8806.5 16845.2 8842.88C16840.7 8854.51 16837.3 8866.5 16834.9 8878.72Z" fill="#455A64"/>
<path d="M16719.1 10666.9C16709.7 10540.8 16709.7 10414.1 16719.1 10288C16727.6 10414.1 16727.6 10540.7 16719.1 10666.9Z" fill="#263238"/>
<path d="M18077.2 10640C18075.5 10618.7 18075.5 10597.3 18077.2 10576C18081 10522.6 18079.1 10469 18071.4 10416C18061.5 10363.1 18046 10311.4 18025.3 10261.8C18015.7 10241.2 18007.9 10219.8 18002.3 10197.8C18014.8 10216.4 18025.3 10236.4 18033.7 10257.3C18057.4 10306.6 18074.4 10358.9 18084.2 10412.8C18091.8 10466.9 18091.8 10521.9 18084.2 10576C18084.6 10597.5 18082.2 10619 18077.2 10640Z" fill="#263238"/>
<path d="M24985.3 11201.9H20092.5C19976 11201.8 19864.2 11155.4 19781.8 11073C19699.4 10990.5 19653 10878.8 19652.9 10762.2V8707.84L19113.3 8229.12H24985.3C25043.4 8228.7 25101 8239.78 25154.7 8261.73C25208.5 8283.67 25257.4 8316.05 25298.5 8356.99C25339.7 8397.93 25372.4 8446.62 25394.6 8500.24C25416.9 8553.87 25428.3 8611.38 25428.2 8669.44V10762.2C25428.1 10820.2 25416.6 10877.6 25394.3 10931.1C25371.9 10984.7 25339.3 11033.2 25298.1 11074.1C25257 11114.9 25208.2 11147.3 25154.5 11169.2C25100.8 11191.1 25043.3 11202.3 24985.3 11201.9Z" fill="#EBEBEB"/>
<path d="M24650 11534.7C24476.4 11551.2 24302 11556.8 24127.7 11551.4C23953.7 11556.8 23779.5 11551.2 23606.1 11534.7C23779.5 11518.3 23953.7 11512.7 24127.7 11518.1C24302 11512.7 24476.4 11518.2 24650 11534.7Z" fill="#E0E0E0"/>
<path d="M24865.7 11575.7C24863.5 11575.7 24861.4 11575.2 24859.4 11574.3C24857.4 11573.4 24855.6 11572.2 24854.1 11570.6L24753 11465C24750.1 11462 24748.4 11457.9 24748.4 11453.8C24748.4 11449.6 24750.1 11445.6 24753 11442.6C24754.5 11441 24756.2 11439.8 24758.1 11439C24760 11438.1 24762.1 11437.7 24764.2 11437.7C24766.3 11437.7 24768.4 11438.1 24770.3 11439C24772.2 11439.8 24774 11441 24775.4 11442.6L24865 11536L25061.5 11336.3C25062.9 11334.8 25064.7 11333.6 25066.6 11332.7C25068.5 11331.9 25070.6 11331.5 25072.7 11331.5C25074.8 11331.5 25076.9 11331.9 25078.8 11332.7C25080.7 11333.6 25082.5 11334.8 25083.9 11336.3C25086.8 11339.3 25088.5 11343.3 25088.5 11347.5C25088.5 11351.7 25086.8 11355.7 25083.9 11358.7L24875.9 11570.6C24873.1 11573.3 24869.5 11575.1 24865.7 11575.7Z" fill="#FF81AE"/>
<path d="M25009.7 11572.5H24991.1C24986.9 11572.5 24982.8 11570.8 24979.8 11567.8C24976.8 11564.8 24975.1 11560.7 24975.1 11556.5C24975.5 11552.3 24977.5 11548.4 24980.5 11545.4C24983.5 11542.5 24987.5 11540.8 24991.7 11540.5H25003.3L25206.1 11333.8C25207.6 11332.2 25209.4 11331 25211.4 11330.1C25213.4 11329.3 25215.5 11328.9 25217.7 11328.9C25219.8 11328.9 25221.9 11329.3 25223.9 11330.1C25225.9 11331 25227.7 11332.2 25229.2 11333.8C25232.1 11336.8 25233.8 11340.8 25233.8 11345C25233.8 11349.2 25232.1 11353.2 25229.2 11356.2L25021.2 11567.4C25019.8 11569 25018 11570.3 25016 11571.2C25014 11572.1 25011.8 11572.5 25009.7 11572.5Z" fill="#FF81AE"/>
<path d="M24650 19577.6C24476.4 19594.1 24302 19599.6 24127.7 19594.2C23953.7 19599.6 23779.5 19594.1 23606.1 19577.6C23779.5 19561.1 23953.7 19555.6 24127.7 19561C24302 19555.6 24476.4 19561.1 24650 19577.6Z" fill="#E0E0E0"/>
<path d="M24865.7 19618.6C24863.2 19618.8 24860.7 19618.5 24858.3 19617.6C24856 19616.7 24853.9 19615.3 24852.2 19613.4L24751.1 19507.8C24749.3 19506.4 24747.9 19504.6 24746.8 19502.6C24745.8 19500.5 24745.2 19498.3 24745.1 19496C24745 19493.7 24745.4 19491.4 24746.3 19489.3C24747.1 19487.2 24748.4 19485.3 24750.1 19483.7C24751.8 19482.1 24753.8 19480.9 24755.9 19480.2C24758.1 19479.5 24760.4 19479.2 24762.7 19479.4C24764.9 19479.6 24767.1 19480.4 24769.1 19481.5C24771.1 19482.7 24772.8 19484.2 24774.1 19486.1L24863.7 19579.5L25060.2 19379.8C25061.7 19378.3 25063.4 19377.1 25065.3 19376.3C25067.2 19375.4 25069.3 19375 25071.4 19375C25073.5 19375 25075.6 19375.4 25077.5 19376.3C25079.4 19377.1 25081.2 19378.3 25082.6 19379.8C25085.6 19382.8 25087.2 19386.9 25087.2 19391C25087.2 19395.2 25085.6 19399.3 25082.6 19402.2L24877.2 19613.4C24874.1 19616.4 24870 19618.3 24865.7 19618.6Z" fill="#FF81AE"/>
<path d="M25009.7 19613.4H24991.1C24986.8 19613.3 24982.7 19611.5 24979.7 19608.3C24976.8 19605.2 24975.1 19601.1 24975.1 19596.8C24975.1 19594.7 24975.5 19592.6 24976.4 19590.6C24977.2 19588.7 24978.5 19586.9 24980 19585.5C24981.6 19584 24983.5 19582.9 24985.5 19582.2C24987.5 19581.5 24989.6 19581.3 24991.7 19581.4H25003.3L25206.1 19374.7C25207.6 19373.2 25209.4 19371.9 25211.4 19371.1C25213.4 19370.3 25215.5 19369.8 25217.7 19369.8C25219.8 19369.8 25221.9 19370.3 25223.9 19371.1C25225.9 19371.9 25227.7 19373.2 25229.2 19374.7C25232.1 19377.7 25233.8 19381.7 25233.8 19385.9C25233.8 19390.1 25232.1 19394.1 25229.2 19397.1L25021.2 19608.3C25019.8 19610 25018 19611.3 25016 19612.2C25014 19613.1 25011.8 19613.5 25009.7 19613.4Z" fill="#FF81AE"/>
<path d="M24922.6 8817.28C24922.6 8826.24 23854.5 8833.92 22536.7 8833.92C21218.9 8833.92 20151.4 8826.24 20151.4 8817.28C20151.4 8808.32 21218.9 8800.64 22536.7 8800.64C23854.5 8800.64 24922.6 8807.68 24922.6 8817.28Z" fill="white"/>
<path d="M24922.6 9167.36C24922.6 9176.96 23854.5 9184 22536.7 9184C21218.9 9184 20151.4 9176.96 20151.4 9167.36C20151.4 9157.76 21218.9 9150.72 22536.7 9150.72C23854.5 9150.72 24922.6 9158.4 24922.6 9167.36Z" fill="white"/>
<path d="M24922.6 9518.08C24922.6 9527.04 23854.5 9534.72 22536.7 9534.72C21218.9 9534.72 20151.4 9527.04 20151.4 9518.08C20151.4 9509.12 21218.9 9501.44 22536.7 9501.44C23854.5 9501.44 24922.6 9509.12 24922.6 9518.08Z" fill="white"/>
<path d="M17360.4 19747.8C18153.2 19747.8 18795.9 19106.6 18795.9 18315.5C18795.9 17524.5 18153.2 16883.2 17360.4 16883.2C16567.6 16883.2 15924.9 17524.5 15924.9 18315.5C15924.9 19106.6 16567.6 19747.8 17360.4 19747.8Z" fill="#E0E0E0"/>
<path d="M16689.7 18673.9L17066 18641.9L17983.7 18796.8L18091.9 19485.4L18076.5 19565.4C17869.9 19682.3 17637.5 19746.3 17400.2 19751.8C17162.8 19757.2 16927.7 19704 16715.9 19596.8L16689.7 18672" fill="#455A64"/>
<path d="M17787.3 18785.3C17878.3 18772.1 17971.1 18784.8 18055.3 18821.8C18139.5 18858.8 18211.6 18918.6 18263.4 18994.6C18325.7 19081.5 18382.8 19172.2 18434.3 19265.9C18284.5 19428.5 18162.9 19552 17955.6 19623.7L17787.3 18785.3Z" fill="#455A64"/>
<path d="M16689.7 18673.9C16689.7 18673.9 16441.3 18704 16345.3 18915.8C16249.3 19127.7 16226.9 19194.2 16226.9 19194.2C16354.9 19348.5 16518.8 19531.5 16719.1 19600C16719.1 19600 16764.5 19066.9 16770.3 18915.8C16777.3 18750.7 16783.7 18668.8 16689.7 18673.9Z" fill="#455A64"/>
<path d="M16916.2 17317.1C16978.7 17236.9 17058.4 17171.8 17149.5 17126.6C17240.5 17081.4 17340.6 17057.2 17442.3 17056C17529.7 17055.5 17616.4 17070.9 17698.3 17101.4C17784.3 17122.3 17860.4 17172.6 17913.3 17243.5C17978.5 17327.4 18021.2 17426.6 18037.5 17531.5C18052.5 17639.2 18057.6 17748 18052.9 17856.6C18047.7 17965.6 18012.5 18071.1 17951.1 18161.3L17675.3 18209.3C17523.2 18221.1 17370.2 18212.9 17220.2 18185C17068.6 18155.9 16934.7 18068 16847.7 17940.5C16737 17757.4 16783.1 17480.3 16916.2 17317.1Z" fill="#263238"/>
<path d="M16650 18116.5C16652.7 18085.2 16662.5 18055.1 16678.7 18028.2C16694.9 18001.4 16717.1 17978.6 16743.4 17961.6C16770.2 17945.2 16801.6 17937.9 16832.9 17940.5C16864.2 17943.1 16893.8 17955.7 16917.5 17976.3L16961 18028.2C16994.7 18043.6 17022.6 18069.2 17041 18101.3C17059.4 18133.5 17067.2 18170.5 17063.4 18207.4C17058.2 18244 17042.7 18278.5 17018.7 18306.7C16994.6 18334.9 16963.1 18355.7 16927.7 18366.7C16892.1 18376.7 16854.5 18377.3 16818.5 18368.6C16782.5 18359.8 16749.4 18342 16722.3 18316.8C16695.7 18291.2 16675.3 18259.8 16662.8 18225.1C16650.2 18190.3 16645.9 18153.2 16650 18116.5Z" fill="#263238"/>
<path d="M16704.4 18302.1C16694.1 18285.6 16689 18266.4 16689.7 18247C16698.9 18200.6 16721.1 18157.8 16753.7 18123.5C16784.4 18087.1 16822 18057 16864.4 18035.2C16896.4 18017.9 16918.8 18011.5 16918.1 18009C16897.8 18010.8 16878 18016.7 16859.9 18026.2C16815 18046.7 16775.2 18076.9 16743.4 18114.6C16725.7 18135.2 16710.6 18158 16698.6 18182.4C16688.1 18202.2 16682 18224 16680.7 18246.4C16680.5 18261.8 16684.7 18276.9 16692.9 18289.9C16698.6 18299.5 16704.4 18302.7 16704.4 18302.1Z" fill="#455A64"/>
<path d="M17674 18759.7V18503.7C17674 18503.7 17898.6 18478.7 17961.3 18191.4C17990.8 18000.9 18002.4 17808 17995.9 17615.4C17995.9 17440.6 17845.5 17202.6 17629.2 17201.9L17533.2 17191L17165.2 17337C17139.6 17338.2 17115.4 17349.1 17097.4 17367.3C17079.3 17385.6 17068.8 17409.9 17067.9 17435.5L17057 18664.3L17225.3 18900.5C17256.2 18942.2 17299.3 18973.2 17348.6 18989.2C17397.9 19005.1 17451 19005.3 17500.4 18989.5C17549.9 18973.8 17593.1 18943 17624.1 18901.4C17655.1 18859.8 17672.3 18809.6 17673.3 18757.8L17674 18759.7Z" fill="#FFBE9D"/>
<path d="M17526.1 18101.1C17528.1 18086.3 17535.7 18072.8 17547.3 18063.4C17557.8 18054.5 17570.9 18049.3 17584.6 18048.5C17598.3 18047.7 17611.9 18051.4 17623.4 18058.9C17635.2 18068 17644.3 18080.1 17649.9 18094C17655.6 18107.8 17657.4 18122.8 17655.4 18137.6C17649 18146.4 17640.7 18153.8 17631.3 18159.2C17621.8 18164.6 17611.2 18167.9 17600.4 18169H17590.1C17573 18168.6 17556.7 18162 17544.1 18150.4C17537.5 18144.1 17532.5 18136.4 17529.4 18127.8C17526.3 18119.3 17525.2 18110.2 17526.1 18101.1Z" fill="#EB996E"/>
<path d="M17860.9 17821.4C17859.7 17830.5 17855.2 17838.9 17848.3 17844.9C17841.4 17851 17832.6 17854.3 17823.4 17854.3C17814.3 17854.3 17805.4 17851 17798.5 17844.9C17791.6 17838.9 17787.2 17830.5 17786 17821.4C17786.5 17811.7 17790.8 17802.4 17797.9 17795.7C17805.1 17789.1 17814.6 17785.4 17824.4 17785.6C17829.1 17785.5 17833.9 17786.4 17838.3 17788.1C17842.7 17789.9 17846.7 17792.5 17850.1 17795.9C17853.5 17799.2 17856.2 17803.2 17858.1 17807.6C17859.9 17812 17860.9 17816.7 17860.9 17821.4Z" fill="#263238"/>
<path d="M17922.3 17726.1C17917.2 17730.6 17889.7 17708.2 17850 17706.2C17810.3 17704.3 17778.9 17722.2 17775.1 17717.1C17771.3 17712 17778.3 17706.2 17791.7 17697.9C17809.6 17686.5 17830.8 17681.4 17851.9 17683.2C17872.8 17684 17892.8 17691.7 17908.9 17705C17920.4 17715.2 17924.2 17724.2 17922.3 17726.1Z" fill="#263238"/>
<path d="M17669.5 18029.4C17690.5 18024.4 17711.9 18021.7 17733.5 18021.1C17743.7 18021.1 17754 18021.1 17755.9 18012.2C17757.3 18001.6 17755.5 17990.9 17750.8 17981.4C17742.5 17956.5 17733.5 17930.2 17724.5 17902.1C17700.2 17834.5 17681.2 17765.2 17667.6 17694.7C17697.6 17760 17722.2 17827.7 17741.2 17897C17750.1 17925.1 17757.8 17951.4 17766.1 17977C17771.5 17989.7 17772.7 18003.8 17769.3 18017.3C17767.6 18020.8 17765.1 18023.9 17762 18026.4C17758.9 18028.8 17755.3 18030.5 17751.4 18031.4C17745.7 18032.2 17739.9 18032.2 17734.1 18031.4C17712.6 18033.6 17690.9 18033 17669.5 18029.4Z" fill="#263238"/>
<path d="M17671.4 18505C17534.4 18499.6 17401.4 18456.4 17287.4 18380.2C17287.4 18380.2 17380.2 18586.9 17671.4 18576V18505Z" fill="#EB996E"/>
<path d="M17549.8 18050.6C17556.9 18050.6 17554.3 18094.1 17590.1 18127.4C17626 18160.6 17672.1 18158.1 17672.1 18163.8C17672.1 18169.6 17661.2 18171.5 17642 18171.5C17616.3 18170.4 17591.8 18160.2 17572.9 18142.7C17554.6 18126.3 17543.6 18103.3 17542.1 18078.7C17541.5 18060.8 17547.3 18050.6 17549.8 18050.6Z" fill="#263238"/>
<path d="M17914 17575C17906.9 17584.6 17876.2 17575 17840.4 17575C17804.5 17575 17776.4 17584 17766.8 17575C17757.2 17566.1 17766.8 17561 17780.9 17552C17798.4 17540.6 17818.8 17534.6 17839.7 17534.7C17860.7 17533.9 17881.5 17539.4 17899.3 17550.7C17912.7 17561 17917.2 17570.6 17914 17575Z" fill="#263238"/>
<path d="M17420.5 17816.3C17420.4 17826.1 17424 17835.5 17430.7 17842.5C17437.4 17849.6 17446.6 17853.7 17456.4 17854.1C17461.1 17854.6 17465.9 17854.2 17470.4 17852.8C17475 17851.4 17479.2 17849.2 17482.9 17846.1C17486.5 17843.1 17489.5 17839.3 17491.7 17835.1C17493.8 17830.8 17495.1 17826.2 17495.4 17821.4C17495.6 17811.6 17492 17802.2 17485.3 17795C17478.6 17787.8 17469.4 17783.5 17459.6 17783C17454.8 17782.6 17450 17783.1 17445.5 17784.6C17440.9 17786 17436.7 17788.4 17433 17791.5C17429.4 17794.6 17426.4 17798.4 17424.3 17802.6C17422.1 17806.9 17420.9 17811.6 17420.5 17816.3Z" fill="#263238"/>
<path d="M17371.9 17711.4C17376.4 17716.5 17405.2 17696 17445.5 17697.3C17485.8 17698.6 17514.6 17718.4 17519.1 17713.3C17523.6 17708.2 17519.1 17702.4 17503.7 17692.8C17486.5 17680.6 17466 17673.9 17444.9 17673.6C17424.1 17673.4 17403.7 17679.7 17386.6 17691.5C17373.8 17700.5 17369.3 17709.4 17371.9 17711.4Z" fill="#263238"/>
<path d="M17348.9 17625.6C17356.5 17634.6 17387.9 17625.6 17425 17625.6C17462.1 17625.6 17493.5 17632.6 17501.2 17625.6C17508.9 17618.6 17501.2 17612.2 17485.8 17603.2C17467.2 17592.3 17446 17586.5 17424.4 17586.5C17402.8 17586.5 17381.6 17592.3 17362.9 17603.2C17349.5 17611.5 17345 17621.1 17348.9 17625.6Z" fill="#263238"/>
<path d="M17115.3 17901.4C17115.3 17879.7 17094.8 17827.8 17073 17823.4C17016.7 17811.2 16913.7 17809.9 16904.7 17954.6C16892.5 18152.3 17096.7 18124.2 17096.7 18118.4C17096.7 18112.6 17111.4 17976.3 17115.3 17901.4Z" fill="#FFBE9D"/>
<path d="M17044.2 18042.9C17044.2 18042.9 17041 18042.9 17034.6 18047.4C17026.4 18050.5 17017.3 18050.5 17009 18047.4C16996.7 18038.6 16986.9 18026.6 16980.7 18012.8C16974.5 17999 16972.1 17983.7 16973.8 17968.6C16974.5 17951.7 16978.9 17935.1 16986.6 17920C16988.9 17914 16992.6 17908.6 16997.4 17904.2C17002.2 17899.9 17007.9 17896.7 17014.1 17895C17018.1 17894.3 17022.2 17894.8 17025.9 17896.7C17029.5 17898.6 17032.3 17901.6 17034 17905.3C17034.5 17908.7 17034.5 17912.1 17034 17915.5C17034 17915.5 17038.5 17912.3 17037.2 17904C17036.2 17899.1 17033.8 17894.6 17030.1 17891.2C17027.6 17889 17024.6 17887.4 17021.4 17886.4C17018.3 17885.5 17014.9 17885.1 17011.6 17885.4C17003.4 17886.4 16995.5 17889.5 16988.9 17894.4C16982.3 17899.4 16977.1 17906 16973.8 17913.6C16964.3 17930.2 16959 17948.9 16958.5 17968C16956.3 17985.5 16959.5 18003.2 16967.4 18019C16975.4 18034.7 16987.9 18047.7 17003.3 18056.3C17008.2 18058.8 17013.7 18060 17019.3 18060C17024.8 18060 17030.3 18058.8 17035.3 18056.3C17044.2 18047.4 17044.2 18042.9 17044.2 18042.9Z" fill="#EB996E"/>
<path d="M17065.3 17821.4L17115.3 17873.9C17332.9 17665.9 17758.5 17145.6 17734.8 17177C17635.6 17139.8 17528.6 17128.2 17423.7 17143C17261.8 17170.6 16955.3 17251.2 16959.7 17441.9C16969.3 17574.2 17005.2 17703.2 17065.3 17821.4Z" fill="#263238"/>
<path d="M16777.3 17779.8C16777.3 17779.8 16777.3 17776 16777.3 17768.3C16781.2 17757.8 16785.7 17747.6 16790.8 17737.6C16811.5 17700.8 16839.8 17668.9 16874 17644.2C16925.8 17608.3 16983.4 17581.7 17044.2 17565.4C17108.2 17543.7 17185 17527 17258.6 17495.7C17327.9 17466.9 17393.6 17430.2 17454.5 17386.2C17504.1 17350.4 17550.4 17310.1 17592.7 17265.9C17628.5 17227.5 17656.7 17194.2 17672.7 17171.2C17680.4 17159.7 17687.4 17150.7 17692.5 17143.7C17697.7 17136.6 17699.6 17134.1 17700.2 17134.7L17694.5 17145L17675.9 17173.1C17652.4 17207.5 17626.3 17240 17597.8 17270.4C17555.8 17315.9 17509.5 17357.2 17459.6 17393.9C17398.2 17437.5 17331.8 17473.6 17261.8 17501.4C17187.6 17532.8 17112.1 17549.4 17046.1 17570.6C16987.2 17586.8 16931.4 17612.8 16881 17647.4C16847 17670.9 16818.5 17701.5 16797.2 17737C16789.7 17750.8 16783.1 17765.2 16777.3 17779.8Z" fill="#455A64"/>
<path d="M16834.9 17811.2C16834.5 17796.3 16837.1 17781.5 16842.6 17767.7C16857.3 17729.9 16883.2 17697.5 16916.9 17674.9C16967.3 17642.7 17023.6 17620.9 17082.6 17610.9C17153.2 17597.1 17222.1 17575.6 17288.1 17546.9C17353.5 17517.1 17415 17479.3 17471.1 17434.2C17548.2 17372.5 17614.4 17298.3 17666.9 17214.7C17674 17203.2 17679.7 17194.2 17683.6 17186.6C17685.7 17183.4 17688 17180.4 17690.6 17177.6C17689.3 17181.2 17687.5 17184.6 17685.5 17187.8L17670.1 17216.6C17650.5 17251.4 17627.8 17284.4 17602.3 17315.2C17564.5 17362.5 17521.6 17405.4 17474.3 17443.2C17417.8 17489.2 17355.7 17527.7 17289.3 17557.8C17222.6 17586.7 17152.8 17608.2 17081.3 17621.8C17023.2 17632 16967.7 17653.8 16918.1 17685.8C16884.6 17707 16858.4 17738 16843.3 17774.7C16839.4 17786.6 16836.6 17798.8 16834.9 17811.2Z" fill="#455A64"/>
<path d="M16719.1 19598.7C16709.7 19472.8 16709.7 19346.4 16719.1 19220.5C16727.6 19346.4 16727.6 19472.8 16719.1 19598.7Z" fill="#263238"/>
<path d="M18077.2 19572.5C18075.3 19550.1 18075.3 19527.6 18077.2 19505.3C18081 19451.7 18079.1 19397.8 18071.4 19344.6C18061.4 19292 18045.9 19240.5 18025.3 19191C18015.8 19170.4 18008.1 19149 18002.3 19127C18014.8 19145.7 18025.3 19165.7 18033.7 19186.6C18057.5 19235.9 18074.5 19288.2 18084.2 19342.1C18091.8 19396.2 18091.8 19451.1 18084.2 19505.3C18084.8 19527.9 18082.4 19550.5 18077.2 19572.5Z" fill="#263238"/>
<path d="M24985.3 19157.8H20092.5C19975.9 19157.6 19864 19111.1 19781.6 19028.6C19699.2 18946 19652.9 18834.1 19652.9 18717.4V17639.7L19113.3 17161H24985.3C25101.9 17161.1 25213.6 17207.5 25296.1 17289.9C25378.5 17372.3 25424.9 17484.1 25425 17600.6V18717.4C25425 18834.1 25378.7 18946 25296.3 19028.6C25213.8 19111.1 25102 19157.6 24985.3 19157.8Z" fill="#EBEBEB"/>
<path d="M24922.6 17749.1C24922.6 17758.7 23854.5 17765.8 22536.7 17765.8C21218.9 17765.8 20151.4 17758.7 20151.4 17749.1C20151.4 17739.5 21218.9 17732.5 22536.7 17732.5C23854.5 17732.5 24922.6 17740.2 24922.6 17749.1Z" fill="white"/>
<path d="M24922.6 18099.8C24922.6 18108.8 23854.5 18116.5 22536.7 18116.5C21218.9 18116.5 20151.4 18108.8 20151.4 18099.8C20151.4 18090.9 21218.9 18083.2 22536.7 18083.2C23854.5 18083.2 24922.6 18090.9 24922.6 18099.8Z" fill="white"/>
<path d="M24922.6 18450.6C24922.6 18459.5 23854.5 18467.2 22536.7 18467.2C21218.9 18467.2 20151.4 18459.5 20151.4 18450.6C20151.4 18441.6 21218.9 18433.9 22536.7 18433.9C23854.5 18433.9 24922.6 18441 24922.6 18450.6Z" fill="white"/>
<path d="M24922.6 9868.8C24922.6 9877.76 23854.5 9885.44 22536.7 9885.44C21218.9 9885.44 20151.4 9877.76 20151.4 9868.8C20151.4 9859.84 21218.9 9852.16 22536.7 9852.16C23854.5 9852.16 24922.6 9859.2 24922.6 9868.8Z" fill="white"/>
<path d="M24922.6 10218.9C24922.6 10228.5 23854.5 10235.5 22536.7 10235.5C21218.9 10235.5 20151.4 10228.5 20151.4 10218.9C20151.4 10209.3 21218.9 10202.2 22536.7 10202.2C23854.5 10202.2 24922.6 10209.9 24922.6 10218.9Z" fill="white"/>
<path d="M24922.6 10640C24922.6 10649.6 23854.5 10656.6 22536.7 10656.6C21218.9 10656.6 20151.4 10649.6 20151.4 10640C20151.4 10630.4 21218.9 10623.4 22536.7 10623.4C23854.5 10623.4 24922.6 10631 24922.6 10640Z" fill="white"/>
<path d="M20180.2 4549.76C20183.6 4500.03 20201.5 4452.38 20231.6 4412.66C20261.7 4372.94 20302.8 4342.87 20349.8 4326.15C20396.7 4309.43 20447.5 4306.79 20496 4318.54C20544.4 4330.3 20588.4 4355.94 20622.5 4392.32L20554 4456.32C20539.8 4439.18 20522 4425.4 20501.9 4415.99C20481.7 4406.58 20459.7 4401.77 20437.5 4401.92C20398.1 4401.92 20360.4 4417.57 20332.5 4445.41C20304.7 4473.26 20289 4511.02 20289 4550.4C20289 4589.78 20304.7 4627.55 20332.5 4655.39C20360.4 4683.24 20398.1 4698.88 20437.5 4698.88C20459.8 4699.05 20481.9 4694.18 20502 4684.65C20522.2 4675.12 20539.9 4661.18 20554 4643.84L20622.5 4707.84C20588.4 4744.2 20544.5 4769.84 20496.1 4781.62C20447.7 4793.4 20397 4790.81 20350 4774.17C20303.1 4757.53 20262 4727.55 20231.9 4687.92C20201.7 4648.29 20183.8 4600.72 20180.2 4551.04V4549.76Z" fill="#263238"/>
<path d="M21048.1 4577.28V4781.44H20948.2V4593.28C20948.2 4535.68 20921.3 4509.44 20875.9 4509.44C20830.5 4509.44 20790.8 4540.16 20790.8 4605.44V4781.44H20687.1V4290.56H20790.8V4462.72C20805.8 4448.3 20823.6 4437.07 20843 4429.7C20862.5 4422.33 20883.3 4418.98 20904.1 4419.84C20924.4 4419.02 20944.6 4422.64 20963.4 4430.46C20982.1 4438.27 20998.9 4450.09 21012.7 4465.08C21026.4 4480.08 21036.7 4497.89 21042.8 4517.27C21048.9 4536.65 21050.7 4557.13 21048.1 4577.28Z" fill="#263238"/>
<path d="M21456.4 4578.56V4781.44H21359.7V4737.28C21347.7 4754.55 21331.3 4768.25 21312.1 4776.93C21293 4785.61 21271.8 4788.93 21250.9 4786.56C21167.7 4786.56 21118.5 4740.48 21118.5 4679.04C21118.5 4617.6 21162.6 4572.16 21271.4 4572.16H21353.3C21353.3 4528 21326.5 4502.4 21271.4 4502.4C21234.5 4502.03 21198.4 4513.46 21168.4 4535.04L21131.3 4463.36C21176.9 4433.78 21230.5 4418.62 21284.9 4419.84C21396.2 4419.84 21456.4 4470.4 21456.4 4578.56ZM21353.3 4668.8V4632.32H21282.3C21234.3 4632.32 21218.3 4650.24 21218.3 4674.56C21218.3 4698.88 21240.1 4717.44 21276.5 4717.44C21292.9 4718.67 21309.2 4714.6 21323 4705.84C21336.8 4697.08 21347.5 4684.09 21353.3 4668.8Z" fill="#263238"/>
<path d="M21780.2 4765.44C21755 4781.29 21725.5 4789.1 21695.7 4787.84C21678.2 4790.26 21660.3 4788.66 21643.4 4783.15C21626.5 4777.64 21611.1 4768.37 21598.4 4756.05C21585.6 4743.72 21575.8 4728.65 21569.8 4711.99C21563.7 4695.32 21561.4 4677.49 21563.3 4659.84V4513.28H21508.2V4433.92H21563.3V4346.88H21666.3V4433.92H21755.3V4513.28H21666.3V4658.56C21665.5 4664.66 21666.1 4670.86 21668 4676.7C21669.9 4682.54 21673.1 4687.89 21677.3 4692.36C21681.6 4696.83 21686.7 4700.3 21692.4 4702.54C21698.2 4704.77 21704.3 4705.71 21710.5 4705.28C21725.5 4705.82 21740.2 4701.07 21752.1 4691.84L21780.2 4765.44Z" fill="#263238"/>
<path d="M23606.1 5264C23606.1 5272.96 22518.1 5280.64 21169.7 5280.64C19821.2 5280.64 18733.8 5272.96 18733.8 5264C18733.8 5255.04 19821.8 5246.72 21169.7 5246.72C22517.5 5246.72 23606.1 5254.4 23606.1 5264Z" fill="#263238"/>
<path d="M25764.9 4549.76C25827.4 4549.76 25878.1 4499.05 25878.1 4436.48C25878.1 4373.92 25827.4 4323.2 25764.9 4323.2C25702.3 4323.2 25651.6 4373.92 25651.6 4436.48C25651.6 4499.05 25702.3 4549.76 25764.9 4549.76Z" fill="#263238"/>
<path d="M25876.2 4765.44C25876.3 4788.03 25869.8 4810.14 25857.3 4828.97C25844.8 4847.8 25827 4862.5 25806.2 4871.21C25785.4 4879.91 25762.4 4882.22 25740.2 4877.84C25718.1 4873.47 25697.7 4862.6 25681.7 4846.63C25665.8 4830.66 25654.9 4810.31 25650.5 4788.15C25646.2 4765.99 25648.5 4743.03 25657.2 4722.19C25665.9 4701.35 25680.6 4683.56 25699.4 4671.09C25718.2 4658.63 25740.4 4652.04 25762.9 4652.16C25792.9 4652.33 25821.6 4664.32 25842.9 4685.53C25864.1 4706.73 25876.1 4735.45 25876.2 4765.44Z" fill="#263238"/>
<path d="M25876.2 5097.6C25876.3 5120.19 25869.8 5142.3 25857.3 5161.13C25844.8 5179.96 25827 5194.66 25806.2 5203.37C25785.4 5212.07 25762.4 5214.38 25740.2 5210C25718.1 5205.63 25697.7 5194.76 25681.7 5178.79C25665.8 5162.82 25654.9 5142.47 25650.5 5120.31C25646.2 5098.15 25648.5 5075.19 25657.2 5054.35C25665.9 5033.51 25680.6 5015.72 25699.4 5003.25C25718.2 4990.79 25740.4 4984.2 25762.9 4984.32C25793 4984.32 25821.8 4996.26 25843 5017.5C25864.3 5038.75 25876.2 5067.56 25876.2 5097.6Z" fill="#263238"/>
<path d="M16552.7 4820.48C16545.8 4820.63 16539 4818.37 16533.5 4814.08L16233.3 4593.92C16229.2 4590.87 16225.9 4586.92 16223.6 4582.37C16221.2 4577.82 16220 4572.79 16219.9 4567.68C16219.9 4562.65 16221.2 4557.7 16223.5 4553.24C16225.8 4548.78 16229.2 4544.96 16233.3 4542.08L16533.5 4325.76C16536.9 4323.31 16540.8 4321.56 16544.9 4320.61C16549.1 4319.67 16553.3 4319.55 16557.5 4320.26C16561.7 4320.98 16565.6 4322.51 16569.2 4324.77C16572.8 4327.03 16575.9 4329.98 16578.3 4333.44C16583.1 4340.26 16585.1 4348.7 16583.8 4356.95C16582.5 4365.21 16578 4372.62 16571.3 4377.6L16306.3 4569.6L16571.3 4761.6C16578 4766.7 16582.5 4774.22 16583.8 4782.58C16585.1 4790.94 16583.2 4799.48 16578.3 4806.4C16575.5 4810.65 16571.7 4814.15 16567.2 4816.6C16562.8 4819.06 16557.8 4820.39 16552.7 4820.48Z" fill="#263238"/>
<path d="M24385.7 15581.4C25178.5 15581.4 25821.2 14940.2 25821.2 14149.1C25821.2 13358.1 25178.5 12716.8 24385.7 12716.8C23592.8 12716.8 22950.1 13358.1 22950.1 14149.1C22950.1 14940.2 23592.8 15581.4 24385.7 15581.4Z" fill="#E0E0E0"/>
<path d="M24778.6 14995.8H24023.4C23997.6 14995.8 23972.9 14985.6 23954.6 14967.3C23936.4 14949.1 23926.1 14924.4 23926.1 14898.6C23926.1 14872.7 23936.4 14847.9 23954.6 14829.5C23972.8 14811.2 23997.6 14800.8 24023.4 14800.6H24778.6C24804.5 14800.8 24829.2 14811.2 24847.4 14829.5C24865.7 14847.9 24875.9 14872.7 24875.9 14898.6C24875.9 14924.4 24865.7 14949.1 24847.4 14967.3C24829.2 14985.6 24804.4 14995.8 24778.6 14995.8Z" fill="#263238"/>
<path d="M24443.9 13217.9H24377.3V13553.3H24443.9V13217.9Z" fill="#263238"/>
<path d="M23432.1 14558.7C23539.5 14558.7 23626.6 14471.6 23626.6 14364.2C23626.6 14256.7 23539.5 14169.6 23432.1 14169.6C23324.6 14169.6 23237.5 14256.7 23237.5 14364.2C23237.5 14471.6 23324.6 14558.7 23432.1 14558.7Z" fill="#FF81AE"/>
<path d="M25399.4 14545.9C25506.9 14545.9 25594 14458.8 25594 14351.4C25594 14243.9 25506.9 14156.8 25399.4 14156.8C25292 14156.8 25204.9 14243.9 25204.9 14351.4C25204.9 14458.8 25292 14545.9 25399.4 14545.9Z" fill="#FF81AE"/>
<path d="M24439.4 13482.9C24439.4 13482.9 25231.7 13473.3 25357.2 14160C25482.6 14846.7 24812.5 14858.9 24619.9 14871.7C24532.9 14877.4 24346 14878.1 24180.9 14875.5C23815.4 14869.1 23557.5 14798.7 23469.8 14459.5C23459.3 14419.7 23452.7 14379 23450 14337.9C23426.9 13966.7 23677.8 13465 24439.4 13482.9Z" fill="#FF81AE"/>
<path d="M23864.7 14528L25016.7 14545.9C25074.6 14546.8 25130.6 14524.6 25172.2 14484.3C25213.8 14444 25237.8 14388.8 25238.8 14330.9C25239.5 14272.9 25217.1 14217.1 25176.7 14175.6C25136.3 14134.1 25081 14110.3 25023.1 14109.4L23871.1 14091.5C23842.4 14091 23813.9 14096.2 23787.1 14106.7C23760.4 14117.3 23736.1 14133 23715.4 14152.9C23694.8 14172.9 23678.3 14196.8 23666.9 14223.1C23655.5 14249.5 23649.4 14277.8 23649 14306.6C23648.6 14335.3 23653.8 14363.8 23664.5 14390.5C23675.1 14417.2 23690.9 14441.5 23710.9 14462C23730.9 14482.6 23754.8 14499 23781.2 14510.4C23807.6 14521.7 23836 14527.7 23864.7 14528Z" fill="#263238"/>
<path d="M24777.3 14307.2C24779 14316.3 24782.5 14324.9 24787.5 14332.6C24792.6 14340.3 24799.1 14346.9 24806.7 14352.1C24814.3 14357.3 24822.9 14360.9 24831.9 14362.7C24840.9 14364.6 24850.2 14364.6 24859.3 14362.9C24869 14361.9 24878.4 14358.9 24886.9 14354.1C24895.5 14349.2 24902.9 14342.7 24908.7 14334.8C24914.5 14326.9 24918.7 14317.9 24920.8 14308.4C24923 14298.8 24923.2 14288.9 24921.3 14279.3C24919.4 14269.7 24915.5 14260.6 24909.9 14252.6C24904.3 14244.6 24897.1 14237.8 24888.8 14232.7C24880.4 14227.6 24871.1 14224.3 24861.4 14223C24851.6 14221.8 24841.8 14222.5 24832.4 14225.3C24823.4 14227 24814.8 14230.6 24807.2 14235.6C24799.6 14240.7 24793 14247.2 24787.9 14254.8C24782.8 14262.4 24779.2 14271 24777.4 14280C24775.6 14289 24775.6 14298.2 24777.3 14307.2Z" fill="white"/>
<path d="M23972.9 14294.4C23973.8 14304.1 23976.9 14313.6 23981.7 14322.1C23986.5 14330.6 23993.1 14338 24000.9 14343.9C24008.8 14349.7 24017.8 14353.8 24027.3 14356C24036.9 14358.2 24046.8 14358.3 24056.4 14356.4C24066 14354.5 24075.1 14350.7 24083.2 14345.1C24091.2 14339.5 24098 14332.3 24103.1 14323.9C24108.1 14315.5 24111.4 14306.2 24112.7 14296.5C24114 14286.8 24113.2 14276.9 24110.5 14267.5C24105.5 14250.7 24094.5 14236.3 24079.5 14227.2C24064.5 14218.1 24046.6 14214.9 24029.4 14218.2C24012.2 14221.6 23996.8 14231.3 23986.4 14245.4C23975.9 14259.5 23971.1 14276.9 23972.9 14294.4Z" fill="white"/>
<path d="M24520.1 13213.4C24520.2 13235.1 24513.9 13256.3 24501.9 13274.4C24490 13292.5 24472.9 13306.6 24452.9 13315C24433 13323.4 24410.9 13325.6 24389.7 13321.5C24368.4 13317.3 24348.8 13307 24333.5 13291.7C24318.1 13276.4 24307.6 13256.9 24303.3 13235.7C24299.1 13214.4 24301.2 13192.4 24309.5 13172.3C24317.7 13152.3 24331.7 13135.2 24349.8 13123.1C24367.8 13111.1 24388.9 13104.6 24410.6 13104.6C24439.5 13104.6 24467.3 13116.1 24487.8 13136.5C24508.3 13156.9 24519.9 13184.5 24520.1 13213.4Z" fill="#FF81AE"/>
<path d="M24575.7 14275.2C24575.7 14275.2 24580.2 14280.3 24582.8 14291.8C24584.8 14308.2 24583.3 14324.8 24578.3 14340.5C24571.3 14364.8 24558 14386.8 24539.9 14404.5C24517.7 14426.6 24488.5 14440.4 24457.3 14443.5C24426.1 14446.1 24395 14438 24369 14420.5C24348.5 14406.6 24331.6 14387.9 24319.7 14366.1C24312.2 14351.4 24307.8 14335.2 24306.9 14318.7C24306.9 14307.2 24306.9 14300.8 24310.8 14300.8C24314.6 14300.8 24317.2 14325.1 24338.3 14355.2C24350.6 14371.9 24366.1 14386 24383.7 14396.8C24405.1 14409.5 24430 14415.3 24454.8 14413.4C24478.6 14410.4 24501 14400.1 24518.8 14384C24534.9 14370.6 24547.8 14353.8 24556.5 14334.7C24573.2 14301.4 24570.6 14275.2 24575.7 14275.2Z" fill="white"/>
<path d="M25355.9 14137.6C25358.3 14143 25360.2 14148.5 25361.7 14154.2C25364.2 14160.9 25366.3 14167.8 25368.1 14174.7C25368.1 14182.4 25372.5 14191.4 25374.5 14202.2C25379.4 14226.1 25382.8 14250.3 25384.7 14274.6C25386.9 14304.4 25386.9 14334.3 25384.7 14364.2C25382 14393.9 25377.1 14423.5 25370 14452.5C25364 14476 25356.3 14499.1 25346.9 14521.6C25343.8 14530.5 25340.1 14539.3 25336.1 14547.8C25333.3 14554.2 25330.1 14560.4 25326.5 14566.4L25317.5 14582.4C25318.9 14576.5 25321.3 14570.9 25324.5 14565.8L25332.9 14545.9C25336.1 14538.2 25339.9 14529.9 25343.1 14520.3C25351.7 14497.8 25358.8 14474.7 25364.2 14451.2C25371 14422.3 25376 14393 25378.9 14363.5C25380.8 14333.9 25380.8 14304.2 25378.9 14274.6C25377.3 14250.5 25374.4 14226.6 25370 14202.9C25368.6 14193 25366.7 14183.1 25364.2 14173.4C25364.2 14165.1 25361 14158.7 25359.7 14153C25357.8 14148 25356.5 14142.9 25355.9 14137.6Z" fill="#263238"/>
<path d="M23478.8 14141.4C23476 14147 23473.9 14152.8 23472.4 14158.7C23472.4 14163.8 23468.5 14170.9 23466 14178.6C23463.4 14186.2 23461.5 14195.8 23459.6 14206.1C23454.7 14229.9 23451.5 14254.1 23450 14278.4C23447.8 14308.2 23447.8 14338.2 23450 14368C23452.5 14397.8 23457.5 14427.3 23464.7 14456.3C23470.6 14480.1 23478.3 14503.4 23487.7 14526.1C23490.9 14535.7 23495.4 14544 23498.6 14551.7C23501.8 14559.4 23505.7 14565.8 23508.2 14570.9L23517.2 14586.2C23515.5 14580.4 23513.1 14574.8 23510.1 14569.6C23510.1 14564.5 23505 14558.1 23501.8 14550.4C23498.6 14542.7 23494.8 14534.4 23491.6 14524.8C23483 14502 23475.9 14478.7 23470.5 14455C23463.6 14426.2 23458.7 14396.9 23455.7 14367.4C23453.9 14338 23453.9 14308.5 23455.7 14279C23457.3 14254.8 23460.3 14230.6 23464.7 14206.7C23466 14197.6 23468 14188.7 23470.5 14179.8C23470.5 14171.5 23473.7 14164.5 23474.9 14159.4C23476.2 14154.2 23478.8 14141.4 23478.8 14141.4Z" fill="#263238"/>
<path d="M23649.7 15379.2C23649.7 15379.2 23885.2 15149.4 24377.3 15149.4C24869.5 15149.4 25121.7 15379.2 25121.7 15379.2C24899.6 15513.2 24645.1 15584 24385.7 15584C24126.3 15584 23871.8 15513.2 23649.7 15379.2Z" fill="#FF81AE"/>
<path d="M16532.2 15609.6H21424.4C21482.1 15609.7 21539.4 15598.4 21592.7 15576.3C21646.1 15554.2 21694.6 15521.9 21735.5 15481C21776.3 15440.2 21808.7 15391.7 21830.8 15338.3C21852.8 15284.9 21864.1 15227.7 21864.1 15169.9V13750.4L22403.6 13271.7H16532.2C16474.5 13271.7 16417.3 13283.1 16364 13305.1C16310.6 13327.2 16262.1 13359.6 16221.3 13400.5C16180.5 13441.3 16148.1 13489.8 16126 13543.1C16103.9 13596.4 16092.5 13653.6 16092.5 13711.4V15169.9C16092.5 15227.7 16103.8 15284.9 16125.8 15338.3C16147.9 15391.7 16180.3 15440.2 16221.1 15481C16262 15521.9 16310.5 15554.2 16363.9 15576.3C16417.2 15598.4 16474.5 15609.7 16532.2 15609.6Z" fill="#EBEBEB"/>
<path d="M21204.2 13965.4C21204.2 13975 20196.9 13982.1 18954 13982.1C17711.1 13982.1 16703.7 13975 16703.7 13965.4C16703.7 13955.8 17711.1 13948.8 18954 13948.8C20196.9 13948.8 21204.2 13956.5 21204.2 13965.4Z" fill="white"/>
<path d="M21204.2 14345.6C21204.2 14355.2 20196.9 14362.2 18954 14362.2C17711.1 14362.2 16703.7 14355.2 16703.7 14345.6C16703.7 14336 17711.1 14329 18954 14329C20196.9 14329 21204.2 14336.6 21204.2 14345.6Z" fill="white"/>
<path d="M21204.2 14725.8C21204.2 14734.7 20196.9 14742.4 18954 14742.4C17711.1 14742.4 16703.7 14734.7 16703.7 14725.8C16703.7 14716.8 17711.1 14709.1 18954 14709.1C20196.9 14709.1 21204.2 14716.8 21204.2 14725.8Z" fill="white"/>
<path d="M21204.2 15105.9C21204.2 15114.9 20196.9 15122.6 18954 15122.6C17711.1 15122.6 16703.7 15114.9 16703.7 15105.9C16703.7 15097 17711.1 15089.3 18954 15089.3C20196.9 15089.3 21204.2 15096.3 21204.2 15105.9Z" fill="white"/>
<path d="M24385.7 23535.4C25178.5 23535.4 25821.2 22894.1 25821.2 22103C25821.2 21312 25178.5 20670.7 24385.7 20670.7C23592.8 20670.7 22950.1 21312 22950.1 22103C22950.1 22894.1 23592.8 23535.4 24385.7 23535.4Z" fill="#E0E0E0"/>
<path d="M24778.6 22949.8H24023.4C24010.6 22949.8 23997.9 22947.2 23986 22942.3C23974.2 22937.4 23963.4 22930.1 23954.4 22921C23945.4 22911.9 23938.2 22901.1 23933.4 22889.3C23928.5 22877.4 23926.1 22864.7 23926.1 22851.8C23926.1 22826 23936.4 22801.3 23954.6 22783.1C23972.9 22764.8 23997.6 22754.6 24023.4 22754.6H24778.6C24804.4 22754.6 24829.2 22764.8 24847.4 22783.1C24865.7 22801.3 24875.9 22826 24875.9 22851.8C24876 22864.7 24873.5 22877.4 24868.7 22889.3C24863.8 22901.1 24856.7 22911.9 24847.6 22921C24838.6 22930.1 24827.8 22937.4 24816 22942.3C24804.2 22947.2 24791.5 22949.8 24778.6 22949.8Z" fill="#263238"/>
<path d="M24443.9 21171.8H24377.3V21507.2H24443.9V21171.8Z" fill="#263238"/>
<path d="M23432.1 22512.6C23539.5 22512.6 23626.6 22425.5 23626.6 22318.1C23626.6 22210.6 23539.5 22123.5 23432.1 22123.5C23324.6 22123.5 23237.5 22210.6 23237.5 22318.1C23237.5 22425.5 23324.6 22512.6 23432.1 22512.6Z" fill="#FF81AE"/>
<path d="M25399.4 22499.2C25506.9 22499.2 25594 22412.1 25594 22304.6C25594 22197.2 25506.9 22110.1 25399.4 22110.1C25292 22110.1 25204.9 22197.2 25204.9 22304.6C25204.9 22412.1 25292 22499.2 25399.4 22499.2Z" fill="#FF81AE"/>
<path d="M24439.4 21436.8C24439.4 21436.8 25231.7 21427.2 25357.2 22113.3C25482.6 22799.4 24812.5 22812.8 24619.9 22825.6C24532.9 22831.4 24346 22832 24180.9 22829.4C23815.4 22823 23557.5 22752 23469.8 22413.4C23459.3 22373.6 23452.7 22332.9 23450 22291.8C23426.9 21920.6 23677.8 21418.2 24439.4 21436.8Z" fill="#FF81AE"/>
<path d="M23864.7 22481.9L25016.7 22499.8C25074.6 22500.7 25130.6 22478.5 25172.2 22438.2C25213.8 22397.9 25237.8 22342.7 25238.8 22284.8C25239.5 22226.9 25217.1 22171 25176.7 22129.5C25136.3 22088 25081 22064.2 25023.1 22063.4L23871.1 22044.8C23813.2 22043.9 23757.2 22066.1 23715.6 22106.4C23674 22146.7 23650 22201.9 23649 22259.8C23648.6 22288.6 23653.8 22317.1 23664.5 22343.9C23675.1 22370.6 23690.8 22394.9 23710.9 22415.6C23730.9 22436.2 23754.8 22452.7 23781.2 22464C23807.6 22475.4 23836 22481.5 23864.7 22481.9Z" fill="#263238"/>
<path d="M24777.3 22261.1C24778.9 22270.2 24782.2 22279 24787.2 22286.8C24792.1 22294.6 24798.5 22301.4 24806.1 22306.8C24813.6 22312.1 24822.1 22315.9 24831.1 22318C24840.2 22320 24849.5 22320.3 24858.6 22318.7C24867.7 22317.2 24876.5 22313.8 24884.3 22308.9C24892.1 22304 24898.9 22297.6 24904.3 22290C24909.6 22282.5 24913.4 22273.9 24915.5 22264.9C24917.5 22255.9 24917.8 22246.6 24916.2 22237.4C24915.2 22227.7 24912.2 22218.3 24907.4 22209.8C24902.6 22201.2 24896 22193.8 24888.1 22188C24880.3 22182.2 24871.3 22178 24861.7 22175.9C24852.2 22173.7 24842.3 22173.5 24832.7 22175.4C24823.1 22177.3 24814 22181.2 24805.9 22186.8C24797.9 22192.4 24791.1 22199.6 24786 22207.9C24780.9 22216.3 24777.7 22225.6 24776.4 22235.3C24775.1 22245.1 24775.9 22254.9 24778.6 22264.3L24777.3 22261.1Z" fill="white"/>
<path d="M23972.9 22248.3C23975.5 22262 23982.2 22274.6 23992 22284.4C24001.8 22294.3 24014.3 22301.1 24027.9 22303.9C24041.6 22306.6 24055.7 22305.3 24068.6 22300C24081.5 22294.8 24092.5 22285.8 24100.3 22274.2C24108.1 22262.7 24112.3 22249.1 24112.4 22235.2C24112.4 22221.3 24108.4 22207.6 24100.7 22196C24093 22184.4 24082 22175.3 24069.2 22169.9C24056.4 22164.6 24042.2 22163.1 24028.5 22165.8C24019.5 22167.5 24010.8 22171.1 24003.1 22176.2C23995.4 22181.3 23988.8 22187.8 23983.6 22195.5C23978.4 22203.2 23974.8 22211.8 23973 22220.8C23971.1 22229.9 23971.1 22239.2 23972.9 22248.3Z" fill="white"/>
<path d="M24520.1 21164.8C24520.1 21186.4 24513.6 21207.6 24501.6 21225.6C24489.6 21243.6 24472.5 21257.6 24452.5 21265.9C24432.5 21274.2 24410.5 21276.4 24389.3 21272.1C24368 21267.9 24348.5 21257.5 24333.2 21242.2C24317.9 21226.9 24307.5 21207.4 24303.3 21186.2C24299.1 21164.9 24301.2 21142.9 24309.5 21122.9C24317.8 21102.9 24331.8 21085.8 24349.8 21073.8C24367.8 21061.8 24389 21055.4 24410.6 21055.4C24439.6 21055.4 24467.5 21066.9 24488 21087.4C24508.5 21107.9 24520.1 21135.8 24520.1 21164.8Z" fill="#FF81AE"/>
<path d="M24575.7 22228.5C24575.7 22228.5 24580.2 22234.2 24582.8 22245.8C24584.8 22262.1 24583.2 22278.7 24578.3 22294.4C24571.1 22318.6 24557.9 22340.7 24539.9 22358.4C24517.7 22380.6 24488.5 22394.4 24457.3 22397.4C24426.1 22400 24395 22391.9 24369 22374.4C24348.5 22360.5 24331.6 22341.8 24319.7 22320C24312.2 22305.3 24307.9 22289.1 24306.9 22272.6C24306.9 22261.1 24306.9 22254.7 24310.8 22254.7C24314.6 22254.7 24317.2 22279 24338.3 22308.5C24350.4 22325.5 24365.9 22339.9 24383.7 22350.7C24405.3 22363 24430 22368.8 24454.8 22367.4C24478.6 22364.3 24501 22354 24518.8 22337.9C24534.6 22324.3 24547.5 22307.5 24556.5 22288.6C24573.2 22254.1 24570.6 22229.1 24575.7 22228.5Z" fill="white"/>
<path d="M25355.9 22090.9C25355.9 22090.9 25355.9 22097.3 25361.7 22108.2C25364.3 22114.8 25366.4 22121.7 25368.1 22128.6C25368.1 22136.3 25372.5 22145.3 25374.5 22155.5C25379.3 22179.4 25382.7 22203.6 25384.7 22227.8C25386.9 22257.7 25386.9 22287.6 25384.7 22317.4C25382.1 22347.2 25377.2 22376.8 25370 22405.8C25364 22429.6 25356.3 22452.9 25346.9 22475.5C25343.8 22484.2 25340.1 22492.8 25336.1 22501.1C25333.4 22507.8 25330.2 22514.2 25326.5 22520.3L25317.5 22535.7C25319.2 22529.9 25321.5 22524.3 25324.5 22519C25324.5 22513.9 25329.7 22507.5 25332.9 22499.8C25336.1 22492.2 25339.9 22483.8 25343.1 22474.2C25351.8 22451.5 25358.8 22428.2 25364.2 22404.5C25371.1 22375.8 25376 22346.8 25378.9 22317.4C25380.8 22287.8 25380.8 22258.1 25378.9 22228.5C25377.4 22204.4 25374.4 22180.5 25370 22156.8C25368.6 22147.5 25366.7 22138.3 25364.2 22129.3C25364.2 22121 25361 22114.6 25359.7 22108.8C25357.5 22103.1 25356.2 22097 25355.9 22090.9Z" fill="#263238"/>
<path d="M23478.8 22095.4C23476 22100.9 23473.9 22106.7 23472.4 22112.6C23472.4 22117.8 23468.5 22124.8 23466 22132.5C23463.4 22140.2 23461.5 22149.8 23459.6 22160C23454.7 22183.8 23451.5 22208 23450 22232.3C23447.8 22262.1 23447.8 22292.1 23450 22321.9C23452.6 22351.7 23457.5 22381.2 23464.7 22410.2C23470.6 22434 23478.3 22457.3 23487.7 22480C23490.9 22489.6 23495.4 22497.9 23498.6 22505.6C23501.8 22513.3 23505.7 22519.7 23508.2 22524.8L23517.2 22540.2C23515.6 22534.3 23513.3 22528.7 23510.1 22523.5C23510.1 22518.4 23505 22512 23501.8 22504.3C23498.6 22496.6 23494.8 22488.3 23491.6 22478.1C23483 22455.5 23475.9 22432.5 23470.5 22409C23463.6 22380.1 23458.7 22350.8 23455.7 22321.3C23453.9 22291.9 23453.9 22262.4 23455.7 22233C23457.3 22208.7 23460.3 22184.6 23464.7 22160.6C23466 22151.6 23468 22142.6 23470.5 22133.8C23470.5 22125.4 23473.7 22118.4 23474.9 22113.3C23476.2 22108.2 23478.8 22095.4 23478.8 22095.4Z" fill="#263238"/>
<path d="M23649.7 23333.1C23649.7 23333.1 23885.2 23103.4 24377.3 23103.4C24869.5 23103.4 25121.7 23333.1 25121.7 23333.1C24899.6 23467.1 24645.1 23538 24385.7 23538C24126.3 23538 23871.8 23467.1 23649.7 23333.1Z" fill="#FF81AE"/>
<path d="M16532.2 23563.5H21424.4C21482.1 23563.6 21539.4 23552.3 21592.7 23530.2C21646.1 23508.2 21694.6 23475.8 21735.5 23434.9C21776.3 23394.1 21808.7 23345.6 21830.8 23292.2C21852.8 23238.8 21864.1 23181.6 21864.1 23123.8V21704.3L22403.6 21225.6H16532.2C16474.5 21225.6 16417.3 21237 16364 21259.1C16310.6 21281.2 16262.1 21313.6 16221.3 21354.4C16180.5 21395.2 16148.1 21443.7 16126 21497C16103.9 21550.4 16092.5 21607.5 16092.5 21665.3V23123.8C16092.5 23181.6 16103.8 23238.8 16125.8 23292.2C16147.9 23345.6 16180.3 23394.1 16221.1 23434.9C16262 23475.8 16310.5 23508.2 16363.9 23530.2C16417.2 23552.3 16474.5 23563.6 16532.2 23563.5Z" fill="#EBEBEB"/>
<path d="M16532.2 25783.7H21424.4C21482.2 25783.7 21539.4 25772.3 21592.8 25750.2C21646.2 25728 21694.7 25695.6 21735.5 25654.7C21776.3 25613.8 21808.7 25565.2 21830.8 25511.8C21852.8 25458.4 21864.1 25401.2 21864.1 25343.4V24873L22403.6 24394.2H16532.2C16474.5 24394.2 16417.3 24405.6 16364 24427.7C16310.6 24449.8 16262.1 24482.2 16221.3 24523C16180.5 24563.8 16148.1 24612.3 16126 24665.7C16103.9 24719 16092.5 24776.2 16092.5 24833.9V25345.9C16093 25462.2 16139.6 25573.5 16222 25655.6C16304.4 25737.6 16415.9 25783.7 16532.2 25783.7Z" fill="#EBEBEB"/>
<path d="M21204.2 21917.4C21204.2 21927 20196.9 21934.1 18954 21934.1C17711.1 21934.1 16703.7 21927 16703.7 21917.4C16703.7 21907.8 17711.1 21900.8 18954 21900.8C20196.9 21900.8 21204.2 21910.4 21204.2 21917.4Z" fill="white"/>
<path d="M21204.2 22301.4C21204.2 22310.4 20196.9 22318.1 18954 22318.1C17711.1 22318.1 16703.7 22310.4 16703.7 22301.4C16703.7 22292.5 17711.1 22284.8 18954 22284.8C20196.9 22284.8 21204.2 22290.6 21204.2 22301.4Z" fill="white"/>
<path d="M21204.2 22679.7C21204.2 22688.6 20196.9 22696.3 18954 22696.3C17711.1 22696.3 16703.7 22688.6 16703.7 22679.7C16703.7 22670.7 17711.1 22663 18954 22663C20196.9 22663 21204.2 22670.1 21204.2 22679.7Z" fill="white"/>
<path d="M21204.2 23059.8C21204.2 23068.8 20196.9 23076.5 18954 23076.5C17711.1 23076.5 16703.7 23068.8 16703.7 23059.8C16703.7 23050.9 17711.1 23043.2 18954 23043.2C20196.9 23043.2 21204.2 23050.2 21204.2 23059.8Z" fill="white"/>
<path d="M21219.6 25109.1C21219.6 25118.1 20222.5 25125.8 18993 25125.8C17763.6 25125.8 16765.8 25118.1 16765.8 25109.1C16765.8 25100.2 17762.9 25092.5 18993 25092.5C20223.1 25092.5 21219.6 25099.5 21219.6 25109.1Z" fill="white"/>
<path d="M4848.38 24182.4C4934.58 24203.2 5015.7 24241.1 5086.86 24294C5158.01 24346.9 5217.74 24413.7 5262.46 24490.2C5350.92 24644.4 5403.22 24816.6 5415.42 24993.9C5448.06 25334.4 5329.66 25710.1 5182.46 26017.9C4850.3 25832.3 4696.06 25419.5 4630.78 25205.1C4527.74 24866.6 4546.94 24191.4 4848.38 24181.1" fill="#455A64"/>
<path d="M5624.06 26499.2C5584.4 26408.5 5569.43 26308.9 5580.67 26210.6C5591.91 26112.2 5628.96 26018.6 5688.06 25939.2C5748.89 25861 5824.72 25795.8 5911.1 25747.3C5997.48 25698.9 6092.68 25668.1 6191.1 25657C6235.27 25647.4 6280.98 25647.4 6325.14 25657C6369.3 25666.6 6410.89 25685.6 6447.1 25712.6C6476.53 25743.9 6497.05 25782.5 6506.5 25824.3C6515.96 25866.2 6514.01 25909.9 6500.86 25950.7C6473.67 26032.1 6425.56 26105 6361.34 26161.9C6150.78 26365.4 5909.5 26523.5 5617.66 26499.2" fill="#455A64"/>
<path d="M5480.7 27595.5C5476.92 27572.3 5475.42 27548.7 5476.22 27525.1C5476.22 27475.2 5476.22 27410.6 5471.1 27333.1C5458.06 27120.9 5479.68 26908 5535.1 26702.7C5594.6 26496.9 5707.94 26310.6 5863.42 26163.2C5911.03 26119.4 5963.66 26081.4 6020.22 26049.9C6035.31 26041.3 6050.92 26033.6 6066.94 26026.9C6072.23 26023.6 6078.1 26021.5 6084.22 26020.5C6009.68 26065.3 5939.78 26117.4 5875.58 26176C5725.35 26323.9 5615.23 26507.6 5555.58 26709.8C5500.51 26912.8 5476.13 27122.9 5483.26 27333.1C5483.26 27414.4 5483.26 27479.7 5483.26 27525.1C5484.13 27548.6 5483.27 27572.1 5480.7 27595.5Z" fill="#263238"/>
<path d="M4879.1 24698.2C4883.19 24707.5 4886.41 24717.2 4888.7 24727C4895.1 24748.8 4902.78 24777 4911.74 24811.5C4931.58 24885.1 4959.1 24992 4991.1 25124.5C5055.1 25389.4 5140.86 25756.8 5225.34 26163.8C5309.82 26570.9 5377.66 26942.1 5423.1 27210.9C5445.5 27345.3 5462.78 27454.1 5474.3 27530.9C5479.42 27566.7 5483.26 27594.9 5486.46 27617.9C5487.48 27628.1 5487.48 27638.4 5486.46 27648.6C5483.15 27638.8 5480.58 27628.8 5478.78 27618.6C5474.3 27596.2 5469.18 27568 5462.14 27532.2C5447.42 27454.7 5427.58 27346.6 5403.26 27215.4C5353.34 26947.2 5282.94 26575.4 5198.46 26170.2C5113.98 25765.1 5032.06 25395.8 4971.9 25130.2C4941.82 25002.2 4917.5 24892.8 4900.22 24815.4C4892.54 24780.2 4886.14 24751.4 4881.66 24729.6C4879.59 24719.3 4878.73 24708.8 4879.1 24698.2Z" fill="#263238"/>
<path d="M5182.46 26804.5C5105.49 26610.5 4983.53 26437.7 4826.63 26300.2C4669.74 26162.6 4482.4 26064.3 4280.06 26013.4C4177.02 25988.5 4049.02 25985.3 3986.3 26071C3923.58 26156.8 3967.74 26278.4 4025.98 26367.4C4150.49 26550.3 4326.23 26692.4 4531.16 26775.8C4736.09 26859.3 4961.1 26880.4 5177.98 26836.5" fill="#455A64"/>
<path d="M4392.7 26316.2C4414.37 26318.9 4435.78 26323.4 4456.7 26329.6C4482.03 26335.5 4507.03 26342.8 4531.58 26351.4C4559.74 26361.6 4595.58 26370.6 4628.22 26386.6C4660.86 26402.6 4702.46 26417.9 4741.5 26439.7C4784.36 26461.4 4825.83 26485.8 4865.66 26512.6C4957.42 26573.5 5041.82 26644.8 5117.18 26725.1C5191.08 26806.5 5255.49 26896.1 5309.18 26992C5332.84 27033.5 5354.2 27076.2 5373.18 27120C5389.57 27158.5 5403.89 27197.8 5416.06 27237.8C5428.86 27273.6 5433.98 27308.2 5441.66 27337.6C5447.79 27362.9 5452.49 27388.6 5455.74 27414.4C5459.66 27435.5 5461.8 27456.9 5462.14 27478.4C5456.38 27478.4 5446.14 27385 5398.14 27241C5385.47 27202 5370.73 27163.8 5353.98 27126.4C5335 27082.6 5313.64 27039.9 5289.98 26998.4C5235.69 26904.6 5171.31 26817.1 5097.98 26737.3C5023.61 26658.7 4941.24 26588.2 4852.22 26526.7C4809.98 26499.8 4770.3 26473.6 4730.62 26453.8C4694.77 26433.4 4657.8 26415 4619.9 26398.7C4483.58 26342.4 4390.78 26321.3 4392.7 26316.2Z" fill="#263238"/>
<path d="M6426.62 7562.24L6189.82 6823.04C6526.63 6276.49 6646.81 5623.72 6526.75 4993.06C6406.69 4362.39 6055.07 3799.44 5541.01 3414.87C5026.95 3030.3 4387.63 2851.92 3748.72 2914.8C3109.82 2977.68 2517.54 3277.28 2088.32 3754.69C1659.09 4232.1 1423.97 4852.8 1429.16 5494.77C1434.36 6136.74 1679.5 6753.55 2116.39 7223.95C2553.29 7694.35 3150.34 7984.32 3790.18 8036.85C4430.02 8089.38 5066.37 7900.68 5574.14 7507.84L6426.62 7562.24Z" fill="#FAFAFA"/>
<path d="M6426.62 7562.24H6372.86L6210.3 7553.92L5570.3 7518.72C5569.32 7518.72 5568.35 7518.52 5567.45 7518.13C5566.55 7517.74 5565.74 7517.16 5565.08 7516.44C5564.42 7515.71 5563.91 7514.86 5563.6 7513.93C5563.29 7513 5563.17 7512.02 5563.26 7511.04C5562.98 7509.77 5562.98 7508.46 5563.26 7507.2L5573.5 7517.44C5128.79 7864.8 4581.93 8055.79 4017.66 8060.8C3875.15 8060.04 3732.89 8048.7 3592.06 8026.88C2937.69 7924.46 2348.3 7572.89 1947.26 7045.76C1723.91 6749.02 1566.58 6407.96 1485.82 6045.44C1398.06 5659.99 1401.57 5259.37 1496.06 4875.52C1508.22 4826.88 1521.02 4777.6 1533.82 4728.96C1546.62 4680.32 1567.74 4632.96 1584.38 4584.96C1600.6 4536.42 1619.4 4488.78 1640.7 4442.24C1662.46 4396.16 1684.86 4350.08 1704.7 4303.36C1726.72 4256.66 1751.96 4211.53 1780.22 4168.32L1861.5 4035.2L1954.94 3907.2L2002.3 3843.2C2018.3 3822.72 2036.86 3804.16 2054.14 3784.32C2330.91 3466.11 2682 3221.2 3076.22 3071.36C3451.51 2928.36 3854.51 2872.98 4254.46 2909.44C4630.27 2946.81 4993.23 3066.55 5317.5 3260.16C5893.77 3602.41 6314.08 4155.64 6489.34 4802.56C6526.36 4941.17 6552.89 5082.37 6568.7 5224.96C6578.95 5358.25 6581.3 5492.03 6575.74 5625.6C6551.22 6051.27 6420.52 6464.03 6195.58 6826.24V6820.48C6271.1 7061.12 6328.7 7246.72 6368.38 7373.44C6387.58 7437.44 6401.66 7481.6 6411.9 7514.24L6425.98 7561.6C6425.98 7561.6 6419.58 7544.32 6408.7 7512.32L6361.98 7370.88C6321.02 7242.88 6260.22 7062.4 6182.14 6824.96C6181.45 6823.1 6181.45 6821.06 6182.14 6819.2C6402.85 6457.8 6530.19 6047.18 6552.7 5624.32C6557.61 5491.99 6554.62 5359.49 6543.74 5227.52C6527.76 5086.17 6501.01 4946.24 6463.74 4808.96C6326.47 4310.95 6041.74 3866.12 5646.98 3532.93C5252.22 3199.73 4765.89 2993.76 4251.9 2942.08C3856.99 2905.94 3459.03 2960.44 3088.38 3101.44C2700.15 3250 2354.42 3491.76 2081.66 3805.44C2065.02 3825.28 2046.46 3843.2 2030.46 3863.68L1983.74 3927.68L1891.58 4051.2L1812.22 4183.04C1784.06 4226.1 1758.83 4271 1736.7 4317.44C1714.94 4362.88 1693.18 4408.96 1672.7 4454.4C1651.82 4500.3 1633.45 4547.31 1617.66 4595.2C1601.02 4642.56 1581.18 4689.28 1567.1 4737.28C1553.02 4785.28 1542.14 4833.92 1529.98 4881.92C1437.18 5259.87 1433.24 5654.19 1518.46 6033.92C1629.36 6532.58 1887.48 6986.43 2259.38 7336.65C2631.28 7686.87 3099.8 7917.3 3604.22 7998.08C3743.77 8020 3884.73 8031.76 4025.98 8033.28C4157.83 8032.72 4289.44 8021.81 4419.58 8000.64C4838.91 7932.32 5234.74 7761.01 5571.58 7502.08C5572.24 7501.38 5573.03 7500.83 5573.91 7500.45C5574.79 7500.07 5575.74 7499.87 5576.7 7499.87C5577.66 7499.87 5578.61 7500.07 5579.49 7500.45C5580.37 7500.83 5581.16 7501.38 5581.82 7502.08C5582.76 7503.38 5583.26 7504.95 5583.26 7506.56C5583.26 7508.17 5582.76 7509.73 5581.82 7511.04L5576.7 7499.52L6209.02 7543.04L6372.86 7554.56L6426.62 7562.24Z" fill="#263238"/>
<path d="M3280.38 5478.4C3280.38 5529.92 3265.1 5580.28 3236.48 5623.11C3207.86 5665.95 3167.18 5699.34 3119.58 5719.05C3071.98 5738.77 3019.61 5743.92 2969.08 5733.87C2918.55 5723.82 2872.14 5699.01 2835.71 5662.58C2799.28 5626.16 2774.48 5579.74 2764.43 5529.22C2754.37 5478.69 2759.53 5426.31 2779.25 5378.72C2798.96 5331.12 2832.35 5290.44 2875.18 5261.82C2918.02 5233.19 2968.38 5217.92 3019.9 5217.92C3088.93 5218.09 3155.09 5245.58 3203.9 5294.4C3252.71 5343.21 3280.21 5409.37 3280.38 5478.4Z" fill="#263238"/>
<path d="M4323.58 5478.4C4323.58 5529.92 4308.3 5580.28 4279.68 5623.11C4251.06 5665.95 4210.38 5699.34 4162.78 5719.05C4115.18 5738.77 4062.81 5743.92 4012.28 5733.87C3961.75 5723.82 3915.34 5699.01 3878.91 5662.58C3842.48 5626.16 3817.68 5579.74 3807.62 5529.22C3797.57 5478.69 3802.73 5426.31 3822.45 5378.72C3842.16 5331.12 3875.55 5290.44 3918.38 5261.82C3961.22 5233.19 4011.58 5217.92 4063.1 5217.92C4132.13 5218.09 4198.29 5245.58 4247.1 5294.4C4295.91 5343.21 4323.41 5409.37 4323.58 5478.4Z" fill="#263238"/>
<path d="M5364.22 5348.48C5389.9 5393.1 5401.78 5444.32 5398.37 5495.69C5394.96 5547.06 5376.4 5596.26 5345.05 5637.09C5313.69 5677.91 5270.94 5708.53 5222.19 5725.08C5173.44 5741.63 5120.88 5743.36 5071.15 5730.05C5021.42 5716.75 4976.75 5689.01 4942.77 5650.33C4908.8 5611.66 4887.04 5563.78 4880.26 5512.75C4873.47 5461.72 4881.96 5409.83 4904.65 5363.62C4927.34 5317.41 4963.21 5278.96 5007.74 5253.12C5037.39 5235.92 5070.15 5224.73 5104.13 5220.21C5138.12 5215.7 5172.66 5217.93 5205.78 5226.79C5238.9 5235.65 5269.94 5250.96 5297.13 5271.84C5324.32 5292.72 5347.12 5318.77 5364.22 5348.48Z" fill="#263238"/>
<path d="M5467.9 16989.4L2772.22 16710.4L1630.46 14119L743.42 14350.1C743.42 14350.1 1398.78 17088.6 2132.22 17513C2865.66 17937.3 5371.26 18013.4 5371.26 18013.4L5467.9 16989.4Z" fill="#FF81AE"/>
<path d="M6900.97 18307.5C7339.6 17813.9 7295.1 17058.3 6801.59 16619.7C6308.07 16181 5552.42 16225.5 5113.79 16719.1C4675.16 17212.6 4719.66 17968.2 5213.18 18406.8C5706.69 18845.5 6462.34 18801 6900.97 18307.5Z" fill="#263238"/>
<path d="M6007.42 18709.8C5730.39 18709.8 5461.92 18613.7 5247.77 18438C5033.62 18262.2 4887.04 18017.6 4832.99 17745.9C4778.95 17474.2 4820.78 17192.2 4951.38 16947.8C5081.97 16703.5 5293.24 16512 5549.19 16406C5805.13 16300 6089.92 16286 6355.03 16366.4C6620.13 16446.9 6849.15 16616.7 7003.06 16847.1C7156.97 17077.4 7226.25 17354 7199.1 17629.7C7171.94 17905.4 7050.03 18163.1 6854.14 18359C6743.2 18470.6 6611.24 18559 6465.9 18619.2C6320.57 18679.4 6164.73 18710.2 6007.42 18709.8ZM6007.42 16318.7C5731.13 16318.4 5463.29 16414 5249.53 16589C5035.78 16764.1 4889.33 17007.8 4835.14 17278.7C4780.96 17549.7 4822.38 17831 4952.37 18074.8C5082.35 18318.6 5292.85 18509.8 5547.99 18615.8C5803.14 18721.8 6087.15 18736.1 6351.63 18656.1C6616.11 18576.2 6844.69 18407.1 6998.44 18177.5C7152.19 17948 7221.59 17672.2 7194.81 17397.2C7168.03 17122.2 7046.73 16865 6851.58 16669.4C6741.05 16558.1 6609.53 16469.7 6464.63 16409.5C6319.73 16349.3 6164.33 16318.5 6007.42 16318.7Z" fill="#263238"/>
<path d="M2530.57 17717.7C3012.09 17602.1 3308.73 17118 3193.12 16636.5C3077.52 16155 2593.46 15858.3 2111.94 15973.9C1630.42 16089.5 1333.79 16573.6 1449.39 17055.1C1564.99 17536.6 2049.06 17833.3 2530.57 17717.7Z" fill="#263238"/>
<path d="M1640.38 14328.6C1926.55 14042.4 1926.55 13578.4 1640.38 13292.2C1354.2 13006 890.216 13006 604.04 13292.2C317.864 13578.4 317.863 14042.4 604.04 14328.6C890.216 14614.7 1354.2 14614.7 1640.38 14328.6Z" fill="#263238"/>
<path d="M2264.38 13413.8L1660.99 13923.4L1443.38 13665.7L2046.77 13156.1C2078.54 13129.3 2119.67 13116.2 2161.11 13119.7C2202.55 13123.2 2240.9 13143 2267.74 13174.8L2282.6 13192.4C2295.98 13208.1 2306.13 13226.3 2312.46 13245.9C2318.79 13265.6 2321.18 13286.3 2319.49 13306.9C2317.79 13327.4 2312.06 13347.5 2302.6 13365.8C2293.14 13384.2 2280.15 13400.5 2264.38 13413.8Z" fill="#263238"/>
<path d="M1497.98 12480.6V13248.6C1497.98 13254.6 1495.62 13260.3 1491.42 13264.5C1487.22 13268.7 1481.52 13271 1475.58 13271H1183.74C1177.8 13271 1172.1 13268.7 1167.9 13264.5C1163.7 13260.3 1161.34 13254.6 1161.34 13248.6V12480.6C1161.34 12439.1 1177.86 12399.2 1207.27 12369.8C1236.67 12340.4 1276.55 12323.8 1318.14 12323.8H1341.18C1382.77 12323.8 1422.65 12340.4 1452.05 12369.8C1481.46 12399.2 1497.98 12439.1 1497.98 12480.6Z" fill="#263238"/>
<path d="M954.55 12483.5L1122.22 13233C1123.51 13238.8 1122.45 13244.9 1119.27 13249.9C1116.09 13254.9 1111.04 13258.5 1105.25 13259.8L820.445 13323.5C814.648 13324.8 808.573 13323.7 803.556 13320.5C798.539 13317.4 794.993 13312.3 793.696 13306.5L626.031 12557C616.952 12516.5 624.367 12473.9 646.644 12438.8C668.92 12403.7 704.234 12378.9 744.817 12369.8L767.301 12364.8C807.884 12355.7 850.411 12363.1 885.527 12385.4C920.643 12407.6 945.472 12443 954.55 12483.5Z" fill="#263238"/>
<path d="M369.939 12671.4L753.939 13336.5C756.91 13341.6 757.714 13347.7 756.176 13353.5C754.639 13359.2 750.885 13364.1 745.74 13367.1L492.999 13513C487.854 13516 481.74 13516.8 476.002 13515.2C470.264 13513.7 465.37 13509.9 462.4 13504.8L78.3999 12839.7C57.607 12803.7 51.9725 12760.9 62.7357 12720.7C73.4989 12680.5 99.779 12646.3 135.793 12625.5L155.747 12614C191.761 12593.2 234.56 12587.5 274.729 12598.3C314.898 12609.1 349.146 12635.3 369.939 12671.4Z" fill="#263238"/>
<path d="M17183.6 23702.4L17990.5 23359.3L15662.3 17885L14855.4 18228.1L17183.6 23702.4Z" fill="#FF81AE"/>
<path d="M15778 18408.1C16204.7 17904.3 16142.3 17149.9 15638.5 16723.1C15134.7 16296.3 14380.4 16358.8 13953.6 16862.6C13526.8 17366.3 13589.2 18120.7 14093 18547.5C14596.8 18974.3 15351.2 18911.9 15778 18408.1Z" fill="#263238"/>
<path d="M14868.2 18835.2C14680.7 18835.3 14495.7 18791.3 14328.2 18706.9C14160.7 18622.5 14015.4 18499.9 13904 18349C13792.5 18198.2 13718.1 18023.2 13686.6 17838.3C13655.1 17653.4 13667.4 17463.7 13722.6 17284.5C13788.1 17073.1 13910.9 16883.9 14077.4 16738.1C14243.9 16592.3 14447.5 16495.5 14665.7 16458.5C14884 16421.4 15108.2 16445.7 15313.4 16528.4C15518.7 16611.2 15697 16749.3 15828.5 16927.3C15960 17105.3 16039.6 17316.3 16058.4 17536.8C16077.2 17757.3 16034.4 17978.8 15934.9 18176.5C15835.4 18374.2 15683 18540.4 15494.7 18656.7C15306.4 18773 15089.5 18834.8 14868.2 18835.2ZM14868.2 16442.9C14647.3 16443.1 14430.7 16504.6 14242.6 16620.6C14054.6 16736.6 13902.3 16902.4 13802.9 17099.7C13703.5 17297.1 13660.8 17518.1 13679.5 17738.3C13698.2 17958.4 13777.6 18169.1 13908.9 18346.8C14040.2 18524.5 14218.2 18662.3 14423.2 18744.8C14628.1 18827.4 14852 18851.5 15069.8 18814.4C15287.6 18777.4 15490.9 18680.6 15657 18534.9C15823.1 18389.2 15945.5 18200.3 16010.6 17989.1C16103.6 17686.6 16072.7 17359.5 15924.8 17079.7C15776.8 16799.8 15523.9 16590.2 15221.5 16496.6C15105.8 16460.8 14985.4 16442.7 14864.4 16442.9H14868.2Z" fill="#263238"/>
<path d="M17286.4 21209.8C17419 20732.7 17139.7 20238.4 16662.5 20105.9C16185.4 19973.3 15691.2 20252.6 15558.6 20729.7C15426 21206.8 15705.3 21701.1 16182.4 21833.7C16659.5 21966.2 17153.8 21686.9 17286.4 21209.8Z" fill="#263238"/>
<path d="M17774.5 24493.4C18179.2 24493.4 18507.3 24165.4 18507.3 23760.6C18507.3 23355.9 18179.2 23027.8 17774.5 23027.8C17369.7 23027.8 17041.7 23355.9 17041.7 23760.6C17041.7 24165.4 17369.7 24493.4 17774.5 24493.4Z" fill="#263238"/>
<path d="M16816 24498.6L17226.4 23825.3L17514.4 24000.9L17104 24674.1C17082.4 24709.7 17047.5 24735.1 17007.1 24744.9C16966.7 24754.7 16924 24748.1 16888.5 24726.4L16868.9 24714.4C16851.2 24703.8 16835.8 24689.7 16823.6 24673.1C16811.3 24656.4 16802.5 24637.6 16797.6 24617.5C16792.7 24597.5 16791.8 24576.6 16795 24556.2C16798.1 24535.8 16805.3 24516.2 16816 24498.6Z" fill="#263238"/>
<path d="M17837.7 25140.8L17594.5 24412.3C17592.6 24406.7 17593.1 24400.5 17595.7 24395.2C17598.4 24389.9 17603 24385.8 17608.7 24384L17885.5 24291.5C17891.1 24289.7 17897.3 24290.1 17902.6 24292.7C17907.9 24295.4 17911.9 24300.1 17913.8 24305.7L18157 25034.2C18163.3 25053.8 18165.6 25074.4 18163.9 25095C18162.2 25115.5 18156.5 25135.5 18147.1 25153.8C18137.7 25172.1 18124.7 25188.4 18109 25201.7C18093.3 25215 18075.1 25225.1 18055.5 25231.3L18033.6 25238.6C17994.7 25251.1 17952.4 25247.9 17915.7 25229.6C17879.1 25211.3 17851.1 25179.4 17837.7 25140.8Z" fill="#263238"/>
<path d="M18352.8 24966.2L17956.4 24308.4C17954.9 24305.8 17953.9 24303.1 17953.5 24300.1C17953 24297.2 17953.2 24294.3 17953.9 24291.4C17954.6 24288.6 17955.9 24285.9 17957.6 24283.5C17959.3 24281.1 17961.5 24279.1 17964.1 24277.6L18214 24127C18216.6 24125.5 18219.4 24124.5 18222.3 24124C18225.2 24123.6 18228.1 24123.7 18231 24124.5C18233.8 24125.2 18236.5 24126.4 18238.9 24128.2C18241.3 24129.9 18243.3 24132.1 18244.8 24134.6L18641.1 24792.5C18662.6 24828.1 18669 24870.8 18659 24911.1C18649 24951.5 18623.4 24986.2 18587.8 25007.7L18568 25019.6C18532.4 25041 18489.7 25047.5 18449.3 25037.5C18409 25027.4 18374.3 25001.8 18352.8 24966.2Z" fill="#263238"/>
<path d="M18847.5 24603.5L18272.7 24094.2C18268.3 24090.3 18265.6 24084.7 18265.2 24078.8C18264.8 24072.8 18266.9 24067 18270.8 24062.6L18463.9 23844.6C18467.8 23840.2 18473.4 23837.5 18479.3 23837.1C18485.2 23836.7 18491.1 23838.8 18495.5 23842.7L19070.4 24352C19101.5 24379.6 19120.4 24418.4 19122.9 24459.9C19125.4 24501.4 19111.3 24542.2 19083.7 24573.3L19068.5 24590.6C19040.8 24621.5 19002.1 24640.2 18960.7 24642.7C18919.3 24645.1 18878.6 24631 18847.5 24603.5Z" fill="#263238"/>
<path d="M5652.22 16268.8C5652.22 16268.8 5738.62 24661.8 10448.4 24825.6C15158.1 24989.4 15355.9 16329 15355.9 16268.8C15355.9 16268.8 14799.7 15017.6 10504.1 15066.2C6208.38 15114.9 5652.22 16268.8 5652.22 16268.8Z" fill="#FF81AE"/>
<path d="M8296.7 14791.7H12277.5C12537.3 14791.7 12747.9 14581.1 12747.9 14321.3V14252.8C12747.9 13993 12537.3 13782.4 12277.5 13782.4H8296.7C8036.91 13782.4 7826.3 13993 7826.3 14252.8V14321.3C7826.3 14581.1 8036.91 14791.7 8296.7 14791.7Z" fill="#263238"/>
<path d="M10115.6 7328.64H10459.3V5591.04H10115.6V7328.64Z" fill="#263238"/>
<path d="M15542.4 12501.6C16085.1 12372.6 16420.4 11828.1 16291.4 11285.5C16162.5 10742.8 15618 10407.5 15075.4 10536.5C14532.7 10665.4 14197.4 11209.9 14326.3 11752.5C14455.3 12295.2 14999.8 12630.5 15542.4 12501.6Z" fill="#FF81AE"/>
<path d="M5337.75 12436C5881.69 12312.6 6222.63 11771.6 6099.24 11227.7C5975.86 10683.7 5434.89 10342.8 4890.94 10466.2C4346.99 10589.6 4006.06 11130.5 4129.44 11674.5C4252.82 12218.4 4793.8 12559.4 5337.75 12436Z" fill="#FF81AE"/>
<path d="M10087.4 6951.68C10087.4 6951.68 5981.18 6902.4 5332.22 10461.4C4683.26 14020.5 8154.62 14084.5 9153.66 14151.7C9606.14 14182.4 10575.1 14185.6 11430.1 14170.2C13323.3 14137.6 14660.9 13771.5 15115.9 12015.4C15170.1 11809.4 15204.2 11598.7 15217.7 11386.2C15337.3 9458.56 14036.2 6856.96 10087.4 6951.68Z" fill="#FF81AE"/>
<path d="M13066 12368.6L7100.54 12461.4C6951.7 12464.1 6803.8 12437.3 6665.31 12382.7C6526.82 12328.1 6400.45 12246.7 6293.45 12143.2C6186.45 12039.7 6100.91 11916.2 6041.72 11779.6C5982.54 11643 5950.87 11496 5948.54 11347.2C5946 11198.3 5972.83 11050.4 6027.5 10911.9C6082.17 10773.4 6163.61 10647.1 6267.16 10540.1C6370.7 10433.1 6494.33 10347.5 6630.96 10288.4C6767.59 10229.2 6914.54 10197.5 7063.42 10195.2L13028.9 10102.4C13177.7 10099.7 13325.7 10126.4 13464.2 10181C13602.7 10235.5 13729.1 10316.9 13836.1 10420.4C13943.2 10523.9 14028.7 10647.5 14087.8 10784.2C14147 10920.8 14178.6 11067.8 14180.9 11216.6C14183.5 11365.5 14156.7 11513.5 14102.1 11652C14047.4 11790.5 13966 11916.9 13862.4 12024C13758.9 12131 13635.2 12216.5 13498.5 12275.6C13361.9 12334.8 13214.9 12366.4 13066 12368.6Z" fill="#263238"/>
<path d="M8340.22 11223.7C8326.35 11294.2 8291.87 11359.1 8241.15 11410C8190.43 11460.9 8125.74 11495.7 8055.26 11509.9C7984.79 11524.1 7911.69 11517.1 7845.21 11489.7C7778.73 11462.3 7721.85 11415.9 7681.76 11356.2C7641.68 11296.5 7620.19 11226.3 7620.01 11154.4C7619.84 11082.5 7640.98 11012.2 7680.77 10952.3C7720.55 10892.5 7777.2 10845.7 7843.55 10818C7909.89 10790.4 7982.96 10783 8053.5 10796.8C8100.36 10806 8144.95 10824.3 8184.73 10850.8C8224.5 10877.2 8258.68 10911.2 8285.3 10950.8C8311.93 10990.5 8330.48 11035 8339.91 11081.8C8349.33 11128.6 8349.44 11176.8 8340.22 11223.7Z" fill="white"/>
<path d="M12506 11157.1C12492.2 11227.7 12457.8 11292.6 12407.2 11343.7C12356.5 11394.7 12291.8 11429.6 12221.3 11443.9C12150.8 11458.1 12077.7 11451.2 12011.2 11423.9C11944.6 11396.6 11887.7 11350.2 11847.5 11290.5C11807.4 11230.8 11785.9 11160.6 11785.7 11088.6C11785.4 11016.7 11806.6 10946.3 11846.4 10886.4C11886.2 10826.5 11942.8 10779.8 12009.2 10752.1C12075.6 10724.4 12148.7 10717 12219.3 10730.9C12313.8 10749.4 12397 10804.8 12450.8 10884.7C12504.6 10964.6 12524.4 11062.6 12506 11157.1Z" fill="white"/>
<path d="M11906.3 19601.9C11882.9 19922.2 11765.1 20228.3 11567.7 20481.6C11370.4 20735 11102.3 20924.1 10797.5 21025C10492.7 21126 10164.7 21134.3 9855.17 21048.9C9545.61 20963.5 9268.32 20788.3 9058.37 20545.3C8848.41 20302.3 8715.22 20002.5 8675.63 19683.9C8636.05 19365.2 8691.84 19041.9 8835.97 18755C8980.09 18468 9206.07 18230.2 9485.33 18071.7C9764.59 17913.2 10084.6 17841 10404.9 17864.3C10834.3 17895.8 11233.7 18096.5 11515.3 18422.3C11796.8 18748.1 11937.5 19172.4 11906.3 19601.9Z" fill="#263238"/>
<path d="M11466.6 19569.9C11449.5 19803.3 11363.6 20026.5 11219.7 20211.1C11075.8 20395.7 10880.4 20533.4 10658.3 20607C10436.1 20680.5 10197 20686.5 9971.44 20624.2C9745.83 20561.9 9543.76 20434.1 9390.79 20257C9237.82 20079.8 9140.81 19861.3 9112.03 19629C9083.26 19396.8 9124.01 19161.2 9229.13 18952.1C9334.25 18743 9499.02 18569.7 9702.6 18454.2C9906.18 18338.8 10139.4 18286.3 10372.9 18303.4C10527.9 18314.6 10679.1 18356.3 10818 18426.1C10956.9 18495.9 11080.7 18592.3 11182.2 18710C11283.8 18827.6 11361.2 18964.1 11410 19111.6C11458.8 19259.2 11478 19414.9 11466.6 19569.9Z" fill="white"/>
<path d="M10896.4 19785C10887.3 19720.3 10883.7 19655 10885.5 19589.8C10882.3 19467.5 10879.7 19292.8 10879.7 19077.8L10892.5 19101.4L10283.9 18746.2H10317.8L9703.42 19091.2C9686.78 19119.4 9725.82 19053.4 9721.98 19060.5V19151.4V19242.9C9721.98 19303 9721.98 19363.2 9718.78 19422.1C9718.78 19539.8 9714.3 19653.8 9712.38 19763.8L9695.74 19734.4L10297.3 20101.8H10270.5C10458 20000.6 10612.9 19920 10718.5 19865C10775.3 19832.6 10834.6 19804.8 10895.7 19781.8C10848 19820.7 10796.6 19854.7 10742.1 19883.5C10638.5 19947.5 10486.1 20037.8 10294.1 20148.5L10280.7 20156.2L10267.3 20148.5L9657.98 19793.3L9641.34 19783.7V19763.2C9641.34 19653.1 9642.62 19539.2 9645.18 19421.4C9645.18 19362.6 9645.18 19303 9645.18 19242.2V19151.4V19063C9641.34 19070.1 9680.38 19004.8 9663.74 19032.3L10280.1 18690.6L10298 18681L10314.6 18691.2L10915.6 19058.6L10929 19066.9V19082.2C10922 19303.7 10914.9 19481.6 10908.5 19602.6C10910.2 19663.6 10906.1 19724.7 10896.4 19785Z" fill="#FF81AE"/>
<path d="M10688.3 5956.34C10909.5 5735.15 10909.5 5376.52 10688.3 5155.33C10467.1 4934.14 10108.5 4934.14 9887.28 5155.33C9666.09 5376.52 9666.09 5735.15 9887.28 5956.34C10108.5 6177.53 10467.1 6177.53 10688.3 5956.34Z" fill="#FF81AE"/>
<path d="M9382.78 11056C9409.66 11059.2 9396.22 11184 9475.58 11354.9C9520.54 11453 9586.01 11540.3 9667.58 11610.9C9763.19 11695 9882.2 11747.9 10008.7 11762.6C10135.9 11770.8 10262.6 11740.4 10372.2 11675.5C10465 11621.5 10545.3 11548.5 10607.7 11461.1C10716.5 11309.4 10726.1 11182.1 10753 11184C10763.9 11184 10774.8 11216 10774.8 11276.2C10772.3 11361.9 10750.5 11445.9 10710.8 11521.9C10651.2 11636.8 10563 11734.4 10454.8 11805.4C10321 11899.7 10158 11943.3 9995.03 11928.4C9832.04 11913.5 9679.67 11841.1 9565.18 11724.2C9471.73 11634.8 9402.95 11522.8 9365.5 11399C9338.82 11316.5 9331.8 11228.8 9345.02 11143C9355.9 11083.5 9372.54 11054.1 9382.78 11056Z" fill="white"/>
<path d="M14850.3 12714.2C14843.9 12714.2 14917.5 12599 14988.5 12397.4C15076.9 12133.4 15132.8 11859.6 15154.9 11582.1C15180.6 11305.5 15187 11027.5 15174.1 10750.1C15169.7 10643.2 15164.5 10558.1 15159.4 10494.1C15155.1 10463.1 15154 10431.8 15156.2 10400.6C15164.4 10430.8 15169.8 10461.6 15172.2 10492.8C15181.2 10552.3 15190.1 10638.7 15197.8 10748.8C15217.9 11028.5 15214.7 11309.3 15188.2 11588.5C15165.7 11868.6 15106.1 12144.5 15010.9 12409C14980.8 12488.7 14944.4 12566 14902.1 12640C14887 12666.2 14869.7 12691 14850.3 12714.2Z" fill="#263238"/>
<path d="M5339.9 10342.4C5336.28 10373.5 5329.63 10404.1 5320.06 10433.9C5311.74 10462.7 5302.78 10497.9 5294.46 10540.2C5286.14 10582.4 5273.34 10628.5 5265.66 10681.6C5243.22 10805 5228.26 10929.6 5220.86 11054.7C5212.25 11207.9 5214.39 11361.4 5227.26 11514.2C5241.56 11666.8 5266.36 11818.2 5301.5 11967.4C5330.88 12089.4 5367.64 12209.5 5411.58 12327C5428.86 12377.6 5448.7 12421.8 5464.7 12461.4C5480.7 12501.1 5496.06 12534.4 5508.86 12561.3C5523.45 12588.9 5535.45 12617.8 5544.7 12647.7C5526.49 12622.3 5510.63 12595.3 5497.34 12567C5479.25 12535 5462.8 12502.1 5448.06 12468.5C5430.14 12430.1 5408.38 12385.9 5389.82 12335.4C5342.3 12218.1 5302.95 12097.7 5272.06 11975C5234.61 11824.5 5208.51 11671.3 5193.98 11516.8C5180.94 11362.5 5179.65 11207.3 5190.14 11052.8C5199.07 10926.5 5216.6 10801 5242.62 10677.1C5252.22 10624 5265.66 10577.3 5276.54 10535.7C5287.42 10494.1 5297.66 10458.9 5307.26 10430.1C5315.74 10400 5326.66 10370.7 5339.9 10342.4Z" fill="#263238"/>
<path d="M5630.46 16261.8L5654.78 16268.8L5726.46 16293.1L5999.1 16389.1L6196.22 16459.5C6268.54 16483.8 6348.54 16506.9 6433.66 16533.1C6604.54 16583.7 6797.18 16649.6 7016.06 16700.8L7357.18 16788.5C7476.22 16818.6 7601.66 16841 7730.94 16869.1C7986.94 16928 8267.9 16968.3 8562.94 17015.7C9200.99 17103.2 9844.05 17149.2 10488.1 17153.3C11132.1 17149.5 11775.2 17103.5 12413.2 17015.7C12706.3 16968.3 12985.3 16928.6 13245.2 16869.1C13373.2 16841.6 13501.2 16819.2 13618.9 16789.1L13960.7 16701.4C14178.9 16650.2 14371.6 16584.3 14542.5 16533.8C14627.6 16507.5 14707.6 16484.5 14779.9 16460.2L14977 16389.8L15249.7 16293.8L15321.3 16269.4C15329.4 16266.3 15337.8 16263.9 15346.3 16262.4L15322.6 16272.6L15252.2 16300.2L14981.5 16401.9L14779.9 16477.4C14708.2 16502.4 14628.2 16526.1 14543.1 16553.6C14372.2 16606.1 14180.2 16673.3 13961.3 16726.4L13619.6 16816C13501.2 16846.7 13375.1 16869.8 13245.8 16898.6C12989.8 16958.7 12708.2 16999.7 12413.8 17048.3C11774.5 17138 11129.8 17184.8 10484.2 17188.5C9838.82 17184.4 9194.41 17137.3 8555.26 17047.7C8261.5 16999.7 7979.26 16958.1 7723.26 16897.9C7595.26 16869.1 7467.26 16846.1 7349.5 16815.4L7007.74 16725.8C6788.86 16672.6 6596.86 16605.4 6425.98 16553C6340.86 16525.4 6261.5 16501.8 6189.18 16476.8L5992.7 16403.2L5721.98 16301.4L5651.58 16273.9C5644.17 16270.5 5637.1 16266.5 5630.46 16261.8Z" fill="#263238"/>
<g opacity="0.3">
<path d="M5652.22 16268.8C5652.22 16268.8 6208.38 15116.8 10504.1 15066.2C14799.7 15015.7 15355.9 16268.8 15355.9 16268.8C15355.9 16268.8 11020.5 18405.8 5652.22 16268.8Z" fill="black"/>
</g>
<path d="M9567.1 7217.92C9562.2 7218.38 9557.28 7218.38 9552.38 7217.92L9509.5 7222.4C9471.1 7226.24 9414.78 7227.52 9342.46 7235.84C9138.4 7255.64 8935.91 7289.21 8736.38 7336.32C7704.36 7572.68 6794.07 8177.56 6176.38 9037.44C5877.96 9450.65 5652.01 9911.63 5508.22 10400.6C5485.82 10469.8 5473.66 10524.8 5462.78 10561.3L5450.62 10603.5C5449.47 10608.4 5447.75 10613.1 5445.5 10617.6C5444.65 10612.7 5444.65 10607.7 5445.5 10602.9C5445.5 10591.4 5450.62 10577.3 5454.46 10560C5463.42 10522.9 5473.02 10467.2 5493.5 10396.8C5546.92 10198 5615.38 10003.5 5698.3 9815.04C5971.86 9188.79 6388.32 8635.34 6914.3 8199.04C7442.52 7766.02 8064.78 7462.68 8731.26 7313.28C8931.97 7267.68 9135.87 7237.51 9341.18 7223.04C9414.14 7216.64 9469.18 7217.28 9508.86 7215.36H9552.38C9562.62 7216.64 9567.1 7217.28 9567.1 7217.92Z" fill="white"/>
<path d="M5549.82 12144.6C5524.17 12105 5504.34 12061.9 5490.94 12016.6C5415.02 11802.8 5379.65 11576.6 5386.62 11349.8C5384.79 11302.7 5390.41 11255.6 5403.26 11210.2C5413.5 11210.2 5399.42 11424 5440.38 11682.6C5481.34 11941.1 5559.42 12140.8 5549.82 12144.6Z" fill="white"/>
<path d="M4472.7 11813.8C4472.7 11813.8 4457.98 11803.5 4438.14 11779.2C4409.86 11744.7 4385.59 11707.2 4365.82 11667.2C4297.47 11534.9 4271.32 11384.8 4290.89 11237.2C4310.46 11089.6 4374.81 10951.5 4475.26 10841.6C4504.68 10807.9 4537.98 10777.9 4574.46 10752C4586.99 10741.5 4601.29 10733.2 4616.7 10727.7C4620.54 10732.8 4562.94 10771.8 4493.18 10855.7C4401.62 10965.3 4343.04 11098.7 4324.24 11240.3C4305.43 11381.9 4327.18 11525.9 4386.94 11655.7C4431.74 11757.4 4477.18 11809.9 4472.7 11813.8Z" fill="white"/>
<path d="M10324.2 5160.96C10274.3 5155.46 10223.9 5154.39 10173.8 5157.76C10114.1 5163 10056.4 5181.84 10005.2 5212.84C9953.87 5243.84 9910.37 5286.17 9878 5336.59C9845.62 5387.01 9825.22 5444.18 9818.37 5503.71C9811.51 5563.23 9818.39 5623.54 9838.46 5680C9855.74 5726.83 9877.16 5772.02 9902.46 5815.04C9902.46 5815.04 9889.66 5807.36 9871.74 5786.88C9847.15 5757.25 9827.68 5723.72 9814.14 5687.68C9789.72 5627.92 9780.06 5563.15 9785.98 5498.86C9791.89 5434.58 9813.2 5372.66 9848.11 5318.35C9883.01 5264.04 9930.49 5218.94 9986.52 5186.87C10042.5 5154.79 10105.5 5136.69 10170 5134.08C10208.3 5131.42 10246.8 5135.1 10283.9 5144.96C10312.7 5149.44 10324.2 5159.04 10324.2 5160.96Z" fill="white"/>
<path d="M15902.5 11037.4C15895.4 11045.1 15796.2 10949.8 15646.5 10878.1C15496.7 10806.4 15360.4 10785.3 15361.7 10775C15466 10772.4 15569.1 10797.6 15660.5 10848C15756.7 10888.2 15840.3 10953.7 15902.5 11037.4Z" fill="white"/>
<path d="M7124.22 22241.9C7121.3 22238.1 7118.73 22234 7116.54 22229.8L7095.42 22192C7076.22 22155.5 7050.62 22106.9 7017.34 22044.8C7000.7 22012.8 6982.78 21977 6962.3 21938.6L6902.14 21810.6C6858.62 21717.8 6809.98 21612.2 6761.98 21490.6C6737.66 21431 6712.06 21368.3 6685.18 21303.7C6658.3 21239 6635.26 21168.6 6609.02 21097.6C6553.98 20956.2 6507.26 20800.6 6452.86 20639.4C6352.38 20313 6253.82 19951.4 6167.42 19567.4C6081.02 19183.4 6018.3 18812.8 5967.1 18475.5C5915.9 18138.2 5882.62 17835.5 5862.14 17575.7C5849.98 17447.7 5842.3 17331.2 5835.9 17228.8C5829.5 17126.4 5823.74 17036.8 5821.82 16966.4C5819.9 16896 5817.98 16841.6 5816.06 16800.6V16757.8C5815.37 16752.9 5815.37 16747.9 5816.06 16743C5816.8 16747.9 5816.8 16752.9 5816.06 16757.8L5819.9 16800.6C5819.9 16841 5826.94 16896.6 5831.42 16965.8C5835.9 17034.9 5842.3 17125.8 5851.26 17227.5C5860.22 17329.3 5868.54 17445.8 5882.62 17573.8C5905.66 17829.8 5946.62 18134.4 5994.62 18469.8C6042.62 18805.1 6112.38 19173.8 6196.86 19557.8C6281.34 19941.8 6380.54 20302.7 6478.46 20628.5C6532.86 20789.8 6578.3 20944.6 6632.06 21086.1C6657.66 21157.8 6681.98 21226.2 6706.3 21292.2L6780.54 21480.3C6826.62 21600 6873.98 21706.2 6916.22 21800.3L6973.82 21928.3C6992.38 21967.4 7010.3 22003.2 7026.3 22035.8L7097.98 22185.6L7115.9 22224.6C7119.78 22229.8 7122.6 22235.7 7124.22 22241.9Z" fill="white"/>
<path d="M4619.9 17024C4463.76 17029.9 4307.39 17024.3 4152.06 17007.4C3996 17001.9 3840.52 16985.4 3686.78 16958.1C3842.92 16952.2 3999.29 16957.7 4154.62 16974.7C4310.68 16980.1 4466.17 16996.6 4619.9 17024Z" fill="white"/>
<path d="M2212.22 15657.6C2121.45 15525.4 2039.97 15387 1968.38 15243.5C1887.24 15105.3 1815.81 14961.6 1754.62 14813.4C1845.11 14945.9 1926.37 15084.5 1997.82 15228.2C2079.38 15366 2151.02 15509.5 2212.22 15657.6Z" fill="white"/>
<path d="M9396.22 24259.8C9371.02 24259.4 9345.94 24256.4 9321.34 24250.9C9253.63 24238.8 9186.72 24222.6 9121.02 24202.2C9023.42 24172.5 8928.03 24136 8835.58 24092.8C8722.96 24038.5 8614.69 23975.6 8511.74 23904.6C8409.94 23831.9 8314.07 23751.2 8225.02 23663.4C8152.9 23591.1 8086.16 23513.7 8025.34 23431.7C7983.67 23377 7945.82 23319.4 7912.06 23259.5C7898.24 23238.5 7886.86 23215.9 7878.14 23192.3C7883.26 23189.1 7937.02 23281.9 8043.9 23417.6C8106.73 23496.5 8174.49 23571.3 8246.78 23641.6C8423.93 23813.7 8627.19 23956.7 8849.02 24065.3C8939.64 24109.1 9032.82 24147.3 9128.06 24179.8C9291.9 24234.9 9397.5 24253.4 9396.22 24259.8Z" fill="white"/>
<path d="M10378 21299.2C10363.2 21301.8 10348.2 21303.3 10333.2 21303.7C10290.6 21307.3 10247.9 21308.6 10205.2 21307.5C10046 21304 9888.15 21278.4 9736.06 21231.4C9630.97 21198.6 9528.67 21157.5 9430.14 21108.5C9317.16 21050.4 9210 20981.6 9110.14 20903C8878.8 20725.3 8696.46 20491.7 8580.25 20224.1C8464.04 19956.5 8417.78 19663.8 8445.82 19373.4C8456.25 19247.4 8478.75 19122.7 8513.02 19001C8543.69 18895.4 8583.3 18792.6 8631.42 18693.8C8700.84 18550.4 8790.03 18417.5 8896.38 18298.9C8924.9 18266.5 8955.24 18235.7 8987.26 18206.7C8997.85 18196.1 9009.19 18186.3 9021.18 18177.3C9021.18 18177.3 8978.94 18222.7 8905.98 18305.3C8803.57 18425.7 8717.49 18559.1 8649.98 18702.1C8549.33 18912.7 8489.4 19140.5 8473.34 19373.4C8447.4 19658.7 8493.59 19945.8 8607.66 20208.5C8721.73 20471.2 8900.02 20701 9126.14 20876.8C9223.07 20954.8 9327.22 21023.4 9437.18 21081.6C9533.55 21132.4 9633.94 21175.2 9737.34 21209.6C9887.17 21258.2 10042.7 21286.8 10200.1 21294.7C10315.9 21299.2 10378 21295.4 10378 21299.2Z" fill="white"/>
<path d="M2629.5 16259.2C2629.5 16264.3 2580.22 16240.6 2501.5 16222.1C2396.16 16199 2286.97 16200.1 2182.12 16225.3C2077.26 16250.4 1979.46 16299 1896.06 16367.4C1832.06 16420.5 1801.34 16462.7 1796.86 16459.5C1814.42 16417.2 1841.59 16379.5 1876.22 16349.4C1959.28 16273.2 2060.42 16219.5 2170.07 16193.3C2279.71 16167.1 2394.23 16169.3 2502.78 16199.7C2549.04 16209.5 2592.4 16229.9 2629.5 16259.2Z" fill="white"/>
<path d="M12080.4 9895.68C12080.4 9904.64 11294.5 9912.32 10325.5 9912.32C9356.54 9912.32 8569.98 9904.64 8569.98 9895.68C8569.98 9886.72 9355.9 9879.04 10325.5 9879.04C11295.1 9879.04 12080.4 9885.44 12080.4 9895.68Z" fill="white"/>
<path d="M9085.18 13897.6C9075.59 13900.3 9065.7 13901.8 9055.74 13902.1L8969.98 13909.8C8932.86 13913 8887.42 13915.5 8834.3 13916.8C8781.18 13918.1 8721.02 13920.6 8654.46 13916.8C8520.7 13916.8 8361.98 13907.2 8185.98 13888.6C7995.52 13866.5 7806.43 13833.8 7619.58 13790.7C7433.17 13746 7249.42 13690.9 7069.18 13625.6C6922.33 13571.8 6778.36 13510.5 6637.82 13441.9C6573.82 13413.8 6524.54 13384.3 6477.82 13359.4C6431.1 13334.4 6391.42 13312 6359.42 13295.4L6285.82 13250.6C6277.09 13245.7 6268.94 13239.9 6261.5 13233.3C6261.5 13233.3 6271.74 13233.3 6289.02 13244.8L6365.82 13283.8C6398.46 13301.8 6438.78 13322.9 6486.14 13347.8C6533.5 13372.8 6587.26 13398.4 6648.06 13425.3C6768.38 13481.6 6914.94 13541.8 7080.06 13601.3C7438.93 13729.9 7811.23 13817.5 8189.82 13862.4C8363.9 13882.9 8521.98 13894.4 8654.46 13897.6C8718.46 13901.4 8782.46 13897.6 8834.3 13897.6C8886.14 13897.6 8932.22 13897.6 8969.34 13897.6H9055.1C9065.06 13895.9 9075.22 13895.9 9085.18 13897.6Z" fill="white"/>
<path d="M14194.3 16781.4C14189.6 16784.6 14184.4 16786.9 14178.9 16788.5L14132.9 16805.8L13954.9 16869.8C13877.5 16897.9 13782.8 16930.6 13670.8 16963.2C13558.8 16995.8 13432.7 17038.1 13290 17073.9L13067.3 17132.8C12989.8 17152.6 12907.9 17169.3 12824.1 17189.1C12656.4 17229.4 12474.6 17261.4 12283.9 17297.9C11453.2 17442.6 10608.9 17494.3 9766.78 17452.2C9574.78 17440 9388.54 17430.4 9217.02 17410.6C9131.26 17401.6 9048.06 17395.2 8968.7 17384.3L8740.22 17353C8594.3 17335.7 8463.74 17309.4 8349.18 17289C8234.62 17268.5 8135.42 17249.3 8055.42 17230.7L7871.1 17189.8L7823.1 17178.2C7817.54 17177.3 7812.15 17175.6 7807.1 17173.1C7812.85 17172.6 7818.63 17172.6 7824.38 17173.1L7872.38 17181.4L8057.98 17216.6C8138.62 17232.6 8237.18 17251.2 8352.38 17268.5C8467.58 17285.8 8597.5 17310.7 8743.42 17326.7L8971.26 17355.5C9050.62 17365.8 9133.82 17371.5 9219.58 17379.8C9390.46 17398.4 9574.78 17406.7 9768.06 17418.2C10155.3 17434.2 10580.9 17434.9 11027.6 17408.6C11474.3 17382.4 11896.1 17326.7 12278.1 17264C12470.1 17228.8 12650.6 17200 12818.3 17159C12902.1 17139.8 12984.1 17123.8 13061.5 17104.6L13284.2 17047.7C13426.9 17013.8 13553 16974.1 13665 16942.1C13777 16910.1 13873 16878.1 13950.5 16854.4L14130.3 16796.8L14177.7 16782.7L14194.3 16781.4Z" fill="white"/>
</svg>
