<svg enable-background="new 0 0 100 100" viewBox="0 0 100 100" xmlns="http://www.w3.org/2000/svg"><g fill="none" stroke="#fff" stroke-miterlimit="10" stroke-width=".1"><path d="m98.668 21.52c-.538-.294-1.073-.592-1.598-.901.276-.206.596-.372.897-.554l.7-.408v-.159l-.781.424c-.356.2-.722.366-1.058.627l-.111.087.117.079c.33.223.667.427 1.007.621l.826.485v-.301z"/><path d="m88.27 35.434 8.229 4.699.07.04.002.084c.037 1.581.047 3.162.07 4.743l.06 4.743.004.331-.287-.164c-1.377-.785-2.713-1.607-4.071-2.409l-2.03-1.21-1.014-.606-.505-.306c-.169-.1-.369-.228-.491-.438-.124-.208-.134-.451-.129-.646l.002-.591.004-1.181.009-2.363.025-2.363c.01-.784.004-1.579.052-2.363zm0 0c.015 1.575.074 3.15.108 4.726l.045 2.363.022 1.182.011.591c-.001.195.018.363.101.497.081.133.225.23.394.324l.512.295 1.02.597 2.039 1.196c1.361.79 2.716 1.609 4.081 2.376l-.283.167-.025-4.743c-.006-1.581-.024-3.162-.016-4.743l.072.124z"/><path d="m88.255 34.531.024-4.575-.004-2.288-.005-1.144c.001-.193-.005-.376.001-.577 0-.198.094-.437.274-.56l3.913-2.39 1.964-1.173.982-.586.491-.293.245-.145c.087-.046.182-.089.273-.134l.217-.106.045.239c.016.083.049.174.067.301.004.031.006.069.006.099v.074l-.001.147-.01.59-.02 1.179-.039 2.358-.052 2.358-.03 1.179-.015.59-.009.3c-.008.109-.036.227-.1.328-.135.209-.344.283-.504.382l-.513.291-1.025.583-2.051 1.165-2.041 1.183-1.02.592c-.344.19-.669.416-1.039.557l-.004.002v-.004zm0 0 .028.521-.004-.003c.367-.144.69-.374 1.031-.568l1.013-.604 2.025-1.21 2.015-1.227 1.007-.613.504-.307c.169-.106.348-.19.423-.327.083-.13.058-.321.061-.522l-.003-.59-.005-1.179-.002-2.359.011-2.359.006-1.179.003-.59.002-.147.001-.074c0-.019 0-.03-.002-.048-.007-.068-.038-.164-.06-.274l.262.133c-.081.039-.161.072-.243.114l-.247.144-.495.287-.989.575-1.978 1.148-3.965 2.261c-.298.184-.207.622-.237.993l-.03 1.143-.055 2.287z"/><path d="m90.363 36.36-.964-.566-.482-.283-.353-.231c.125-.083.248-.168.381-.242l.519-.282 1.039-.564 2.077-1.127 2.068-1.144 1.033-.573.517-.286c.179-.101.327-.186.456-.183.064.001.13.019.2.054l.247.139.516.288 1.032.577.02.011v-.414l-.868-.498-.512-.294c-.091-.051-.16-.092-.269-.148-.106-.051-.234-.09-.368-.088-.274.006-.473.15-.634.237l-.513.292-1.027.585-2.053 1.171-2.043 1.189-1.021.594-.511.297c-.169.101-.329.226-.494.337l-.112.076.114.07.48.294.49.268.981.537 1.959 1.078 3.904 2.182-3.878-2.227z"/><path d="m98.668 38.791-.273.156-1.077.615c-.182.097-.352.223-.554.27-.203.052-.415-.016-.591-.119.176.104.387.176.593.126.205-.045.377-.17.56-.265l1.085-.602.258-.143v-.038z"/><path d="m97.499 39.806 1.067-.62.102-.059v-.035l-.116.069-1.06.632c-.173.111-.365.196-.514.34-.155.144-.211.36-.207.564-.001-.204.058-.419.212-.559.149-.141.342-.224.516-.332z"/><path d="m98.668 48.455-.97.591c-.298.182-.596.364-.901.524-.014-.139-.03-.277-.035-.418l-.003-.564-.005-1.127-.005-2.255.02-4.509-.073 4.508-.052 2.254-.029 1.127-.014.563c.001.189.022.38.032.57l.007.128.122-.056c.364-.168.702-.368 1.044-.562l.862-.491z"/><path d="m98.668 31.253-.742-.45-.504-.306c-.171-.099-.311-.196-.388-.332-.078-.136-.087-.3-.083-.498l.002-.59-.003-1.177-.01-2.358-.01-2.358-.005-1.179-.002-.59.012-.293c.085.04.17.081.254.132l.51.299.969.569v-.424l-.779-.465c-.336-.203-.67-.409-1.05-.578l-.261-.115-.009.279-.02.598.007.589.013 1.179.054 4.715.015 1.179.011.589c0 .191.009.437.136.645.125.209.33.331.498.424l.511.294.876.505v-.283z"/><path d="m96.887 13.05.029-1.144c.018-.377-.039-.791.25-1.001.491-.291.995-.581 1.502-.869v-.273c-.538.328-1.077.659-1.619 1.005-.164.136-.261.355-.273.557-.015.205-.003.387-.006.58l.005 1.144.005 2.288-.022 4.576.076-4.575z"/><path d="m98.668 19.377-.858.513c-.34.195-.664.421-1.026.573l-.026-.55.02.555v.005l.005-.002c.367-.148.694-.372 1.038-.563l.848-.493v-.038z"/><path d="m98.668 2.41-1.238-.692h-.009l1.247.716z"/><path d="m98.668 9.368-.996.553-.515.286c-.164.094-.318.16-.465.162-.147.003-.294-.059-.455-.153l-.514-.288-1.029-.576-2.058-1.152c-1.325-.751-2.683-1.458-3.997-2.217l.12-.102c.066-.052.166-.101.252-.154l.533-.311 1.067-.622 2.134-1.243 2.144-1.225 1.067-.609h-.03l-1.051.584-2.159 1.199-2.169 1.181-1.085.59-.542.295c-.09.052-.18.089-.279.161l-.242.194-.112.089.121.078c.666.433 1.352.806 2.027 1.212l2.037 1.188 2.043 1.176 1.022.588.511.294c.174.105.403.207.653.199.25-.007.464-.116.638-.217l.512-.292.818-.467v-.401z"/><path d="m95.35 1.718-.638.37-2.122 1.233-2.134 1.215-1.067.607-.534.303c-.134.077-.268.158-.402.213-.013-.341-.006-.687.004-1.035l.03-1.176.04-1.73h-.314l.002 1.727.005 1.177c0 .392-.001.784.034 1.183l.011.13.124-.041c.217-.071.385-.184.559-.291l.524-.319 1.048-.638 2.098-1.275 2.108-1.257.662-.395h-.038z"/><path d="m88.346 6.15 4.081 2.323 4.147 2.383.069.04.002.084c.037 1.574.048 3.148.071 4.722l.061 4.722.004.272-.257-.091c-.086-.03-.175-.053-.287-.095-.13-.053-.198-.109-.286-.157l-.508-.304-1.017-.607-2.034-1.215-2.034-1.215-1.016-.608-.506-.307-.257-.157c-.092-.059-.192-.14-.258-.256-.067-.116-.084-.246-.084-.357l.001-.296.002-.592.004-1.184.008-2.369.024-2.369.012-1.185.01-.592.005-.296c.01-.101.03-.199.043-.294zm0 0c-.011.101-.023.197-.03.294l.01.296.019.592.031 1.184.062 2.368.046 2.369.023 1.184.011.592.006.296c.002.085.016.157.051.212.059.111.245.192.417.296l.513.296 1.022.599 2.043 1.2 2.042 1.2 1.021.6.511.3c.085.047.177.11.232.129l.276.09-.253.181-.026-4.722c-.006-1.574-.025-3.148-.017-4.722l.071.124z"/><path d="m88.614 16.184 3.952 2.21 1.984 1.091.993.543.497.272.484.304.122.077-.127.074-4.077 2.38-2.05 1.169-1.025.584-.513.292c-.166.097-.381.218-.636.225-.255.009-.487-.111-.649-.21l-.512-.294-1.023-.588-2.046-1.175-2.039-1.188-1.018-.597c-.34-.195-.679-.398-1.009-.622l-.119-.08.113-.088c.339-.262.705-.443 1.066-.64l1.084-.59 2.168-1.181 2.157-1.199 1.079-.6c.182-.094.352-.217.552-.275.202-.059.418.001.592.106zm0 0c-.176-.103-.391-.16-.59-.096-.197.059-.366.184-.547.28l-1.071.612-2.143 1.224-2.132 1.243-1.066.622c-.355.208-.722.405-1.028.659l-.005-.168c1.343.796 2.755 1.514 4.12 2.291l2.06 1.152 1.03.576.515.288c.172.101.308.167.453.164.144-.001.291-.07.462-.17l.516-.286 1.032-.572 2.065-1.144 4.145-2.257-.005.151-.465-.313-.488-.286-.977-.573-1.956-1.141z"/><path d="m71.646 35.591 4.007 2.341 2.012 1.156 1.007.576.504.288c.081.047.176.097.257.174.082.075.144.185.166.295.063 1.581.079 3.103.119 4.657l.032 2.32.016 1.16.008.58.004.29c0 .098-.026.213-.039.319l-.033.26-.238-.123c-.178-.092-.36-.179-.532-.278l-.504-.302-1.009-.605-2.018-1.21-2.01-1.223-1.003-.614-.502-.307c-.158-.1-.364-.199-.486-.402-.127-.203-.106-.439-.105-.624l.004-.588.008-1.176.016-2.353c.006-1.568-.027-3.137.01-4.705v-.003l.002.001c.103.031.213.042.307.096zm0 0c-.095-.053-.205-.062-.308-.093l.002-.002c-.019 1.567.033 3.136.045 4.705l.054 2.352.027 1.176.014.588c.003.202 0 .382.093.518.087.139.253.22.427.32l.511.292 1.021.584 2.04 1.173 2.032 1.186 1.016.593.508.297.51.267-.271.138c.01-.086.036-.16.038-.255l-.001-.29-.001-.58-.002-1.16-.005-2.32c.005-1.539.032-3.113.021-4.622-.023-.163-.156-.265-.326-.362l-.495-.303-.989-.606-1.981-1.208z"/><path d="m71.344 34.515.022-4.576-.005-2.288-.005-1.144c.004-.191-.014-.377.013-.584.023-.203.134-.412.298-.543 1.312-.833 2.609-1.596 3.915-2.397l1.965-1.172.983-.585.491-.293.517-.27.256-.134.014.291.03.601-.009.59-.019 1.181-.039 2.362-.051 2.362-.03 1.181-.015.59c-.001.194-.015.427-.134.624-.115.2-.318.318-.485.41l-.513.292-1.026.585-2.053 1.169-4.089 2.367-.005.003v-.006zm0 0 .032.617-.005-.003 4.058-2.42 2.017-1.23 1.009-.615.504-.308c.171-.1.32-.199.4-.349.082-.147.093-.325.088-.521l-.003-.591-.005-1.181-.001-2.363.011-2.363.006-1.181.004-.591-.023-.579.27.157-.5.253-.495.287-.99.574-1.98 1.147c-1.318.755-2.673 1.503-3.96 2.263-.138.106-.224.254-.251.429-.028.172-.019.369-.028.559l-.029 1.144-.054 2.288z"/><path d="m79.217 39.68-3.909-2.185-1.962-1.08-.982-.538-.491-.269-.475-.307-.118-.076.123-.072 4.075-2.379 2.048-1.17 1.024-.584.512-.292c.157-.088.37-.23.632-.233.262-.009.488.129.645.219l.511.294 1.023.587 2.045 1.174 2.039 1.186 1.017.597.509.298c.168.104.33.224.495.335l.129.087-.131.085c-.352.229-.715.428-1.08.622l-1.09.593-2.18 1.187-2.169 1.206-1.085.603c-.181.096-.356.219-.565.252-.205.038-.413-.036-.59-.14zm0 0c.178.102.386.173.591.133.206-.035.378-.159.559-.258l1.077-.616 2.155-1.231 2.144-1.25 1.072-.626c.359-.206.716-.415 1.051-.649l-.002.172c-.164-.103-.322-.214-.491-.312l-.517-.283-1.035-.566-2.066-1.139-2.059-1.15-1.03-.575-.515-.288c-.179-.105-.31-.177-.45-.175-.14-.001-.277.076-.458.179l-.516.286-1.031.572-2.063 1.143-4.143 2.256.005-.148.456.314.483.283.966.567 1.934 1.128z"/><path d="m79.863 40.669c-.007-.202.062-.42.234-.542.167-.119.349-.213.522-.321l1.052-.628 2.104-1.256 2.094-1.274 1.047-.638c.355-.207.684-.439 1.064-.621l.122-.059.022.136.047.292c.016.108.01.213.011.308l.002.59.005 1.18.003 2.359-.012 2.359-.006 1.18-.003.59c-.009.184.032.413-.105.669-.069.122-.177.21-.279.27l-.256.148-.51.296-1.02.592-2.04 1.184-2.051 1.165-1.026.583-.513.291-.256.146c-.047.023-.071.05-.152.076l-.143.037-.107.027-.008-.108c-.028-.384-.008-.758 0-1.134l.029-1.128.053-2.256zm0 0-.022 4.514.005 2.257.005 1.129c.002.376-.006.755.033 1.121l-.115-.08.142-.041c.014-.001.068-.039.107-.062l.252-.153.504-.307 1.008-.613 2.016-1.227 2.027-1.208 1.014-.604.507-.302.253-.151c.066-.04.114-.084.141-.135.06-.096.05-.283.055-.486l.01-.59.02-1.18.039-2.359.055-2.359.03-1.179.015-.59c.001-.102.009-.194-.001-.281l-.038-.291.144.077c-.363.16-.713.389-1.07.583l-1.065.606-2.129 1.214-2.119 1.231-1.059.616c-.174.105-.358.199-.525.314-.172.119-.243.334-.239.536z"/><path d="m79.907 30.282c-.097-3.087-.173-6.224-.232-9.372l-.004-.209.176.065.169.062.139.066.269.134.526.276c.35.185.693.38 1.038.573l2.057 1.176 2.042 1.2c.679.41 1.352.803 2.022 1.263l.076.052.001.099.026 4.73c.005 1.577.025 3.154.016 4.731l-.002.262-.22-.134-4.079-2.484zm0 0 4.154 2.358 4.096 2.363-.222.128c-.037-1.577-.045-3.153-.069-4.73l-.059-4.73.077.151c-.629-.438-1.315-.848-1.984-1.257l-2.03-1.213-2.044-1.188-1.028-.581-.515-.285-.258-.135-.127-.064-.106-.046.172-.143c0 3.098-.018 6.21-.057 9.372z"/><path d="m79.825 20.053.021-4.631-.006-2.316-.005-1.158-.003-.579c-.008-.204.071-.442.239-.584.163-.144.336-.225.498-.329l.495-.3.99-.601 1.98-1.201c1.329-.787 2.65-1.582 3.987-2.358l.267-.155.015.312c.037.8-.009 1.577-.012 2.366l-.039 2.359-.053 2.358-.03 1.179-.015.59c-.008.188.009.413-.099.623-.104.212-.32.327-.481.415l-.513.291-1.025.583-2.051 1.166-2.04 1.184-1.02.592c-.341.196-.676.402-1.033.57l-.003.001v-.003c-.021-.124-.065-.246-.064-.374zm0 0c.001.128.047.25.067.375l-.003-.002c.354-.171.687-.381 1.025-.581l1.013-.604 2.026-1.209 2.015-1.227 1.008-.614.504-.307c.176-.103.324-.194.394-.346.073-.148.061-.333.06-.534l-.003-.59-.005-1.18-.004-2.359c0-1.569.031-3.153.006-4.711l.281.157c-1.342.758-2.675 1.539-4.012 2.31l-2.015 1.142-1.007.571-.504.285c-.165.099-.347.182-.476.293-.134.11-.193.268-.195.449l-.015.579-.029 1.158-.056 2.314z"/><path d="m82.082 2.142-.701-.425h-.515l.074.043 1.021.589 2.043 1.176c1.372.767 2.725 1.569 4.114 2.308l-4.02-2.467z"/><path d="m88.042 1.718.046 1.754.031 1.181c.008.396.043.784-.001 1.18.062-.388.048-.789.058-1.18l.012-1.182.018-1.753z"/><path d="m87.073 5.365-.996-.545-1.989-1.093-3.598-2.01h-.01l3.582 2.056 1.961 1.143.979.574c.282.172.581.328.844.519-.29.184-.594.352-.902.516l-1.035.562-2.071 1.125-2.06 1.143-1.03.572-.515.286c-.18.101-.323.187-.458.188-.136.007-.261-.068-.445-.173l-.515-.288-1.028-.574-2.057-1.149c-1.322-.75-2.688-1.449-3.99-2.214l.12-.097c.072-.057.161-.101.25-.155l.529-.308 1.058-.616 2.117-1.231 2.128-1.213 1.064-.607c.034-.019.067-.039.101-.058h-.027c-.027.015-.054.031-.081.045l-1.071.594-2.142 1.188-2.152 1.17-1.076.584-.538.292c-.087.049-.183.093-.274.16l-.245.185-.109.082.114.083c.327.238.671.419 1.009.622l1.016.596 2.036 1.185 2.043 1.173 1.021.586.511.293c.151.088.38.235.647.219.266-.012.466-.155.625-.242l.512-.292 1.023-.584 2.046-1.167 2.036-1.186 1.018-.593c.34-.195.68-.392 1.008-.622l.104-.073-.101-.075c-.317-.233-.657-.388-.987-.576z"/><path d="m78.389 1.718-.57.331-2.126 1.234-2.136 1.216-1.069.607c-.318.175-.633.37-.955.524-.011-.054-.021-.107-.026-.155-.008-.074.002-.187.002-.281l.015-.59.03-1.179.039-1.707h-.313l.002 1.705.005 1.179.002.59c.003.102-.006.186.008.308.016.11.045.202.061.294l.024.131.12-.057c.381-.183.715-.411 1.069-.62l1.05-.639 2.101-1.276 2.111-1.258.597-.356h-.041z"/><path d="m71.909 6.447 3.927 2.294 1.972 1.133.987.565.496.285c.171.095.337.283.366.5.059 1.544.077 3.039.118 4.561.018 1.52.058 3.022.051 4.556v.094l-.079.051-.083.054-.01.007-.006.001c-.005.001-.018.012-.073.023-.016.002-.036.005-.068.001-.018-.003-.036-.008-.054-.016l-.007-.003-.017-.008-.069-.033-.139-.066c-.096-.042-.173-.096-.26-.144l-.504-.302-1.007-.605-2.013-1.209c-1.344-.803-2.672-1.633-4.009-2.448l-.052-.032v-.058l.028-4.731-.014-4.733v-.006l.005.003zm0 0-.517-.261.005-.003.073 4.73.114 4.73-.051-.089c1.357.782 2.722 1.548 4.071 2.342l2.027 1.185 1.013.593.506.297c.084.048.168.107.252.143l.126.061.063.031.016.008s.005.003.001.001c-.015-.007-.031-.012-.046-.014-.026-.004-.04-.001-.05 0-.03.007-.022.007-.004-.001l-.016.007.041-.027-.08.145c.026-1.497-.001-3.027.005-4.539.006-1.51.03-3.048.021-4.533-.029-.343-.455-.476-.758-.688l-.97-.594-1.942-1.183z"/><path d="m71.724 16.189 3.93 2.196 1.973 1.085.988.54.494.27.481.301.122.076-.126.074-4.079 2.382-2.051 1.17-1.026.585-.513.292c-.164.089-.355.226-.623.245-.276.019-.496-.138-.649-.222l-.512-.294-1.022-.589-2.047-1.176-2.04-1.188-1.018-.597c-.338-.204-.683-.383-1.01-.627l-.109-.081.105-.085c.336-.272.706-.448 1.068-.648l1.088-.592 2.176-1.185 2.166-1.204 1.083-.602c.182-.095.354-.22.56-.26.206-.046.415.03.591.134zm0 0c-.177-.101-.386-.174-.59-.127-.203.042-.373.169-.555.266l-1.076.614-2.151 1.229-2.141 1.248-1.07.624c-.355.209-.728.404-1.027.665l-.005-.166c.311.22.671.395 1.013.587l1.036.567 2.068 1.14 2.061 1.152 1.031.576.515.288c.185.105.312.189.442.178.131-.003.285-.092.462-.191l.516-.286 1.032-.573 2.065-1.144 4.146-2.259-.004.15-.464-.31-.486-.285-.971-.569-1.945-1.134z"/><path d="m62.933 40.692c-.004-.202.041-.424.204-.562.161-.131.348-.218.521-.329l1.058-.632 2.116-1.263 2.105-1.281 1.052-.641c.354-.211.691-.438 1.072-.622l.135-.065.011.148c.015.199.045.401.046.598l.002.59.005 1.18.003 2.36-.012 2.36-.006 1.18-.003.59c-.004.182.019.428-.115.668-.067.117-.166.207-.264.272l-.264.155-.51.296-1.021.592-2.042 1.184-2.052 1.166-1.026.583c-.347.189-.671.403-1.047.56l-.121.051-.006-.127c-.018-.38-.011-.756.002-1.131l.029-1.126.053-2.252zm0 0-.022 4.505.004 2.252.005 1.126c-.002.376.002.751.032 1.121l-.127-.076c.348-.156.678-.386 1.016-.584l1.008-.614 2.017-1.227 2.028-1.209 1.014-.604.507-.302.243-.146c.065-.044.113-.093.144-.148.064-.111.061-.279.064-.485l.01-.59.02-1.18.04-2.36.054-2.36.031-1.18.015-.59c.005-.196-.02-.386-.028-.58l.145.082c-.366.162-.719.384-1.077.583l-1.071.61-2.141 1.22-2.131 1.238-1.065.619c-.174.108-.364.195-.523.322-.166.134-.214.354-.212.557z"/><path d="m71.14 35.08c-.359-.151-.708-.351-1.048-.543l-1.026-.582-2.052-1.165-2.044-1.178-1.022-.59-.511-.295c-.157-.096-.377-.188-.51-.41-.133-.224-.107-.466-.115-.648l-.011-.59-.015-1.179-.028-2.359-.028-2.359-.014-1.179c-.003-.394-.021-.781.018-1.194l.025-.265.245.106c.384.166.706.38 1.046.58l1.013.605 2.026 1.209 2.026 1.209 1.013.605.504.306c.154.099.374.196.504.421.131.227.098.467.102.649l-.002.59-.003 1.18-.007 2.359-.023 2.359-.012 1.18c-.008.389-.003.79-.051 1.178zm0 0c.03-.396.004-.783-.007-1.178l-.032-1.179-.063-2.359-.047-2.359-.023-1.18-.012-.59c-.004-.205.004-.382-.075-.502-.071-.125-.23-.203-.407-.306l-.511-.295-1.018-.597-2.034-1.195-2.034-1.194-1.017-.597c-.339-.196-.678-.413-1.019-.557l.27-.158c-.04.37-.026.771-.026 1.163l.005 1.18.011 2.36.011 2.36.004 1.18-.002.59c0 .205-.013.379.062.503.067.128.226.212.4.318l.504.306 1.009.612 2.017 1.225 2.009 1.238 1.004.619c.338.21.66.42 1.021.592z"/><path d="m62.919 19.927.022-4.588-.005-2.294-.005-1.147c.002-.194-.008-.375.004-.581.007-.202.113-.43.288-.554l3.924-2.4 1.969-1.177.985-.588c.326-.198.654-.394 1.012-.565l.258-.123.013.282.027.599-.011.591-.019 1.179-.038 2.358-.051 2.358-.03 1.179-.015.589c-.001.194-.016.427-.138.623-.118.198-.319.312-.486.404l-.512.291-1.025.583-2.05 1.166-4.081 2.364-.005.003v-.005zm0 0 .036.545-.005-.002 4.051-2.415 2.014-1.227 1.007-.614.504-.307c.171-.1.321-.199.404-.347.084-.146.096-.323.091-.518l-.003-.59-.005-1.179-.002-2.359.011-2.358.005-1.179.003-.59-.02-.579.27.159c-.336.154-.667.345-.997.541l-.992.576-1.984 1.152-3.975 2.269c-.305.191-.231.615-.254.992l-.029 1.147-.054 2.294z"/><path d="m71.019 1.718c.017 1.293.029 2.586.058 3.879l-3.871-2.232-2.905-1.648h-.104l2.876 1.779 4.08 2.483.22.134.001-.262c.008-1.378-.006-2.756-.013-4.134h-.342z"/><path d="m70.123 5.334-.993-.543-1.983-1.09-3.549-1.983h-.011l3.533 2.029 1.955 1.14.976.572c.282.175.587.33.851.521-.278.2-.593.362-.902.53l-1.038.564-2.076 1.129-2.065 1.147-1.033.574-.516.287c-.179.101-.325.185-.454.179-.064-.001-.129-.02-.199-.056l-.249-.14-.516-.288-1.03-.576-2.062-1.152-2.07-1.14-1.037-.567c-.294-.167-.604-.319-.879-.505.655-.392 1.32-.771 1.979-1.158l2.122-1.232 2.132-1.214 1.066-.607c.022-.012.044-.025.066-.038h-.028c-.015.008-.03.017-.045.025l-1.073.594-2.146 1.189-2.156 1.17c-.718.393-1.44.773-2.155 1.176l-.129.073.121.097c.32.257.669.43 1.006.635l1.019.598 2.042 1.189 2.049 1.177 1.024.588.512.294c.089.051.161.094.267.149.105.052.233.093.367.093.275-.001.477-.147.637-.234l.513-.293 1.026-.586 2.052-1.172 2.041-1.19 1.021-.595c.34-.199.686-.383 1.002-.643l.091-.075-.092-.069c-.316-.234-.656-.383-.984-.573z"/><path d="m61.536 1.718-.613.357-2.126 1.235-2.136 1.218-1.068.608c-.321.18-.64.369-.966.526-.017-.055-.031-.107-.033-.147l.006-.285.015-.59.03-1.181.039-1.741h-.314l.003 1.738.005 1.181.003.59.003.304c.015.129.06.215.081.302l.029.122.114-.056c.377-.186.717-.409 1.068-.621l1.05-.64 2.1-1.279 2.111-1.261.638-.381h-.039z"/><path d="m54.834 6.344 3.996 2.334 2.007 1.153 1.004.574.502.287c.082.047.177.101.254.181.08.079.134.192.152.301.054 1.57.076 3.092.115 4.641l.032 2.314.016 1.157.008.578.004.289c-.001.098-.024.211-.036.316l-.031.263-.24-.123c-.178-.092-.362-.177-.533-.275l-.505-.302-1.009-.605-2.019-1.21-2.011-1.223-1.004-.614-.502-.307c-.158-.099-.364-.201-.485-.404-.126-.203-.105-.44-.105-.624l.004-.588.008-1.177.016-2.354c.006-1.569-.026-3.138.009-4.707v-.003l.003.001c.116.043.242.063.35.127zm0 0c-.109-.062-.235-.081-.352-.123l.003-.002c-.016 1.568.033 3.138.047 4.707l.055 2.353.027 1.177.014.588c.003.202 0 .382.092.519.087.139.25.221.425.321l.511.292 1.022.584 2.041 1.174 2.033 1.186 1.017.593.508.297.511.266-.271.139c.01-.086.033-.163.036-.257l-.001-.289-.001-.579-.002-1.157-.005-2.314.025-4.614c-.017-.165-.141-.273-.309-.368l-.493-.302-.987-.604-1.976-1.205z"/><path d="m45.987 19.853.021-4.573-.005-2.286-.005-1.143c.004-.191-.015-.377.014-.584.025-.205.144-.41.308-.536 1.31-.829 2.606-1.596 3.91-2.398l3.93-2.341.26-.155.019.303c.013.201.032.405.039.605l-.009.591-.02 1.182-.039 2.363-.052 2.363-.03 1.182-.015.591c-.007.189.005.418-.111.626-.116.214-.334.308-.494.402l-.514.292-1.028.584-2.056 1.167-2.046 1.184-1.022.593c-.343.194-.674.41-1.04.561l-.005.002v-.005zm0 0 .016.57-.005-.003c.363-.155.692-.375 1.032-.573l1.015-.605 2.03-1.212 2.02-1.229 1.01-.614.505-.307c.173-.105.336-.19.407-.337.076-.144.069-.328.068-.529l-.002-.591-.005-1.182-.001-2.364.012-2.364.006-1.182.004-.591c-.005-.194-.021-.383-.031-.575l.279.149-3.957 2.291c-1.317.756-2.668 1.505-3.957 2.265-.14.105-.23.249-.26.423-.03.17-.02.368-.029.557l-.029 1.143-.053 2.286z"/><path d="m54.11 1.718c.016 1.267.029 2.535.057 3.802l-.058-.027c-.087-.042-.175-.083-.262-.129l-.523-.274-1.04-.565-2.067-1.16-2.061-1.172c-.27-.158-.54-.316-.81-.474h-.123c.292.189.587.375.881.561l2.019 1.247 2.043 1.208 1.031.59.522.288c.086.048.176.094.267.139l.138.068.168.065.174.068.001-.213c.007-1.34-.006-2.681-.013-4.021h-.344z"/><path d="m52.273 4.841-1.96-1.078-3.66-2.045h-.007l3.641 2.09 1.933 1.126c.598.361 1.218.695 1.799 1.077-.125.082-.249.166-.38.242l-.52.282-1.04.565-2.079 1.128-2.07 1.146-1.035.574-.517.287c-.178.102-.321.178-.456.173-.132.003-.269-.09-.452-.193l-.516-.289-1.034-.577-2.066-1.154-2.072-1.143-1.038-.568c-.299-.162-.595-.325-.868-.513l4.145-2.422 2.157-1.233 1.048-.599h-.031l-1.032.574-2.171 1.207-4.363 2.379-.134.073.126.1c.321.254.665.445 1.005.644l1.021.598 2.045 1.19 2.052 1.178 1.026.589.513.295c.158.084.361.235.635.237.268.002.481-.136.641-.227l.514-.293 1.028-.586 2.055-1.173 2.045-1.19 1.023-.595.511-.298c.168-.105.33-.225.495-.336l.111-.075-.113-.071c-.638-.401-1.304-.73-1.955-1.096z"/><path d="m44.566 1.718-.584.339-2.129 1.237-2.139 1.219-1.07.609c-.315.178-.63.361-.951.518l-.02-.15c-.012-.088-.004-.177-.003-.28l.015-.59.03-1.18.039-1.72h-.314l.002 1.717.005 1.181.002.59c.001.093-.004.202.013.309l.048.291.023.138.123-.061c.375-.186.717-.408 1.069-.62l1.051-.64 2.104-1.28 2.114-1.261.61-.364h-.038z"/><path d="m45.727 10.982c.097 3.085.173 6.222.232 9.369l.004.206-.173-.062-.172-.061-.139-.065c-.091-.043-.182-.087-.27-.133l-.527-.275c-.35-.185-.694-.379-1.039-.572l-2.057-1.174-2.042-1.201c-.678-.409-1.352-.806-2.02-1.262l-.077-.053.001-.099-.026-4.731c-.005-1.577-.025-3.154-.016-4.731l.001-.262.22.134 4.08 2.483zm0 0-4.155-2.357-4.096-2.362.222-.128c.038 1.577.046 3.154.069 4.73l.059 4.731-.078-.152c.632.438 1.315.849 1.984 1.259l2.029 1.213 2.044 1.187 1.028.58.516.284c.086.048.172.091.258.134l.128.064.104.044-.169.144c0-3.099.018-6.209.057-9.371z"/><path d="m37.179 1.718c.017 1.292.03 2.584.058 3.877l-3.872-2.233-2.897-1.644h-.104l2.869 1.775 4.081 2.483.219.133.001-.261c.008-1.377-.006-2.754-.013-4.131h-.342z"/><path d="m70.852 54.397-3.951-2.206-1.983-1.09-.993-.543c-.33-.185-.667-.346-.982-.576l-.104-.075.104-.071c.165-.111.325-.236.495-.337l.511-.297 1.021-.594 2.043-1.188 2.053-1.17 1.027-.585.513-.292c.16-.087.361-.232.635-.236.134-.001.261.038.367.09.109.056.178.098.268.15l.512.294 1.024.588 2.049 1.176 2.042 1.189 1.019.598c.339.201.683.386 1.008.633l.128.097-.136.074-4.317 2.349-2.149 1.191-1.074.596c-.181.096-.354.207-.542.289-.19.087-.415.056-.588-.054zm0 0c.175.108.399.136.587.048.186-.084.358-.197.538-.295l1.067-.608 2.135-1.216 2.124-1.235 2.121-1.24-.007.171c-.31-.223-.665-.402-1.01-.592l-1.037-.567-2.07-1.14-2.063-1.153-1.032-.576-.516-.288-.247-.139c-.07-.035-.136-.054-.2-.054-.129-.003-.275.08-.455.182l-.517.286-1.033.573-2.067 1.145-2.077 1.127-1.038.563-.519.282c-.172.095-.326.21-.491.313l.001-.146c.289.226.629.403.951.596l.976.572 1.955 1.139z"/><path d="m87.658 64.197-3.979-2.325-1.998-1.148-1-.572-.5-.286c-.158-.083-.379-.218-.431-.454-.041-.228-.02-.396-.032-.596l-.013-.576-.027-1.152-.053-2.305-.032-2.305-.016-1.152-.008-.576c.005-.199-.024-.366.016-.599l.037-.214.176.054c.063.019.126.041.188.065l.138.066c.093.043.183.088.27.135l.523.283 1.032.582 2.044 1.193c.68.4 1.351.815 2.02 1.233.668.421 1.336.839 1.986 1.296l.043.03v.051l-.028 4.704.015 4.703v.003l-.003-.001c-.122-.047-.254-.071-.368-.137zm0 0c.115.064.247.086.37.132l-.003.002-.071-4.703-.114-4.703.043.082c-.652-.43-1.334-.829-2.012-1.228l-2.045-1.182-2.054-1.166-1.034-.567-.52-.273-.258-.13-.128-.063c-.031-.01-.06-.023-.089-.038l.212-.16c-.036.146-.013.366-.019.55l.001.576.003 1.152.005 2.304-.016 2.304-.008 1.152-.004.576c.004.184-.016.404.01.554.029.158.168.257.337.354l.491.301.983.602 1.967 1.2z"/><path d="m87.577 54.283-3.859-2.161-3.874-2.136-.117-.065.109-.078c.163-.116.316-.259.488-.354l.511-.298 1.022-.596 2.044-1.192 2.054-1.176 1.027-.587.514-.293c.17-.1.391-.216.648-.211.253-.001.479.128.64.221l.513.294 1.026.589 2.052 1.179 2.046 1.19 1.021.599.51.299.5.327.145.095-.149.084c-1.46.819-2.935 1.605-4.402 2.408l-2.193 1.218-1.096.609c-.18.103-.373.205-.585.214-.214.009-.416-.074-.595-.179zm0 0c.18.103.383.183.593.17.211-.011.4-.114.578-.219l1.089-.622 2.178-1.244c1.443-.845 2.895-1.676 4.327-2.537l-.004.178c-1.343-.804-2.762-1.519-4.129-2.301l-2.066-1.155-1.033-.577-.516-.289c-.175-.104-.311-.175-.459-.177-.144-.006-.293.06-.46.157l-.517.287-1.034.575-2.07 1.147-2.079 1.131-1.04.565-.52.283c-.177.09-.317.219-.478.326l-.008-.142 1.903 1.124 1.91 1.115z"/><path d="m88.199 63.791.02-4.58-.006-2.29-.005-1.145c.004-.191-.015-.378.015-.585.027-.204.143-.409.305-.538 1.311-.838 2.611-1.599 3.917-2.402l1.966-1.173.984-.586.492-.293.519-.27.261-.136.009.297.018.597-.009.591-.019 1.181-.039 2.362-.051 2.362-.03 1.181-.015.591c-.002.194-.015.426-.132.624-.114.201-.317.32-.484.411l-.513.292-1.027.585-2.053 1.169-4.09 2.368-.005.003v-.006zm0 0 .032.614-.005-.003 4.059-2.421 2.018-1.231 1.009-.615.504-.308c.171-.1.319-.199.399-.35.082-.148.092-.326.087-.522l-.002-.589-.005-1.182-.001-2.363c.002-1.572.028-3.158.009-4.72l.27.162-.5.252-.495.287-.991.575-1.982 1.148c-1.318.756-2.677 1.503-3.962 2.267-.139.107-.228.253-.26.427-.031.171-.02.368-.029.558l-.029 1.145-.053 2.29z"/><path d="m98.668 67.958-.322.176-1.013.551c-.339.161-.675.462-.989.307-1.311-.751-2.649-1.548-3.973-2.32l-2.001-1.149-1-.574c-.244-.14-.492-.277-.723-.427l3.84-2.188 2.043-1.18 1.02-.593.51-.297c.173-.099.331-.207.492-.217.161-.018.315.082.492.179l.518.283 1.035.566.072.039v-.152l-.006-.003-1.018-.597-.509-.298c-.16-.09-.351-.235-.597-.221-.24.013-.421.141-.589.227l-.518.281-1.037.562-2.07 1.131c-1.374.768-2.756 1.513-4.123 2.299l-.25.144.238.173c.328.239.666.413 1.001.602l1.007.563 2.014 1.125c1.357.737 2.683 1.478 4.064 2.212.203.089.453.042.626-.058l.503-.291.997-.581.266-.155z"/><path d="m98.668 60.554-1.761-1.08c.007-1.551-.011-3.103-.016-4.654l-.024-4.419.235.122.51.298 1.02.598.036.021v-.422l-.866-.516-.508-.302-.531-.281-.282-.149.004.32.061 4.734c.023 1.578.033 3.156.07 4.734l.002.084.069.04 1.981 1.133z"/><path d="m98.668 50.924c-.56-.333-1.136-.65-1.676-1.003.046-.041.09-.081.132-.113.061-.045.163-.093.246-.14l.52-.283.779-.423v-.273l-.882.514-.511.298c-.087.054-.166.089-.263.162-.086.07-.15.141-.222.202l-.091.078.1.063c.612.382 1.245.699 1.868 1.047z"/><path d="m98.668 35.383-1.148-.642-3.01-1.682c-1.931-1.098-3.924-2.119-5.83-3.238.408-.306.869-.562 1.32-.826l1.557-.909 3.115-1.816 3.13-1.788.866-.495v-.035l-.887.493-3.151 1.752-3.166 1.724-1.583.861c-.528.289-1.063.553-1.557.935l-.165.128.173.117c.483.327.977.624 1.474.908l1.487.872 2.979 1.735 2.989 1.717 1.408.809v-.62z"/><path d="m76.243 51.666 5.853 3.419 2.939 1.688 1.471.842.736.421c.118.068.258.142.375.254.12.11.21.27.242.431.092 2.309.116 4.532.174 6.802l.047 3.389.023 1.694.012.847.006.424c0 .143-.037.311-.057.465l-.048.38-.347-.179c-.259-.134-.526-.262-.777-.406l-.737-.442-1.473-.884-2.947-1.767-2.936-1.787-1.466-.897-.733-.449c-.23-.146-.531-.29-.71-.587-.185-.296-.155-.642-.154-.911l.006-.859.012-1.718.024-3.437c.008-2.291-.04-4.582.015-6.873v-.004l.004.001c.147.049.308.064.446.143zm0 0c-.139-.077-.3-.09-.45-.136l.004-.002c-.028 2.29.047 4.581.066 6.872l.079 3.436.04 1.718.02.859c.005.295 0 .557.136.757.128.203.369.321.623.467l.746.426 1.492.853 2.979 1.714 2.968 1.733 1.484.866.742.433.745.39-.395.201c.015-.125.053-.234.055-.373l-.001-.424-.002-.847-.004-1.695-.007-3.389c.007-2.247.046-4.547.031-6.751-.034-.238-.228-.387-.477-.528l-.723-.443-1.445-.885-2.894-1.765z"/><path d="m75.801 50.095.032-6.684-.008-3.342-.007-1.671c.006-.279-.02-.551.019-.852.033-.297.196-.602.435-.793 1.916-1.217 3.812-2.331 5.718-3.502l2.87-1.712 1.436-.855.718-.427.755-.394.374-.195.021.425.044.878-.013.862-.028 1.725-.057 3.45-.075 3.45-.044 1.725-.022.862c-.002.284-.022.623-.195.912-.168.293-.464.464-.709.598l-.75.427-1.499.854-2.999 1.708-5.972 3.458-.008.004v-.009zm0 0 .047.902-.008-.004 5.928-3.534 2.947-1.797 1.473-.899.737-.449c.25-.147.467-.291.585-.509.12-.215.136-.475.129-.761l-.004-.863-.008-1.726-.002-3.451.016-3.451.008-1.725.005-.863-.033-.846.395.229-.731.37-.723.419-1.446.838-2.893 1.675c-1.925 1.103-3.904 2.195-5.785 3.306-.202.155-.326.37-.367.627-.041.251-.028.539-.041.816l-.043 1.671-.078 3.342z"/><path d="m78.805 52.733-1.41-.828-.705-.414-.494-.341 5.872-3.198 3.014-1.67 1.506-.836.753-.418c.264-.15.464-.262.669-.261.204-.004.396.102.657.255l.752.42 1.504.84 3.008 1.68 3.018 1.663 1.512.827.208.114v-.4l-.034-.02-1.486-.871-2.978-1.733-2.988-1.716-1.494-.858-.747-.429c-.229-.131-.559-.332-.942-.32-.383.005-.695.212-.924.341l-.748.427-1.496.853-2.992 1.709-5.952 3.476-.18.105.172.111.695.448.717.393 1.435.785 2.865 1.577 5.709 3.192-5.671-3.259z"/><path d="m98.668 51.862c-.09.052-.178.106-.268.157l-1.566.914-3.132 1.827-3.148 1.799-1.574.899c-.263.144-.516.325-.816.377-.3.058-.604-.046-.863-.195.258.152.561.26.865.205.304-.049.561-.228.825-.369l1.584-.881 3.169-1.762 3.184-1.734 1.592-.866c.049-.026.098-.054.147-.081v-.29z"/><path d="m88.593 58.301c.244-.169.512-.305.767-.459l1.547-.899 3.095-1.799 3.11-1.773 1.556-.885v-.28c-.04.024-.08.049-.121.073l-1.529.932-3.059 1.861-3.074 1.835-1.537.917c-.254.157-.518.296-.763.469-.251.179-.352.496-.342.792-.005-.297.1-.61.35-.784z"/><path d="m98.668 65.848-.233.139-1.481.883-2.961 1.765-2.945 1.792-1.472.896-.736.448-.368.224c-.058.033-.136.088-.157.09l-.052.015c-.039-.485-.033-.982-.036-1.476l-.007-1.649-.007-3.297.032-6.593-.109 6.593-.078 3.296-.042 1.648c-.013.55-.042 1.096 0 1.657l.012.157.156-.04.208-.053c.118-.038.153-.078.222-.112l.375-.213.749-.426 1.498-.851 2.996-1.702 2.98-1.729 1.456-.845z"/><path d="m98.668 49.832-4.291-2.476-6.068-3.444 5.874 3.636 4.485 2.732z"/><path d="m88.483 30.588.377.198.753.416 1.502.849 2.986 1.736 2.965 1.772c.533.327 1.073.654 1.603.988v-.638c-.442-.27-.885-.535-1.331-.803l-2.983-1.753-3.004-1.717c-.504-.281-1.005-.567-1.516-.837l-.769-.404-.394-.195-.202-.096-.247-.091-.257-.095.006.305c.085 4.598.196 9.182.338 13.69.056-4.509.082-8.947.084-13.369z"/><path d="m88.378 18.825.043-1.691.022-.845c.004-.264.09-.496.285-.656.189-.161.454-.283.696-.427l.736-.417 1.472-.834 2.943-1.668c1.365-.787 2.728-1.578 4.094-2.363v-.608c-1.446.852-2.887 1.711-4.331 2.566l-2.892 1.754-1.446.877-.723.439c-.236.153-.489.27-.727.481-.246.207-.361.556-.349.853l.004.846.008 1.691.009 3.382-.031 6.764.11-6.764z"/><path d="m98.668 23.308-.035.021-1.472.896-2.943 1.792-2.959 1.766-1.48.883c-.493.292-.978.598-1.494.847-.03-.182-.096-.358-.097-.544-.001.187.064.366.092.549l.001.004.004-.002c.521-.244 1.011-.545 1.508-.832l1.49-.865 2.98-1.73 2.996-1.703 1.409-.801z"/><path d="m98.668 7.196-4.237-2.6-2.946-1.787-1.473-.893-.328-.199h-.79c.06.037.12.071.176.103l.746.43 1.492.86 2.985 1.718c1.463.818 2.91 1.662 4.374 2.478v-.11z"/><path d="m97.242 6.861 1.426.836v-.24l-1.346-.737-2.906-1.596-5.789-3.234 5.751 3.301z"/><path d="m98.668 9.167c-.027.015-.054.03-.081.045l-1.512.821-3.024 1.643-3.009 1.669-1.505.835-.752.417c-.262.147-.472.273-.669.274-.199.01-.381-.1-.65-.252l-.751-.419-1.502-.839-3.005-1.678c-1.931-1.096-3.927-2.117-5.828-3.234l.176-.142c.104-.084.234-.148.364-.227l.773-.45 1.546-.9 3.093-1.799 3.108-1.772 1.554-.886c.261-.144.514-.304.781-.435.269-.137.598-.106.853.052-.252-.162-.584-.197-.857-.062-.27.129-.524.285-.787.426l-1.564.868-3.129 1.735-3.144 1.709-1.572.853-.786.427c-.127.072-.267.136-.401.234l-.357.271-.159.12.166.121c.478.347.98.612 1.473.908l1.484.87 2.974 1.731 2.984 1.713 1.492.856.746.428c.221.129.555.344.945.32.389-.018.68-.226.913-.354l.747-.426 1.494-.852 2.988-1.705 2.973-1.732 1.416-.825v-.357z"/><path d="m86.902 1.718c-.03.018-.061.034-.09.053l-1.552.901-3.105 1.802-3.121 1.776-1.561.887c-.465.256-.924.54-1.395.765-.016-.079-.031-.156-.039-.226-.011-.108.003-.273.003-.41l.022-.861.045-1.722.069-2.965h-.469l.004 2.961.007 1.723.003.861c.005.149-.008.272.012.45.023.161.065.296.089.429l.035.191.175-.084c.557-.267 1.044-.601 1.561-.906l1.534-.933 3.068-1.864 3.084-1.838 1.542-.919c.039-.025.078-.048.118-.071h-.039z"/><path d="m76.626 9.097 5.736 3.35 2.88 1.655 1.442.825.724.416c.25.139.493.413.534.73.086 2.255.113 4.439.172 6.662.027 2.22.085 4.414.075 6.655l-.001.138-.116.074-.122.078-.015.01-.008.001c-.007.001-.027.018-.107.034-.023.003-.052.008-.1.001-.026-.004-.053-.012-.079-.024l-.011-.005-.025-.012-.101-.048-.202-.097c-.14-.061-.253-.14-.38-.21l-.736-.441-1.47-.883-2.941-1.767c-1.963-1.173-3.903-2.385-5.856-3.576l-.076-.046v-.084l.041-6.91-.019-6.91v-.009l.007.004zm0 0-.755-.381.007-.004.107 6.909.167 6.908-.075-.13c1.982 1.142 3.976 2.261 5.947 3.421l2.961 1.732 1.48.866.74.434c.122.07.245.156.367.209l.184.09.092.045.023.011s.008.004.002.001c-.023-.01-.045-.017-.067-.02-.038-.005-.059-.002-.073 0-.045.01-.032.01-.006-.002l-.023.01.06-.04-.116.212c.038-2.186-.002-4.422.007-6.63.009-2.205.043-4.452.03-6.622-.042-.5-.665-.695-1.107-1.006l-1.417-.867-2.837-1.729z"/><path d="m76.356 23.326 5.741 3.207 2.881 1.584 1.443.789.721.394.703.439.179.112-.185.108-5.958 3.48-2.995 1.709-1.498.854-.749.427c-.24.13-.518.33-.91.357-.404.027-.724-.202-.948-.324l-.748-.429-1.495-.859-2.99-1.718-2.98-1.735-1.487-.873c-.494-.298-.998-.559-1.476-.916l-.159-.119.153-.124c.491-.398 1.031-.655 1.56-.947l1.59-.865 3.179-1.731 3.163-1.758 1.582-.879c.266-.138.517-.322.819-.38.302-.065.607.046.864.197zm0 0c-.259-.148-.563-.255-.862-.186-.297.061-.546.247-.81.389l-1.571.898-3.142 1.795-3.127 1.823-1.563.912c-.518.306-1.063.589-1.5.972l-.007-.242c.454.321.98.577 1.48.857l1.513.828 3.021 1.666 3.011 1.683 1.505.842.753.421c.27.153.455.277.645.26.192-.005.417-.134.674-.279l.754-.418 1.508-.837 3.017-1.671 6.057-3.299-.006.219-.678-.453-.709-.416-1.419-.834-2.841-1.656z"/><path d="m63.516 59.117c-.006-.295.06-.62.298-.82.235-.191.508-.319.761-.48l1.546-.923 3.091-1.845 3.075-1.871 1.537-.937c.517-.308 1.009-.639 1.565-.908l.197-.095.016.216c.021.29.065.585.067.873l.003.862.007 1.724.004 3.448-.018 3.448-.009 1.724-.004.862c-.006.265.028.625-.168.975-.098.17-.242.302-.385.397l-.386.227-.745.433-1.491.865-2.982 1.73-2.998 1.703-1.499.851c-.506.276-.981.589-1.529.819l-.177.074-.009-.186c-.027-.556-.016-1.104.003-1.651l.043-1.645.078-3.289zm0 0-.033 6.58.006 3.29.007 1.645c-.003.549.003 1.097.046 1.637l-.186-.111c.508-.229.99-.564 1.483-.853l1.473-.896 2.946-1.792 2.962-1.766 1.481-.883.741-.441.355-.214c.095-.065.165-.135.21-.216.094-.162.089-.407.093-.708l.014-.862.029-1.724.058-3.447.08-3.447.045-1.724.022-.862c.007-.287-.029-.564-.04-.847l.212.12c-.534.237-1.05.561-1.573.851l-1.565.89-3.128 1.783-3.112 1.809-1.556.904c-.254.158-.531.285-.765.47-.238.197-.308.518-.305.814z"/><path d="m75.503 50.92c-.524-.22-1.035-.512-1.53-.793l-1.499-.85-2.997-1.702-2.986-1.721-1.493-.861-.746-.431c-.229-.14-.55-.274-.745-.599-.195-.327-.156-.681-.168-.946l-.017-.861-.022-1.725-.041-3.446-.041-3.446-.021-1.723c-.004-.575-.03-1.141.026-1.745l.036-.387.358.155c.561.243 1.031.555 1.528.847l1.479.883 2.959 1.767 2.959 1.767 1.479.884.736.447c.225.145.546.287.736.615.191.331.143.681.149.948l-.002.861-.005 1.723-.01 3.446-.033 3.446-.017 1.723c-.009.572-.002 1.158-.072 1.724zm0 0c.044-.579.006-1.143-.01-1.721l-.046-1.723-.092-3.446-.068-3.446-.034-1.723-.017-.862c-.006-.299.007-.558-.109-.733-.104-.183-.336-.297-.594-.447l-.746-.431-1.487-.87-2.972-1.745-2.972-1.745-1.486-.872c-.495-.287-.99-.603-1.488-.813l.394-.231c-.058.541-.038 1.126-.038 1.699l.008 1.723.016 3.447.016 3.447.006 1.723-.002.862c0 .3-.018.554.091.734.098.187.33.309.584.464l.737.447 1.473.894 2.946 1.789 2.934 1.809 1.467.905c.492.308.962.614 1.489.865z"/><path d="m63.494 28.787.032-6.702-.008-3.351-.007-1.676c.003-.284-.011-.548.006-.848.011-.295.165-.627.42-.809l5.732-3.505 2.877-1.719 1.439-.859c.476-.29.955-.576 1.478-.825l.377-.179.018.411.039.875-.014.861-.028 1.722-.056 3.444-.075 3.444-.044 1.722-.022.861c-.001.283-.023.624-.201.91-.173.289-.466.456-.71.591l-.748.426-1.497.851-2.994 1.703-5.961 3.453-.007.004v-.008zm0 0 .053.796-.007-.004 5.918-3.527 2.942-1.792 1.471-.896.736-.448c.249-.146.469-.29.59-.507.123-.213.14-.471.133-.756l-.004-.861-.008-1.722-.003-3.445.016-3.445.008-1.722.004-.861-.029-.846.395.232c-.491.225-.974.505-1.456.791l-1.449.842-2.898 1.683-5.807 3.315c-.445.278-.338.899-.371 1.448l-.043 1.675-.079 3.35z"/><path d="m75.321 1.718c.028 2.046.045 4.092.09 6.137l-5.654-3.26-5.073-2.878h-.083l4.961 3.07 5.96 3.627.321.196.002-.382c.012-2.17-.012-4.34-.022-6.51h-.502z"/><path d="m63.901 1.861 5.77 3.225 2.896 1.593 1.45.793c.48.277.976.495 1.437.839l.135.101-.133.11c-.461.38-.967.649-1.464.94l-1.491.869-2.982 1.738-2.997 1.712-1.499.856-.749.428c-.233.127-.529.34-.931.341-.196.001-.382-.059-.536-.135-.154-.08-.259-.143-.389-.218l-.748-.43-1.496-.859-2.993-1.719-2.981-1.739-1.488-.873c-.493-.3-1.002-.553-1.47-.928l-.177-.142.189-.106c1.043-.588 2.099-1.144 3.147-1.717l3.15-1.71 3.135-1.736 1.567-.868c.264-.14.517-.299.79-.424.273-.133.604-.102.858.059zm0 0c-.256-.158-.585-.184-.855-.049-.269.126-.522.289-.783.432l-1.558.886-3.114 1.773-3.099 1.8c-1.03.604-2.072 1.193-3.092 1.809l.011-.248c.441.337.974.585 1.472.868l1.514.828 3.023 1.665 3.012 1.683 1.506.842.753.421.363.204c.102.052.198.081.291.082.187.008.401-.114.663-.262l.754-.419 1.508-.838 3.017-1.675 3.032-1.649 1.516-.824c.505-.275 1.025-.534 1.463-.878l.002.21c-.414-.333-.925-.58-1.39-.868l-1.426-.836-2.855-1.665z"/><path d="m62.282 1.718c-.051.029-.102.058-.151.089l-1.552.903-3.105 1.806-3.12 1.779-1.561.889c-.468.263-.933.542-1.409.772-.025-.083-.047-.158-.05-.218l.009-.418.022-.862.044-1.725.068-3.014h-.47l.005 3.01.008 1.725.004.862.004.444c.021.188.088.314.119.441l.043.177.166-.082c.55-.272 1.047-.598 1.561-.907l1.533-.935 3.067-1.868 3.083-1.841 1.542-.921c.058-.037.117-.072.177-.107h-.037z"/><path d="m51.686 8.946 5.837 3.41 2.931 1.684 1.467.839.734.42c.12.068.259.147.372.264.116.116.196.28.221.44.079 2.293.111 4.517.167 6.779l.046 3.38.023 1.69.012.845.006.422c-.001.143-.035.309-.053.462l-.046.384-.35-.18c-.259-.134-.529-.258-.779-.402l-.737-.442-1.474-.884-2.949-1.767-2.938-1.786-1.466-.897-.733-.449c-.23-.145-.532-.294-.709-.591-.183-.297-.154-.642-.153-.911l.006-.859.012-1.719.024-3.438c.008-2.292-.038-4.584.013-6.876v-.005l.004.002c.169.062.353.092.512.185zm0 0c-.16-.09-.343-.119-.515-.18l.004-.003c-.023 2.291.048 4.583.069 6.875l.08 3.438.04 1.719.02.859c.005.295 0 .558.135.758.127.204.366.323.62.469l.746.426 1.493.853 2.981 1.714 2.97 1.733 1.485.866.742.433.747.388-.396.203c.015-.126.048-.238.052-.375l-.001-.422-.002-.845-.003-1.69-.007-3.38.037-6.739c-.025-.241-.206-.399-.452-.538l-.721-.441-1.441-.883-2.886-1.76z"/><path d="m38.763 28.679.031-6.68-.008-3.34-.007-1.67c.006-.279-.021-.551.021-.853.037-.299.211-.599.45-.783 1.914-1.211 3.806-2.332 5.711-3.502l5.739-3.42.379-.226.028.443c.019.294.047.592.057.884l-.013.863-.029 1.726-.057 3.452-.076 3.452-.044 1.726-.022.863c-.01.275.007.61-.162.915-.17.312-.488.451-.721.587l-.751.426-1.501.852-3.003 1.706-2.989 1.73-1.494.866c-.501.283-.984.599-1.519.82l-.007.003v-.007zm0 0 .024.832-.007-.004c.53-.226 1.01-.548 1.507-.836l1.483-.884 2.965-1.77 2.951-1.795 1.475-.897.738-.449c.253-.154.491-.277.594-.492.112-.211.101-.48.099-.772l-.004-.863-.007-1.727-.002-3.453.017-3.453.008-1.727.005-.863c-.007-.283-.031-.559-.046-.839l.408.217-5.779 3.347c-1.924 1.104-3.897 2.199-5.78 3.309-.205.153-.336.364-.38.618-.044.249-.029.537-.042.814l-.042 1.67-.077 3.338z"/><path d="m50.621 1.718c.028 2.008.045 4.016.09 6.024l-.085-.04c-.127-.061-.255-.122-.383-.189l-.764-.4-1.52-.826-3.02-1.694-3.01-1.713c-.659-.386-1.321-.768-1.975-1.163h-.104c.659.443 1.331.866 2.002 1.29l2.949 1.822 2.984 1.764 1.506.862.762.42c.126.07.258.137.39.203l.201.1.245.095.255.099.002-.311c.012-2.115-.012-4.229-.022-6.344h-.503z"/><path d="m39.377 1.988 5.705 3.187 2.863 1.575c.951.535 1.924 1.015 2.853 1.602l.165.104-.162.109c-.241.163-.478.338-.724.491l-.747.435-1.494.869-2.986 1.74-3.002 1.713-1.501.855-.751.428c-.234.132-.545.335-.937.331-.4-.002-.696-.224-.928-.346l-.749-.43-1.498-.86-2.997-1.721-2.987-1.738-1.49-.875c-.497-.29-.999-.569-1.468-.94l-.183-.145.196-.107 6.373-3.475 3.172-1.763 1.586-.882c.264-.141.522-.32.827-.367.303-.053.606.057.864.21zm0 0c-.259-.15-.563-.256-.863-.199-.301.049-.554.23-.818.375l-1.575.9-3.151 1.8-6.266 3.662.013-.252c.446.335.959.603 1.466.878l1.516.829 3.027 1.669 3.017 1.686 1.509.843.754.422c.266.15.466.286.66.282.197.007.407-.103.666-.252l.756-.419 1.511-.838 3.024-1.674 3.038-1.649 1.519-.824.759-.412c.247-.145.479-.306.719-.458l.003.213c-.895-.605-1.865-1.12-2.796-1.681l-2.823-1.645z"/><path d="m37.496 1.718c-.036.021-.073.041-.108.063l-1.555.903-3.11 1.806-3.125 1.78-1.562.89c-.461.26-.919.531-1.389.761l-.03-.224c-.018-.128-.006-.258-.004-.409l.022-.862.044-1.724.068-2.983h-.47l.004 2.979.007 1.725.004.862c.002.136-.006.295.019.452l.07.425.033.202.18-.089c.547-.272 1.048-.596 1.562-.906l1.536-.935 3.073-1.869 3.088-1.843 1.544-.921c.044-.028.089-.055.135-.082h-.036z"/><path d="m38.384 15.721c.142 4.507.253 9.088.338 13.685l.006.301-.253-.09-.251-.09-.202-.095c-.133-.063-.266-.127-.394-.194l-.77-.402c-.511-.27-1.013-.554-1.517-.835l-3.004-1.715-2.982-1.754c-.991-.598-1.975-1.178-2.95-1.844l-.113-.077-.001-.144-.039-6.91c-.007-2.303-.037-4.607-.024-6.91l.002-.382.32.195 5.959 3.627zm0 0-6.069-3.443-5.983-3.45.324-.186c.055 2.303.067 4.606.101 6.91l.087 6.91-.114-.221c.923.64 1.92 1.24 2.897 1.839l2.963 1.772 2.986 1.734 1.502.847.753.415c.126.07.251.133.377.196l.186.093.152.065-.247.21c.001-4.53.027-9.073.085-13.691z"/><path d="m25.891 1.718c.028 2.044.046 4.089.091 6.133l-5.656-3.261-5.062-2.872h-.083l4.952 3.063 5.96 3.627.32.195.002-.381c.012-2.168-.012-4.336-.022-6.505h-.502z"/><path d="m75.082 79.137-5.771-3.223-2.896-1.592-1.45-.793c-.482-.27-.974-.506-1.434-.841l-.152-.11.152-.103c.241-.163.475-.344.723-.492l.746-.433 1.492-.868 2.983-1.736 2.998-1.709 1.5-.854.75-.427c.233-.127.527-.339.928-.345.196-.001.382.056.537.131.159.081.26.144.392.218l.748.43 1.496.859 2.992 1.718 2.982 1.737 1.489.873c.495.294.998.564 1.473.924l.187.142-.198.108-6.306 3.432-3.139 1.74-1.569.87c-.264.14-.516.302-.792.422-.279.128-.608.082-.861-.078zm0 0c.255.157.582.198.857.069.272-.122.523-.288.785-.431l1.559-.888 3.118-1.777 3.103-1.804 3.097-1.811-.011.25c-.452-.325-.972-.587-1.475-.865l-1.514-.828-3.024-1.665-3.013-1.684-1.507-.842-.753-.421-.361-.202c-.103-.051-.199-.078-.292-.08-.189-.005-.402.117-.664.266l-.755.418-1.509.837-3.019 1.672-3.034 1.646-1.517.823-.758.411c-.251.139-.477.306-.717.458l.001-.213c.422.329.918.588 1.389.871l1.426.835 2.855 1.664z"/><path d="m98.668 92.874-4.81-2.887-2.874-1.753-1.435-.879-.718-.44c-.248-.142-.45-.286-.492-.517-.037-.219-.008-.541-.014-.809l.006-.841.012-1.683.023-3.366-.007-3.365-.004-1.683-.002-.841c.004-.14-.002-.294-.002-.44l.037.018.377.191.759.399 1.51.828 3 1.703 2.987 1.727c.551.324 1.102.651 1.648.983v-.411c-.478-.308-.959-.611-1.441-.914-.977-.611-1.957-1.217-2.951-1.801l-2.986-1.742-1.508-.85-.764-.414c-.126-.069-.258-.135-.394-.198l-.202-.096c-.09-.035-.183-.066-.275-.094l-.257-.078-.054.313c-.058.34-.016.584-.023.875l.012.842.023 1.683.047 3.366.077 3.366.039 1.683.019.841c.018.291-.013.536.047.87.075.345.398.542.629.663l.73.418 1.461.836 2.919 1.677 4.851 2.834z"/><path d="m98.668 78.484-4.756-2.736-2.79-1.628-2.614-1.544c.175-.129.344-.265.544-.367l.759-.413 1.519-.826 3.037-1.652 3.023-1.676 1.278-.71v-.6l-.025.015-1.501.857-3 1.717-2.986 1.741-1.493.871-.747.435c-.252.138-.475.347-.713.517l-.159.114.171.094 5.659 3.12 4.794 2.684z"/></g></svg>